G04 #@! TF.FileFunction,Copper,L2,Bot,Signal*
%FSLAX46Y46*%
G04 Gerber Fmt 4.6, Leading zero omitted, Abs format (unit mm)*
G04 Created by KiCad (PCBNEW 4.0.7) date Fri Feb  9 23:36:38 2018*
%MOMM*%
%LPD*%
G01*
G04 APERTURE LIST*
%ADD10C,0.150000*%
%ADD11C,0.300000*%
%ADD12C,1.600000*%
%ADD13R,1.500000X1.300000*%
%ADD14R,1.700000X1.700000*%
%ADD15O,1.700000X1.700000*%
%ADD16O,1.400000X1.000000*%
%ADD17C,2.000000*%
%ADD18R,1.600000X0.550000*%
%ADD19R,0.550000X1.600000*%
%ADD20C,1.500000*%
%ADD21C,1.200000*%
%ADD22C,0.500000*%
%ADD23C,0.254000*%
G04 APERTURE END LIST*
D10*
D11*
X127042571Y-70298571D02*
X126756857Y-70298571D01*
X126613999Y-70370000D01*
X126471142Y-70512857D01*
X126399714Y-70798571D01*
X126399714Y-71298571D01*
X126471142Y-71584286D01*
X126613999Y-71727143D01*
X126756857Y-71798571D01*
X127042571Y-71798571D01*
X127185428Y-71727143D01*
X127328285Y-71584286D01*
X127399714Y-71298571D01*
X127399714Y-70798571D01*
X127328285Y-70512857D01*
X127185428Y-70370000D01*
X127042571Y-70298571D01*
X125756856Y-70798571D02*
X125756856Y-72298571D01*
X125756856Y-70870000D02*
X125613999Y-70798571D01*
X125328285Y-70798571D01*
X125185428Y-70870000D01*
X125113999Y-70941429D01*
X125042570Y-71084286D01*
X125042570Y-71512857D01*
X125113999Y-71655714D01*
X125185428Y-71727143D01*
X125328285Y-71798571D01*
X125613999Y-71798571D01*
X125756856Y-71727143D01*
X123828285Y-71727143D02*
X123971142Y-71798571D01*
X124256856Y-71798571D01*
X124399713Y-71727143D01*
X124471142Y-71584286D01*
X124471142Y-71012857D01*
X124399713Y-70870000D01*
X124256856Y-70798571D01*
X123971142Y-70798571D01*
X123828285Y-70870000D01*
X123756856Y-71012857D01*
X123756856Y-71155714D01*
X124471142Y-71298571D01*
X123113999Y-71798571D02*
X123113999Y-70798571D01*
X123113999Y-71084286D02*
X123042571Y-70941429D01*
X122971142Y-70870000D01*
X122828285Y-70798571D01*
X122685428Y-70798571D01*
X121542571Y-71798571D02*
X121542571Y-71012857D01*
X121614000Y-70870000D01*
X121756857Y-70798571D01*
X122042571Y-70798571D01*
X122185428Y-70870000D01*
X121542571Y-71727143D02*
X121685428Y-71798571D01*
X122042571Y-71798571D01*
X122185428Y-71727143D01*
X122256857Y-71584286D01*
X122256857Y-71441429D01*
X122185428Y-71298571D01*
X122042571Y-71227143D01*
X121685428Y-71227143D01*
X121542571Y-71155714D01*
X121042571Y-70798571D02*
X120471142Y-70798571D01*
X120828285Y-70298571D02*
X120828285Y-71584286D01*
X120756857Y-71727143D01*
X120613999Y-71798571D01*
X120471142Y-71798571D01*
X119756856Y-71798571D02*
X119899714Y-71727143D01*
X119971142Y-71655714D01*
X120042571Y-71512857D01*
X120042571Y-71084286D01*
X119971142Y-70941429D01*
X119899714Y-70870000D01*
X119756856Y-70798571D01*
X119542571Y-70798571D01*
X119399714Y-70870000D01*
X119328285Y-70941429D01*
X119256856Y-71084286D01*
X119256856Y-71512857D01*
X119328285Y-71655714D01*
X119399714Y-71727143D01*
X119542571Y-71798571D01*
X119756856Y-71798571D01*
X118613999Y-71798571D02*
X118613999Y-70798571D01*
X118613999Y-71084286D02*
X118542571Y-70941429D01*
X118471142Y-70870000D01*
X118328285Y-70798571D01*
X118185428Y-70798571D01*
X116542571Y-71798571D02*
X116542571Y-70298571D01*
X116042571Y-71370000D01*
X115542571Y-70298571D01*
X115542571Y-71798571D01*
X114613999Y-71798571D02*
X114756857Y-71727143D01*
X114828285Y-71655714D01*
X114899714Y-71512857D01*
X114899714Y-71084286D01*
X114828285Y-70941429D01*
X114756857Y-70870000D01*
X114613999Y-70798571D01*
X114399714Y-70798571D01*
X114256857Y-70870000D01*
X114185428Y-70941429D01*
X114113999Y-71084286D01*
X114113999Y-71512857D01*
X114185428Y-71655714D01*
X114256857Y-71727143D01*
X114399714Y-71798571D01*
X114613999Y-71798571D01*
X112828285Y-71798571D02*
X112828285Y-70298571D01*
X112828285Y-71727143D02*
X112971142Y-71798571D01*
X113256856Y-71798571D01*
X113399714Y-71727143D01*
X113471142Y-71655714D01*
X113542571Y-71512857D01*
X113542571Y-71084286D01*
X113471142Y-70941429D01*
X113399714Y-70870000D01*
X113256856Y-70798571D01*
X112971142Y-70798571D01*
X112828285Y-70870000D01*
X111471142Y-70798571D02*
X111471142Y-71798571D01*
X112113999Y-70798571D02*
X112113999Y-71584286D01*
X112042571Y-71727143D01*
X111899713Y-71798571D01*
X111685428Y-71798571D01*
X111542571Y-71727143D01*
X111471142Y-71655714D01*
X110542570Y-71798571D02*
X110685428Y-71727143D01*
X110756856Y-71584286D01*
X110756856Y-70298571D01*
X109399714Y-71727143D02*
X109542571Y-71798571D01*
X109828285Y-71798571D01*
X109971142Y-71727143D01*
X110042571Y-71584286D01*
X110042571Y-71012857D01*
X109971142Y-70870000D01*
X109828285Y-70798571D01*
X109542571Y-70798571D01*
X109399714Y-70870000D01*
X109328285Y-71012857D01*
X109328285Y-71155714D01*
X110042571Y-71298571D01*
X127436143Y-67631571D02*
X126579000Y-67631571D01*
X127007571Y-69131571D02*
X127007571Y-67631571D01*
X125221857Y-69131571D02*
X125721857Y-68417286D01*
X126079000Y-69131571D02*
X126079000Y-67631571D01*
X125507572Y-67631571D01*
X125364714Y-67703000D01*
X125293286Y-67774429D01*
X125221857Y-67917286D01*
X125221857Y-68131571D01*
X125293286Y-68274429D01*
X125364714Y-68345857D01*
X125507572Y-68417286D01*
X126079000Y-68417286D01*
X124293286Y-68417286D02*
X124293286Y-69131571D01*
X124793286Y-67631571D02*
X124293286Y-68417286D01*
X123793286Y-67631571D01*
X123293286Y-69131571D02*
X123293286Y-67631571D01*
X122436143Y-69131571D01*
X122436143Y-67631571D01*
X120864714Y-68988714D02*
X120936143Y-69060143D01*
X121150429Y-69131571D01*
X121293286Y-69131571D01*
X121507571Y-69060143D01*
X121650429Y-68917286D01*
X121721857Y-68774429D01*
X121793286Y-68488714D01*
X121793286Y-68274429D01*
X121721857Y-67988714D01*
X121650429Y-67845857D01*
X121507571Y-67703000D01*
X121293286Y-67631571D01*
X121150429Y-67631571D01*
X120936143Y-67703000D01*
X120864714Y-67774429D01*
D12*
X104521000Y-64262000D03*
X99521000Y-64262000D03*
X89662000Y-38608000D03*
X89662000Y-41108000D03*
X94488000Y-38608000D03*
X94488000Y-41108000D03*
D13*
X122508000Y-55753000D03*
X119808000Y-55753000D03*
X122508000Y-59182000D03*
X119808000Y-59182000D03*
X122508000Y-62484000D03*
X119808000Y-62484000D03*
D14*
X104394000Y-67564000D03*
D15*
X106934000Y-67564000D03*
X109474000Y-67564000D03*
X112014000Y-67564000D03*
D14*
X89408000Y-62484000D03*
D15*
X89408000Y-59944000D03*
X89408000Y-57404000D03*
X89408000Y-54864000D03*
X89408000Y-52324000D03*
D14*
X126619000Y-38227000D03*
D15*
X126619000Y-40767000D03*
D14*
X126619000Y-45593000D03*
D15*
X126619000Y-48133000D03*
D14*
X126619000Y-52959000D03*
D15*
X126619000Y-55499000D03*
D16*
X120523000Y-38608000D03*
X121793000Y-37338000D03*
X121793000Y-39878000D03*
X120523000Y-44704000D03*
X121793000Y-43434000D03*
X121793000Y-45974000D03*
X120650000Y-50673000D03*
X121920000Y-49403000D03*
X121920000Y-51943000D03*
D13*
X94027000Y-61849000D03*
X96727000Y-61849000D03*
X115396000Y-62484000D03*
X112696000Y-62484000D03*
X115396000Y-59182000D03*
X112696000Y-59182000D03*
X115396000Y-55880000D03*
X112696000Y-55880000D03*
X112348000Y-38989000D03*
X109648000Y-38989000D03*
X112348000Y-42418000D03*
X109648000Y-42418000D03*
X112221000Y-45720000D03*
X109521000Y-45720000D03*
D17*
X97028000Y-69414000D03*
X97028000Y-73914000D03*
X90528000Y-69414000D03*
X90528000Y-73914000D03*
D18*
X100663905Y-56357000D03*
X100663905Y-55557000D03*
X100663905Y-54757000D03*
X100663905Y-53957000D03*
X100663905Y-53157000D03*
X100663905Y-52357000D03*
X100663905Y-51557000D03*
X100663905Y-50757000D03*
D19*
X102113905Y-49307000D03*
X102913905Y-49307000D03*
X103713905Y-49307000D03*
X104513905Y-49307000D03*
X105313905Y-49307000D03*
X106113905Y-49307000D03*
X106913905Y-49307000D03*
X107713905Y-49307000D03*
D18*
X109163905Y-50757000D03*
X109163905Y-51557000D03*
X109163905Y-52357000D03*
X109163905Y-53157000D03*
X109163905Y-53957000D03*
X109163905Y-54757000D03*
X109163905Y-55557000D03*
X109163905Y-56357000D03*
D19*
X107713905Y-57807000D03*
X106913905Y-57807000D03*
X106113905Y-57807000D03*
X105313905Y-57807000D03*
X104513905Y-57807000D03*
X103713905Y-57807000D03*
X102913905Y-57807000D03*
X102113905Y-57807000D03*
D20*
X90678000Y-45466000D03*
X94478000Y-45466000D03*
D21*
X96139000Y-54737000D03*
X98298000Y-46355000D03*
X91821000Y-52451000D03*
X91948000Y-61722000D03*
D22*
X96727000Y-61849000D02*
X100330000Y-61849000D01*
X100330000Y-61849000D02*
X102743000Y-64262000D01*
X97028000Y-69414000D02*
X98861000Y-69414000D01*
X102235000Y-64262000D02*
X102743000Y-64262000D01*
X102743000Y-64262000D02*
X104521000Y-64262000D01*
X102235000Y-66040000D02*
X102235000Y-64262000D01*
X98861000Y-69414000D02*
X102235000Y-66040000D01*
X97028000Y-69414000D02*
X90528000Y-69414000D01*
X104521000Y-64262000D02*
X104521000Y-57814095D01*
X104521000Y-57814095D02*
X104513905Y-57807000D01*
X89408000Y-62484000D02*
X89408000Y-63500000D01*
X90170000Y-64262000D02*
X99521000Y-64262000D01*
X89408000Y-63500000D02*
X90170000Y-64262000D01*
X94488000Y-38608000D02*
X98425000Y-38608000D01*
X96159000Y-54757000D02*
X100663905Y-54757000D01*
X96139000Y-54737000D02*
X96159000Y-54757000D01*
X98298000Y-38735000D02*
X98298000Y-46355000D01*
X98425000Y-38608000D02*
X98298000Y-38735000D01*
X89662000Y-38608000D02*
X86614000Y-38608000D01*
X86233000Y-38989000D02*
X86233000Y-59944000D01*
X86614000Y-38608000D02*
X86233000Y-38989000D01*
X89662000Y-38608000D02*
X94488000Y-38608000D01*
X128651000Y-54864000D02*
X128651000Y-73660000D01*
X128397000Y-73914000D02*
X97028000Y-73914000D01*
X128651000Y-73660000D02*
X128397000Y-73914000D01*
X100663905Y-54757000D02*
X103485000Y-54757000D01*
X103485000Y-54757000D02*
X103759000Y-54483000D01*
X103759000Y-54483000D02*
X103759000Y-53157000D01*
X100663905Y-53157000D02*
X103759000Y-53157000D01*
X103759000Y-53157000D02*
X105735000Y-53157000D01*
X106535000Y-53957000D02*
X109163905Y-53957000D01*
X105735000Y-53157000D02*
X106535000Y-53957000D01*
X90528000Y-73914000D02*
X86233000Y-73914000D01*
X86233000Y-73914000D02*
X86106000Y-73787000D01*
X86106000Y-73787000D02*
X86106000Y-59817000D01*
X86106000Y-59817000D02*
X86233000Y-59944000D01*
X86233000Y-59944000D02*
X89408000Y-59944000D01*
X104394000Y-67564000D02*
X102743000Y-67564000D01*
X102743000Y-67564000D02*
X99187000Y-71120000D01*
X99187000Y-71120000D02*
X99187000Y-71755000D01*
X99187000Y-71755000D02*
X97028000Y-73914000D01*
X97028000Y-73914000D02*
X90528000Y-73914000D01*
X122283000Y-53957000D02*
X122174000Y-53848000D01*
X126619000Y-40767000D02*
X128524000Y-40767000D01*
X128524000Y-40767000D02*
X128524000Y-48133000D01*
X126619000Y-40767000D02*
X122682000Y-40767000D01*
X122682000Y-40767000D02*
X121793000Y-39878000D01*
X126619000Y-48133000D02*
X128524000Y-48133000D01*
X128016000Y-55499000D02*
X126619000Y-55499000D01*
X128524000Y-48133000D02*
X128651000Y-48260000D01*
X128651000Y-48260000D02*
X128651000Y-54864000D01*
X128651000Y-54864000D02*
X128016000Y-55499000D01*
X126619000Y-48133000D02*
X123190000Y-48133000D01*
X121793000Y-46736000D02*
X121793000Y-45974000D01*
X123190000Y-48133000D02*
X121793000Y-46736000D01*
X121920000Y-51943000D02*
X121920000Y-53594000D01*
X122508000Y-54182000D02*
X122508000Y-55753000D01*
X121920000Y-53594000D02*
X122174000Y-53848000D01*
X122174000Y-53848000D02*
X122508000Y-54182000D01*
X122508000Y-59182000D02*
X122508000Y-62484000D01*
X122508000Y-55753000D02*
X122508000Y-59182000D01*
X122508000Y-55753000D02*
X126365000Y-55753000D01*
X126365000Y-55753000D02*
X126619000Y-55499000D01*
X90678000Y-45466000D02*
X90678000Y-42124000D01*
X90678000Y-42124000D02*
X89662000Y-41108000D01*
X90678000Y-45466000D02*
X90678000Y-48006000D01*
X94229000Y-51557000D02*
X100663905Y-51557000D01*
X90678000Y-48006000D02*
X94229000Y-51557000D01*
X94488000Y-41108000D02*
X94488000Y-40640000D01*
X94488000Y-40640000D02*
X94742000Y-40386000D01*
X94742000Y-40386000D02*
X94488000Y-41108000D01*
X94488000Y-41108000D02*
X94488000Y-45456000D01*
X94488000Y-45456000D02*
X94478000Y-45466000D01*
X100663905Y-50757000D02*
X99769000Y-50757000D01*
X99769000Y-50757000D02*
X94478000Y-45466000D01*
X115396000Y-55880000D02*
X119681000Y-55880000D01*
X119681000Y-55880000D02*
X119808000Y-55753000D01*
X115396000Y-59182000D02*
X119808000Y-59182000D01*
X115396000Y-62484000D02*
X119808000Y-62484000D01*
X105313905Y-57807000D02*
X105313905Y-59974905D01*
X106934000Y-61595000D02*
X106934000Y-67564000D01*
X105313905Y-59974905D02*
X106934000Y-61595000D01*
X106113905Y-57807000D02*
X106113905Y-59377905D01*
X109474000Y-62738000D02*
X109474000Y-67564000D01*
X106113905Y-59377905D02*
X109474000Y-62738000D01*
X100663905Y-53957000D02*
X98534000Y-53957000D01*
X97663000Y-53086000D02*
X97663000Y-52451000D01*
X98534000Y-53957000D02*
X97663000Y-53086000D01*
X109163905Y-51557000D02*
X111501000Y-51557000D01*
X111501000Y-51557000D02*
X111506000Y-51562000D01*
X112014000Y-67564000D02*
X112522000Y-67564000D01*
X112522000Y-67564000D02*
X114173000Y-65913000D01*
X111887000Y-51562000D02*
X111506000Y-51562000D01*
X114173000Y-53848000D02*
X111887000Y-51562000D01*
X114173000Y-65913000D02*
X114173000Y-53848000D01*
X111506000Y-51562000D02*
X110109000Y-51562000D01*
X100663905Y-52357000D02*
X105377000Y-52357000D01*
X106177000Y-51557000D02*
X109163905Y-51557000D01*
X105377000Y-52357000D02*
X106177000Y-51557000D01*
X91821000Y-52451000D02*
X97663000Y-52451000D01*
X97757000Y-52357000D02*
X100663905Y-52357000D01*
X97663000Y-52451000D02*
X97757000Y-52357000D01*
X94027000Y-61849000D02*
X92075000Y-61849000D01*
X91694000Y-52324000D02*
X89408000Y-52324000D01*
X91821000Y-52451000D02*
X91694000Y-52324000D01*
X92075000Y-61849000D02*
X91948000Y-61722000D01*
X103713905Y-57807000D02*
X103713905Y-60624095D01*
X90805000Y-57404000D02*
X89408000Y-57404000D01*
X92583000Y-59182000D02*
X90805000Y-57404000D01*
X97155000Y-59182000D02*
X92583000Y-59182000D01*
X98679000Y-60706000D02*
X97155000Y-59182000D01*
X103632000Y-60706000D02*
X98679000Y-60706000D01*
X103713905Y-60624095D02*
X103632000Y-60706000D01*
X102913905Y-57807000D02*
X102913905Y-59646095D01*
X91186000Y-54864000D02*
X89408000Y-54864000D01*
X94361000Y-58039000D02*
X91186000Y-54864000D01*
X97409000Y-58039000D02*
X94361000Y-58039000D01*
X99187000Y-59817000D02*
X97409000Y-58039000D01*
X102743000Y-59817000D02*
X99187000Y-59817000D01*
X102913905Y-59646095D02*
X102743000Y-59817000D01*
X126619000Y-38227000D02*
X123952000Y-38227000D01*
X123571000Y-38608000D02*
X120523000Y-38608000D01*
X123952000Y-38227000D02*
X123571000Y-38608000D01*
X126619000Y-45593000D02*
X124841000Y-45593000D01*
X123952000Y-44704000D02*
X120523000Y-44704000D01*
X124841000Y-45593000D02*
X123952000Y-44704000D01*
X126619000Y-52959000D02*
X126619000Y-50673000D01*
X126619000Y-50673000D02*
X120650000Y-50673000D01*
X121793000Y-37338000D02*
X113999000Y-37338000D01*
X113999000Y-37338000D02*
X112348000Y-38989000D01*
X121793000Y-43434000D02*
X121031000Y-43434000D01*
X120015000Y-42418000D02*
X112348000Y-42418000D01*
X121031000Y-43434000D02*
X120015000Y-42418000D01*
X121920000Y-49403000D02*
X119126000Y-49403000D01*
X115443000Y-45720000D02*
X112221000Y-45720000D01*
X119126000Y-49403000D02*
X115443000Y-45720000D01*
X107713905Y-57807000D02*
X107713905Y-59707905D01*
X111553000Y-61341000D02*
X112696000Y-62484000D01*
X111506000Y-61341000D02*
X111553000Y-61341000D01*
X109855000Y-59690000D02*
X111506000Y-61341000D01*
X107731810Y-59690000D02*
X109855000Y-59690000D01*
X107713905Y-59707905D02*
X107731810Y-59690000D01*
X109163905Y-56357000D02*
X110459000Y-56357000D01*
X111506000Y-57992000D02*
X112696000Y-59182000D01*
X111506000Y-57404000D02*
X111506000Y-57992000D01*
X110459000Y-56357000D02*
X111506000Y-57404000D01*
X112696000Y-55880000D02*
X111125000Y-55880000D01*
X110802000Y-55557000D02*
X109163905Y-55557000D01*
X111125000Y-55880000D02*
X110802000Y-55557000D01*
X104513905Y-49307000D02*
X104513905Y-45092095D01*
X106553000Y-42084000D02*
X109648000Y-38989000D01*
X106553000Y-43053000D02*
X106553000Y-42084000D01*
X104513905Y-45092095D02*
X106553000Y-43053000D01*
X105313905Y-49307000D02*
X105313905Y-46070095D01*
X108204000Y-42418000D02*
X109648000Y-42418000D01*
X108077000Y-42291000D02*
X108204000Y-42418000D01*
X108077000Y-43942000D02*
X108077000Y-42291000D01*
X107569000Y-44450000D02*
X108077000Y-43942000D01*
X106934000Y-44450000D02*
X107569000Y-44450000D01*
X105313905Y-46070095D02*
X106934000Y-44450000D01*
X106113905Y-49307000D02*
X106113905Y-46540095D01*
X106934000Y-45720000D02*
X109521000Y-45720000D01*
X106113905Y-46540095D02*
X106934000Y-45720000D01*
D23*
G36*
X130175000Y-35051643D02*
X130175000Y-76199643D01*
X85217000Y-76073357D01*
X85217000Y-75066532D01*
X89555073Y-75066532D01*
X89653736Y-75333387D01*
X90263461Y-75559908D01*
X90913460Y-75535856D01*
X91402264Y-75333387D01*
X91500927Y-75066532D01*
X96055073Y-75066532D01*
X96153736Y-75333387D01*
X96763461Y-75559908D01*
X97413460Y-75535856D01*
X97902264Y-75333387D01*
X98000927Y-75066532D01*
X97028000Y-74093605D01*
X96055073Y-75066532D01*
X91500927Y-75066532D01*
X90528000Y-74093605D01*
X89555073Y-75066532D01*
X85217000Y-75066532D01*
X85217000Y-73649461D01*
X88882092Y-73649461D01*
X88906144Y-74299460D01*
X89108613Y-74788264D01*
X89375468Y-74886927D01*
X90348395Y-73914000D01*
X90707605Y-73914000D01*
X91680532Y-74886927D01*
X91947387Y-74788264D01*
X92173908Y-74178539D01*
X92154331Y-73649461D01*
X95382092Y-73649461D01*
X95406144Y-74299460D01*
X95608613Y-74788264D01*
X95875468Y-74886927D01*
X96848395Y-73914000D01*
X97207605Y-73914000D01*
X98180532Y-74886927D01*
X98447387Y-74788264D01*
X98673908Y-74178539D01*
X98649856Y-73528540D01*
X98447387Y-73039736D01*
X98180532Y-72941073D01*
X97207605Y-73914000D01*
X96848395Y-73914000D01*
X95875468Y-72941073D01*
X95608613Y-73039736D01*
X95382092Y-73649461D01*
X92154331Y-73649461D01*
X92149856Y-73528540D01*
X91947387Y-73039736D01*
X91680532Y-72941073D01*
X90707605Y-73914000D01*
X90348395Y-73914000D01*
X89375468Y-72941073D01*
X89108613Y-73039736D01*
X88882092Y-73649461D01*
X85217000Y-73649461D01*
X85217000Y-72761468D01*
X89555073Y-72761468D01*
X90528000Y-73734395D01*
X91500927Y-72761468D01*
X96055073Y-72761468D01*
X97028000Y-73734395D01*
X98000927Y-72761468D01*
X97902264Y-72494613D01*
X97292539Y-72268092D01*
X96642540Y-72292144D01*
X96153736Y-72494613D01*
X96055073Y-72761468D01*
X91500927Y-72761468D01*
X91402264Y-72494613D01*
X90792539Y-72268092D01*
X90142540Y-72292144D01*
X89653736Y-72494613D01*
X89555073Y-72761468D01*
X85217000Y-72761468D01*
X85217000Y-52324000D01*
X87893907Y-52324000D01*
X88006946Y-52892285D01*
X88328853Y-53374054D01*
X88658026Y-53594000D01*
X88328853Y-53813946D01*
X88006946Y-54295715D01*
X87893907Y-54864000D01*
X88006946Y-55432285D01*
X88328853Y-55914054D01*
X88658026Y-56134000D01*
X88328853Y-56353946D01*
X88006946Y-56835715D01*
X87893907Y-57404000D01*
X88006946Y-57972285D01*
X88328853Y-58454054D01*
X88669553Y-58681702D01*
X88526642Y-58748817D01*
X88136355Y-59177076D01*
X87966524Y-59587110D01*
X88087845Y-59817000D01*
X89281000Y-59817000D01*
X89281000Y-59797000D01*
X89535000Y-59797000D01*
X89535000Y-59817000D01*
X90728155Y-59817000D01*
X90849476Y-59587110D01*
X90679645Y-59177076D01*
X90289358Y-58748817D01*
X90146447Y-58681702D01*
X90487147Y-58454054D01*
X90533741Y-58384321D01*
X91957208Y-59807787D01*
X91957210Y-59807790D01*
X92244325Y-59999633D01*
X92300516Y-60010810D01*
X92583000Y-60067001D01*
X92583005Y-60067000D01*
X96788420Y-60067000D01*
X97272980Y-60551560D01*
X95977000Y-60551560D01*
X95741683Y-60595838D01*
X95525559Y-60734910D01*
X95380569Y-60947110D01*
X95377919Y-60960197D01*
X95241090Y-60747559D01*
X95028890Y-60602569D01*
X94777000Y-60551560D01*
X93277000Y-60551560D01*
X93041683Y-60595838D01*
X92825559Y-60734910D01*
X92777653Y-60805023D01*
X92648485Y-60675629D01*
X92194734Y-60487215D01*
X91703421Y-60486786D01*
X91249343Y-60674408D01*
X90901629Y-61021515D01*
X90790569Y-61288978D01*
X90722090Y-61182559D01*
X90509890Y-61037569D01*
X90401893Y-61015699D01*
X90679645Y-60710924D01*
X90849476Y-60300890D01*
X90728155Y-60071000D01*
X89535000Y-60071000D01*
X89535000Y-60091000D01*
X89281000Y-60091000D01*
X89281000Y-60071000D01*
X88087845Y-60071000D01*
X87966524Y-60300890D01*
X88136355Y-60710924D01*
X88412501Y-61013937D01*
X88322683Y-61030838D01*
X88106559Y-61169910D01*
X87961569Y-61382110D01*
X87910560Y-61634000D01*
X87910560Y-63334000D01*
X87954838Y-63569317D01*
X88093910Y-63785441D01*
X88306110Y-63930431D01*
X88558000Y-63981440D01*
X88685759Y-63981440D01*
X88782210Y-64125790D01*
X89544208Y-64887787D01*
X89544210Y-64887790D01*
X89831325Y-65079633D01*
X89887516Y-65090810D01*
X90170000Y-65147001D01*
X90170005Y-65147000D01*
X98376829Y-65147000D01*
X98707077Y-65477824D01*
X99234309Y-65696750D01*
X99805187Y-65697248D01*
X100332800Y-65479243D01*
X100736824Y-65075923D01*
X100955750Y-64548691D01*
X100956248Y-63977813D01*
X100779521Y-63550101D01*
X101373463Y-64144043D01*
X101350000Y-64262000D01*
X101350000Y-65673421D01*
X98494420Y-68529000D01*
X98431398Y-68529000D01*
X98414894Y-68489057D01*
X97955363Y-68028722D01*
X97354648Y-67779284D01*
X96704205Y-67778716D01*
X96103057Y-68027106D01*
X95642722Y-68486637D01*
X95625131Y-68529000D01*
X91931398Y-68529000D01*
X91914894Y-68489057D01*
X91455363Y-68028722D01*
X90854648Y-67779284D01*
X90204205Y-67778716D01*
X89603057Y-68027106D01*
X89142722Y-68486637D01*
X88893284Y-69087352D01*
X88892716Y-69737795D01*
X89141106Y-70338943D01*
X89600637Y-70799278D01*
X90201352Y-71048716D01*
X90851795Y-71049284D01*
X91452943Y-70800894D01*
X91913278Y-70341363D01*
X91930869Y-70299000D01*
X95624602Y-70299000D01*
X95641106Y-70338943D01*
X96100637Y-70799278D01*
X96701352Y-71048716D01*
X97351795Y-71049284D01*
X97952943Y-70800894D01*
X98413278Y-70341363D01*
X98430869Y-70299000D01*
X98860995Y-70299000D01*
X98861000Y-70299001D01*
X99143484Y-70242810D01*
X99199675Y-70231633D01*
X99486790Y-70039790D01*
X100241579Y-69285000D01*
X108407572Y-69285000D01*
X108407572Y-73105000D01*
X128320429Y-73105000D01*
X128320429Y-69285000D01*
X128214000Y-69285000D01*
X128214000Y-66618000D01*
X119944000Y-66618000D01*
X119944000Y-69285000D01*
X108407572Y-69285000D01*
X100241579Y-69285000D01*
X101676829Y-67849750D01*
X102909000Y-67849750D01*
X102909000Y-68540309D01*
X103005673Y-68773698D01*
X103184301Y-68952327D01*
X103417690Y-69049000D01*
X104108250Y-69049000D01*
X104267000Y-68890250D01*
X104267000Y-67691000D01*
X103067750Y-67691000D01*
X102909000Y-67849750D01*
X101676829Y-67849750D01*
X102860787Y-66665792D01*
X102860790Y-66665790D01*
X102909000Y-66593638D01*
X102909000Y-67278250D01*
X103067750Y-67437000D01*
X104267000Y-67437000D01*
X104267000Y-66237750D01*
X104108250Y-66079000D01*
X103417690Y-66079000D01*
X103184301Y-66175673D01*
X103070346Y-66289628D01*
X103120001Y-66040000D01*
X103120000Y-66039995D01*
X103120000Y-65147000D01*
X103376829Y-65147000D01*
X103707077Y-65477824D01*
X104234309Y-65696750D01*
X104805187Y-65697248D01*
X105332800Y-65479243D01*
X105736824Y-65075923D01*
X105955750Y-64548691D01*
X105956248Y-63977813D01*
X105738243Y-63450200D01*
X105406000Y-63117377D01*
X105406000Y-61318580D01*
X106049000Y-61961579D01*
X106049000Y-66374568D01*
X105883946Y-66484853D01*
X105854597Y-66528777D01*
X105782327Y-66354302D01*
X105603699Y-66175673D01*
X105370310Y-66079000D01*
X104679750Y-66079000D01*
X104521000Y-66237750D01*
X104521000Y-67437000D01*
X104541000Y-67437000D01*
X104541000Y-67691000D01*
X104521000Y-67691000D01*
X104521000Y-68890250D01*
X104679750Y-69049000D01*
X105370310Y-69049000D01*
X105603699Y-68952327D01*
X105782327Y-68773698D01*
X105854597Y-68599223D01*
X105883946Y-68643147D01*
X106365715Y-68965054D01*
X106934000Y-69078093D01*
X107502285Y-68965054D01*
X107984054Y-68643147D01*
X108204000Y-68313974D01*
X108423946Y-68643147D01*
X108905715Y-68965054D01*
X109474000Y-69078093D01*
X110042285Y-68965054D01*
X110524054Y-68643147D01*
X110744000Y-68313974D01*
X110963946Y-68643147D01*
X111445715Y-68965054D01*
X112014000Y-69078093D01*
X112582285Y-68965054D01*
X113064054Y-68643147D01*
X113385961Y-68161378D01*
X113438045Y-67899535D01*
X114798787Y-66538792D01*
X114798790Y-66538790D01*
X114990633Y-66251675D01*
X114990634Y-66251674D01*
X115058001Y-65913000D01*
X115058000Y-65912995D01*
X115058000Y-63781440D01*
X116146000Y-63781440D01*
X116381317Y-63737162D01*
X116597441Y-63598090D01*
X116742431Y-63385890D01*
X116745851Y-63369000D01*
X118454778Y-63369000D01*
X118454838Y-63369317D01*
X118593910Y-63585441D01*
X118806110Y-63730431D01*
X119058000Y-63781440D01*
X120558000Y-63781440D01*
X120793317Y-63737162D01*
X121009441Y-63598090D01*
X121154431Y-63385890D01*
X121161191Y-63352510D01*
X121219673Y-63493699D01*
X121398302Y-63672327D01*
X121631691Y-63769000D01*
X122222250Y-63769000D01*
X122381000Y-63610250D01*
X122381000Y-62611000D01*
X122635000Y-62611000D01*
X122635000Y-63610250D01*
X122793750Y-63769000D01*
X123384309Y-63769000D01*
X123617698Y-63672327D01*
X123796327Y-63493699D01*
X123893000Y-63260310D01*
X123893000Y-62769750D01*
X123734250Y-62611000D01*
X122635000Y-62611000D01*
X122381000Y-62611000D01*
X122361000Y-62611000D01*
X122361000Y-62357000D01*
X122381000Y-62357000D01*
X122381000Y-61357750D01*
X122635000Y-61357750D01*
X122635000Y-62357000D01*
X123734250Y-62357000D01*
X123893000Y-62198250D01*
X123893000Y-61707690D01*
X123796327Y-61474301D01*
X123617698Y-61295673D01*
X123384309Y-61199000D01*
X122793750Y-61199000D01*
X122635000Y-61357750D01*
X122381000Y-61357750D01*
X122222250Y-61199000D01*
X121631691Y-61199000D01*
X121398302Y-61295673D01*
X121219673Y-61474301D01*
X121163346Y-61610287D01*
X121161162Y-61598683D01*
X121022090Y-61382559D01*
X120809890Y-61237569D01*
X120558000Y-61186560D01*
X119058000Y-61186560D01*
X118822683Y-61230838D01*
X118606559Y-61369910D01*
X118461569Y-61582110D01*
X118458149Y-61599000D01*
X116749222Y-61599000D01*
X116749162Y-61598683D01*
X116610090Y-61382559D01*
X116397890Y-61237569D01*
X116146000Y-61186560D01*
X115058000Y-61186560D01*
X115058000Y-60479440D01*
X116146000Y-60479440D01*
X116381317Y-60435162D01*
X116597441Y-60296090D01*
X116742431Y-60083890D01*
X116745851Y-60067000D01*
X118454778Y-60067000D01*
X118454838Y-60067317D01*
X118593910Y-60283441D01*
X118806110Y-60428431D01*
X119058000Y-60479440D01*
X120558000Y-60479440D01*
X120793317Y-60435162D01*
X121009441Y-60296090D01*
X121154431Y-60083890D01*
X121161191Y-60050510D01*
X121219673Y-60191699D01*
X121398302Y-60370327D01*
X121631691Y-60467000D01*
X122222250Y-60467000D01*
X122381000Y-60308250D01*
X122381000Y-59309000D01*
X122635000Y-59309000D01*
X122635000Y-60308250D01*
X122793750Y-60467000D01*
X123384309Y-60467000D01*
X123617698Y-60370327D01*
X123796327Y-60191699D01*
X123893000Y-59958310D01*
X123893000Y-59467750D01*
X123734250Y-59309000D01*
X122635000Y-59309000D01*
X122381000Y-59309000D01*
X122361000Y-59309000D01*
X122361000Y-59055000D01*
X122381000Y-59055000D01*
X122381000Y-58055750D01*
X122635000Y-58055750D01*
X122635000Y-59055000D01*
X123734250Y-59055000D01*
X123893000Y-58896250D01*
X123893000Y-58405690D01*
X123796327Y-58172301D01*
X123617698Y-57993673D01*
X123384309Y-57897000D01*
X122793750Y-57897000D01*
X122635000Y-58055750D01*
X122381000Y-58055750D01*
X122222250Y-57897000D01*
X121631691Y-57897000D01*
X121398302Y-57993673D01*
X121219673Y-58172301D01*
X121163346Y-58308287D01*
X121161162Y-58296683D01*
X121022090Y-58080559D01*
X120809890Y-57935569D01*
X120558000Y-57884560D01*
X119058000Y-57884560D01*
X118822683Y-57928838D01*
X118606559Y-58067910D01*
X118461569Y-58280110D01*
X118458149Y-58297000D01*
X116749222Y-58297000D01*
X116749162Y-58296683D01*
X116610090Y-58080559D01*
X116397890Y-57935569D01*
X116146000Y-57884560D01*
X115058000Y-57884560D01*
X115058000Y-57177440D01*
X116146000Y-57177440D01*
X116381317Y-57133162D01*
X116597441Y-56994090D01*
X116742431Y-56781890D01*
X116745851Y-56765000D01*
X118536356Y-56765000D01*
X118593910Y-56854441D01*
X118806110Y-56999431D01*
X119058000Y-57050440D01*
X120558000Y-57050440D01*
X120793317Y-57006162D01*
X121009441Y-56867090D01*
X121154431Y-56654890D01*
X121161191Y-56621510D01*
X121219673Y-56762699D01*
X121398302Y-56941327D01*
X121631691Y-57038000D01*
X122222250Y-57038000D01*
X122381000Y-56879250D01*
X122381000Y-55880000D01*
X122635000Y-55880000D01*
X122635000Y-56879250D01*
X122793750Y-57038000D01*
X123384309Y-57038000D01*
X123617698Y-56941327D01*
X123796327Y-56762699D01*
X123893000Y-56529310D01*
X123893000Y-56038750D01*
X123734250Y-55880000D01*
X122635000Y-55880000D01*
X122381000Y-55880000D01*
X122361000Y-55880000D01*
X122361000Y-55855890D01*
X125177524Y-55855890D01*
X125347355Y-56265924D01*
X125737642Y-56694183D01*
X126262108Y-56940486D01*
X126492000Y-56819819D01*
X126492000Y-55626000D01*
X126746000Y-55626000D01*
X126746000Y-56819819D01*
X126975892Y-56940486D01*
X127500358Y-56694183D01*
X127890645Y-56265924D01*
X128060476Y-55855890D01*
X127939155Y-55626000D01*
X126746000Y-55626000D01*
X126492000Y-55626000D01*
X125298845Y-55626000D01*
X125177524Y-55855890D01*
X122361000Y-55855890D01*
X122361000Y-55626000D01*
X122381000Y-55626000D01*
X122381000Y-54626750D01*
X122635000Y-54626750D01*
X122635000Y-55626000D01*
X123734250Y-55626000D01*
X123893000Y-55467250D01*
X123893000Y-54976690D01*
X123796327Y-54743301D01*
X123617698Y-54564673D01*
X123384309Y-54468000D01*
X122793750Y-54468000D01*
X122635000Y-54626750D01*
X122381000Y-54626750D01*
X122222250Y-54468000D01*
X121631691Y-54468000D01*
X121398302Y-54564673D01*
X121219673Y-54743301D01*
X121163346Y-54879287D01*
X121161162Y-54867683D01*
X121022090Y-54651559D01*
X120809890Y-54506569D01*
X120558000Y-54455560D01*
X119058000Y-54455560D01*
X118822683Y-54499838D01*
X118606559Y-54638910D01*
X118461569Y-54851110D01*
X118432431Y-54995000D01*
X116749222Y-54995000D01*
X116749162Y-54994683D01*
X116610090Y-54778559D01*
X116397890Y-54633569D01*
X116146000Y-54582560D01*
X115058000Y-54582560D01*
X115058000Y-53848005D01*
X115058001Y-53848000D01*
X114990633Y-53509325D01*
X114938966Y-53432000D01*
X114798790Y-53222210D01*
X114798787Y-53222208D01*
X113821454Y-52244874D01*
X120625881Y-52244874D01*
X120629444Y-52279893D01*
X120841381Y-52671586D01*
X121187080Y-52952359D01*
X121613911Y-53079466D01*
X121793000Y-52923320D01*
X121793000Y-52070000D01*
X122047000Y-52070000D01*
X122047000Y-52923320D01*
X122226089Y-53079466D01*
X122652920Y-52952359D01*
X122998619Y-52671586D01*
X123210556Y-52279893D01*
X123214119Y-52244874D01*
X123087954Y-52070000D01*
X122047000Y-52070000D01*
X121793000Y-52070000D01*
X120752046Y-52070000D01*
X120625881Y-52244874D01*
X113821454Y-52244874D01*
X112512790Y-50936210D01*
X112354671Y-50830559D01*
X112225675Y-50744367D01*
X112169484Y-50733190D01*
X111887000Y-50676999D01*
X111886995Y-50677000D01*
X111526141Y-50677000D01*
X111501000Y-50671999D01*
X111500995Y-50672000D01*
X110611345Y-50672000D01*
X110611345Y-50482000D01*
X110567067Y-50246683D01*
X110427995Y-50030559D01*
X110215795Y-49885569D01*
X109963905Y-49834560D01*
X108636345Y-49834560D01*
X108636345Y-48507000D01*
X108592067Y-48271683D01*
X108452995Y-48055559D01*
X108240795Y-47910569D01*
X107988905Y-47859560D01*
X107438905Y-47859560D01*
X107309316Y-47883944D01*
X107188905Y-47859560D01*
X106998905Y-47859560D01*
X106998905Y-46906675D01*
X107300579Y-46605000D01*
X108167778Y-46605000D01*
X108167838Y-46605317D01*
X108306910Y-46821441D01*
X108519110Y-46966431D01*
X108771000Y-47017440D01*
X110271000Y-47017440D01*
X110506317Y-46973162D01*
X110722441Y-46834090D01*
X110867431Y-46621890D01*
X110870081Y-46608803D01*
X111006910Y-46821441D01*
X111219110Y-46966431D01*
X111471000Y-47017440D01*
X112971000Y-47017440D01*
X113206317Y-46973162D01*
X113422441Y-46834090D01*
X113567431Y-46621890D01*
X113570851Y-46605000D01*
X115076420Y-46605000D01*
X118500208Y-50028787D01*
X118500210Y-50028790D01*
X118643650Y-50124633D01*
X118787326Y-50220634D01*
X119126000Y-50288001D01*
X119126005Y-50288000D01*
X119365427Y-50288000D01*
X119288846Y-50673000D01*
X119375243Y-51107346D01*
X119621280Y-51475566D01*
X119989500Y-51721603D01*
X120423846Y-51808000D01*
X120746274Y-51808000D01*
X120752046Y-51816000D01*
X121793000Y-51816000D01*
X121793000Y-51796000D01*
X122047000Y-51796000D01*
X122047000Y-51816000D01*
X123087954Y-51816000D01*
X123214119Y-51641126D01*
X123210556Y-51606107D01*
X123184526Y-51558000D01*
X125452621Y-51558000D01*
X125317559Y-51644910D01*
X125172569Y-51857110D01*
X125121560Y-52109000D01*
X125121560Y-53809000D01*
X125165838Y-54044317D01*
X125304910Y-54260441D01*
X125517110Y-54405431D01*
X125625107Y-54427301D01*
X125347355Y-54732076D01*
X125177524Y-55142110D01*
X125298845Y-55372000D01*
X126492000Y-55372000D01*
X126492000Y-55352000D01*
X126746000Y-55352000D01*
X126746000Y-55372000D01*
X127939155Y-55372000D01*
X128060476Y-55142110D01*
X127890645Y-54732076D01*
X127614499Y-54429063D01*
X127704317Y-54412162D01*
X127920441Y-54273090D01*
X128065431Y-54060890D01*
X128116440Y-53809000D01*
X128116440Y-52109000D01*
X128072162Y-51873683D01*
X127933090Y-51657559D01*
X127720890Y-51512569D01*
X127504000Y-51468648D01*
X127504000Y-50673000D01*
X127436633Y-50334325D01*
X127244790Y-50047210D01*
X126957675Y-49855367D01*
X126619000Y-49788000D01*
X123204573Y-49788000D01*
X123281154Y-49403000D01*
X123194757Y-48968654D01*
X122948720Y-48600434D01*
X122783280Y-48489890D01*
X125177524Y-48489890D01*
X125347355Y-48899924D01*
X125737642Y-49328183D01*
X126262108Y-49574486D01*
X126492000Y-49453819D01*
X126492000Y-48260000D01*
X126746000Y-48260000D01*
X126746000Y-49453819D01*
X126975892Y-49574486D01*
X127500358Y-49328183D01*
X127890645Y-48899924D01*
X128060476Y-48489890D01*
X127939155Y-48260000D01*
X126746000Y-48260000D01*
X126492000Y-48260000D01*
X125298845Y-48260000D01*
X125177524Y-48489890D01*
X122783280Y-48489890D01*
X122580500Y-48354397D01*
X122146154Y-48268000D01*
X121693846Y-48268000D01*
X121259500Y-48354397D01*
X121014651Y-48518000D01*
X119492579Y-48518000D01*
X117250454Y-46275874D01*
X120498881Y-46275874D01*
X120502444Y-46310893D01*
X120714381Y-46702586D01*
X121060080Y-46983359D01*
X121486911Y-47110466D01*
X121666000Y-46954320D01*
X121666000Y-46101000D01*
X121920000Y-46101000D01*
X121920000Y-46954320D01*
X122099089Y-47110466D01*
X122525920Y-46983359D01*
X122871619Y-46702586D01*
X123083556Y-46310893D01*
X123087119Y-46275874D01*
X122960954Y-46101000D01*
X121920000Y-46101000D01*
X121666000Y-46101000D01*
X120625046Y-46101000D01*
X120498881Y-46275874D01*
X117250454Y-46275874D01*
X116068790Y-45094210D01*
X115878721Y-44967211D01*
X115781675Y-44902367D01*
X115725484Y-44891190D01*
X115443000Y-44834999D01*
X115442995Y-44835000D01*
X113574222Y-44835000D01*
X113574162Y-44834683D01*
X113435090Y-44618559D01*
X113222890Y-44473569D01*
X112971000Y-44422560D01*
X111471000Y-44422560D01*
X111235683Y-44466838D01*
X111019559Y-44605910D01*
X110874569Y-44818110D01*
X110871919Y-44831197D01*
X110735090Y-44618559D01*
X110522890Y-44473569D01*
X110271000Y-44422560D01*
X108799829Y-44422560D01*
X108894633Y-44280675D01*
X108962000Y-43942000D01*
X108962000Y-43715440D01*
X110398000Y-43715440D01*
X110633317Y-43671162D01*
X110849441Y-43532090D01*
X110994431Y-43319890D01*
X110997081Y-43306803D01*
X111133910Y-43519441D01*
X111346110Y-43664431D01*
X111598000Y-43715440D01*
X113098000Y-43715440D01*
X113333317Y-43671162D01*
X113549441Y-43532090D01*
X113694431Y-43319890D01*
X113697851Y-43303000D01*
X119648420Y-43303000D01*
X119977869Y-43632449D01*
X119862500Y-43655397D01*
X119494280Y-43901434D01*
X119248243Y-44269654D01*
X119161846Y-44704000D01*
X119248243Y-45138346D01*
X119494280Y-45506566D01*
X119862500Y-45752603D01*
X120296846Y-45839000D01*
X120619274Y-45839000D01*
X120625046Y-45847000D01*
X121666000Y-45847000D01*
X121666000Y-45827000D01*
X121920000Y-45827000D01*
X121920000Y-45847000D01*
X122960954Y-45847000D01*
X123087119Y-45672126D01*
X123083556Y-45637107D01*
X123057526Y-45589000D01*
X123585420Y-45589000D01*
X124215208Y-46218787D01*
X124215210Y-46218790D01*
X124502325Y-46410633D01*
X124558516Y-46421810D01*
X124841000Y-46478001D01*
X124841005Y-46478000D01*
X125128146Y-46478000D01*
X125165838Y-46678317D01*
X125304910Y-46894441D01*
X125517110Y-47039431D01*
X125625107Y-47061301D01*
X125347355Y-47366076D01*
X125177524Y-47776110D01*
X125298845Y-48006000D01*
X126492000Y-48006000D01*
X126492000Y-47986000D01*
X126746000Y-47986000D01*
X126746000Y-48006000D01*
X127939155Y-48006000D01*
X128060476Y-47776110D01*
X127890645Y-47366076D01*
X127614499Y-47063063D01*
X127704317Y-47046162D01*
X127920441Y-46907090D01*
X128065431Y-46694890D01*
X128116440Y-46443000D01*
X128116440Y-44743000D01*
X128072162Y-44507683D01*
X127933090Y-44291559D01*
X127720890Y-44146569D01*
X127469000Y-44095560D01*
X125769000Y-44095560D01*
X125533683Y-44139838D01*
X125317559Y-44278910D01*
X125172569Y-44491110D01*
X125141940Y-44642361D01*
X124577790Y-44078210D01*
X124550222Y-44059790D01*
X124290675Y-43886367D01*
X124234484Y-43875190D01*
X123952000Y-43818999D01*
X123951995Y-43819000D01*
X123077573Y-43819000D01*
X123154154Y-43434000D01*
X123067757Y-42999654D01*
X122821720Y-42631434D01*
X122453500Y-42385397D01*
X122019154Y-42299000D01*
X121566846Y-42299000D01*
X121217140Y-42368561D01*
X120640790Y-41792210D01*
X120602914Y-41766902D01*
X120353675Y-41600367D01*
X120297484Y-41589190D01*
X120015000Y-41532999D01*
X120014995Y-41533000D01*
X113701222Y-41533000D01*
X113701162Y-41532683D01*
X113562090Y-41316559D01*
X113349890Y-41171569D01*
X113114445Y-41123890D01*
X125177524Y-41123890D01*
X125347355Y-41533924D01*
X125737642Y-41962183D01*
X126262108Y-42208486D01*
X126492000Y-42087819D01*
X126492000Y-40894000D01*
X126746000Y-40894000D01*
X126746000Y-42087819D01*
X126975892Y-42208486D01*
X127500358Y-41962183D01*
X127890645Y-41533924D01*
X128060476Y-41123890D01*
X127939155Y-40894000D01*
X126746000Y-40894000D01*
X126492000Y-40894000D01*
X125298845Y-40894000D01*
X125177524Y-41123890D01*
X113114445Y-41123890D01*
X113098000Y-41120560D01*
X111598000Y-41120560D01*
X111362683Y-41164838D01*
X111146559Y-41303910D01*
X111001569Y-41516110D01*
X110998919Y-41529197D01*
X110862090Y-41316559D01*
X110649890Y-41171569D01*
X110398000Y-41120560D01*
X108898000Y-41120560D01*
X108737893Y-41150686D01*
X109602139Y-40286440D01*
X110398000Y-40286440D01*
X110633317Y-40242162D01*
X110849441Y-40103090D01*
X110994431Y-39890890D01*
X110997081Y-39877803D01*
X111133910Y-40090441D01*
X111346110Y-40235431D01*
X111598000Y-40286440D01*
X113098000Y-40286440D01*
X113333317Y-40242162D01*
X113430115Y-40179874D01*
X120498881Y-40179874D01*
X120502444Y-40214893D01*
X120714381Y-40606586D01*
X121060080Y-40887359D01*
X121486911Y-41014466D01*
X121666000Y-40858320D01*
X121666000Y-40005000D01*
X121920000Y-40005000D01*
X121920000Y-40858320D01*
X122099089Y-41014466D01*
X122525920Y-40887359D01*
X122871619Y-40606586D01*
X123083556Y-40214893D01*
X123087119Y-40179874D01*
X122960954Y-40005000D01*
X121920000Y-40005000D01*
X121666000Y-40005000D01*
X120625046Y-40005000D01*
X120498881Y-40179874D01*
X113430115Y-40179874D01*
X113549441Y-40103090D01*
X113694431Y-39890890D01*
X113745440Y-39639000D01*
X113745440Y-38843140D01*
X114365579Y-38223000D01*
X119238427Y-38223000D01*
X119161846Y-38608000D01*
X119248243Y-39042346D01*
X119494280Y-39410566D01*
X119862500Y-39656603D01*
X120296846Y-39743000D01*
X120619274Y-39743000D01*
X120625046Y-39751000D01*
X121666000Y-39751000D01*
X121666000Y-39731000D01*
X121920000Y-39731000D01*
X121920000Y-39751000D01*
X122960954Y-39751000D01*
X123087119Y-39576126D01*
X123083556Y-39541107D01*
X123057526Y-39493000D01*
X123570995Y-39493000D01*
X123571000Y-39493001D01*
X123856858Y-39436139D01*
X123909675Y-39425633D01*
X124196790Y-39233790D01*
X124318580Y-39112000D01*
X125128146Y-39112000D01*
X125165838Y-39312317D01*
X125304910Y-39528441D01*
X125517110Y-39673431D01*
X125625107Y-39695301D01*
X125347355Y-40000076D01*
X125177524Y-40410110D01*
X125298845Y-40640000D01*
X126492000Y-40640000D01*
X126492000Y-40620000D01*
X126746000Y-40620000D01*
X126746000Y-40640000D01*
X127939155Y-40640000D01*
X128060476Y-40410110D01*
X127890645Y-40000076D01*
X127614499Y-39697063D01*
X127704317Y-39680162D01*
X127920441Y-39541090D01*
X128065431Y-39328890D01*
X128116440Y-39077000D01*
X128116440Y-37377000D01*
X128072162Y-37141683D01*
X127933090Y-36925559D01*
X127720890Y-36780569D01*
X127469000Y-36729560D01*
X125769000Y-36729560D01*
X125533683Y-36773838D01*
X125317559Y-36912910D01*
X125172569Y-37125110D01*
X125128648Y-37342000D01*
X123952000Y-37342000D01*
X123613325Y-37409367D01*
X123326210Y-37601210D01*
X123326208Y-37601213D01*
X123204421Y-37723000D01*
X123077573Y-37723000D01*
X123154154Y-37338000D01*
X123067757Y-36903654D01*
X122821720Y-36535434D01*
X122453500Y-36289397D01*
X122019154Y-36203000D01*
X121566846Y-36203000D01*
X121132500Y-36289397D01*
X120887651Y-36453000D01*
X113999005Y-36453000D01*
X113999000Y-36452999D01*
X113660326Y-36520366D01*
X113565054Y-36584025D01*
X113373210Y-36712210D01*
X113373208Y-36712213D01*
X112393860Y-37691560D01*
X111598000Y-37691560D01*
X111362683Y-37735838D01*
X111146559Y-37874910D01*
X111001569Y-38087110D01*
X110998919Y-38100197D01*
X110862090Y-37887559D01*
X110649890Y-37742569D01*
X110398000Y-37691560D01*
X108898000Y-37691560D01*
X108662683Y-37735838D01*
X108446559Y-37874910D01*
X108301569Y-38087110D01*
X108250560Y-38339000D01*
X108250560Y-39134861D01*
X105927210Y-41458210D01*
X105735367Y-41745325D01*
X105727410Y-41785326D01*
X105667999Y-42084000D01*
X105668000Y-42084005D01*
X105668000Y-42686421D01*
X103888115Y-44466305D01*
X103696272Y-44753420D01*
X103689260Y-44788674D01*
X103628904Y-45092095D01*
X103628905Y-45092100D01*
X103628905Y-47859560D01*
X103438905Y-47859560D01*
X103309316Y-47883944D01*
X103188905Y-47859560D01*
X102638905Y-47859560D01*
X102509316Y-47883944D01*
X102388905Y-47859560D01*
X101838905Y-47859560D01*
X101603588Y-47903838D01*
X101387464Y-48042910D01*
X101242474Y-48255110D01*
X101191465Y-48507000D01*
X101191465Y-49834560D01*
X100098139Y-49834560D01*
X95862884Y-45599304D01*
X95863240Y-45191715D01*
X95652831Y-44682485D01*
X95373000Y-44402166D01*
X95373000Y-42252171D01*
X95703824Y-41921923D01*
X95922750Y-41394691D01*
X95923248Y-40823813D01*
X95705243Y-40296200D01*
X95585222Y-40175970D01*
X95559633Y-40047326D01*
X95546065Y-40027020D01*
X95540002Y-40003351D01*
X95450570Y-39884101D01*
X95367789Y-39760211D01*
X95347481Y-39746641D01*
X95332824Y-39727098D01*
X95290201Y-39701858D01*
X95316139Y-39615745D01*
X94488000Y-38787605D01*
X93659861Y-39615745D01*
X93733995Y-39861864D01*
X93740483Y-39864196D01*
X93676200Y-39890757D01*
X93272176Y-40294077D01*
X93053250Y-40821309D01*
X93052752Y-41392187D01*
X93270757Y-41919800D01*
X93603000Y-42252623D01*
X93603000Y-44382495D01*
X93304539Y-44680436D01*
X93093241Y-45189298D01*
X93092760Y-45740285D01*
X93303169Y-46249515D01*
X93692436Y-46639461D01*
X94201298Y-46850759D01*
X94611537Y-46851117D01*
X98432421Y-50672000D01*
X94595579Y-50672000D01*
X91563000Y-47639420D01*
X91563000Y-46539523D01*
X91851461Y-46251564D01*
X92062759Y-45742702D01*
X92063240Y-45191715D01*
X91852831Y-44682485D01*
X91563000Y-44392148D01*
X91563000Y-42124005D01*
X91563001Y-42124000D01*
X91506810Y-41841516D01*
X91495633Y-41785325D01*
X91303790Y-41498210D01*
X91303787Y-41498208D01*
X91096840Y-41291261D01*
X91097248Y-40823813D01*
X90879243Y-40296200D01*
X90475923Y-39892176D01*
X90409456Y-39864577D01*
X90416005Y-39861864D01*
X90490139Y-39615745D01*
X89662000Y-38787605D01*
X88833861Y-39615745D01*
X88907995Y-39861864D01*
X88914483Y-39864196D01*
X88850200Y-39890757D01*
X88446176Y-40294077D01*
X88227250Y-40821309D01*
X88226752Y-41392187D01*
X88444757Y-41919800D01*
X88848077Y-42323824D01*
X89375309Y-42542750D01*
X89793000Y-42543114D01*
X89793000Y-44392477D01*
X89504539Y-44680436D01*
X89293241Y-45189298D01*
X89292760Y-45740285D01*
X89503169Y-46249515D01*
X89793000Y-46539852D01*
X89793000Y-48005995D01*
X89792999Y-48006000D01*
X89842551Y-48255110D01*
X89860367Y-48344675D01*
X90021191Y-48585367D01*
X90052210Y-48631790D01*
X92986421Y-51566000D01*
X92682574Y-51566000D01*
X92521485Y-51404629D01*
X92067734Y-51216215D01*
X91576421Y-51215786D01*
X91122343Y-51403408D01*
X91086689Y-51439000D01*
X90597432Y-51439000D01*
X90487147Y-51273946D01*
X90005378Y-50952039D01*
X89437093Y-50839000D01*
X89378907Y-50839000D01*
X88810622Y-50952039D01*
X88328853Y-51273946D01*
X88006946Y-51755715D01*
X87893907Y-52324000D01*
X85217000Y-52324000D01*
X85217000Y-38391223D01*
X88215035Y-38391223D01*
X88242222Y-38961454D01*
X88408136Y-39362005D01*
X88654255Y-39436139D01*
X89482395Y-38608000D01*
X89841605Y-38608000D01*
X90669745Y-39436139D01*
X90915864Y-39362005D01*
X91108965Y-38824777D01*
X91088295Y-38391223D01*
X93041035Y-38391223D01*
X93068222Y-38961454D01*
X93234136Y-39362005D01*
X93480255Y-39436139D01*
X94308395Y-38608000D01*
X94667605Y-38608000D01*
X95495745Y-39436139D01*
X95741864Y-39362005D01*
X95934965Y-38824777D01*
X95907778Y-38254546D01*
X95741864Y-37853995D01*
X95495745Y-37779861D01*
X94667605Y-38608000D01*
X94308395Y-38608000D01*
X93480255Y-37779861D01*
X93234136Y-37853995D01*
X93041035Y-38391223D01*
X91088295Y-38391223D01*
X91081778Y-38254546D01*
X90915864Y-37853995D01*
X90669745Y-37779861D01*
X89841605Y-38608000D01*
X89482395Y-38608000D01*
X88654255Y-37779861D01*
X88408136Y-37853995D01*
X88215035Y-38391223D01*
X85217000Y-38391223D01*
X85217000Y-37600255D01*
X88833861Y-37600255D01*
X89662000Y-38428395D01*
X90490139Y-37600255D01*
X93659861Y-37600255D01*
X94488000Y-38428395D01*
X95316139Y-37600255D01*
X95242005Y-37354136D01*
X94704777Y-37161035D01*
X94134546Y-37188222D01*
X93733995Y-37354136D01*
X93659861Y-37600255D01*
X90490139Y-37600255D01*
X90416005Y-37354136D01*
X89878777Y-37161035D01*
X89308546Y-37188222D01*
X88907995Y-37354136D01*
X88833861Y-37600255D01*
X85217000Y-37600255D01*
X85217000Y-34925357D01*
X130175000Y-35051643D01*
X130175000Y-35051643D01*
G37*
X130175000Y-35051643D02*
X130175000Y-76199643D01*
X85217000Y-76073357D01*
X85217000Y-75066532D01*
X89555073Y-75066532D01*
X89653736Y-75333387D01*
X90263461Y-75559908D01*
X90913460Y-75535856D01*
X91402264Y-75333387D01*
X91500927Y-75066532D01*
X96055073Y-75066532D01*
X96153736Y-75333387D01*
X96763461Y-75559908D01*
X97413460Y-75535856D01*
X97902264Y-75333387D01*
X98000927Y-75066532D01*
X97028000Y-74093605D01*
X96055073Y-75066532D01*
X91500927Y-75066532D01*
X90528000Y-74093605D01*
X89555073Y-75066532D01*
X85217000Y-75066532D01*
X85217000Y-73649461D01*
X88882092Y-73649461D01*
X88906144Y-74299460D01*
X89108613Y-74788264D01*
X89375468Y-74886927D01*
X90348395Y-73914000D01*
X90707605Y-73914000D01*
X91680532Y-74886927D01*
X91947387Y-74788264D01*
X92173908Y-74178539D01*
X92154331Y-73649461D01*
X95382092Y-73649461D01*
X95406144Y-74299460D01*
X95608613Y-74788264D01*
X95875468Y-74886927D01*
X96848395Y-73914000D01*
X97207605Y-73914000D01*
X98180532Y-74886927D01*
X98447387Y-74788264D01*
X98673908Y-74178539D01*
X98649856Y-73528540D01*
X98447387Y-73039736D01*
X98180532Y-72941073D01*
X97207605Y-73914000D01*
X96848395Y-73914000D01*
X95875468Y-72941073D01*
X95608613Y-73039736D01*
X95382092Y-73649461D01*
X92154331Y-73649461D01*
X92149856Y-73528540D01*
X91947387Y-73039736D01*
X91680532Y-72941073D01*
X90707605Y-73914000D01*
X90348395Y-73914000D01*
X89375468Y-72941073D01*
X89108613Y-73039736D01*
X88882092Y-73649461D01*
X85217000Y-73649461D01*
X85217000Y-72761468D01*
X89555073Y-72761468D01*
X90528000Y-73734395D01*
X91500927Y-72761468D01*
X96055073Y-72761468D01*
X97028000Y-73734395D01*
X98000927Y-72761468D01*
X97902264Y-72494613D01*
X97292539Y-72268092D01*
X96642540Y-72292144D01*
X96153736Y-72494613D01*
X96055073Y-72761468D01*
X91500927Y-72761468D01*
X91402264Y-72494613D01*
X90792539Y-72268092D01*
X90142540Y-72292144D01*
X89653736Y-72494613D01*
X89555073Y-72761468D01*
X85217000Y-72761468D01*
X85217000Y-52324000D01*
X87893907Y-52324000D01*
X88006946Y-52892285D01*
X88328853Y-53374054D01*
X88658026Y-53594000D01*
X88328853Y-53813946D01*
X88006946Y-54295715D01*
X87893907Y-54864000D01*
X88006946Y-55432285D01*
X88328853Y-55914054D01*
X88658026Y-56134000D01*
X88328853Y-56353946D01*
X88006946Y-56835715D01*
X87893907Y-57404000D01*
X88006946Y-57972285D01*
X88328853Y-58454054D01*
X88669553Y-58681702D01*
X88526642Y-58748817D01*
X88136355Y-59177076D01*
X87966524Y-59587110D01*
X88087845Y-59817000D01*
X89281000Y-59817000D01*
X89281000Y-59797000D01*
X89535000Y-59797000D01*
X89535000Y-59817000D01*
X90728155Y-59817000D01*
X90849476Y-59587110D01*
X90679645Y-59177076D01*
X90289358Y-58748817D01*
X90146447Y-58681702D01*
X90487147Y-58454054D01*
X90533741Y-58384321D01*
X91957208Y-59807787D01*
X91957210Y-59807790D01*
X92244325Y-59999633D01*
X92300516Y-60010810D01*
X92583000Y-60067001D01*
X92583005Y-60067000D01*
X96788420Y-60067000D01*
X97272980Y-60551560D01*
X95977000Y-60551560D01*
X95741683Y-60595838D01*
X95525559Y-60734910D01*
X95380569Y-60947110D01*
X95377919Y-60960197D01*
X95241090Y-60747559D01*
X95028890Y-60602569D01*
X94777000Y-60551560D01*
X93277000Y-60551560D01*
X93041683Y-60595838D01*
X92825559Y-60734910D01*
X92777653Y-60805023D01*
X92648485Y-60675629D01*
X92194734Y-60487215D01*
X91703421Y-60486786D01*
X91249343Y-60674408D01*
X90901629Y-61021515D01*
X90790569Y-61288978D01*
X90722090Y-61182559D01*
X90509890Y-61037569D01*
X90401893Y-61015699D01*
X90679645Y-60710924D01*
X90849476Y-60300890D01*
X90728155Y-60071000D01*
X89535000Y-60071000D01*
X89535000Y-60091000D01*
X89281000Y-60091000D01*
X89281000Y-60071000D01*
X88087845Y-60071000D01*
X87966524Y-60300890D01*
X88136355Y-60710924D01*
X88412501Y-61013937D01*
X88322683Y-61030838D01*
X88106559Y-61169910D01*
X87961569Y-61382110D01*
X87910560Y-61634000D01*
X87910560Y-63334000D01*
X87954838Y-63569317D01*
X88093910Y-63785441D01*
X88306110Y-63930431D01*
X88558000Y-63981440D01*
X88685759Y-63981440D01*
X88782210Y-64125790D01*
X89544208Y-64887787D01*
X89544210Y-64887790D01*
X89831325Y-65079633D01*
X89887516Y-65090810D01*
X90170000Y-65147001D01*
X90170005Y-65147000D01*
X98376829Y-65147000D01*
X98707077Y-65477824D01*
X99234309Y-65696750D01*
X99805187Y-65697248D01*
X100332800Y-65479243D01*
X100736824Y-65075923D01*
X100955750Y-64548691D01*
X100956248Y-63977813D01*
X100779521Y-63550101D01*
X101373463Y-64144043D01*
X101350000Y-64262000D01*
X101350000Y-65673421D01*
X98494420Y-68529000D01*
X98431398Y-68529000D01*
X98414894Y-68489057D01*
X97955363Y-68028722D01*
X97354648Y-67779284D01*
X96704205Y-67778716D01*
X96103057Y-68027106D01*
X95642722Y-68486637D01*
X95625131Y-68529000D01*
X91931398Y-68529000D01*
X91914894Y-68489057D01*
X91455363Y-68028722D01*
X90854648Y-67779284D01*
X90204205Y-67778716D01*
X89603057Y-68027106D01*
X89142722Y-68486637D01*
X88893284Y-69087352D01*
X88892716Y-69737795D01*
X89141106Y-70338943D01*
X89600637Y-70799278D01*
X90201352Y-71048716D01*
X90851795Y-71049284D01*
X91452943Y-70800894D01*
X91913278Y-70341363D01*
X91930869Y-70299000D01*
X95624602Y-70299000D01*
X95641106Y-70338943D01*
X96100637Y-70799278D01*
X96701352Y-71048716D01*
X97351795Y-71049284D01*
X97952943Y-70800894D01*
X98413278Y-70341363D01*
X98430869Y-70299000D01*
X98860995Y-70299000D01*
X98861000Y-70299001D01*
X99143484Y-70242810D01*
X99199675Y-70231633D01*
X99486790Y-70039790D01*
X100241579Y-69285000D01*
X108407572Y-69285000D01*
X108407572Y-73105000D01*
X128320429Y-73105000D01*
X128320429Y-69285000D01*
X128214000Y-69285000D01*
X128214000Y-66618000D01*
X119944000Y-66618000D01*
X119944000Y-69285000D01*
X108407572Y-69285000D01*
X100241579Y-69285000D01*
X101676829Y-67849750D01*
X102909000Y-67849750D01*
X102909000Y-68540309D01*
X103005673Y-68773698D01*
X103184301Y-68952327D01*
X103417690Y-69049000D01*
X104108250Y-69049000D01*
X104267000Y-68890250D01*
X104267000Y-67691000D01*
X103067750Y-67691000D01*
X102909000Y-67849750D01*
X101676829Y-67849750D01*
X102860787Y-66665792D01*
X102860790Y-66665790D01*
X102909000Y-66593638D01*
X102909000Y-67278250D01*
X103067750Y-67437000D01*
X104267000Y-67437000D01*
X104267000Y-66237750D01*
X104108250Y-66079000D01*
X103417690Y-66079000D01*
X103184301Y-66175673D01*
X103070346Y-66289628D01*
X103120001Y-66040000D01*
X103120000Y-66039995D01*
X103120000Y-65147000D01*
X103376829Y-65147000D01*
X103707077Y-65477824D01*
X104234309Y-65696750D01*
X104805187Y-65697248D01*
X105332800Y-65479243D01*
X105736824Y-65075923D01*
X105955750Y-64548691D01*
X105956248Y-63977813D01*
X105738243Y-63450200D01*
X105406000Y-63117377D01*
X105406000Y-61318580D01*
X106049000Y-61961579D01*
X106049000Y-66374568D01*
X105883946Y-66484853D01*
X105854597Y-66528777D01*
X105782327Y-66354302D01*
X105603699Y-66175673D01*
X105370310Y-66079000D01*
X104679750Y-66079000D01*
X104521000Y-66237750D01*
X104521000Y-67437000D01*
X104541000Y-67437000D01*
X104541000Y-67691000D01*
X104521000Y-67691000D01*
X104521000Y-68890250D01*
X104679750Y-69049000D01*
X105370310Y-69049000D01*
X105603699Y-68952327D01*
X105782327Y-68773698D01*
X105854597Y-68599223D01*
X105883946Y-68643147D01*
X106365715Y-68965054D01*
X106934000Y-69078093D01*
X107502285Y-68965054D01*
X107984054Y-68643147D01*
X108204000Y-68313974D01*
X108423946Y-68643147D01*
X108905715Y-68965054D01*
X109474000Y-69078093D01*
X110042285Y-68965054D01*
X110524054Y-68643147D01*
X110744000Y-68313974D01*
X110963946Y-68643147D01*
X111445715Y-68965054D01*
X112014000Y-69078093D01*
X112582285Y-68965054D01*
X113064054Y-68643147D01*
X113385961Y-68161378D01*
X113438045Y-67899535D01*
X114798787Y-66538792D01*
X114798790Y-66538790D01*
X114990633Y-66251675D01*
X114990634Y-66251674D01*
X115058001Y-65913000D01*
X115058000Y-65912995D01*
X115058000Y-63781440D01*
X116146000Y-63781440D01*
X116381317Y-63737162D01*
X116597441Y-63598090D01*
X116742431Y-63385890D01*
X116745851Y-63369000D01*
X118454778Y-63369000D01*
X118454838Y-63369317D01*
X118593910Y-63585441D01*
X118806110Y-63730431D01*
X119058000Y-63781440D01*
X120558000Y-63781440D01*
X120793317Y-63737162D01*
X121009441Y-63598090D01*
X121154431Y-63385890D01*
X121161191Y-63352510D01*
X121219673Y-63493699D01*
X121398302Y-63672327D01*
X121631691Y-63769000D01*
X122222250Y-63769000D01*
X122381000Y-63610250D01*
X122381000Y-62611000D01*
X122635000Y-62611000D01*
X122635000Y-63610250D01*
X122793750Y-63769000D01*
X123384309Y-63769000D01*
X123617698Y-63672327D01*
X123796327Y-63493699D01*
X123893000Y-63260310D01*
X123893000Y-62769750D01*
X123734250Y-62611000D01*
X122635000Y-62611000D01*
X122381000Y-62611000D01*
X122361000Y-62611000D01*
X122361000Y-62357000D01*
X122381000Y-62357000D01*
X122381000Y-61357750D01*
X122635000Y-61357750D01*
X122635000Y-62357000D01*
X123734250Y-62357000D01*
X123893000Y-62198250D01*
X123893000Y-61707690D01*
X123796327Y-61474301D01*
X123617698Y-61295673D01*
X123384309Y-61199000D01*
X122793750Y-61199000D01*
X122635000Y-61357750D01*
X122381000Y-61357750D01*
X122222250Y-61199000D01*
X121631691Y-61199000D01*
X121398302Y-61295673D01*
X121219673Y-61474301D01*
X121163346Y-61610287D01*
X121161162Y-61598683D01*
X121022090Y-61382559D01*
X120809890Y-61237569D01*
X120558000Y-61186560D01*
X119058000Y-61186560D01*
X118822683Y-61230838D01*
X118606559Y-61369910D01*
X118461569Y-61582110D01*
X118458149Y-61599000D01*
X116749222Y-61599000D01*
X116749162Y-61598683D01*
X116610090Y-61382559D01*
X116397890Y-61237569D01*
X116146000Y-61186560D01*
X115058000Y-61186560D01*
X115058000Y-60479440D01*
X116146000Y-60479440D01*
X116381317Y-60435162D01*
X116597441Y-60296090D01*
X116742431Y-60083890D01*
X116745851Y-60067000D01*
X118454778Y-60067000D01*
X118454838Y-60067317D01*
X118593910Y-60283441D01*
X118806110Y-60428431D01*
X119058000Y-60479440D01*
X120558000Y-60479440D01*
X120793317Y-60435162D01*
X121009441Y-60296090D01*
X121154431Y-60083890D01*
X121161191Y-60050510D01*
X121219673Y-60191699D01*
X121398302Y-60370327D01*
X121631691Y-60467000D01*
X122222250Y-60467000D01*
X122381000Y-60308250D01*
X122381000Y-59309000D01*
X122635000Y-59309000D01*
X122635000Y-60308250D01*
X122793750Y-60467000D01*
X123384309Y-60467000D01*
X123617698Y-60370327D01*
X123796327Y-60191699D01*
X123893000Y-59958310D01*
X123893000Y-59467750D01*
X123734250Y-59309000D01*
X122635000Y-59309000D01*
X122381000Y-59309000D01*
X122361000Y-59309000D01*
X122361000Y-59055000D01*
X122381000Y-59055000D01*
X122381000Y-58055750D01*
X122635000Y-58055750D01*
X122635000Y-59055000D01*
X123734250Y-59055000D01*
X123893000Y-58896250D01*
X123893000Y-58405690D01*
X123796327Y-58172301D01*
X123617698Y-57993673D01*
X123384309Y-57897000D01*
X122793750Y-57897000D01*
X122635000Y-58055750D01*
X122381000Y-58055750D01*
X122222250Y-57897000D01*
X121631691Y-57897000D01*
X121398302Y-57993673D01*
X121219673Y-58172301D01*
X121163346Y-58308287D01*
X121161162Y-58296683D01*
X121022090Y-58080559D01*
X120809890Y-57935569D01*
X120558000Y-57884560D01*
X119058000Y-57884560D01*
X118822683Y-57928838D01*
X118606559Y-58067910D01*
X118461569Y-58280110D01*
X118458149Y-58297000D01*
X116749222Y-58297000D01*
X116749162Y-58296683D01*
X116610090Y-58080559D01*
X116397890Y-57935569D01*
X116146000Y-57884560D01*
X115058000Y-57884560D01*
X115058000Y-57177440D01*
X116146000Y-57177440D01*
X116381317Y-57133162D01*
X116597441Y-56994090D01*
X116742431Y-56781890D01*
X116745851Y-56765000D01*
X118536356Y-56765000D01*
X118593910Y-56854441D01*
X118806110Y-56999431D01*
X119058000Y-57050440D01*
X120558000Y-57050440D01*
X120793317Y-57006162D01*
X121009441Y-56867090D01*
X121154431Y-56654890D01*
X121161191Y-56621510D01*
X121219673Y-56762699D01*
X121398302Y-56941327D01*
X121631691Y-57038000D01*
X122222250Y-57038000D01*
X122381000Y-56879250D01*
X122381000Y-55880000D01*
X122635000Y-55880000D01*
X122635000Y-56879250D01*
X122793750Y-57038000D01*
X123384309Y-57038000D01*
X123617698Y-56941327D01*
X123796327Y-56762699D01*
X123893000Y-56529310D01*
X123893000Y-56038750D01*
X123734250Y-55880000D01*
X122635000Y-55880000D01*
X122381000Y-55880000D01*
X122361000Y-55880000D01*
X122361000Y-55855890D01*
X125177524Y-55855890D01*
X125347355Y-56265924D01*
X125737642Y-56694183D01*
X126262108Y-56940486D01*
X126492000Y-56819819D01*
X126492000Y-55626000D01*
X126746000Y-55626000D01*
X126746000Y-56819819D01*
X126975892Y-56940486D01*
X127500358Y-56694183D01*
X127890645Y-56265924D01*
X128060476Y-55855890D01*
X127939155Y-55626000D01*
X126746000Y-55626000D01*
X126492000Y-55626000D01*
X125298845Y-55626000D01*
X125177524Y-55855890D01*
X122361000Y-55855890D01*
X122361000Y-55626000D01*
X122381000Y-55626000D01*
X122381000Y-54626750D01*
X122635000Y-54626750D01*
X122635000Y-55626000D01*
X123734250Y-55626000D01*
X123893000Y-55467250D01*
X123893000Y-54976690D01*
X123796327Y-54743301D01*
X123617698Y-54564673D01*
X123384309Y-54468000D01*
X122793750Y-54468000D01*
X122635000Y-54626750D01*
X122381000Y-54626750D01*
X122222250Y-54468000D01*
X121631691Y-54468000D01*
X121398302Y-54564673D01*
X121219673Y-54743301D01*
X121163346Y-54879287D01*
X121161162Y-54867683D01*
X121022090Y-54651559D01*
X120809890Y-54506569D01*
X120558000Y-54455560D01*
X119058000Y-54455560D01*
X118822683Y-54499838D01*
X118606559Y-54638910D01*
X118461569Y-54851110D01*
X118432431Y-54995000D01*
X116749222Y-54995000D01*
X116749162Y-54994683D01*
X116610090Y-54778559D01*
X116397890Y-54633569D01*
X116146000Y-54582560D01*
X115058000Y-54582560D01*
X115058000Y-53848005D01*
X115058001Y-53848000D01*
X114990633Y-53509325D01*
X114938966Y-53432000D01*
X114798790Y-53222210D01*
X114798787Y-53222208D01*
X113821454Y-52244874D01*
X120625881Y-52244874D01*
X120629444Y-52279893D01*
X120841381Y-52671586D01*
X121187080Y-52952359D01*
X121613911Y-53079466D01*
X121793000Y-52923320D01*
X121793000Y-52070000D01*
X122047000Y-52070000D01*
X122047000Y-52923320D01*
X122226089Y-53079466D01*
X122652920Y-52952359D01*
X122998619Y-52671586D01*
X123210556Y-52279893D01*
X123214119Y-52244874D01*
X123087954Y-52070000D01*
X122047000Y-52070000D01*
X121793000Y-52070000D01*
X120752046Y-52070000D01*
X120625881Y-52244874D01*
X113821454Y-52244874D01*
X112512790Y-50936210D01*
X112354671Y-50830559D01*
X112225675Y-50744367D01*
X112169484Y-50733190D01*
X111887000Y-50676999D01*
X111886995Y-50677000D01*
X111526141Y-50677000D01*
X111501000Y-50671999D01*
X111500995Y-50672000D01*
X110611345Y-50672000D01*
X110611345Y-50482000D01*
X110567067Y-50246683D01*
X110427995Y-50030559D01*
X110215795Y-49885569D01*
X109963905Y-49834560D01*
X108636345Y-49834560D01*
X108636345Y-48507000D01*
X108592067Y-48271683D01*
X108452995Y-48055559D01*
X108240795Y-47910569D01*
X107988905Y-47859560D01*
X107438905Y-47859560D01*
X107309316Y-47883944D01*
X107188905Y-47859560D01*
X106998905Y-47859560D01*
X106998905Y-46906675D01*
X107300579Y-46605000D01*
X108167778Y-46605000D01*
X108167838Y-46605317D01*
X108306910Y-46821441D01*
X108519110Y-46966431D01*
X108771000Y-47017440D01*
X110271000Y-47017440D01*
X110506317Y-46973162D01*
X110722441Y-46834090D01*
X110867431Y-46621890D01*
X110870081Y-46608803D01*
X111006910Y-46821441D01*
X111219110Y-46966431D01*
X111471000Y-47017440D01*
X112971000Y-47017440D01*
X113206317Y-46973162D01*
X113422441Y-46834090D01*
X113567431Y-46621890D01*
X113570851Y-46605000D01*
X115076420Y-46605000D01*
X118500208Y-50028787D01*
X118500210Y-50028790D01*
X118643650Y-50124633D01*
X118787326Y-50220634D01*
X119126000Y-50288001D01*
X119126005Y-50288000D01*
X119365427Y-50288000D01*
X119288846Y-50673000D01*
X119375243Y-51107346D01*
X119621280Y-51475566D01*
X119989500Y-51721603D01*
X120423846Y-51808000D01*
X120746274Y-51808000D01*
X120752046Y-51816000D01*
X121793000Y-51816000D01*
X121793000Y-51796000D01*
X122047000Y-51796000D01*
X122047000Y-51816000D01*
X123087954Y-51816000D01*
X123214119Y-51641126D01*
X123210556Y-51606107D01*
X123184526Y-51558000D01*
X125452621Y-51558000D01*
X125317559Y-51644910D01*
X125172569Y-51857110D01*
X125121560Y-52109000D01*
X125121560Y-53809000D01*
X125165838Y-54044317D01*
X125304910Y-54260441D01*
X125517110Y-54405431D01*
X125625107Y-54427301D01*
X125347355Y-54732076D01*
X125177524Y-55142110D01*
X125298845Y-55372000D01*
X126492000Y-55372000D01*
X126492000Y-55352000D01*
X126746000Y-55352000D01*
X126746000Y-55372000D01*
X127939155Y-55372000D01*
X128060476Y-55142110D01*
X127890645Y-54732076D01*
X127614499Y-54429063D01*
X127704317Y-54412162D01*
X127920441Y-54273090D01*
X128065431Y-54060890D01*
X128116440Y-53809000D01*
X128116440Y-52109000D01*
X128072162Y-51873683D01*
X127933090Y-51657559D01*
X127720890Y-51512569D01*
X127504000Y-51468648D01*
X127504000Y-50673000D01*
X127436633Y-50334325D01*
X127244790Y-50047210D01*
X126957675Y-49855367D01*
X126619000Y-49788000D01*
X123204573Y-49788000D01*
X123281154Y-49403000D01*
X123194757Y-48968654D01*
X122948720Y-48600434D01*
X122783280Y-48489890D01*
X125177524Y-48489890D01*
X125347355Y-48899924D01*
X125737642Y-49328183D01*
X126262108Y-49574486D01*
X126492000Y-49453819D01*
X126492000Y-48260000D01*
X126746000Y-48260000D01*
X126746000Y-49453819D01*
X126975892Y-49574486D01*
X127500358Y-49328183D01*
X127890645Y-48899924D01*
X128060476Y-48489890D01*
X127939155Y-48260000D01*
X126746000Y-48260000D01*
X126492000Y-48260000D01*
X125298845Y-48260000D01*
X125177524Y-48489890D01*
X122783280Y-48489890D01*
X122580500Y-48354397D01*
X122146154Y-48268000D01*
X121693846Y-48268000D01*
X121259500Y-48354397D01*
X121014651Y-48518000D01*
X119492579Y-48518000D01*
X117250454Y-46275874D01*
X120498881Y-46275874D01*
X120502444Y-46310893D01*
X120714381Y-46702586D01*
X121060080Y-46983359D01*
X121486911Y-47110466D01*
X121666000Y-46954320D01*
X121666000Y-46101000D01*
X121920000Y-46101000D01*
X121920000Y-46954320D01*
X122099089Y-47110466D01*
X122525920Y-46983359D01*
X122871619Y-46702586D01*
X123083556Y-46310893D01*
X123087119Y-46275874D01*
X122960954Y-46101000D01*
X121920000Y-46101000D01*
X121666000Y-46101000D01*
X120625046Y-46101000D01*
X120498881Y-46275874D01*
X117250454Y-46275874D01*
X116068790Y-45094210D01*
X115878721Y-44967211D01*
X115781675Y-44902367D01*
X115725484Y-44891190D01*
X115443000Y-44834999D01*
X115442995Y-44835000D01*
X113574222Y-44835000D01*
X113574162Y-44834683D01*
X113435090Y-44618559D01*
X113222890Y-44473569D01*
X112971000Y-44422560D01*
X111471000Y-44422560D01*
X111235683Y-44466838D01*
X111019559Y-44605910D01*
X110874569Y-44818110D01*
X110871919Y-44831197D01*
X110735090Y-44618559D01*
X110522890Y-44473569D01*
X110271000Y-44422560D01*
X108799829Y-44422560D01*
X108894633Y-44280675D01*
X108962000Y-43942000D01*
X108962000Y-43715440D01*
X110398000Y-43715440D01*
X110633317Y-43671162D01*
X110849441Y-43532090D01*
X110994431Y-43319890D01*
X110997081Y-43306803D01*
X111133910Y-43519441D01*
X111346110Y-43664431D01*
X111598000Y-43715440D01*
X113098000Y-43715440D01*
X113333317Y-43671162D01*
X113549441Y-43532090D01*
X113694431Y-43319890D01*
X113697851Y-43303000D01*
X119648420Y-43303000D01*
X119977869Y-43632449D01*
X119862500Y-43655397D01*
X119494280Y-43901434D01*
X119248243Y-44269654D01*
X119161846Y-44704000D01*
X119248243Y-45138346D01*
X119494280Y-45506566D01*
X119862500Y-45752603D01*
X120296846Y-45839000D01*
X120619274Y-45839000D01*
X120625046Y-45847000D01*
X121666000Y-45847000D01*
X121666000Y-45827000D01*
X121920000Y-45827000D01*
X121920000Y-45847000D01*
X122960954Y-45847000D01*
X123087119Y-45672126D01*
X123083556Y-45637107D01*
X123057526Y-45589000D01*
X123585420Y-45589000D01*
X124215208Y-46218787D01*
X124215210Y-46218790D01*
X124502325Y-46410633D01*
X124558516Y-46421810D01*
X124841000Y-46478001D01*
X124841005Y-46478000D01*
X125128146Y-46478000D01*
X125165838Y-46678317D01*
X125304910Y-46894441D01*
X125517110Y-47039431D01*
X125625107Y-47061301D01*
X125347355Y-47366076D01*
X125177524Y-47776110D01*
X125298845Y-48006000D01*
X126492000Y-48006000D01*
X126492000Y-47986000D01*
X126746000Y-47986000D01*
X126746000Y-48006000D01*
X127939155Y-48006000D01*
X128060476Y-47776110D01*
X127890645Y-47366076D01*
X127614499Y-47063063D01*
X127704317Y-47046162D01*
X127920441Y-46907090D01*
X128065431Y-46694890D01*
X128116440Y-46443000D01*
X128116440Y-44743000D01*
X128072162Y-44507683D01*
X127933090Y-44291559D01*
X127720890Y-44146569D01*
X127469000Y-44095560D01*
X125769000Y-44095560D01*
X125533683Y-44139838D01*
X125317559Y-44278910D01*
X125172569Y-44491110D01*
X125141940Y-44642361D01*
X124577790Y-44078210D01*
X124550222Y-44059790D01*
X124290675Y-43886367D01*
X124234484Y-43875190D01*
X123952000Y-43818999D01*
X123951995Y-43819000D01*
X123077573Y-43819000D01*
X123154154Y-43434000D01*
X123067757Y-42999654D01*
X122821720Y-42631434D01*
X122453500Y-42385397D01*
X122019154Y-42299000D01*
X121566846Y-42299000D01*
X121217140Y-42368561D01*
X120640790Y-41792210D01*
X120602914Y-41766902D01*
X120353675Y-41600367D01*
X120297484Y-41589190D01*
X120015000Y-41532999D01*
X120014995Y-41533000D01*
X113701222Y-41533000D01*
X113701162Y-41532683D01*
X113562090Y-41316559D01*
X113349890Y-41171569D01*
X113114445Y-41123890D01*
X125177524Y-41123890D01*
X125347355Y-41533924D01*
X125737642Y-41962183D01*
X126262108Y-42208486D01*
X126492000Y-42087819D01*
X126492000Y-40894000D01*
X126746000Y-40894000D01*
X126746000Y-42087819D01*
X126975892Y-42208486D01*
X127500358Y-41962183D01*
X127890645Y-41533924D01*
X128060476Y-41123890D01*
X127939155Y-40894000D01*
X126746000Y-40894000D01*
X126492000Y-40894000D01*
X125298845Y-40894000D01*
X125177524Y-41123890D01*
X113114445Y-41123890D01*
X113098000Y-41120560D01*
X111598000Y-41120560D01*
X111362683Y-41164838D01*
X111146559Y-41303910D01*
X111001569Y-41516110D01*
X110998919Y-41529197D01*
X110862090Y-41316559D01*
X110649890Y-41171569D01*
X110398000Y-41120560D01*
X108898000Y-41120560D01*
X108737893Y-41150686D01*
X109602139Y-40286440D01*
X110398000Y-40286440D01*
X110633317Y-40242162D01*
X110849441Y-40103090D01*
X110994431Y-39890890D01*
X110997081Y-39877803D01*
X111133910Y-40090441D01*
X111346110Y-40235431D01*
X111598000Y-40286440D01*
X113098000Y-40286440D01*
X113333317Y-40242162D01*
X113430115Y-40179874D01*
X120498881Y-40179874D01*
X120502444Y-40214893D01*
X120714381Y-40606586D01*
X121060080Y-40887359D01*
X121486911Y-41014466D01*
X121666000Y-40858320D01*
X121666000Y-40005000D01*
X121920000Y-40005000D01*
X121920000Y-40858320D01*
X122099089Y-41014466D01*
X122525920Y-40887359D01*
X122871619Y-40606586D01*
X123083556Y-40214893D01*
X123087119Y-40179874D01*
X122960954Y-40005000D01*
X121920000Y-40005000D01*
X121666000Y-40005000D01*
X120625046Y-40005000D01*
X120498881Y-40179874D01*
X113430115Y-40179874D01*
X113549441Y-40103090D01*
X113694431Y-39890890D01*
X113745440Y-39639000D01*
X113745440Y-38843140D01*
X114365579Y-38223000D01*
X119238427Y-38223000D01*
X119161846Y-38608000D01*
X119248243Y-39042346D01*
X119494280Y-39410566D01*
X119862500Y-39656603D01*
X120296846Y-39743000D01*
X120619274Y-39743000D01*
X120625046Y-39751000D01*
X121666000Y-39751000D01*
X121666000Y-39731000D01*
X121920000Y-39731000D01*
X121920000Y-39751000D01*
X122960954Y-39751000D01*
X123087119Y-39576126D01*
X123083556Y-39541107D01*
X123057526Y-39493000D01*
X123570995Y-39493000D01*
X123571000Y-39493001D01*
X123856858Y-39436139D01*
X123909675Y-39425633D01*
X124196790Y-39233790D01*
X124318580Y-39112000D01*
X125128146Y-39112000D01*
X125165838Y-39312317D01*
X125304910Y-39528441D01*
X125517110Y-39673431D01*
X125625107Y-39695301D01*
X125347355Y-40000076D01*
X125177524Y-40410110D01*
X125298845Y-40640000D01*
X126492000Y-40640000D01*
X126492000Y-40620000D01*
X126746000Y-40620000D01*
X126746000Y-40640000D01*
X127939155Y-40640000D01*
X128060476Y-40410110D01*
X127890645Y-40000076D01*
X127614499Y-39697063D01*
X127704317Y-39680162D01*
X127920441Y-39541090D01*
X128065431Y-39328890D01*
X128116440Y-39077000D01*
X128116440Y-37377000D01*
X128072162Y-37141683D01*
X127933090Y-36925559D01*
X127720890Y-36780569D01*
X127469000Y-36729560D01*
X125769000Y-36729560D01*
X125533683Y-36773838D01*
X125317559Y-36912910D01*
X125172569Y-37125110D01*
X125128648Y-37342000D01*
X123952000Y-37342000D01*
X123613325Y-37409367D01*
X123326210Y-37601210D01*
X123326208Y-37601213D01*
X123204421Y-37723000D01*
X123077573Y-37723000D01*
X123154154Y-37338000D01*
X123067757Y-36903654D01*
X122821720Y-36535434D01*
X122453500Y-36289397D01*
X122019154Y-36203000D01*
X121566846Y-36203000D01*
X121132500Y-36289397D01*
X120887651Y-36453000D01*
X113999005Y-36453000D01*
X113999000Y-36452999D01*
X113660326Y-36520366D01*
X113565054Y-36584025D01*
X113373210Y-36712210D01*
X113373208Y-36712213D01*
X112393860Y-37691560D01*
X111598000Y-37691560D01*
X111362683Y-37735838D01*
X111146559Y-37874910D01*
X111001569Y-38087110D01*
X110998919Y-38100197D01*
X110862090Y-37887559D01*
X110649890Y-37742569D01*
X110398000Y-37691560D01*
X108898000Y-37691560D01*
X108662683Y-37735838D01*
X108446559Y-37874910D01*
X108301569Y-38087110D01*
X108250560Y-38339000D01*
X108250560Y-39134861D01*
X105927210Y-41458210D01*
X105735367Y-41745325D01*
X105727410Y-41785326D01*
X105667999Y-42084000D01*
X105668000Y-42084005D01*
X105668000Y-42686421D01*
X103888115Y-44466305D01*
X103696272Y-44753420D01*
X103689260Y-44788674D01*
X103628904Y-45092095D01*
X103628905Y-45092100D01*
X103628905Y-47859560D01*
X103438905Y-47859560D01*
X103309316Y-47883944D01*
X103188905Y-47859560D01*
X102638905Y-47859560D01*
X102509316Y-47883944D01*
X102388905Y-47859560D01*
X101838905Y-47859560D01*
X101603588Y-47903838D01*
X101387464Y-48042910D01*
X101242474Y-48255110D01*
X101191465Y-48507000D01*
X101191465Y-49834560D01*
X100098139Y-49834560D01*
X95862884Y-45599304D01*
X95863240Y-45191715D01*
X95652831Y-44682485D01*
X95373000Y-44402166D01*
X95373000Y-42252171D01*
X95703824Y-41921923D01*
X95922750Y-41394691D01*
X95923248Y-40823813D01*
X95705243Y-40296200D01*
X95585222Y-40175970D01*
X95559633Y-40047326D01*
X95546065Y-40027020D01*
X95540002Y-40003351D01*
X95450570Y-39884101D01*
X95367789Y-39760211D01*
X95347481Y-39746641D01*
X95332824Y-39727098D01*
X95290201Y-39701858D01*
X95316139Y-39615745D01*
X94488000Y-38787605D01*
X93659861Y-39615745D01*
X93733995Y-39861864D01*
X93740483Y-39864196D01*
X93676200Y-39890757D01*
X93272176Y-40294077D01*
X93053250Y-40821309D01*
X93052752Y-41392187D01*
X93270757Y-41919800D01*
X93603000Y-42252623D01*
X93603000Y-44382495D01*
X93304539Y-44680436D01*
X93093241Y-45189298D01*
X93092760Y-45740285D01*
X93303169Y-46249515D01*
X93692436Y-46639461D01*
X94201298Y-46850759D01*
X94611537Y-46851117D01*
X98432421Y-50672000D01*
X94595579Y-50672000D01*
X91563000Y-47639420D01*
X91563000Y-46539523D01*
X91851461Y-46251564D01*
X92062759Y-45742702D01*
X92063240Y-45191715D01*
X91852831Y-44682485D01*
X91563000Y-44392148D01*
X91563000Y-42124005D01*
X91563001Y-42124000D01*
X91506810Y-41841516D01*
X91495633Y-41785325D01*
X91303790Y-41498210D01*
X91303787Y-41498208D01*
X91096840Y-41291261D01*
X91097248Y-40823813D01*
X90879243Y-40296200D01*
X90475923Y-39892176D01*
X90409456Y-39864577D01*
X90416005Y-39861864D01*
X90490139Y-39615745D01*
X89662000Y-38787605D01*
X88833861Y-39615745D01*
X88907995Y-39861864D01*
X88914483Y-39864196D01*
X88850200Y-39890757D01*
X88446176Y-40294077D01*
X88227250Y-40821309D01*
X88226752Y-41392187D01*
X88444757Y-41919800D01*
X88848077Y-42323824D01*
X89375309Y-42542750D01*
X89793000Y-42543114D01*
X89793000Y-44392477D01*
X89504539Y-44680436D01*
X89293241Y-45189298D01*
X89292760Y-45740285D01*
X89503169Y-46249515D01*
X89793000Y-46539852D01*
X89793000Y-48005995D01*
X89792999Y-48006000D01*
X89842551Y-48255110D01*
X89860367Y-48344675D01*
X90021191Y-48585367D01*
X90052210Y-48631790D01*
X92986421Y-51566000D01*
X92682574Y-51566000D01*
X92521485Y-51404629D01*
X92067734Y-51216215D01*
X91576421Y-51215786D01*
X91122343Y-51403408D01*
X91086689Y-51439000D01*
X90597432Y-51439000D01*
X90487147Y-51273946D01*
X90005378Y-50952039D01*
X89437093Y-50839000D01*
X89378907Y-50839000D01*
X88810622Y-50952039D01*
X88328853Y-51273946D01*
X88006946Y-51755715D01*
X87893907Y-52324000D01*
X85217000Y-52324000D01*
X85217000Y-38391223D01*
X88215035Y-38391223D01*
X88242222Y-38961454D01*
X88408136Y-39362005D01*
X88654255Y-39436139D01*
X89482395Y-38608000D01*
X89841605Y-38608000D01*
X90669745Y-39436139D01*
X90915864Y-39362005D01*
X91108965Y-38824777D01*
X91088295Y-38391223D01*
X93041035Y-38391223D01*
X93068222Y-38961454D01*
X93234136Y-39362005D01*
X93480255Y-39436139D01*
X94308395Y-38608000D01*
X94667605Y-38608000D01*
X95495745Y-39436139D01*
X95741864Y-39362005D01*
X95934965Y-38824777D01*
X95907778Y-38254546D01*
X95741864Y-37853995D01*
X95495745Y-37779861D01*
X94667605Y-38608000D01*
X94308395Y-38608000D01*
X93480255Y-37779861D01*
X93234136Y-37853995D01*
X93041035Y-38391223D01*
X91088295Y-38391223D01*
X91081778Y-38254546D01*
X90915864Y-37853995D01*
X90669745Y-37779861D01*
X89841605Y-38608000D01*
X89482395Y-38608000D01*
X88654255Y-37779861D01*
X88408136Y-37853995D01*
X88215035Y-38391223D01*
X85217000Y-38391223D01*
X85217000Y-37600255D01*
X88833861Y-37600255D01*
X89662000Y-38428395D01*
X90490139Y-37600255D01*
X93659861Y-37600255D01*
X94488000Y-38428395D01*
X95316139Y-37600255D01*
X95242005Y-37354136D01*
X94704777Y-37161035D01*
X94134546Y-37188222D01*
X93733995Y-37354136D01*
X93659861Y-37600255D01*
X90490139Y-37600255D01*
X90416005Y-37354136D01*
X89878777Y-37161035D01*
X89308546Y-37188222D01*
X88907995Y-37354136D01*
X88833861Y-37600255D01*
X85217000Y-37600255D01*
X85217000Y-34925357D01*
X130175000Y-35051643D01*
G36*
X91120515Y-53497371D02*
X91574266Y-53685785D01*
X92065579Y-53686214D01*
X92519657Y-53498592D01*
X92682533Y-53336000D01*
X96827728Y-53336000D01*
X96834190Y-53368484D01*
X96845367Y-53424675D01*
X96901928Y-53509325D01*
X97037210Y-53711790D01*
X97908208Y-54582787D01*
X97908210Y-54582790D01*
X98195325Y-54774633D01*
X98251516Y-54785810D01*
X98534000Y-54842001D01*
X98534005Y-54842000D01*
X99228905Y-54842000D01*
X99228905Y-54884002D01*
X99367305Y-54884002D01*
X99323410Y-54948245D01*
X99228905Y-55042750D01*
X99228905Y-55158310D01*
X99237373Y-55178753D01*
X99216465Y-55282000D01*
X99216465Y-55832000D01*
X99240849Y-55961589D01*
X99216465Y-56082000D01*
X99216465Y-56632000D01*
X99260743Y-56867317D01*
X99399815Y-57083441D01*
X99612015Y-57228431D01*
X99863905Y-57279440D01*
X101191465Y-57279440D01*
X101191465Y-58607000D01*
X101235743Y-58842317D01*
X101293452Y-58932000D01*
X99553579Y-58932000D01*
X98034790Y-57413210D01*
X97964449Y-57366210D01*
X97747675Y-57221367D01*
X97691484Y-57210190D01*
X97409000Y-57153999D01*
X97408995Y-57154000D01*
X94727579Y-57154000D01*
X91811790Y-54238210D01*
X91734660Y-54186674D01*
X91524675Y-54046367D01*
X91468344Y-54035162D01*
X91186000Y-53978999D01*
X91185995Y-53979000D01*
X90597432Y-53979000D01*
X90487147Y-53813946D01*
X90157974Y-53594000D01*
X90487147Y-53374054D01*
X90597432Y-53209000D01*
X90832647Y-53209000D01*
X91120515Y-53497371D01*
X91120515Y-53497371D01*
G37*
X91120515Y-53497371D02*
X91574266Y-53685785D01*
X92065579Y-53686214D01*
X92519657Y-53498592D01*
X92682533Y-53336000D01*
X96827728Y-53336000D01*
X96834190Y-53368484D01*
X96845367Y-53424675D01*
X96901928Y-53509325D01*
X97037210Y-53711790D01*
X97908208Y-54582787D01*
X97908210Y-54582790D01*
X98195325Y-54774633D01*
X98251516Y-54785810D01*
X98534000Y-54842001D01*
X98534005Y-54842000D01*
X99228905Y-54842000D01*
X99228905Y-54884002D01*
X99367305Y-54884002D01*
X99323410Y-54948245D01*
X99228905Y-55042750D01*
X99228905Y-55158310D01*
X99237373Y-55178753D01*
X99216465Y-55282000D01*
X99216465Y-55832000D01*
X99240849Y-55961589D01*
X99216465Y-56082000D01*
X99216465Y-56632000D01*
X99260743Y-56867317D01*
X99399815Y-57083441D01*
X99612015Y-57228431D01*
X99863905Y-57279440D01*
X101191465Y-57279440D01*
X101191465Y-58607000D01*
X101235743Y-58842317D01*
X101293452Y-58932000D01*
X99553579Y-58932000D01*
X98034790Y-57413210D01*
X97964449Y-57366210D01*
X97747675Y-57221367D01*
X97691484Y-57210190D01*
X97409000Y-57153999D01*
X97408995Y-57154000D01*
X94727579Y-57154000D01*
X91811790Y-54238210D01*
X91734660Y-54186674D01*
X91524675Y-54046367D01*
X91468344Y-54035162D01*
X91186000Y-53978999D01*
X91185995Y-53979000D01*
X90597432Y-53979000D01*
X90487147Y-53813946D01*
X90157974Y-53594000D01*
X90487147Y-53374054D01*
X90597432Y-53209000D01*
X90832647Y-53209000D01*
X91120515Y-53497371D01*
G36*
X107716465Y-52632000D02*
X107740849Y-52761589D01*
X107716465Y-52882000D01*
X107716465Y-53432000D01*
X107736355Y-53537705D01*
X107728905Y-53555690D01*
X107728905Y-53671250D01*
X107825306Y-53767651D01*
X107899815Y-53883441D01*
X108007302Y-53956884D01*
X107912464Y-54017910D01*
X107823410Y-54148245D01*
X107728905Y-54242750D01*
X107728905Y-54358310D01*
X107737373Y-54378753D01*
X107716465Y-54482000D01*
X107716465Y-55032000D01*
X107740849Y-55161589D01*
X107716465Y-55282000D01*
X107716465Y-55832000D01*
X107740849Y-55961589D01*
X107716465Y-56082000D01*
X107716465Y-56359560D01*
X107438905Y-56359560D01*
X107309316Y-56383944D01*
X107188905Y-56359560D01*
X106638905Y-56359560D01*
X106509316Y-56383944D01*
X106388905Y-56359560D01*
X105838905Y-56359560D01*
X105709316Y-56383944D01*
X105588905Y-56359560D01*
X105038905Y-56359560D01*
X104909316Y-56383944D01*
X104788905Y-56359560D01*
X104238905Y-56359560D01*
X104109316Y-56383944D01*
X103988905Y-56359560D01*
X103438905Y-56359560D01*
X103309316Y-56383944D01*
X103188905Y-56359560D01*
X102638905Y-56359560D01*
X102509316Y-56383944D01*
X102388905Y-56359560D01*
X102111345Y-56359560D01*
X102111345Y-56082000D01*
X102086961Y-55952411D01*
X102111345Y-55832000D01*
X102111345Y-55282000D01*
X102091455Y-55176295D01*
X102098905Y-55158310D01*
X102098905Y-55042750D01*
X102002504Y-54946349D01*
X101927995Y-54830559D01*
X101820508Y-54757116D01*
X101915346Y-54696090D01*
X102004400Y-54565755D01*
X102098905Y-54471250D01*
X102098905Y-54355690D01*
X102090437Y-54335247D01*
X102111345Y-54232000D01*
X102111345Y-53682000D01*
X102091455Y-53576295D01*
X102098905Y-53558310D01*
X102098905Y-53442750D01*
X102002504Y-53346349D01*
X101962385Y-53284002D01*
X102098905Y-53284002D01*
X102098905Y-53242000D01*
X105376995Y-53242000D01*
X105377000Y-53242001D01*
X105659484Y-53185810D01*
X105715675Y-53174633D01*
X106002790Y-52982790D01*
X106543579Y-52442000D01*
X107716465Y-52442000D01*
X107716465Y-52632000D01*
X107716465Y-52632000D01*
G37*
X107716465Y-52632000D02*
X107740849Y-52761589D01*
X107716465Y-52882000D01*
X107716465Y-53432000D01*
X107736355Y-53537705D01*
X107728905Y-53555690D01*
X107728905Y-53671250D01*
X107825306Y-53767651D01*
X107899815Y-53883441D01*
X108007302Y-53956884D01*
X107912464Y-54017910D01*
X107823410Y-54148245D01*
X107728905Y-54242750D01*
X107728905Y-54358310D01*
X107737373Y-54378753D01*
X107716465Y-54482000D01*
X107716465Y-55032000D01*
X107740849Y-55161589D01*
X107716465Y-55282000D01*
X107716465Y-55832000D01*
X107740849Y-55961589D01*
X107716465Y-56082000D01*
X107716465Y-56359560D01*
X107438905Y-56359560D01*
X107309316Y-56383944D01*
X107188905Y-56359560D01*
X106638905Y-56359560D01*
X106509316Y-56383944D01*
X106388905Y-56359560D01*
X105838905Y-56359560D01*
X105709316Y-56383944D01*
X105588905Y-56359560D01*
X105038905Y-56359560D01*
X104909316Y-56383944D01*
X104788905Y-56359560D01*
X104238905Y-56359560D01*
X104109316Y-56383944D01*
X103988905Y-56359560D01*
X103438905Y-56359560D01*
X103309316Y-56383944D01*
X103188905Y-56359560D01*
X102638905Y-56359560D01*
X102509316Y-56383944D01*
X102388905Y-56359560D01*
X102111345Y-56359560D01*
X102111345Y-56082000D01*
X102086961Y-55952411D01*
X102111345Y-55832000D01*
X102111345Y-55282000D01*
X102091455Y-55176295D01*
X102098905Y-55158310D01*
X102098905Y-55042750D01*
X102002504Y-54946349D01*
X101927995Y-54830559D01*
X101820508Y-54757116D01*
X101915346Y-54696090D01*
X102004400Y-54565755D01*
X102098905Y-54471250D01*
X102098905Y-54355690D01*
X102090437Y-54335247D01*
X102111345Y-54232000D01*
X102111345Y-53682000D01*
X102091455Y-53576295D01*
X102098905Y-53558310D01*
X102098905Y-53442750D01*
X102002504Y-53346349D01*
X101962385Y-53284002D01*
X102098905Y-53284002D01*
X102098905Y-53242000D01*
X105376995Y-53242000D01*
X105377000Y-53242001D01*
X105659484Y-53185810D01*
X105715675Y-53174633D01*
X106002790Y-52982790D01*
X106543579Y-52442000D01*
X107716465Y-52442000D01*
X107716465Y-52632000D01*
M02*
