M48
;DRILL file {KiCad 4.0.7} date Fri Feb  9 23:19:19 2018
;FORMAT={-:-/ absolute / metric / decimal}
FMAT,2
METRIC,TZ
T1C0.600
T2C0.800
T3C1.000
T4C1.100
%
G90
G05
M71
T1
X91.821Y-52.451
X91.948Y-61.722
X96.139Y-54.737
X98.298Y-46.355
X120.523Y-38.608
X120.523Y-44.704
X120.65Y-50.673
X121.793Y-37.338
X121.793Y-39.878
X121.793Y-43.434
X121.793Y-45.974
X121.92Y-49.403
X121.92Y-51.943
T2
X89.662Y-38.608
X89.662Y-41.108
X90.678Y-45.466
X94.478Y-45.466
X94.488Y-38.608
X94.488Y-41.108
X99.521Y-64.262
X104.521Y-64.262
T3
X89.408Y-52.324
X89.408Y-54.864
X89.408Y-57.404
X89.408Y-59.944
X89.408Y-62.484
X104.394Y-67.564
X106.934Y-67.564
X109.474Y-67.564
X112.014Y-67.564
X126.619Y-38.227
X126.619Y-40.767
X126.619Y-45.593
X126.619Y-48.133
X126.619Y-52.959
X126.619Y-55.499
T4
X90.528Y-69.414
X90.528Y-73.914
X97.028Y-69.414
X97.028Y-73.914
T0
M30
