G04 #@! TF.FileFunction,Other,User*
%FSLAX46Y46*%
G04 Gerber Fmt 4.6, Leading zero omitted, Abs format (unit mm)*
G04 Created by KiCad (PCBNEW 4.0.7) date Fri Feb  9 23:36:38 2018*
%MOMM*%
%LPD*%
G01*
G04 APERTURE LIST*
%ADD10C,0.150000*%
%ADD11C,0.050000*%
G04 APERTURE END LIST*
D10*
D11*
X123508000Y-54853000D02*
X118808000Y-54853000D01*
X123508000Y-54853000D02*
X123508000Y-56653000D01*
X118808000Y-56653000D02*
X118808000Y-54853000D01*
X118808000Y-56653000D02*
X123508000Y-56653000D01*
X123508000Y-58282000D02*
X118808000Y-58282000D01*
X123508000Y-58282000D02*
X123508000Y-60082000D01*
X118808000Y-60082000D02*
X118808000Y-58282000D01*
X118808000Y-60082000D02*
X123508000Y-60082000D01*
X123508000Y-61584000D02*
X118808000Y-61584000D01*
X123508000Y-61584000D02*
X123508000Y-63384000D01*
X118808000Y-63384000D02*
X118808000Y-61584000D01*
X118808000Y-63384000D02*
X123508000Y-63384000D01*
X93027000Y-62749000D02*
X97727000Y-62749000D01*
X93027000Y-62749000D02*
X93027000Y-60949000D01*
X97727000Y-60949000D02*
X97727000Y-62749000D01*
X97727000Y-60949000D02*
X93027000Y-60949000D01*
X116396000Y-61584000D02*
X111696000Y-61584000D01*
X116396000Y-61584000D02*
X116396000Y-63384000D01*
X111696000Y-63384000D02*
X111696000Y-61584000D01*
X111696000Y-63384000D02*
X116396000Y-63384000D01*
X116396000Y-58282000D02*
X111696000Y-58282000D01*
X116396000Y-58282000D02*
X116396000Y-60082000D01*
X111696000Y-60082000D02*
X111696000Y-58282000D01*
X111696000Y-60082000D02*
X116396000Y-60082000D01*
X116396000Y-54980000D02*
X111696000Y-54980000D01*
X116396000Y-54980000D02*
X116396000Y-56780000D01*
X111696000Y-56780000D02*
X111696000Y-54980000D01*
X111696000Y-56780000D02*
X116396000Y-56780000D01*
X113348000Y-38089000D02*
X108648000Y-38089000D01*
X113348000Y-38089000D02*
X113348000Y-39889000D01*
X108648000Y-39889000D02*
X108648000Y-38089000D01*
X108648000Y-39889000D02*
X113348000Y-39889000D01*
X113348000Y-41518000D02*
X108648000Y-41518000D01*
X113348000Y-41518000D02*
X113348000Y-43318000D01*
X108648000Y-43318000D02*
X108648000Y-41518000D01*
X108648000Y-43318000D02*
X113348000Y-43318000D01*
X113221000Y-44820000D02*
X108521000Y-44820000D01*
X113221000Y-44820000D02*
X113221000Y-46620000D01*
X108521000Y-46620000D02*
X108521000Y-44820000D01*
X108521000Y-46620000D02*
X113221000Y-46620000D01*
X99613905Y-58857000D02*
X99613905Y-48257000D01*
X110213905Y-58857000D02*
X110213905Y-48257000D01*
X99613905Y-58857000D02*
X110213905Y-58857000D01*
X99613905Y-48257000D02*
X110213905Y-48257000D01*
M02*
