G04 #@! TF.FileFunction,Other,User*
%FSLAX46Y46*%
G04 Gerber Fmt 4.6, Leading zero omitted, Abs format (unit mm)*
G04 Created by KiCad (PCBNEW 4.0.7) date Fri Feb  9 23:36:38 2018*
%MOMM*%
%LPD*%
G01*
G04 APERTURE LIST*
%ADD10C,0.150000*%
%ADD11C,0.050000*%
G04 APERTURE END LIST*
D10*
D11*
X105571000Y-65562000D02*
X105571000Y-62962000D01*
X105571000Y-62962000D02*
X98471000Y-62962000D01*
X98471000Y-62962000D02*
X98471000Y-65562000D01*
X98471000Y-65562000D02*
X105571000Y-65562000D01*
X91312000Y-37558000D02*
X88012000Y-37558000D01*
X88012000Y-37558000D02*
X88012000Y-42158000D01*
X88012000Y-42158000D02*
X91312000Y-42158000D01*
X91312000Y-42158000D02*
X91312000Y-37558000D01*
X96138000Y-37558000D02*
X92838000Y-37558000D01*
X92838000Y-37558000D02*
X92838000Y-42158000D01*
X92838000Y-42158000D02*
X96138000Y-42158000D01*
X96138000Y-42158000D02*
X96138000Y-37558000D01*
X102594000Y-69364000D02*
X113794000Y-69364000D01*
X113794000Y-69364000D02*
X113794000Y-65764000D01*
X113794000Y-65764000D02*
X102594000Y-65764000D01*
X102594000Y-65764000D02*
X102594000Y-69364000D01*
X91208000Y-64284000D02*
X91208000Y-50534000D01*
X91208000Y-50534000D02*
X87608000Y-50534000D01*
X87608000Y-50534000D02*
X87608000Y-64284000D01*
X87608000Y-64284000D02*
X91208000Y-64284000D01*
X124819000Y-36427000D02*
X124819000Y-42577000D01*
X124819000Y-42577000D02*
X137169000Y-42577000D01*
X137169000Y-42577000D02*
X137169000Y-36427000D01*
X137169000Y-36427000D02*
X124819000Y-36427000D01*
X124819000Y-43793000D02*
X124819000Y-49943000D01*
X124819000Y-49943000D02*
X137169000Y-49943000D01*
X137169000Y-49943000D02*
X137169000Y-43793000D01*
X137169000Y-43793000D02*
X124819000Y-43793000D01*
X124819000Y-51159000D02*
X124819000Y-57309000D01*
X124819000Y-57309000D02*
X137169000Y-57309000D01*
X137169000Y-57309000D02*
X137169000Y-51159000D01*
X137169000Y-51159000D02*
X124819000Y-51159000D01*
X119063000Y-41338000D02*
X119063000Y-35878000D01*
X119063000Y-41338000D02*
X123803000Y-41338000D01*
X123803000Y-35878000D02*
X119063000Y-35878000D01*
X123803000Y-35878000D02*
X123803000Y-41338000D01*
X119063000Y-47434000D02*
X119063000Y-41974000D01*
X119063000Y-47434000D02*
X123803000Y-47434000D01*
X123803000Y-41974000D02*
X119063000Y-41974000D01*
X123803000Y-41974000D02*
X123803000Y-47434000D01*
X119190000Y-53403000D02*
X119190000Y-47943000D01*
X119190000Y-53403000D02*
X123930000Y-53403000D01*
X123930000Y-47943000D02*
X119190000Y-47943000D01*
X123930000Y-47943000D02*
X123930000Y-53403000D01*
X89278000Y-67914000D02*
X89028000Y-67914000D01*
X89028000Y-67914000D02*
X89028000Y-68164000D01*
X89278000Y-75414000D02*
X89028000Y-75414000D01*
X89028000Y-75414000D02*
X89028000Y-75164000D01*
X98528000Y-75164000D02*
X98528000Y-75414000D01*
X98528000Y-75414000D02*
X98278000Y-75414000D01*
X98528000Y-68164000D02*
X98528000Y-67914000D01*
X98528000Y-67914000D02*
X98278000Y-67914000D01*
X98278000Y-75414000D02*
X89278000Y-75414000D01*
X98528000Y-68164000D02*
X98528000Y-75164000D01*
X89278000Y-67914000D02*
X98278000Y-67914000D01*
X89028000Y-75164000D02*
X89028000Y-68164000D01*
X88078000Y-43366000D02*
X88078000Y-47566000D01*
X88078000Y-47566000D02*
X97078000Y-47566000D01*
X97078000Y-47566000D02*
X97078000Y-43366000D01*
X97078000Y-43366000D02*
X88078000Y-43366000D01*
M02*
