G04 #@! TF.FileFunction,Copper,L1,Top,Signal*
%FSLAX46Y46*%
G04 Gerber Fmt 4.6, Leading zero omitted, Abs format (unit mm)*
G04 Created by KiCad (PCBNEW 4.0.7) date Fri Feb  9 23:36:38 2018*
%MOMM*%
%LPD*%
G01*
G04 APERTURE LIST*
%ADD10C,0.150000*%
%ADD11C,1.600000*%
%ADD12R,1.700000X1.700000*%
%ADD13O,1.700000X1.700000*%
%ADD14O,1.400000X1.000000*%
%ADD15C,2.000000*%
%ADD16C,1.500000*%
%ADD17C,1.200000*%
%ADD18C,0.500000*%
G04 APERTURE END LIST*
D10*
D11*
X104521000Y-64262000D03*
X99521000Y-64262000D03*
X89662000Y-38608000D03*
X89662000Y-41108000D03*
X94488000Y-38608000D03*
X94488000Y-41108000D03*
D12*
X104394000Y-67564000D03*
D13*
X106934000Y-67564000D03*
X109474000Y-67564000D03*
X112014000Y-67564000D03*
D12*
X89408000Y-62484000D03*
D13*
X89408000Y-59944000D03*
X89408000Y-57404000D03*
X89408000Y-54864000D03*
X89408000Y-52324000D03*
D12*
X126619000Y-38227000D03*
D13*
X126619000Y-40767000D03*
D12*
X126619000Y-45593000D03*
D13*
X126619000Y-48133000D03*
D12*
X126619000Y-52959000D03*
D13*
X126619000Y-55499000D03*
D14*
X120523000Y-38608000D03*
X121793000Y-37338000D03*
X121793000Y-39878000D03*
X120523000Y-44704000D03*
X121793000Y-43434000D03*
X121793000Y-45974000D03*
X120650000Y-50673000D03*
X121920000Y-49403000D03*
X121920000Y-51943000D03*
D15*
X97028000Y-69414000D03*
X97028000Y-73914000D03*
X90528000Y-69414000D03*
X90528000Y-73914000D03*
D16*
X90678000Y-45466000D03*
X94478000Y-45466000D03*
D17*
X96139000Y-54737000D03*
X98298000Y-46355000D03*
X91821000Y-52451000D03*
X91948000Y-61722000D03*
D18*
X96139000Y-48514000D02*
X96139000Y-54737000D01*
X98298000Y-46355000D02*
X96139000Y-48514000D01*
X91821000Y-61595000D02*
X91821000Y-52451000D01*
X91948000Y-61722000D02*
X91821000Y-61595000D01*
M02*
