G04 #@! TF.FileFunction,Legend,Top*
%FSLAX46Y46*%
G04 Gerber Fmt 4.6, Leading zero omitted, Abs format (unit mm)*
G04 Created by KiCad (PCBNEW 4.0.7) date Fri Feb  9 23:36:38 2018*
%MOMM*%
%LPD*%
G01*
G04 APERTURE LIST*
%ADD10C,0.150000*%
%ADD11C,0.120000*%
G04 APERTURE END LIST*
D10*
D11*
X104231000Y-65272000D02*
X99811000Y-65272000D01*
X104231000Y-63252000D02*
X99811000Y-63252000D01*
X104231000Y-65272000D02*
X104231000Y-65258000D01*
X104231000Y-63266000D02*
X104231000Y-63252000D01*
X99811000Y-65272000D02*
X99811000Y-65258000D01*
X99811000Y-63266000D02*
X99811000Y-63252000D01*
X91022000Y-37898000D02*
X91022000Y-41818000D01*
X88302000Y-37898000D02*
X88302000Y-41818000D01*
X91022000Y-37898000D02*
X90412000Y-37898000D01*
X88912000Y-37898000D02*
X88302000Y-37898000D01*
X91022000Y-41818000D02*
X90412000Y-41818000D01*
X88912000Y-41818000D02*
X88302000Y-41818000D01*
X95848000Y-37898000D02*
X95848000Y-41818000D01*
X93128000Y-37898000D02*
X93128000Y-41818000D01*
X95848000Y-37898000D02*
X95238000Y-37898000D01*
X93738000Y-37898000D02*
X93128000Y-37898000D01*
X95848000Y-41818000D02*
X95238000Y-41818000D01*
X93738000Y-41818000D02*
X93128000Y-41818000D01*
X113344000Y-68894000D02*
X113344000Y-66234000D01*
X105664000Y-68894000D02*
X113344000Y-68894000D01*
X105664000Y-66234000D02*
X113344000Y-66234000D01*
X105664000Y-68894000D02*
X105664000Y-66234000D01*
X104394000Y-68894000D02*
X103064000Y-68894000D01*
X103064000Y-68894000D02*
X103064000Y-67564000D01*
X90738000Y-50994000D02*
X88078000Y-50994000D01*
X90738000Y-61214000D02*
X90738000Y-50994000D01*
X88078000Y-61214000D02*
X88078000Y-50994000D01*
X90738000Y-61214000D02*
X88078000Y-61214000D01*
X90738000Y-62484000D02*
X90738000Y-63814000D01*
X90738000Y-63814000D02*
X89408000Y-63814000D01*
X128059000Y-36897000D02*
X128059000Y-42097000D01*
X128059000Y-42097000D02*
X130719000Y-42097000D01*
X130719000Y-42097000D02*
X130719000Y-36897000D01*
X130719000Y-36897000D02*
X128059000Y-36897000D01*
X130719000Y-37847000D02*
X136719000Y-37847000D01*
X136719000Y-37847000D02*
X136719000Y-38607000D01*
X136719000Y-38607000D02*
X130719000Y-38607000D01*
X130719000Y-37907000D02*
X136719000Y-37907000D01*
X130719000Y-38027000D02*
X136719000Y-38027000D01*
X130719000Y-38147000D02*
X136719000Y-38147000D01*
X130719000Y-38267000D02*
X136719000Y-38267000D01*
X130719000Y-38387000D02*
X136719000Y-38387000D01*
X130719000Y-38507000D02*
X136719000Y-38507000D01*
X127729000Y-37847000D02*
X128059000Y-37847000D01*
X127729000Y-38607000D02*
X128059000Y-38607000D01*
X128059000Y-39497000D02*
X130719000Y-39497000D01*
X130719000Y-40387000D02*
X136719000Y-40387000D01*
X136719000Y-40387000D02*
X136719000Y-41147000D01*
X136719000Y-41147000D02*
X130719000Y-41147000D01*
X127661929Y-40387000D02*
X128059000Y-40387000D01*
X127661929Y-41147000D02*
X128059000Y-41147000D01*
X125349000Y-38227000D02*
X125349000Y-36957000D01*
X125349000Y-36957000D02*
X126619000Y-36957000D01*
X128059000Y-44263000D02*
X128059000Y-49463000D01*
X128059000Y-49463000D02*
X130719000Y-49463000D01*
X130719000Y-49463000D02*
X130719000Y-44263000D01*
X130719000Y-44263000D02*
X128059000Y-44263000D01*
X130719000Y-45213000D02*
X136719000Y-45213000D01*
X136719000Y-45213000D02*
X136719000Y-45973000D01*
X136719000Y-45973000D02*
X130719000Y-45973000D01*
X130719000Y-45273000D02*
X136719000Y-45273000D01*
X130719000Y-45393000D02*
X136719000Y-45393000D01*
X130719000Y-45513000D02*
X136719000Y-45513000D01*
X130719000Y-45633000D02*
X136719000Y-45633000D01*
X130719000Y-45753000D02*
X136719000Y-45753000D01*
X130719000Y-45873000D02*
X136719000Y-45873000D01*
X127729000Y-45213000D02*
X128059000Y-45213000D01*
X127729000Y-45973000D02*
X128059000Y-45973000D01*
X128059000Y-46863000D02*
X130719000Y-46863000D01*
X130719000Y-47753000D02*
X136719000Y-47753000D01*
X136719000Y-47753000D02*
X136719000Y-48513000D01*
X136719000Y-48513000D02*
X130719000Y-48513000D01*
X127661929Y-47753000D02*
X128059000Y-47753000D01*
X127661929Y-48513000D02*
X128059000Y-48513000D01*
X125349000Y-45593000D02*
X125349000Y-44323000D01*
X125349000Y-44323000D02*
X126619000Y-44323000D01*
X128059000Y-51629000D02*
X128059000Y-56829000D01*
X128059000Y-56829000D02*
X130719000Y-56829000D01*
X130719000Y-56829000D02*
X130719000Y-51629000D01*
X130719000Y-51629000D02*
X128059000Y-51629000D01*
X130719000Y-52579000D02*
X136719000Y-52579000D01*
X136719000Y-52579000D02*
X136719000Y-53339000D01*
X136719000Y-53339000D02*
X130719000Y-53339000D01*
X130719000Y-52639000D02*
X136719000Y-52639000D01*
X130719000Y-52759000D02*
X136719000Y-52759000D01*
X130719000Y-52879000D02*
X136719000Y-52879000D01*
X130719000Y-52999000D02*
X136719000Y-52999000D01*
X130719000Y-53119000D02*
X136719000Y-53119000D01*
X130719000Y-53239000D02*
X136719000Y-53239000D01*
X127729000Y-52579000D02*
X128059000Y-52579000D01*
X127729000Y-53339000D02*
X128059000Y-53339000D01*
X128059000Y-54229000D02*
X130719000Y-54229000D01*
X130719000Y-55119000D02*
X136719000Y-55119000D01*
X136719000Y-55119000D02*
X136719000Y-55879000D01*
X136719000Y-55879000D02*
X130719000Y-55879000D01*
X127661929Y-55119000D02*
X128059000Y-55119000D01*
X127661929Y-55879000D02*
X128059000Y-55879000D01*
X125349000Y-52959000D02*
X125349000Y-51689000D01*
X125349000Y-51689000D02*
X126619000Y-51689000D01*
X123643000Y-40408000D02*
X123643000Y-36808000D01*
X123631478Y-40446478D02*
G75*
G02X119193000Y-38608000I-1838478J1838478D01*
G01*
X123631478Y-36769522D02*
G75*
G03X119193000Y-38608000I-1838478J-1838478D01*
G01*
X123643000Y-46504000D02*
X123643000Y-42904000D01*
X123631478Y-46542478D02*
G75*
G02X119193000Y-44704000I-1838478J1838478D01*
G01*
X123631478Y-42865522D02*
G75*
G03X119193000Y-44704000I-1838478J-1838478D01*
G01*
X123770000Y-52473000D02*
X123770000Y-48873000D01*
X123758478Y-52511478D02*
G75*
G02X119320000Y-50673000I-1838478J1838478D01*
G01*
X123758478Y-48834522D02*
G75*
G03X119320000Y-50673000I-1838478J-1838478D01*
G01*
X96028000Y-68414000D02*
X91528000Y-68414000D01*
X97278000Y-72414000D02*
X97278000Y-70914000D01*
X91528000Y-74914000D02*
X96028000Y-74914000D01*
X90278000Y-70914000D02*
X90278000Y-72414000D01*
X90228000Y-43616000D02*
X94928000Y-43616000D01*
X90228000Y-47316000D02*
X94928000Y-47316000D01*
X90228000Y-47316000D02*
G75*
G02X90228000Y-43616000I0J1850000D01*
G01*
X94928000Y-47316000D02*
G75*
G03X94928000Y-43616000I0J1850000D01*
G01*
D10*
X101854334Y-66879143D02*
X101806715Y-66926762D01*
X101663858Y-66974381D01*
X101568620Y-66974381D01*
X101425762Y-66926762D01*
X101330524Y-66831524D01*
X101282905Y-66736286D01*
X101235286Y-66545810D01*
X101235286Y-66402952D01*
X101282905Y-66212476D01*
X101330524Y-66117238D01*
X101425762Y-66022000D01*
X101568620Y-65974381D01*
X101663858Y-65974381D01*
X101806715Y-66022000D01*
X101854334Y-66069619D01*
X102806715Y-66974381D02*
X102235286Y-66974381D01*
X102521000Y-66974381D02*
X102521000Y-65974381D01*
X102425762Y-66117238D01*
X102330524Y-66212476D01*
X102235286Y-66260095D01*
X92629143Y-40024666D02*
X92676762Y-40072285D01*
X92724381Y-40215142D01*
X92724381Y-40310380D01*
X92676762Y-40453238D01*
X92581524Y-40548476D01*
X92486286Y-40596095D01*
X92295810Y-40643714D01*
X92152952Y-40643714D01*
X91962476Y-40596095D01*
X91867238Y-40548476D01*
X91772000Y-40453238D01*
X91724381Y-40310380D01*
X91724381Y-40215142D01*
X91772000Y-40072285D01*
X91819619Y-40024666D01*
X91819619Y-39643714D02*
X91772000Y-39596095D01*
X91724381Y-39500857D01*
X91724381Y-39262761D01*
X91772000Y-39167523D01*
X91819619Y-39119904D01*
X91914857Y-39072285D01*
X92010095Y-39072285D01*
X92152952Y-39119904D01*
X92724381Y-39691333D01*
X92724381Y-39072285D01*
X97455143Y-40024666D02*
X97502762Y-40072285D01*
X97550381Y-40215142D01*
X97550381Y-40310380D01*
X97502762Y-40453238D01*
X97407524Y-40548476D01*
X97312286Y-40596095D01*
X97121810Y-40643714D01*
X96978952Y-40643714D01*
X96788476Y-40596095D01*
X96693238Y-40548476D01*
X96598000Y-40453238D01*
X96550381Y-40310380D01*
X96550381Y-40215142D01*
X96598000Y-40072285D01*
X96645619Y-40024666D01*
X96550381Y-39691333D02*
X96550381Y-39072285D01*
X96931333Y-39405619D01*
X96931333Y-39262761D01*
X96978952Y-39167523D01*
X97026571Y-39119904D01*
X97121810Y-39072285D01*
X97359905Y-39072285D01*
X97455143Y-39119904D01*
X97502762Y-39167523D01*
X97550381Y-39262761D01*
X97550381Y-39548476D01*
X97502762Y-39643714D01*
X97455143Y-39691333D01*
X101516381Y-67897333D02*
X102230667Y-67897333D01*
X102373524Y-67944953D01*
X102468762Y-68040191D01*
X102516381Y-68183048D01*
X102516381Y-68278286D01*
X102516381Y-66897333D02*
X102516381Y-67468762D01*
X102516381Y-67183048D02*
X101516381Y-67183048D01*
X101659238Y-67278286D01*
X101754476Y-67373524D01*
X101802095Y-67468762D01*
X89074667Y-64266381D02*
X89074667Y-64980667D01*
X89027047Y-65123524D01*
X88931809Y-65218762D01*
X88788952Y-65266381D01*
X88693714Y-65266381D01*
X89503238Y-64361619D02*
X89550857Y-64314000D01*
X89646095Y-64266381D01*
X89884191Y-64266381D01*
X89979429Y-64314000D01*
X90027048Y-64361619D01*
X90074667Y-64456857D01*
X90074667Y-64552095D01*
X90027048Y-64694952D01*
X89455619Y-65266381D01*
X90074667Y-65266381D01*
X130670667Y-35409381D02*
X130670667Y-36123667D01*
X130623047Y-36266524D01*
X130527809Y-36361762D01*
X130384952Y-36409381D01*
X130289714Y-36409381D01*
X131051619Y-35409381D02*
X131670667Y-35409381D01*
X131337333Y-35790333D01*
X131480191Y-35790333D01*
X131575429Y-35837952D01*
X131623048Y-35885571D01*
X131670667Y-35980810D01*
X131670667Y-36218905D01*
X131623048Y-36314143D01*
X131575429Y-36361762D01*
X131480191Y-36409381D01*
X131194476Y-36409381D01*
X131099238Y-36361762D01*
X131051619Y-36314143D01*
X130670667Y-42775381D02*
X130670667Y-43489667D01*
X130623047Y-43632524D01*
X130527809Y-43727762D01*
X130384952Y-43775381D01*
X130289714Y-43775381D01*
X131575429Y-43108714D02*
X131575429Y-43775381D01*
X131337333Y-42727762D02*
X131099238Y-43442048D01*
X131718286Y-43442048D01*
X130670667Y-50141381D02*
X130670667Y-50855667D01*
X130623047Y-50998524D01*
X130527809Y-51093762D01*
X130384952Y-51141381D01*
X130289714Y-51141381D01*
X131623048Y-50141381D02*
X131146857Y-50141381D01*
X131099238Y-50617571D01*
X131146857Y-50569952D01*
X131242095Y-50522333D01*
X131480191Y-50522333D01*
X131575429Y-50569952D01*
X131623048Y-50617571D01*
X131670667Y-50712810D01*
X131670667Y-50950905D01*
X131623048Y-51046143D01*
X131575429Y-51093762D01*
X131480191Y-51141381D01*
X131242095Y-51141381D01*
X131146857Y-51093762D01*
X131099238Y-51046143D01*
X118780619Y-38703238D02*
X118733000Y-38798476D01*
X118637762Y-38893714D01*
X118494905Y-39036571D01*
X118447286Y-39131810D01*
X118447286Y-39227048D01*
X118685381Y-39179429D02*
X118637762Y-39274667D01*
X118542524Y-39369905D01*
X118352048Y-39417524D01*
X118018714Y-39417524D01*
X117828238Y-39369905D01*
X117733000Y-39274667D01*
X117685381Y-39179429D01*
X117685381Y-38988952D01*
X117733000Y-38893714D01*
X117828238Y-38798476D01*
X118018714Y-38750857D01*
X118352048Y-38750857D01*
X118542524Y-38798476D01*
X118637762Y-38893714D01*
X118685381Y-38988952D01*
X118685381Y-39179429D01*
X118685381Y-37798476D02*
X118685381Y-38369905D01*
X118685381Y-38084191D02*
X117685381Y-38084191D01*
X117828238Y-38179429D01*
X117923476Y-38274667D01*
X117971095Y-38369905D01*
X118780619Y-44799238D02*
X118733000Y-44894476D01*
X118637762Y-44989714D01*
X118494905Y-45132571D01*
X118447286Y-45227810D01*
X118447286Y-45323048D01*
X118685381Y-45275429D02*
X118637762Y-45370667D01*
X118542524Y-45465905D01*
X118352048Y-45513524D01*
X118018714Y-45513524D01*
X117828238Y-45465905D01*
X117733000Y-45370667D01*
X117685381Y-45275429D01*
X117685381Y-45084952D01*
X117733000Y-44989714D01*
X117828238Y-44894476D01*
X118018714Y-44846857D01*
X118352048Y-44846857D01*
X118542524Y-44894476D01*
X118637762Y-44989714D01*
X118685381Y-45084952D01*
X118685381Y-45275429D01*
X117780619Y-44465905D02*
X117733000Y-44418286D01*
X117685381Y-44323048D01*
X117685381Y-44084952D01*
X117733000Y-43989714D01*
X117780619Y-43942095D01*
X117875857Y-43894476D01*
X117971095Y-43894476D01*
X118113952Y-43942095D01*
X118685381Y-44513524D01*
X118685381Y-43894476D01*
X118907619Y-50768238D02*
X118860000Y-50863476D01*
X118764762Y-50958714D01*
X118621905Y-51101571D01*
X118574286Y-51196810D01*
X118574286Y-51292048D01*
X118812381Y-51244429D02*
X118764762Y-51339667D01*
X118669524Y-51434905D01*
X118479048Y-51482524D01*
X118145714Y-51482524D01*
X117955238Y-51434905D01*
X117860000Y-51339667D01*
X117812381Y-51244429D01*
X117812381Y-51053952D01*
X117860000Y-50958714D01*
X117955238Y-50863476D01*
X118145714Y-50815857D01*
X118479048Y-50815857D01*
X118669524Y-50863476D01*
X118764762Y-50958714D01*
X118812381Y-51053952D01*
X118812381Y-51244429D01*
X117812381Y-50482524D02*
X117812381Y-49863476D01*
X118193333Y-50196810D01*
X118193333Y-50053952D01*
X118240952Y-49958714D01*
X118288571Y-49911095D01*
X118383810Y-49863476D01*
X118621905Y-49863476D01*
X118717143Y-49911095D01*
X118764762Y-49958714D01*
X118812381Y-50053952D01*
X118812381Y-50339667D01*
X118764762Y-50434905D01*
X118717143Y-50482524D01*
X92444667Y-76318762D02*
X92587524Y-76366381D01*
X92825620Y-76366381D01*
X92920858Y-76318762D01*
X92968477Y-76271143D01*
X93016096Y-76175905D01*
X93016096Y-76080667D01*
X92968477Y-75985429D01*
X92920858Y-75937810D01*
X92825620Y-75890190D01*
X92635143Y-75842571D01*
X92539905Y-75794952D01*
X92492286Y-75747333D01*
X92444667Y-75652095D01*
X92444667Y-75556857D01*
X92492286Y-75461619D01*
X92539905Y-75414000D01*
X92635143Y-75366381D01*
X92873239Y-75366381D01*
X93016096Y-75414000D01*
X93349429Y-75366381D02*
X93587524Y-76366381D01*
X93778001Y-75652095D01*
X93968477Y-76366381D01*
X94206572Y-75366381D01*
X95111334Y-76366381D02*
X94539905Y-76366381D01*
X94825619Y-76366381D02*
X94825619Y-75366381D01*
X94730381Y-75509238D01*
X94635143Y-75604476D01*
X94539905Y-75652095D01*
X92101809Y-42592190D02*
X92101809Y-43068381D01*
X91768476Y-42068381D02*
X92101809Y-42592190D01*
X92435143Y-42068381D01*
X93292286Y-43068381D02*
X92720857Y-43068381D01*
X93006571Y-43068381D02*
X93006571Y-42068381D01*
X92911333Y-42211238D01*
X92816095Y-42306476D01*
X92720857Y-42354095D01*
M02*
