G04 #@! TF.FileFunction,Legend,Bot*
%FSLAX46Y46*%
G04 Gerber Fmt 4.6, Leading zero omitted, Abs format (unit mm)*
G04 Created by KiCad (PCBNEW 4.0.7) date Fri Feb  9 23:36:38 2018*
%MOMM*%
%LPD*%
G01*
G04 APERTURE LIST*
%ADD10C,0.150000*%
%ADD11C,0.120000*%
G04 APERTURE END LIST*
D10*
D11*
X120158000Y-56503000D02*
X123358000Y-56503000D01*
X123358000Y-55003000D02*
X120158000Y-55003000D01*
X123358000Y-55003000D02*
X123358000Y-56503000D01*
X120158000Y-59932000D02*
X123358000Y-59932000D01*
X123358000Y-58432000D02*
X120158000Y-58432000D01*
X123358000Y-58432000D02*
X123358000Y-59932000D01*
X120158000Y-63234000D02*
X123358000Y-63234000D01*
X123358000Y-61734000D02*
X120158000Y-61734000D01*
X123358000Y-61734000D02*
X123358000Y-63234000D01*
X95977000Y-60969000D02*
X94777000Y-60969000D01*
X94777000Y-62729000D02*
X95977000Y-62729000D01*
X113446000Y-63364000D02*
X114646000Y-63364000D01*
X114646000Y-61604000D02*
X113446000Y-61604000D01*
X113446000Y-60062000D02*
X114646000Y-60062000D01*
X114646000Y-58302000D02*
X113446000Y-58302000D01*
X113446000Y-56760000D02*
X114646000Y-56760000D01*
X114646000Y-55000000D02*
X113446000Y-55000000D01*
X110398000Y-39869000D02*
X111598000Y-39869000D01*
X111598000Y-38109000D02*
X110398000Y-38109000D01*
X110398000Y-43298000D02*
X111598000Y-43298000D01*
X111598000Y-41538000D02*
X110398000Y-41538000D01*
X110271000Y-46600000D02*
X111471000Y-46600000D01*
X111471000Y-44840000D02*
X110271000Y-44840000D01*
D10*
X101288905Y-57182000D02*
X101288905Y-56957000D01*
X108538905Y-57182000D02*
X108538905Y-56857000D01*
X108538905Y-49932000D02*
X108538905Y-50257000D01*
X101288905Y-49932000D02*
X101288905Y-50257000D01*
X101288905Y-57182000D02*
X101613905Y-57182000D01*
X101288905Y-49932000D02*
X101613905Y-49932000D01*
X108538905Y-49932000D02*
X108213905Y-49932000D01*
X108538905Y-57182000D02*
X108213905Y-57182000D01*
X101288905Y-56957000D02*
X99863905Y-56957000D01*
X121896095Y-54505381D02*
X121896095Y-53505381D01*
X121658000Y-53505381D01*
X121515142Y-53553000D01*
X121419904Y-53648238D01*
X121372285Y-53743476D01*
X121324666Y-53933952D01*
X121324666Y-54076810D01*
X121372285Y-54267286D01*
X121419904Y-54362524D01*
X121515142Y-54457762D01*
X121658000Y-54505381D01*
X121896095Y-54505381D01*
X120372285Y-54505381D02*
X120943714Y-54505381D01*
X120658000Y-54505381D02*
X120658000Y-53505381D01*
X120753238Y-53648238D01*
X120848476Y-53743476D01*
X120943714Y-53791095D01*
X121896095Y-57934381D02*
X121896095Y-56934381D01*
X121658000Y-56934381D01*
X121515142Y-56982000D01*
X121419904Y-57077238D01*
X121372285Y-57172476D01*
X121324666Y-57362952D01*
X121324666Y-57505810D01*
X121372285Y-57696286D01*
X121419904Y-57791524D01*
X121515142Y-57886762D01*
X121658000Y-57934381D01*
X121896095Y-57934381D01*
X120943714Y-57029619D02*
X120896095Y-56982000D01*
X120800857Y-56934381D01*
X120562761Y-56934381D01*
X120467523Y-56982000D01*
X120419904Y-57029619D01*
X120372285Y-57124857D01*
X120372285Y-57220095D01*
X120419904Y-57362952D01*
X120991333Y-57934381D01*
X120372285Y-57934381D01*
X121896095Y-61236381D02*
X121896095Y-60236381D01*
X121658000Y-60236381D01*
X121515142Y-60284000D01*
X121419904Y-60379238D01*
X121372285Y-60474476D01*
X121324666Y-60664952D01*
X121324666Y-60807810D01*
X121372285Y-60998286D01*
X121419904Y-61093524D01*
X121515142Y-61188762D01*
X121658000Y-61236381D01*
X121896095Y-61236381D01*
X120991333Y-60236381D02*
X120372285Y-60236381D01*
X120705619Y-60617333D01*
X120562761Y-60617333D01*
X120467523Y-60664952D01*
X120419904Y-60712571D01*
X120372285Y-60807810D01*
X120372285Y-61045905D01*
X120419904Y-61141143D01*
X120467523Y-61188762D01*
X120562761Y-61236381D01*
X120848476Y-61236381D01*
X120943714Y-61188762D01*
X120991333Y-61141143D01*
X95543666Y-64001381D02*
X95877000Y-63525190D01*
X96115095Y-64001381D02*
X96115095Y-63001381D01*
X95734142Y-63001381D01*
X95638904Y-63049000D01*
X95591285Y-63096619D01*
X95543666Y-63191857D01*
X95543666Y-63334714D01*
X95591285Y-63429952D01*
X95638904Y-63477571D01*
X95734142Y-63525190D01*
X96115095Y-63525190D01*
X94591285Y-64001381D02*
X95162714Y-64001381D01*
X94877000Y-64001381D02*
X94877000Y-63001381D01*
X94972238Y-63144238D01*
X95067476Y-63239476D01*
X95162714Y-63287095D01*
X114212666Y-61236381D02*
X114546000Y-60760190D01*
X114784095Y-61236381D02*
X114784095Y-60236381D01*
X114403142Y-60236381D01*
X114307904Y-60284000D01*
X114260285Y-60331619D01*
X114212666Y-60426857D01*
X114212666Y-60569714D01*
X114260285Y-60664952D01*
X114307904Y-60712571D01*
X114403142Y-60760190D01*
X114784095Y-60760190D01*
X113831714Y-60331619D02*
X113784095Y-60284000D01*
X113688857Y-60236381D01*
X113450761Y-60236381D01*
X113355523Y-60284000D01*
X113307904Y-60331619D01*
X113260285Y-60426857D01*
X113260285Y-60522095D01*
X113307904Y-60664952D01*
X113879333Y-61236381D01*
X113260285Y-61236381D01*
X114212666Y-57934381D02*
X114546000Y-57458190D01*
X114784095Y-57934381D02*
X114784095Y-56934381D01*
X114403142Y-56934381D01*
X114307904Y-56982000D01*
X114260285Y-57029619D01*
X114212666Y-57124857D01*
X114212666Y-57267714D01*
X114260285Y-57362952D01*
X114307904Y-57410571D01*
X114403142Y-57458190D01*
X114784095Y-57458190D01*
X113879333Y-56934381D02*
X113260285Y-56934381D01*
X113593619Y-57315333D01*
X113450761Y-57315333D01*
X113355523Y-57362952D01*
X113307904Y-57410571D01*
X113260285Y-57505810D01*
X113260285Y-57743905D01*
X113307904Y-57839143D01*
X113355523Y-57886762D01*
X113450761Y-57934381D01*
X113736476Y-57934381D01*
X113831714Y-57886762D01*
X113879333Y-57839143D01*
X114212666Y-54632381D02*
X114546000Y-54156190D01*
X114784095Y-54632381D02*
X114784095Y-53632381D01*
X114403142Y-53632381D01*
X114307904Y-53680000D01*
X114260285Y-53727619D01*
X114212666Y-53822857D01*
X114212666Y-53965714D01*
X114260285Y-54060952D01*
X114307904Y-54108571D01*
X114403142Y-54156190D01*
X114784095Y-54156190D01*
X113355523Y-53965714D02*
X113355523Y-54632381D01*
X113593619Y-53584762D02*
X113831714Y-54299048D01*
X113212666Y-54299048D01*
X111164666Y-37741381D02*
X111498000Y-37265190D01*
X111736095Y-37741381D02*
X111736095Y-36741381D01*
X111355142Y-36741381D01*
X111259904Y-36789000D01*
X111212285Y-36836619D01*
X111164666Y-36931857D01*
X111164666Y-37074714D01*
X111212285Y-37169952D01*
X111259904Y-37217571D01*
X111355142Y-37265190D01*
X111736095Y-37265190D01*
X110259904Y-36741381D02*
X110736095Y-36741381D01*
X110783714Y-37217571D01*
X110736095Y-37169952D01*
X110640857Y-37122333D01*
X110402761Y-37122333D01*
X110307523Y-37169952D01*
X110259904Y-37217571D01*
X110212285Y-37312810D01*
X110212285Y-37550905D01*
X110259904Y-37646143D01*
X110307523Y-37693762D01*
X110402761Y-37741381D01*
X110640857Y-37741381D01*
X110736095Y-37693762D01*
X110783714Y-37646143D01*
X111164666Y-41170381D02*
X111498000Y-40694190D01*
X111736095Y-41170381D02*
X111736095Y-40170381D01*
X111355142Y-40170381D01*
X111259904Y-40218000D01*
X111212285Y-40265619D01*
X111164666Y-40360857D01*
X111164666Y-40503714D01*
X111212285Y-40598952D01*
X111259904Y-40646571D01*
X111355142Y-40694190D01*
X111736095Y-40694190D01*
X110307523Y-40170381D02*
X110498000Y-40170381D01*
X110593238Y-40218000D01*
X110640857Y-40265619D01*
X110736095Y-40408476D01*
X110783714Y-40598952D01*
X110783714Y-40979905D01*
X110736095Y-41075143D01*
X110688476Y-41122762D01*
X110593238Y-41170381D01*
X110402761Y-41170381D01*
X110307523Y-41122762D01*
X110259904Y-41075143D01*
X110212285Y-40979905D01*
X110212285Y-40741810D01*
X110259904Y-40646571D01*
X110307523Y-40598952D01*
X110402761Y-40551333D01*
X110593238Y-40551333D01*
X110688476Y-40598952D01*
X110736095Y-40646571D01*
X110783714Y-40741810D01*
X111037666Y-44472381D02*
X111371000Y-43996190D01*
X111609095Y-44472381D02*
X111609095Y-43472381D01*
X111228142Y-43472381D01*
X111132904Y-43520000D01*
X111085285Y-43567619D01*
X111037666Y-43662857D01*
X111037666Y-43805714D01*
X111085285Y-43900952D01*
X111132904Y-43948571D01*
X111228142Y-43996190D01*
X111609095Y-43996190D01*
X110704333Y-43472381D02*
X110037666Y-43472381D01*
X110466238Y-44472381D01*
X105675810Y-59059381D02*
X105675810Y-59868905D01*
X105628191Y-59964143D01*
X105580572Y-60011762D01*
X105485334Y-60059381D01*
X105294857Y-60059381D01*
X105199619Y-60011762D01*
X105152000Y-59964143D01*
X105104381Y-59868905D01*
X105104381Y-59059381D01*
X104104381Y-60059381D02*
X104675810Y-60059381D01*
X104390096Y-60059381D02*
X104390096Y-59059381D01*
X104485334Y-59202238D01*
X104580572Y-59297476D01*
X104675810Y-59345095D01*
M02*
