G04 #@! TF.FileFunction,Other,Fab,Bot*
%FSLAX46Y46*%
G04 Gerber Fmt 4.6, Leading zero omitted, Abs format (unit mm)*
G04 Created by KiCad (PCBNEW 4.0.7) date Sat Feb 17 21:33:09 2018*
%MOMM*%
%LPD*%
G01*
G04 APERTURE LIST*
%ADD10C,0.150000*%
%ADD11C,0.100000*%
%ADD12C,0.050000*%
%ADD13C,0.075000*%
%ADD14C,0.120000*%
G04 APERTURE END LIST*
D10*
D11*
X74695000Y-95840500D02*
X73895000Y-95840500D01*
X74295000Y-95840500D02*
X74695000Y-95240500D01*
X73895000Y-95240500D02*
X74295000Y-95840500D01*
X74695000Y-95240500D02*
X73895000Y-95240500D01*
X73675000Y-96440500D02*
X74915000Y-96440500D01*
X73675000Y-94440500D02*
X73675000Y-96440500D01*
X74915000Y-94440500D02*
X73675000Y-94440500D01*
X74915000Y-96440500D02*
X74915000Y-94440500D01*
X77997000Y-95777000D02*
X77197000Y-95777000D01*
X77597000Y-95777000D02*
X77997000Y-95177000D01*
X77197000Y-95177000D02*
X77597000Y-95777000D01*
X77997000Y-95177000D02*
X77197000Y-95177000D01*
X76977000Y-96377000D02*
X78217000Y-96377000D01*
X76977000Y-94377000D02*
X76977000Y-96377000D01*
X78217000Y-94377000D02*
X76977000Y-94377000D01*
X78217000Y-96377000D02*
X78217000Y-94377000D01*
D12*
X119935500Y-46838000D02*
X119435500Y-47338000D01*
X112585500Y-34038000D02*
X114285500Y-33938000D01*
X114285500Y-33938000D02*
X116085500Y-33638000D01*
X116085500Y-33638000D02*
X117285500Y-33338000D01*
X106035500Y-28738000D02*
X106035500Y-34038000D01*
X106735500Y-28038000D02*
X116535500Y-28038000D01*
X106735500Y-28038000D02*
G75*
G03X106035500Y-28738000I0J-700000D01*
G01*
X117235500Y-28738000D02*
X117235500Y-33338000D01*
X116535500Y-28038000D02*
G75*
G02X117235500Y-28738000I0J-700000D01*
G01*
X117235500Y-33338000D02*
X119935500Y-33338000D01*
X105235500Y-34038000D02*
X112585500Y-34038000D01*
X105235500Y-47338000D02*
X119935500Y-47338000D01*
X119935500Y-47338000D02*
X119935500Y-33338000D01*
X105235500Y-47338000D02*
X105235500Y-34038000D01*
D11*
X73675000Y-90408000D02*
X74915000Y-90408000D01*
X73675000Y-88408000D02*
X73675000Y-90408000D01*
X74915000Y-88408000D02*
X73675000Y-88408000D01*
X74915000Y-90408000D02*
X74915000Y-88408000D01*
X76977000Y-90281000D02*
X78217000Y-90281000D01*
X76977000Y-88281000D02*
X76977000Y-90281000D01*
X78217000Y-88281000D02*
X76977000Y-88281000D01*
X78217000Y-90281000D02*
X78217000Y-88281000D01*
X131890000Y-91385000D02*
X132890000Y-90385000D01*
X131890000Y-91385000D02*
X126190000Y-91385000D01*
X132890000Y-90385000D02*
X132890000Y-87685000D01*
X126190000Y-91385000D02*
X126190000Y-87685000D01*
X132890000Y-87685000D02*
X126190000Y-87685000D01*
X59745000Y-44514000D02*
X60745000Y-45514000D01*
X59745000Y-44514000D02*
X59745000Y-38814000D01*
X60745000Y-45514000D02*
X63445000Y-45514000D01*
X59745000Y-38814000D02*
X63445000Y-38814000D01*
X63445000Y-45514000D02*
X63445000Y-38814000D01*
D10*
X72045000Y-93773834D02*
X71997381Y-93678596D01*
X71997381Y-93535739D01*
X72045000Y-93392881D01*
X72140238Y-93297643D01*
X72235476Y-93250024D01*
X72425952Y-93202405D01*
X72568810Y-93202405D01*
X72759286Y-93250024D01*
X72854524Y-93297643D01*
X72949762Y-93392881D01*
X72997381Y-93535739D01*
X72997381Y-93630977D01*
X72949762Y-93773834D01*
X72902143Y-93821453D01*
X72568810Y-93821453D01*
X72568810Y-93630977D01*
X72997381Y-94821453D02*
X72521190Y-94488119D01*
X72997381Y-94250024D02*
X71997381Y-94250024D01*
X71997381Y-94630977D01*
X72045000Y-94726215D01*
X72092619Y-94773834D01*
X72187857Y-94821453D01*
X72330714Y-94821453D01*
X72425952Y-94773834D01*
X72473571Y-94726215D01*
X72521190Y-94630977D01*
X72521190Y-94250024D01*
X72473571Y-95250024D02*
X72473571Y-95583358D01*
X72997381Y-95726215D02*
X72997381Y-95250024D01*
X71997381Y-95250024D01*
X71997381Y-95726215D01*
X72473571Y-96154786D02*
X72473571Y-96488120D01*
X72997381Y-96630977D02*
X72997381Y-96154786D01*
X71997381Y-96154786D01*
X71997381Y-96630977D01*
X72997381Y-97059548D02*
X71997381Y-97059548D01*
X72997381Y-97630977D01*
X71997381Y-97630977D01*
X81097381Y-94797643D02*
X80621190Y-94464309D01*
X81097381Y-94226214D02*
X80097381Y-94226214D01*
X80097381Y-94607167D01*
X80145000Y-94702405D01*
X80192619Y-94750024D01*
X80287857Y-94797643D01*
X80430714Y-94797643D01*
X80525952Y-94750024D01*
X80573571Y-94702405D01*
X80621190Y-94607167D01*
X80621190Y-94226214D01*
X80573571Y-95226214D02*
X80573571Y-95559548D01*
X81097381Y-95702405D02*
X81097381Y-95226214D01*
X80097381Y-95226214D01*
X80097381Y-95702405D01*
X81097381Y-96130976D02*
X80097381Y-96130976D01*
X80097381Y-96369071D01*
X80145000Y-96511929D01*
X80240238Y-96607167D01*
X80335476Y-96654786D01*
X80525952Y-96702405D01*
X80668810Y-96702405D01*
X80859286Y-96654786D01*
X80954524Y-96607167D01*
X81049762Y-96511929D01*
X81097381Y-96369071D01*
X81097381Y-96130976D01*
D11*
X112785500Y-36009429D02*
X112785500Y-36438000D01*
X112814072Y-36523714D01*
X112871215Y-36580857D01*
X112956929Y-36609429D01*
X113014072Y-36609429D01*
X112471214Y-36609429D02*
X112356929Y-36609429D01*
X112299786Y-36580857D01*
X112271214Y-36552286D01*
X112214072Y-36466571D01*
X112185500Y-36352286D01*
X112185500Y-36123714D01*
X112214072Y-36066571D01*
X112242643Y-36038000D01*
X112299786Y-36009429D01*
X112414072Y-36009429D01*
X112471214Y-36038000D01*
X112499786Y-36066571D01*
X112528357Y-36123714D01*
X112528357Y-36266571D01*
X112499786Y-36323714D01*
X112471214Y-36352286D01*
X112414072Y-36380857D01*
X112299786Y-36380857D01*
X112242643Y-36352286D01*
X112214072Y-36323714D01*
X112185500Y-36266571D01*
X113954547Y-37609429D02*
X113954547Y-37009429D01*
X113787881Y-37438000D01*
X113621214Y-37009429D01*
X113621214Y-37609429D01*
X113383118Y-37609429D02*
X113383118Y-37209429D01*
X113383118Y-37009429D02*
X113406928Y-37038000D01*
X113383118Y-37066571D01*
X113359309Y-37038000D01*
X113383118Y-37009429D01*
X113383118Y-37066571D01*
X112930738Y-37580857D02*
X112978357Y-37609429D01*
X113073595Y-37609429D01*
X113121214Y-37580857D01*
X113145023Y-37552286D01*
X113168833Y-37495143D01*
X113168833Y-37323714D01*
X113145023Y-37266571D01*
X113121214Y-37238000D01*
X113073595Y-37209429D01*
X112978357Y-37209429D01*
X112930738Y-37238000D01*
X112716452Y-37609429D02*
X112716452Y-37209429D01*
X112716452Y-37323714D02*
X112692643Y-37266571D01*
X112668833Y-37238000D01*
X112621214Y-37209429D01*
X112573595Y-37209429D01*
X112335500Y-37609429D02*
X112383119Y-37580857D01*
X112406928Y-37552286D01*
X112430738Y-37495143D01*
X112430738Y-37323714D01*
X112406928Y-37266571D01*
X112383119Y-37238000D01*
X112335500Y-37209429D01*
X112264071Y-37209429D01*
X112216452Y-37238000D01*
X112192643Y-37266571D01*
X112168833Y-37323714D01*
X112168833Y-37495143D01*
X112192643Y-37552286D01*
X112216452Y-37580857D01*
X112264071Y-37609429D01*
X112335500Y-37609429D01*
X111978357Y-37580857D02*
X111906928Y-37609429D01*
X111787881Y-37609429D01*
X111740262Y-37580857D01*
X111716452Y-37552286D01*
X111692643Y-37495143D01*
X111692643Y-37438000D01*
X111716452Y-37380857D01*
X111740262Y-37352286D01*
X111787881Y-37323714D01*
X111883119Y-37295143D01*
X111930738Y-37266571D01*
X111954547Y-37238000D01*
X111978357Y-37180857D01*
X111978357Y-37123714D01*
X111954547Y-37066571D01*
X111930738Y-37038000D01*
X111883119Y-37009429D01*
X111764071Y-37009429D01*
X111692643Y-37038000D01*
X111478357Y-37609429D02*
X111478357Y-37009429D01*
X111359310Y-37009429D01*
X111287881Y-37038000D01*
X111240262Y-37095143D01*
X111216453Y-37152286D01*
X111192643Y-37266571D01*
X111192643Y-37352286D01*
X111216453Y-37466571D01*
X111240262Y-37523714D01*
X111287881Y-37580857D01*
X111359310Y-37609429D01*
X111478357Y-37609429D01*
D10*
X72997381Y-88241334D02*
X72997381Y-87669905D01*
X72997381Y-87955619D02*
X71997381Y-87955619D01*
X72140238Y-87860381D01*
X72235476Y-87765143D01*
X72283095Y-87669905D01*
X71997381Y-88860381D02*
X71997381Y-88955620D01*
X72045000Y-89050858D01*
X72092619Y-89098477D01*
X72187857Y-89146096D01*
X72378333Y-89193715D01*
X72616429Y-89193715D01*
X72806905Y-89146096D01*
X72902143Y-89098477D01*
X72949762Y-89050858D01*
X72997381Y-88955620D01*
X72997381Y-88860381D01*
X72949762Y-88765143D01*
X72902143Y-88717524D01*
X72806905Y-88669905D01*
X72616429Y-88622286D01*
X72378333Y-88622286D01*
X72187857Y-88669905D01*
X72092619Y-88717524D01*
X72045000Y-88765143D01*
X71997381Y-88860381D01*
X71997381Y-89812762D02*
X71997381Y-89908001D01*
X72045000Y-90003239D01*
X72092619Y-90050858D01*
X72187857Y-90098477D01*
X72378333Y-90146096D01*
X72616429Y-90146096D01*
X72806905Y-90098477D01*
X72902143Y-90050858D01*
X72949762Y-90003239D01*
X72997381Y-89908001D01*
X72997381Y-89812762D01*
X72949762Y-89717524D01*
X72902143Y-89669905D01*
X72806905Y-89622286D01*
X72616429Y-89574667D01*
X72378333Y-89574667D01*
X72187857Y-89622286D01*
X72092619Y-89669905D01*
X72045000Y-89717524D01*
X71997381Y-89812762D01*
X72997381Y-91146096D02*
X72521190Y-90812762D01*
X72997381Y-90574667D02*
X71997381Y-90574667D01*
X71997381Y-90955620D01*
X72045000Y-91050858D01*
X72092619Y-91098477D01*
X72187857Y-91146096D01*
X72330714Y-91146096D01*
X72425952Y-91098477D01*
X72473571Y-91050858D01*
X72521190Y-90955620D01*
X72521190Y-90574667D01*
D13*
X74521190Y-89324667D02*
X74283095Y-89158000D01*
X74521190Y-89038953D02*
X74021190Y-89038953D01*
X74021190Y-89229429D01*
X74045000Y-89277048D01*
X74068810Y-89300857D01*
X74116429Y-89324667D01*
X74187857Y-89324667D01*
X74235476Y-89300857D01*
X74259286Y-89277048D01*
X74283095Y-89229429D01*
X74283095Y-89038953D01*
X74021190Y-89753238D02*
X74021190Y-89658000D01*
X74045000Y-89610381D01*
X74068810Y-89586572D01*
X74140238Y-89538953D01*
X74235476Y-89515143D01*
X74425952Y-89515143D01*
X74473571Y-89538953D01*
X74497381Y-89562762D01*
X74521190Y-89610381D01*
X74521190Y-89705619D01*
X74497381Y-89753238D01*
X74473571Y-89777048D01*
X74425952Y-89800857D01*
X74306905Y-89800857D01*
X74259286Y-89777048D01*
X74235476Y-89753238D01*
X74211667Y-89705619D01*
X74211667Y-89610381D01*
X74235476Y-89562762D01*
X74259286Y-89538953D01*
X74306905Y-89515143D01*
D10*
X81160881Y-88177834D02*
X81160881Y-87606405D01*
X81160881Y-87892119D02*
X80160881Y-87892119D01*
X80303738Y-87796881D01*
X80398976Y-87701643D01*
X80446595Y-87606405D01*
X80160881Y-88796881D02*
X80160881Y-88892120D01*
X80208500Y-88987358D01*
X80256119Y-89034977D01*
X80351357Y-89082596D01*
X80541833Y-89130215D01*
X80779929Y-89130215D01*
X80970405Y-89082596D01*
X81065643Y-89034977D01*
X81113262Y-88987358D01*
X81160881Y-88892120D01*
X81160881Y-88796881D01*
X81113262Y-88701643D01*
X81065643Y-88654024D01*
X80970405Y-88606405D01*
X80779929Y-88558786D01*
X80541833Y-88558786D01*
X80351357Y-88606405D01*
X80256119Y-88654024D01*
X80208500Y-88701643D01*
X80160881Y-88796881D01*
X80160881Y-89749262D02*
X80160881Y-89844501D01*
X80208500Y-89939739D01*
X80256119Y-89987358D01*
X80351357Y-90034977D01*
X80541833Y-90082596D01*
X80779929Y-90082596D01*
X80970405Y-90034977D01*
X81065643Y-89987358D01*
X81113262Y-89939739D01*
X81160881Y-89844501D01*
X81160881Y-89749262D01*
X81113262Y-89654024D01*
X81065643Y-89606405D01*
X80970405Y-89558786D01*
X80779929Y-89511167D01*
X80541833Y-89511167D01*
X80351357Y-89558786D01*
X80256119Y-89606405D01*
X80208500Y-89654024D01*
X80160881Y-89749262D01*
X81160881Y-91082596D02*
X80684690Y-90749262D01*
X81160881Y-90511167D02*
X80160881Y-90511167D01*
X80160881Y-90892120D01*
X80208500Y-90987358D01*
X80256119Y-91034977D01*
X80351357Y-91082596D01*
X80494214Y-91082596D01*
X80589452Y-91034977D01*
X80637071Y-90987358D01*
X80684690Y-90892120D01*
X80684690Y-90511167D01*
D13*
X77823190Y-89197667D02*
X77585095Y-89031000D01*
X77823190Y-88911953D02*
X77323190Y-88911953D01*
X77323190Y-89102429D01*
X77347000Y-89150048D01*
X77370810Y-89173857D01*
X77418429Y-89197667D01*
X77489857Y-89197667D01*
X77537476Y-89173857D01*
X77561286Y-89150048D01*
X77585095Y-89102429D01*
X77585095Y-88911953D01*
X77323190Y-89364334D02*
X77323190Y-89697667D01*
X77823190Y-89483381D01*
D10*
X125206667Y-85011191D02*
X125206667Y-85487382D01*
X125492381Y-84915953D02*
X124492381Y-85249286D01*
X125492381Y-85582620D01*
X125492381Y-85915953D02*
X124492381Y-85915953D01*
X125206667Y-86249287D01*
X124492381Y-86582620D01*
X125492381Y-86582620D01*
X125492381Y-87582620D02*
X125492381Y-87011191D01*
X125492381Y-87296905D02*
X124492381Y-87296905D01*
X124635238Y-87201667D01*
X124730476Y-87106429D01*
X124778095Y-87011191D01*
X125492381Y-88535001D02*
X125492381Y-87963572D01*
X125492381Y-88249286D02*
X124492381Y-88249286D01*
X124635238Y-88154048D01*
X124730476Y-88058810D01*
X124778095Y-87963572D01*
X125492381Y-89487382D02*
X125492381Y-88915953D01*
X125492381Y-89201667D02*
X124492381Y-89201667D01*
X124635238Y-89106429D01*
X124730476Y-89011191D01*
X124778095Y-88915953D01*
X124492381Y-89820715D02*
X124492381Y-90487382D01*
X125492381Y-90058810D01*
X125111429Y-90868334D02*
X125111429Y-91630239D01*
X124492381Y-92011191D02*
X124492381Y-92630239D01*
X124873333Y-92296905D01*
X124873333Y-92439763D01*
X124920952Y-92535001D01*
X124968571Y-92582620D01*
X125063810Y-92630239D01*
X125301905Y-92630239D01*
X125397143Y-92582620D01*
X125444762Y-92535001D01*
X125492381Y-92439763D01*
X125492381Y-92154048D01*
X125444762Y-92058810D01*
X125397143Y-92011191D01*
X125397143Y-93058810D02*
X125444762Y-93106429D01*
X125492381Y-93058810D01*
X125444762Y-93011191D01*
X125397143Y-93058810D01*
X125492381Y-93058810D01*
X124492381Y-93439762D02*
X124492381Y-94058810D01*
X124873333Y-93725476D01*
X124873333Y-93868334D01*
X124920952Y-93963572D01*
X124968571Y-94011191D01*
X125063810Y-94058810D01*
X125301905Y-94058810D01*
X125397143Y-94011191D01*
X125444762Y-93963572D01*
X125492381Y-93868334D01*
X125492381Y-93582619D01*
X125444762Y-93487381D01*
X125397143Y-93439762D01*
D14*
X130149524Y-89096905D02*
X130149524Y-89744524D01*
X130111429Y-89820714D01*
X130073333Y-89858810D01*
X129997143Y-89896905D01*
X129844762Y-89896905D01*
X129768571Y-89858810D01*
X129730476Y-89820714D01*
X129692381Y-89744524D01*
X129692381Y-89096905D01*
X128892381Y-89896905D02*
X129349524Y-89896905D01*
X129120953Y-89896905D02*
X129120953Y-89096905D01*
X129197143Y-89211190D01*
X129273334Y-89287381D01*
X129349524Y-89325476D01*
D10*
X66118809Y-37830667D02*
X65642618Y-37830667D01*
X66214047Y-38116381D02*
X65880714Y-37116381D01*
X65547380Y-38116381D01*
X65214047Y-38116381D02*
X65214047Y-37116381D01*
X64880713Y-37830667D01*
X64547380Y-37116381D01*
X64547380Y-38116381D01*
X63547380Y-38116381D02*
X64118809Y-38116381D01*
X63833095Y-38116381D02*
X63833095Y-37116381D01*
X63928333Y-37259238D01*
X64023571Y-37354476D01*
X64118809Y-37402095D01*
X62594999Y-38116381D02*
X63166428Y-38116381D01*
X62880714Y-38116381D02*
X62880714Y-37116381D01*
X62975952Y-37259238D01*
X63071190Y-37354476D01*
X63166428Y-37402095D01*
X61642618Y-38116381D02*
X62214047Y-38116381D01*
X61928333Y-38116381D02*
X61928333Y-37116381D01*
X62023571Y-37259238D01*
X62118809Y-37354476D01*
X62214047Y-37402095D01*
X61309285Y-37116381D02*
X60642618Y-37116381D01*
X61071190Y-38116381D01*
X60261666Y-37735429D02*
X59499761Y-37735429D01*
X59118809Y-37116381D02*
X58499761Y-37116381D01*
X58833095Y-37497333D01*
X58690237Y-37497333D01*
X58594999Y-37544952D01*
X58547380Y-37592571D01*
X58499761Y-37687810D01*
X58499761Y-37925905D01*
X58547380Y-38021143D01*
X58594999Y-38068762D01*
X58690237Y-38116381D01*
X58975952Y-38116381D01*
X59071190Y-38068762D01*
X59118809Y-38021143D01*
X58071190Y-38021143D02*
X58023571Y-38068762D01*
X58071190Y-38116381D01*
X58118809Y-38068762D01*
X58071190Y-38021143D01*
X58071190Y-38116381D01*
X57690238Y-37116381D02*
X57071190Y-37116381D01*
X57404524Y-37497333D01*
X57261666Y-37497333D01*
X57166428Y-37544952D01*
X57118809Y-37592571D01*
X57071190Y-37687810D01*
X57071190Y-37925905D01*
X57118809Y-38021143D01*
X57166428Y-38068762D01*
X57261666Y-38116381D01*
X57547381Y-38116381D01*
X57642619Y-38068762D01*
X57690238Y-38021143D01*
D14*
X61156905Y-41554476D02*
X61804524Y-41554476D01*
X61880714Y-41592571D01*
X61918810Y-41630667D01*
X61956905Y-41706857D01*
X61956905Y-41859238D01*
X61918810Y-41935429D01*
X61880714Y-41973524D01*
X61804524Y-42011619D01*
X61156905Y-42011619D01*
X61233095Y-42354476D02*
X61195000Y-42392571D01*
X61156905Y-42468762D01*
X61156905Y-42659238D01*
X61195000Y-42735428D01*
X61233095Y-42773524D01*
X61309286Y-42811619D01*
X61385476Y-42811619D01*
X61499762Y-42773524D01*
X61956905Y-42316381D01*
X61956905Y-42811619D01*
D10*
X65968571Y-62111619D02*
X65968571Y-62444953D01*
X66492381Y-62587810D02*
X66492381Y-62111619D01*
X65492381Y-62111619D01*
X65492381Y-62587810D01*
X66444762Y-62968762D02*
X66492381Y-63111619D01*
X66492381Y-63349715D01*
X66444762Y-63444953D01*
X66397143Y-63492572D01*
X66301905Y-63540191D01*
X66206667Y-63540191D01*
X66111429Y-63492572D01*
X66063810Y-63444953D01*
X66016190Y-63349715D01*
X65968571Y-63159238D01*
X65920952Y-63064000D01*
X65873333Y-63016381D01*
X65778095Y-62968762D01*
X65682857Y-62968762D01*
X65587619Y-63016381D01*
X65540000Y-63064000D01*
X65492381Y-63159238D01*
X65492381Y-63397334D01*
X65540000Y-63540191D01*
X66492381Y-63968762D02*
X65492381Y-63968762D01*
X65492381Y-64349715D01*
X65540000Y-64444953D01*
X65587619Y-64492572D01*
X65682857Y-64540191D01*
X65825714Y-64540191D01*
X65920952Y-64492572D01*
X65968571Y-64444953D01*
X66016190Y-64349715D01*
X66016190Y-63968762D01*
X65492381Y-64873524D02*
X65492381Y-65492572D01*
X65873333Y-65159238D01*
X65873333Y-65302096D01*
X65920952Y-65397334D01*
X65968571Y-65444953D01*
X66063810Y-65492572D01*
X66301905Y-65492572D01*
X66397143Y-65444953D01*
X66444762Y-65397334D01*
X66492381Y-65302096D01*
X66492381Y-65016381D01*
X66444762Y-64921143D01*
X66397143Y-64873524D01*
X65587619Y-65873524D02*
X65540000Y-65921143D01*
X65492381Y-66016381D01*
X65492381Y-66254477D01*
X65540000Y-66349715D01*
X65587619Y-66397334D01*
X65682857Y-66444953D01*
X65778095Y-66444953D01*
X65920952Y-66397334D01*
X66492381Y-65825905D01*
X66492381Y-66444953D01*
X66111429Y-66873524D02*
X66111429Y-67635429D01*
X65492381Y-68016381D02*
X66492381Y-68254476D01*
X65778095Y-68444953D01*
X66492381Y-68635429D01*
X65492381Y-68873524D01*
X66492381Y-69825905D02*
X66016190Y-69492571D01*
X66492381Y-69254476D02*
X65492381Y-69254476D01*
X65492381Y-69635429D01*
X65540000Y-69730667D01*
X65587619Y-69778286D01*
X65682857Y-69825905D01*
X65825714Y-69825905D01*
X65920952Y-69778286D01*
X65968571Y-69730667D01*
X66016190Y-69635429D01*
X66016190Y-69254476D01*
X65492381Y-70444952D02*
X65492381Y-70635429D01*
X65540000Y-70730667D01*
X65635238Y-70825905D01*
X65825714Y-70873524D01*
X66159048Y-70873524D01*
X66349524Y-70825905D01*
X66444762Y-70730667D01*
X66492381Y-70635429D01*
X66492381Y-70444952D01*
X66444762Y-70349714D01*
X66349524Y-70254476D01*
X66159048Y-70206857D01*
X65825714Y-70206857D01*
X65635238Y-70254476D01*
X65540000Y-70349714D01*
X65492381Y-70444952D01*
X65492381Y-71492571D02*
X65492381Y-71683048D01*
X65540000Y-71778286D01*
X65635238Y-71873524D01*
X65825714Y-71921143D01*
X66159048Y-71921143D01*
X66349524Y-71873524D01*
X66444762Y-71778286D01*
X66492381Y-71683048D01*
X66492381Y-71492571D01*
X66444762Y-71397333D01*
X66349524Y-71302095D01*
X66159048Y-71254476D01*
X65825714Y-71254476D01*
X65635238Y-71302095D01*
X65540000Y-71397333D01*
X65492381Y-71492571D01*
X66492381Y-72349714D02*
X65492381Y-72349714D01*
X66206667Y-72683048D01*
X65492381Y-73016381D01*
X66492381Y-73016381D01*
M02*
