G04 #@! TF.FileFunction,Paste,Bot*
%FSLAX46Y46*%
G04 Gerber Fmt 4.6, Leading zero omitted, Abs format (unit mm)*
G04 Created by KiCad (PCBNEW 4.0.7) date Sat Feb 17 21:33:09 2018*
%MOMM*%
%LPD*%
G01*
G04 APERTURE LIST*
%ADD10C,0.150000*%
%ADD11R,1.300000X1.500000*%
%ADD12R,1.200000X2.200000*%
%ADD13R,1.600000X1.400000*%
%ADD14R,1.200000X1.400000*%
%ADD15R,0.700000X1.600000*%
%ADD16R,3.800000X2.000000*%
%ADD17R,1.500000X2.000000*%
%ADD18R,2.000000X3.800000*%
%ADD19R,2.000000X1.500000*%
%ADD20O,0.900000X2.500000*%
%ADD21O,2.500000X0.900000*%
%ADD22R,6.000000X6.000000*%
G04 APERTURE END LIST*
D10*
D11*
X74295000Y-96790500D03*
X74295000Y-94090500D03*
X77597000Y-96727000D03*
X77597000Y-94027000D03*
D12*
X120335500Y-37738000D03*
X104835500Y-37738000D03*
D13*
X119435500Y-47338000D03*
D14*
X104835500Y-47338000D03*
D15*
X105985500Y-47838000D03*
X108185500Y-47838000D03*
X107085500Y-47838000D03*
X109285500Y-47838000D03*
X110385500Y-47838000D03*
X111485500Y-47838000D03*
X114785500Y-47838000D03*
X113685500Y-47838000D03*
X112585500Y-47838000D03*
D11*
X74295000Y-90758000D03*
X74295000Y-88058000D03*
X77597000Y-90631000D03*
X77597000Y-87931000D03*
D16*
X129540000Y-86385000D03*
D17*
X129540000Y-92685000D03*
X127240000Y-92685000D03*
X131840000Y-92685000D03*
D18*
X64745000Y-42164000D03*
D19*
X58445000Y-42164000D03*
X58445000Y-39864000D03*
X58445000Y-44464000D03*
D20*
X75014000Y-82279000D03*
X76284000Y-82279000D03*
X77554000Y-82279000D03*
X78824000Y-82279000D03*
X80094000Y-82279000D03*
X81364000Y-82279000D03*
X82634000Y-82279000D03*
X83904000Y-82279000D03*
X85174000Y-82279000D03*
X86444000Y-82279000D03*
X87714000Y-82279000D03*
X88984000Y-82279000D03*
X90254000Y-82279000D03*
X91524000Y-82279000D03*
D21*
X93014000Y-78994000D03*
X93014000Y-77724000D03*
X93014000Y-76454000D03*
X93014000Y-75184000D03*
X93014000Y-73914000D03*
X93014000Y-72644000D03*
X93014000Y-71374000D03*
X93014000Y-70104000D03*
X93014000Y-68834000D03*
X93014000Y-67564000D03*
D20*
X91524000Y-64279000D03*
X90254000Y-64279000D03*
X88984000Y-64279000D03*
X87714000Y-64279000D03*
X86444000Y-64279000D03*
X85174000Y-64279000D03*
X83904000Y-64279000D03*
X82634000Y-64279000D03*
X81364000Y-64279000D03*
X80094000Y-64279000D03*
X78824000Y-64279000D03*
X77554000Y-64279000D03*
X76284000Y-64279000D03*
X75014000Y-64279000D03*
D22*
X82714000Y-72979000D03*
M02*
