G04 #@! TF.FileFunction,Other,User*
%FSLAX46Y46*%
G04 Gerber Fmt 4.6, Leading zero omitted, Abs format (unit mm)*
G04 Created by KiCad (PCBNEW 4.0.7) date Sat Feb 17 21:33:09 2018*
%MOMM*%
%LPD*%
G01*
G04 APERTURE LIST*
%ADD10C,0.150000*%
%ADD11C,0.050000*%
G04 APERTURE END LIST*
D10*
D11*
X75195000Y-97790500D02*
X75195000Y-93090500D01*
X75195000Y-97790500D02*
X73395000Y-97790500D01*
X73395000Y-93090500D02*
X75195000Y-93090500D01*
X73395000Y-93090500D02*
X73395000Y-97790500D01*
X78497000Y-97727000D02*
X78497000Y-93027000D01*
X78497000Y-97727000D02*
X76697000Y-97727000D01*
X76697000Y-93027000D02*
X78497000Y-93027000D01*
X76697000Y-93027000D02*
X76697000Y-97727000D01*
X104835500Y-32838000D02*
X104835500Y-36338000D01*
X104835500Y-36338000D02*
X103835500Y-36338000D01*
X103835500Y-36338000D02*
X103835500Y-39088000D01*
X103835500Y-39088000D02*
X104835500Y-39088000D01*
X104835500Y-39088000D02*
X104835500Y-46338000D01*
X104835500Y-46338000D02*
X103835500Y-46338000D01*
X103835500Y-46338000D02*
X103835500Y-48338000D01*
X103835500Y-48338000D02*
X105335500Y-48338000D01*
X105335500Y-48338000D02*
X105335500Y-48838000D01*
X105335500Y-48838000D02*
X115335500Y-48838000D01*
X115335500Y-48838000D02*
X115335500Y-47588000D01*
X115335500Y-47588000D02*
X118335500Y-47588000D01*
X118335500Y-47588000D02*
X118335500Y-48338000D01*
X118335500Y-48338000D02*
X120585500Y-48338000D01*
X120585500Y-48338000D02*
X120585500Y-46338000D01*
X120585500Y-46338000D02*
X120335500Y-46338000D01*
X120335500Y-46338000D02*
X120335500Y-39088000D01*
X120335500Y-39088000D02*
X121335500Y-39088000D01*
X121335500Y-39088000D02*
X121335500Y-36338000D01*
X121335500Y-36338000D02*
X120335500Y-36338000D01*
X120335500Y-36338000D02*
X120335500Y-32838000D01*
X75195000Y-91758000D02*
X75195000Y-87058000D01*
X75195000Y-91758000D02*
X73395000Y-91758000D01*
X73395000Y-87058000D02*
X75195000Y-87058000D01*
X73395000Y-87058000D02*
X73395000Y-91758000D01*
X78497000Y-91631000D02*
X78497000Y-86931000D01*
X78497000Y-91631000D02*
X76697000Y-91631000D01*
X76697000Y-86931000D02*
X78497000Y-86931000D01*
X76697000Y-86931000D02*
X76697000Y-91631000D01*
X133140000Y-85135000D02*
X133140000Y-93935000D01*
X125940000Y-85135000D02*
X133140000Y-85135000D01*
X125940000Y-93935000D02*
X125940000Y-85135000D01*
X133140000Y-93935000D02*
X125940000Y-93935000D01*
X65995000Y-45764000D02*
X57195000Y-45764000D01*
X65995000Y-38564000D02*
X65995000Y-45764000D01*
X57195000Y-38564000D02*
X65995000Y-38564000D01*
X57195000Y-45764000D02*
X57195000Y-38564000D01*
M02*
