G04 #@! TF.FileFunction,Other,User*
%FSLAX46Y46*%
G04 Gerber Fmt 4.6, Leading zero omitted, Abs format (unit mm)*
G04 Created by KiCad (PCBNEW 4.0.7) date Sat Feb 17 21:33:09 2018*
%MOMM*%
%LPD*%
G01*
G04 APERTURE LIST*
%ADD10C,0.150000*%
%ADD11C,0.050000*%
G04 APERTURE END LIST*
D10*
D11*
X75097500Y-58093500D02*
X75097500Y-33473500D01*
X75097500Y-58093500D02*
X81977500Y-58093500D01*
X81977500Y-33473500D02*
X75097500Y-33473500D01*
X81977500Y-33473500D02*
X81977500Y-58093500D01*
X120931000Y-86032500D02*
G75*
G03X120931000Y-86032500I-6250000J0D01*
G01*
X44734000Y-90898000D02*
X42134000Y-90898000D01*
X42134000Y-90898000D02*
X42134000Y-97998000D01*
X42134000Y-97998000D02*
X44734000Y-97998000D01*
X44734000Y-97998000D02*
X44734000Y-90898000D01*
X64927000Y-91914000D02*
X62327000Y-91914000D01*
X62327000Y-91914000D02*
X62327000Y-99014000D01*
X62327000Y-99014000D02*
X64927000Y-99014000D01*
X64927000Y-99014000D02*
X64927000Y-91914000D01*
X50618000Y-60865000D02*
X50618000Y-52165000D01*
X50618000Y-52165000D02*
X41918000Y-52165000D01*
X41918000Y-52165000D02*
X41918000Y-60865000D01*
X41918000Y-60865000D02*
X50618000Y-60865000D01*
X72801000Y-38701000D02*
X70201000Y-38701000D01*
X70201000Y-38701000D02*
X70201000Y-45801000D01*
X70201000Y-45801000D02*
X72801000Y-45801000D01*
X72801000Y-45801000D02*
X72801000Y-38701000D01*
X127347000Y-76551000D02*
X127347000Y-79151000D01*
X127347000Y-79151000D02*
X134447000Y-79151000D01*
X134447000Y-79151000D02*
X134447000Y-76551000D01*
X134447000Y-76551000D02*
X127347000Y-76551000D01*
X78011500Y-111794000D02*
X80611500Y-111794000D01*
X80611500Y-111794000D02*
X80611500Y-104694000D01*
X80611500Y-104694000D02*
X78011500Y-104694000D01*
X78011500Y-104694000D02*
X78011500Y-111794000D01*
X60993500Y-60930500D02*
X63593500Y-60930500D01*
X63593500Y-60930500D02*
X63593500Y-53830500D01*
X63593500Y-53830500D02*
X60993500Y-53830500D01*
X60993500Y-53830500D02*
X60993500Y-60930500D01*
X67280000Y-60613000D02*
X69880000Y-60613000D01*
X69880000Y-60613000D02*
X69880000Y-53513000D01*
X69880000Y-53513000D02*
X67280000Y-53513000D01*
X67280000Y-53513000D02*
X67280000Y-60613000D01*
X70455000Y-60613000D02*
X73055000Y-60613000D01*
X73055000Y-60613000D02*
X73055000Y-53513000D01*
X73055000Y-53513000D02*
X70455000Y-53513000D01*
X70455000Y-53513000D02*
X70455000Y-60613000D01*
X41951500Y-66907000D02*
X41951500Y-85757000D01*
X41951500Y-85757000D02*
X45551500Y-85757000D01*
X45551500Y-85757000D02*
X45551500Y-66907000D01*
X45551500Y-66907000D02*
X41951500Y-66907000D01*
X50149000Y-35378000D02*
X50149000Y-35128000D01*
X50149000Y-35128000D02*
X35149000Y-35128000D01*
X50149000Y-35378000D02*
X50149000Y-37878000D01*
X50149000Y-37878000D02*
X51149000Y-37878000D01*
X51149000Y-37878000D02*
X51149000Y-41878000D01*
X51149000Y-41878000D02*
X50149000Y-41878000D01*
X50149000Y-41878000D02*
X50149000Y-44628000D01*
X50149000Y-44628000D02*
X48149000Y-44628000D01*
X48149000Y-44628000D02*
X48149000Y-46628000D01*
X48149000Y-46628000D02*
X44149000Y-46628000D01*
X44149000Y-46628000D02*
X44149000Y-44628000D01*
X44149000Y-44628000D02*
X35149000Y-44628000D01*
X35149000Y-44628000D02*
X35149000Y-35128000D01*
X95079000Y-101556000D02*
X84479000Y-101556000D01*
X84479000Y-101556000D02*
X84479000Y-95006000D01*
X84479000Y-95006000D02*
X95079000Y-95006000D01*
X95079000Y-95006000D02*
X95079000Y-101556000D01*
X134979000Y-101832000D02*
X134979000Y-113032000D01*
X134979000Y-113032000D02*
X138579000Y-113032000D01*
X138579000Y-113032000D02*
X138579000Y-101832000D01*
X138579000Y-101832000D02*
X134979000Y-101832000D01*
X126152500Y-101832000D02*
X126152500Y-113032000D01*
X126152500Y-113032000D02*
X129752500Y-113032000D01*
X129752500Y-113032000D02*
X129752500Y-101832000D01*
X129752500Y-101832000D02*
X126152500Y-101832000D01*
X117580000Y-101832000D02*
X117580000Y-113032000D01*
X117580000Y-113032000D02*
X121180000Y-113032000D01*
X121180000Y-113032000D02*
X121180000Y-101832000D01*
X121180000Y-101832000D02*
X117580000Y-101832000D01*
X100435000Y-101832000D02*
X100435000Y-113032000D01*
X100435000Y-113032000D02*
X104035000Y-113032000D01*
X104035000Y-113032000D02*
X104035000Y-101832000D01*
X104035000Y-101832000D02*
X100435000Y-101832000D01*
X109071000Y-101832000D02*
X109071000Y-113032000D01*
X109071000Y-113032000D02*
X112671000Y-113032000D01*
X112671000Y-113032000D02*
X112671000Y-101832000D01*
X112671000Y-101832000D02*
X109071000Y-101832000D01*
X51752000Y-96329000D02*
X46292000Y-96329000D01*
X51752000Y-96329000D02*
X51752000Y-91589000D01*
X46292000Y-91589000D02*
X46292000Y-96329000D01*
X46292000Y-91589000D02*
X51752000Y-91589000D01*
X52769000Y-91377000D02*
X58229000Y-91377000D01*
X52769000Y-91377000D02*
X52769000Y-96117000D01*
X58229000Y-96117000D02*
X58229000Y-91377000D01*
X58229000Y-96117000D02*
X52769000Y-96117000D01*
X107251000Y-88519500D02*
X107251000Y-93979500D01*
X107251000Y-88519500D02*
X102511000Y-88519500D01*
X102511000Y-93979500D02*
X107251000Y-93979500D01*
X102511000Y-93979500D02*
X102511000Y-88519500D01*
X47422000Y-89759500D02*
X50622000Y-89759500D01*
X50622000Y-89759500D02*
X50622000Y-80009500D01*
X50622000Y-80009500D02*
X47422000Y-80009500D01*
X47422000Y-80009500D02*
X47422000Y-89759500D01*
X52311500Y-89759500D02*
X55511500Y-89759500D01*
X55511500Y-89759500D02*
X55511500Y-80009500D01*
X55511500Y-80009500D02*
X52311500Y-80009500D01*
X52311500Y-80009500D02*
X52311500Y-89759500D01*
X59258000Y-51337500D02*
X56058000Y-51337500D01*
X56058000Y-51337500D02*
X56058000Y-61087500D01*
X56058000Y-61087500D02*
X59258000Y-61087500D01*
X59258000Y-61087500D02*
X59258000Y-51337500D01*
X103979000Y-55042000D02*
X103979000Y-58242000D01*
X103979000Y-58242000D02*
X113729000Y-58242000D01*
X113729000Y-58242000D02*
X113729000Y-55042000D01*
X113729000Y-55042000D02*
X103979000Y-55042000D01*
X94522000Y-92849500D02*
X94522000Y-89649500D01*
X94522000Y-89649500D02*
X84772000Y-89649500D01*
X84772000Y-89649500D02*
X84772000Y-92849500D01*
X84772000Y-92849500D02*
X94522000Y-92849500D01*
X51085000Y-99438000D02*
X51085000Y-99188000D01*
X51085000Y-99188000D02*
X50835000Y-99188000D01*
X43585000Y-99438000D02*
X43585000Y-99188000D01*
X43585000Y-99188000D02*
X43835000Y-99188000D01*
X43835000Y-108688000D02*
X43585000Y-108688000D01*
X43585000Y-108688000D02*
X43585000Y-108438000D01*
X50835000Y-108688000D02*
X51085000Y-108688000D01*
X51085000Y-108688000D02*
X51085000Y-108438000D01*
X43585000Y-108438000D02*
X43585000Y-99438000D01*
X50835000Y-108688000D02*
X43835000Y-108688000D01*
X51085000Y-99438000D02*
X51085000Y-108438000D01*
X43835000Y-99188000D02*
X50835000Y-99188000D01*
X52166000Y-108334000D02*
X52166000Y-108584000D01*
X52166000Y-108584000D02*
X52416000Y-108584000D01*
X59666000Y-108334000D02*
X59666000Y-108584000D01*
X59666000Y-108584000D02*
X59416000Y-108584000D01*
X59416000Y-99084000D02*
X59666000Y-99084000D01*
X59666000Y-99084000D02*
X59666000Y-99334000D01*
X52416000Y-99084000D02*
X52166000Y-99084000D01*
X52166000Y-99084000D02*
X52166000Y-99334000D01*
X59666000Y-99334000D02*
X59666000Y-108334000D01*
X52416000Y-99084000D02*
X59416000Y-99084000D01*
X52166000Y-108334000D02*
X52166000Y-99334000D01*
X59416000Y-108584000D02*
X52416000Y-108584000D01*
X84706000Y-104363000D02*
X84456000Y-104363000D01*
X84456000Y-104363000D02*
X84456000Y-104613000D01*
X84706000Y-111863000D02*
X84456000Y-111863000D01*
X84456000Y-111863000D02*
X84456000Y-111613000D01*
X93956000Y-111613000D02*
X93956000Y-111863000D01*
X93956000Y-111863000D02*
X93706000Y-111863000D01*
X93956000Y-104613000D02*
X93956000Y-104363000D01*
X93956000Y-104363000D02*
X93706000Y-104363000D01*
X93706000Y-111863000D02*
X84706000Y-111863000D01*
X93956000Y-104613000D02*
X93956000Y-111613000D01*
X84706000Y-104363000D02*
X93706000Y-104363000D01*
X84456000Y-111613000D02*
X84456000Y-104613000D01*
X94945000Y-47522000D02*
X84145000Y-47522000D01*
X84145000Y-47522000D02*
X84145000Y-58122000D01*
X84145000Y-58122000D02*
X94945000Y-58122000D01*
X94945000Y-58122000D02*
X94945000Y-47522000D01*
X94535500Y-46520000D02*
X94535500Y-31420000D01*
X94535500Y-31420000D02*
X89935500Y-31420000D01*
X89935500Y-31420000D02*
X89935500Y-46520000D01*
X89935500Y-46520000D02*
X94535500Y-46520000D01*
M02*
