G04 #@! TF.FileFunction,Other,Fab,Top*
%FSLAX46Y46*%
G04 Gerber Fmt 4.6, Leading zero omitted, Abs format (unit mm)*
G04 Created by KiCad (PCBNEW 4.0.7) date Sat Feb 17 21:33:09 2018*
%MOMM*%
%LPD*%
G01*
G04 APERTURE LIST*
%ADD10C,0.150000*%
%ADD11C,0.100000*%
%ADD12C,0.120000*%
G04 APERTURE END LIST*
D10*
D11*
X75347500Y-57843500D02*
X75347500Y-33723500D01*
X81727500Y-33723500D02*
X75377500Y-33723500D01*
X75877500Y-33723500D02*
X75877500Y-57843500D01*
X75377500Y-57843500D02*
X81727500Y-57843500D01*
X81727500Y-57843500D02*
X81727500Y-33723500D01*
X120681000Y-86032500D02*
G75*
G03X120681000Y-86032500I-6000000J0D01*
G01*
X115681000Y-86032500D02*
G75*
G03X115681000Y-86032500I-1000000J0D01*
G01*
X44384000Y-92298000D02*
X42484000Y-92298000D01*
X42484000Y-92298000D02*
X42484000Y-96598000D01*
X42484000Y-96598000D02*
X44384000Y-96598000D01*
X44384000Y-96598000D02*
X44384000Y-92298000D01*
X64577000Y-93314000D02*
X62677000Y-93314000D01*
X62677000Y-93314000D02*
X62677000Y-97614000D01*
X62677000Y-97614000D02*
X64577000Y-97614000D01*
X64577000Y-97614000D02*
X64577000Y-93314000D01*
X50268000Y-56515000D02*
G75*
G03X50268000Y-56515000I-4000000J0D01*
G01*
X50968000Y-56515000D02*
X49768000Y-56515000D01*
X50368000Y-57165000D02*
X50368000Y-55865000D01*
X72451000Y-40101000D02*
X70551000Y-40101000D01*
X70551000Y-40101000D02*
X70551000Y-44401000D01*
X70551000Y-44401000D02*
X72451000Y-44401000D01*
X72451000Y-44401000D02*
X72451000Y-40101000D01*
X128747000Y-76901000D02*
X128747000Y-78801000D01*
X128747000Y-78801000D02*
X133047000Y-78801000D01*
X133047000Y-78801000D02*
X133047000Y-76901000D01*
X133047000Y-76901000D02*
X128747000Y-76901000D01*
X78361500Y-110394000D02*
X80261500Y-110394000D01*
X80261500Y-110394000D02*
X80261500Y-106094000D01*
X80261500Y-106094000D02*
X78361500Y-106094000D01*
X78361500Y-106094000D02*
X78361500Y-110394000D01*
X61343500Y-59530500D02*
X63243500Y-59530500D01*
X63243500Y-59530500D02*
X63243500Y-55230500D01*
X63243500Y-55230500D02*
X61343500Y-55230500D01*
X61343500Y-55230500D02*
X61343500Y-59530500D01*
X67630000Y-59213000D02*
X69530000Y-59213000D01*
X69530000Y-59213000D02*
X69530000Y-54913000D01*
X69530000Y-54913000D02*
X67630000Y-54913000D01*
X67630000Y-54913000D02*
X67630000Y-59213000D01*
X70805000Y-59213000D02*
X72705000Y-59213000D01*
X72705000Y-59213000D02*
X72705000Y-54913000D01*
X72705000Y-54913000D02*
X70805000Y-54913000D01*
X70805000Y-54913000D02*
X70805000Y-59213000D01*
X43116500Y-67437000D02*
X45021500Y-67437000D01*
X45021500Y-67437000D02*
X45021500Y-85217000D01*
X45021500Y-85217000D02*
X42481500Y-85217000D01*
X42481500Y-85217000D02*
X42481500Y-68072000D01*
X42481500Y-68072000D02*
X43116500Y-67437000D01*
X38949000Y-35378000D02*
X38949000Y-44378000D01*
X35449000Y-35378000D02*
X35449000Y-44378000D01*
X35449000Y-44378000D02*
X49949000Y-44378000D01*
X49949000Y-44378000D02*
X49949000Y-35378000D01*
X49949000Y-35378000D02*
X35449000Y-35378000D01*
X136144000Y-102362000D02*
X138049000Y-102362000D01*
X138049000Y-102362000D02*
X138049000Y-112522000D01*
X138049000Y-112522000D02*
X135509000Y-112522000D01*
X135509000Y-112522000D02*
X135509000Y-102997000D01*
X135509000Y-102997000D02*
X136144000Y-102362000D01*
X127317500Y-102362000D02*
X129222500Y-102362000D01*
X129222500Y-102362000D02*
X129222500Y-112522000D01*
X129222500Y-112522000D02*
X126682500Y-112522000D01*
X126682500Y-112522000D02*
X126682500Y-102997000D01*
X126682500Y-102997000D02*
X127317500Y-102362000D01*
X118745000Y-102362000D02*
X120650000Y-102362000D01*
X120650000Y-102362000D02*
X120650000Y-112522000D01*
X120650000Y-112522000D02*
X118110000Y-112522000D01*
X118110000Y-112522000D02*
X118110000Y-102997000D01*
X118110000Y-102997000D02*
X118745000Y-102362000D01*
X101600000Y-102362000D02*
X103505000Y-102362000D01*
X103505000Y-102362000D02*
X103505000Y-112522000D01*
X103505000Y-112522000D02*
X100965000Y-112522000D01*
X100965000Y-112522000D02*
X100965000Y-102997000D01*
X100965000Y-102997000D02*
X101600000Y-102362000D01*
X110236000Y-102362000D02*
X112141000Y-102362000D01*
X112141000Y-102362000D02*
X112141000Y-112522000D01*
X112141000Y-112522000D02*
X109601000Y-112522000D01*
X109601000Y-112522000D02*
X109601000Y-102997000D01*
X109601000Y-102997000D02*
X110236000Y-102362000D01*
X50792000Y-91849000D02*
X47292000Y-91849000D01*
X47268375Y-91845375D02*
G75*
G03X49022000Y-96079000I1753625J-1753625D01*
G01*
X50775625Y-91845375D02*
G75*
G02X49022000Y-96079000I-1753625J-1753625D01*
G01*
X53729000Y-95857000D02*
X57229000Y-95857000D01*
X57252625Y-95860625D02*
G75*
G03X55499000Y-91627000I-1753625J1753625D01*
G01*
X53745375Y-95860625D02*
G75*
G02X55499000Y-91627000I1753625J1753625D01*
G01*
X102771000Y-89479500D02*
X102771000Y-92979500D01*
X102767375Y-93003125D02*
G75*
G03X107001000Y-91249500I1753625J1753625D01*
G01*
X102767375Y-89495875D02*
G75*
G02X107001000Y-91249500I1753625J-1753625D01*
G01*
X47772000Y-88049500D02*
X50272000Y-88049500D01*
X50272000Y-88049500D02*
X50272000Y-81749500D01*
X50272000Y-81749500D02*
X47772000Y-81749500D01*
X47772000Y-81749500D02*
X47772000Y-88049500D01*
X49022000Y-88709500D02*
X49022000Y-88049500D01*
X49022000Y-81089500D02*
X49022000Y-81749500D01*
X52661500Y-88049500D02*
X55161500Y-88049500D01*
X55161500Y-88049500D02*
X55161500Y-81749500D01*
X55161500Y-81749500D02*
X52661500Y-81749500D01*
X52661500Y-81749500D02*
X52661500Y-88049500D01*
X53911500Y-88709500D02*
X53911500Y-88049500D01*
X53911500Y-81089500D02*
X53911500Y-81749500D01*
X58908000Y-53047500D02*
X56408000Y-53047500D01*
X56408000Y-53047500D02*
X56408000Y-59347500D01*
X56408000Y-59347500D02*
X58908000Y-59347500D01*
X58908000Y-59347500D02*
X58908000Y-53047500D01*
X57658000Y-52387500D02*
X57658000Y-53047500D01*
X57658000Y-60007500D02*
X57658000Y-59347500D01*
X105689000Y-55392000D02*
X105689000Y-57892000D01*
X105689000Y-57892000D02*
X111989000Y-57892000D01*
X111989000Y-57892000D02*
X111989000Y-55392000D01*
X111989000Y-55392000D02*
X105689000Y-55392000D01*
X105029000Y-56642000D02*
X105689000Y-56642000D01*
X112649000Y-56642000D02*
X111989000Y-56642000D01*
X92812000Y-92499500D02*
X92812000Y-89999500D01*
X92812000Y-89999500D02*
X86512000Y-89999500D01*
X86512000Y-89999500D02*
X86512000Y-92499500D01*
X86512000Y-92499500D02*
X92812000Y-92499500D01*
X93472000Y-91249500D02*
X92812000Y-91249500D01*
X85852000Y-91249500D02*
X86512000Y-91249500D01*
X44335000Y-103938000D02*
X44335000Y-100938000D01*
X44335000Y-100938000D02*
X50335000Y-100938000D01*
X50335000Y-100938000D02*
X50335000Y-106938000D01*
X50335000Y-106938000D02*
X44335000Y-106938000D01*
X44335000Y-106938000D02*
X44335000Y-103938000D01*
X49350564Y-103938000D02*
G75*
G03X49350564Y-103938000I-2015564J0D01*
G01*
X58916000Y-103834000D02*
X58916000Y-106834000D01*
X58916000Y-106834000D02*
X52916000Y-106834000D01*
X52916000Y-106834000D02*
X52916000Y-100834000D01*
X52916000Y-100834000D02*
X58916000Y-100834000D01*
X58916000Y-100834000D02*
X58916000Y-103834000D01*
X57931564Y-103834000D02*
G75*
G03X57931564Y-103834000I-2015564J0D01*
G01*
X89206000Y-111113000D02*
X86206000Y-111113000D01*
X86206000Y-111113000D02*
X86206000Y-105113000D01*
X86206000Y-105113000D02*
X92206000Y-105113000D01*
X92206000Y-105113000D02*
X92206000Y-111113000D01*
X92206000Y-111113000D02*
X89206000Y-111113000D01*
X91221564Y-108113000D02*
G75*
G03X91221564Y-108113000I-2015564J0D01*
G01*
X94615000Y-50657000D02*
X94615000Y-56007000D01*
X94615000Y-56007000D02*
X84455000Y-56007000D01*
X84455000Y-56007000D02*
X84455000Y-49657000D01*
X84455000Y-49657000D02*
X93615000Y-49657000D01*
X93615000Y-49657000D02*
X94615000Y-50657000D01*
X93765500Y-42720000D02*
X93765500Y-32220000D01*
X93765500Y-32220000D02*
X90765500Y-32220000D01*
X90765500Y-32220000D02*
X90765500Y-42720000D01*
X90765500Y-42720000D02*
X93765500Y-42720000D01*
X92865500Y-42720000D02*
X93535500Y-44220000D01*
X93535500Y-44220000D02*
X93535500Y-45720000D01*
X91665500Y-42720000D02*
X90995500Y-44220000D01*
X90995500Y-44220000D02*
X90995500Y-45720000D01*
D10*
X82199881Y-46545405D02*
X82199881Y-45926357D01*
X82580833Y-46259691D01*
X82580833Y-46116833D01*
X82628452Y-46021595D01*
X82676071Y-45973976D01*
X82771310Y-45926357D01*
X83009405Y-45926357D01*
X83104643Y-45973976D01*
X83152262Y-46021595D01*
X83199881Y-46116833D01*
X83199881Y-46402548D01*
X83152262Y-46497786D01*
X83104643Y-46545405D01*
X82199881Y-45640643D02*
X83199881Y-45307310D01*
X82199881Y-44973976D01*
X107209571Y-87961071D02*
X107257190Y-87818214D01*
X107304810Y-87770595D01*
X107400048Y-87722976D01*
X107542905Y-87722976D01*
X107638143Y-87770595D01*
X107685762Y-87818214D01*
X107733381Y-87913452D01*
X107733381Y-88294405D01*
X106733381Y-88294405D01*
X106733381Y-87961071D01*
X106781000Y-87865833D01*
X106828619Y-87818214D01*
X106923857Y-87770595D01*
X107019095Y-87770595D01*
X107114333Y-87818214D01*
X107161952Y-87865833D01*
X107209571Y-87961071D01*
X107209571Y-88294405D01*
X107066714Y-86865833D02*
X107733381Y-86865833D01*
X107066714Y-87294405D02*
X107590524Y-87294405D01*
X107685762Y-87246786D01*
X107733381Y-87151548D01*
X107733381Y-87008690D01*
X107685762Y-86913452D01*
X107638143Y-86865833D01*
X107066714Y-86484881D02*
X107066714Y-85961071D01*
X107733381Y-86484881D01*
X107733381Y-85961071D01*
X107066714Y-85675357D02*
X107066714Y-85151547D01*
X107733381Y-85675357D01*
X107733381Y-85151547D01*
X107685762Y-84389642D02*
X107733381Y-84484880D01*
X107733381Y-84675357D01*
X107685762Y-84770595D01*
X107590524Y-84818214D01*
X107209571Y-84818214D01*
X107114333Y-84770595D01*
X107066714Y-84675357D01*
X107066714Y-84484880D01*
X107114333Y-84389642D01*
X107209571Y-84342023D01*
X107304810Y-84342023D01*
X107400048Y-84818214D01*
X107733381Y-83913452D02*
X107066714Y-83913452D01*
X107257190Y-83913452D02*
X107161952Y-83865833D01*
X107114333Y-83818214D01*
X107066714Y-83722976D01*
X107066714Y-83627737D01*
X117292429Y-82603452D02*
X117292429Y-81841547D01*
X117673381Y-82222499D02*
X116911476Y-82222499D01*
X118609571Y-86913452D02*
X118657190Y-86770595D01*
X118704810Y-86722976D01*
X118800048Y-86675357D01*
X118942905Y-86675357D01*
X119038143Y-86722976D01*
X119085762Y-86770595D01*
X119133381Y-86865833D01*
X119133381Y-87246786D01*
X118133381Y-87246786D01*
X118133381Y-86913452D01*
X118181000Y-86818214D01*
X118228619Y-86770595D01*
X118323857Y-86722976D01*
X118419095Y-86722976D01*
X118514333Y-86770595D01*
X118561952Y-86818214D01*
X118609571Y-86913452D01*
X118609571Y-87246786D01*
X118133381Y-86342024D02*
X118133381Y-85675357D01*
X119133381Y-86342024D01*
X119133381Y-85675357D01*
X119133381Y-84770595D02*
X119133381Y-85342024D01*
X119133381Y-85056310D02*
X118133381Y-85056310D01*
X118276238Y-85151548D01*
X118371476Y-85246786D01*
X118419095Y-85342024D01*
X41626381Y-95614666D02*
X41626381Y-96186095D01*
X41626381Y-95900381D02*
X40626381Y-95900381D01*
X40769238Y-95995619D01*
X40864476Y-96090857D01*
X40912095Y-96186095D01*
X40626381Y-94995619D02*
X40626381Y-94900380D01*
X40674000Y-94805142D01*
X40721619Y-94757523D01*
X40816857Y-94709904D01*
X41007333Y-94662285D01*
X41245429Y-94662285D01*
X41435905Y-94709904D01*
X41531143Y-94757523D01*
X41578762Y-94805142D01*
X41626381Y-94900380D01*
X41626381Y-94995619D01*
X41578762Y-95090857D01*
X41531143Y-95138476D01*
X41435905Y-95186095D01*
X41245429Y-95233714D01*
X41007333Y-95233714D01*
X40816857Y-95186095D01*
X40721619Y-95138476D01*
X40674000Y-95090857D01*
X40626381Y-94995619D01*
X40959714Y-93805142D02*
X41626381Y-93805142D01*
X40578762Y-94043238D02*
X41293048Y-94281333D01*
X41293048Y-93662285D01*
X41626381Y-93281333D02*
X40626381Y-93281333D01*
X40626381Y-92900380D01*
X40674000Y-92805142D01*
X40721619Y-92757523D01*
X40816857Y-92709904D01*
X40959714Y-92709904D01*
X41054952Y-92757523D01*
X41102571Y-92805142D01*
X41150190Y-92900380D01*
X41150190Y-93281333D01*
X43267334Y-94805143D02*
X43219715Y-94852762D01*
X43076858Y-94900381D01*
X42981620Y-94900381D01*
X42838762Y-94852762D01*
X42743524Y-94757524D01*
X42695905Y-94662286D01*
X42648286Y-94471810D01*
X42648286Y-94328952D01*
X42695905Y-94138476D01*
X42743524Y-94043238D01*
X42838762Y-93948000D01*
X42981620Y-93900381D01*
X43076858Y-93900381D01*
X43219715Y-93948000D01*
X43267334Y-93995619D01*
X44219715Y-94900381D02*
X43648286Y-94900381D01*
X43934000Y-94900381D02*
X43934000Y-93900381D01*
X43838762Y-94043238D01*
X43743524Y-94138476D01*
X43648286Y-94186095D01*
X61819381Y-96630666D02*
X61819381Y-97202095D01*
X61819381Y-96916381D02*
X60819381Y-96916381D01*
X60962238Y-97011619D01*
X61057476Y-97106857D01*
X61105095Y-97202095D01*
X60819381Y-96011619D02*
X60819381Y-95916380D01*
X60867000Y-95821142D01*
X60914619Y-95773523D01*
X61009857Y-95725904D01*
X61200333Y-95678285D01*
X61438429Y-95678285D01*
X61628905Y-95725904D01*
X61724143Y-95773523D01*
X61771762Y-95821142D01*
X61819381Y-95916380D01*
X61819381Y-96011619D01*
X61771762Y-96106857D01*
X61724143Y-96154476D01*
X61628905Y-96202095D01*
X61438429Y-96249714D01*
X61200333Y-96249714D01*
X61009857Y-96202095D01*
X60914619Y-96154476D01*
X60867000Y-96106857D01*
X60819381Y-96011619D01*
X61152714Y-94821142D02*
X61819381Y-94821142D01*
X60771762Y-95059238D02*
X61486048Y-95297333D01*
X61486048Y-94678285D01*
X61819381Y-94297333D02*
X60819381Y-94297333D01*
X60819381Y-93916380D01*
X60867000Y-93821142D01*
X60914619Y-93773523D01*
X61009857Y-93725904D01*
X61152714Y-93725904D01*
X61247952Y-93773523D01*
X61295571Y-93821142D01*
X61343190Y-93916380D01*
X61343190Y-94297333D01*
X63460334Y-95821143D02*
X63412715Y-95868762D01*
X63269858Y-95916381D01*
X63174620Y-95916381D01*
X63031762Y-95868762D01*
X62936524Y-95773524D01*
X62888905Y-95678286D01*
X62841286Y-95487810D01*
X62841286Y-95344952D01*
X62888905Y-95154476D01*
X62936524Y-95059238D01*
X63031762Y-94964000D01*
X63174620Y-94916381D01*
X63269858Y-94916381D01*
X63412715Y-94964000D01*
X63460334Y-95011619D01*
X63841286Y-95011619D02*
X63888905Y-94964000D01*
X63984143Y-94916381D01*
X64222239Y-94916381D01*
X64317477Y-94964000D01*
X64365096Y-95011619D01*
X64412715Y-95106857D01*
X64412715Y-95202095D01*
X64365096Y-95344952D01*
X63793667Y-95916381D01*
X64412715Y-95916381D01*
X44506095Y-50752619D02*
X44553714Y-50705000D01*
X44648952Y-50657381D01*
X44887048Y-50657381D01*
X44982286Y-50705000D01*
X45029905Y-50752619D01*
X45077524Y-50847857D01*
X45077524Y-50943095D01*
X45029905Y-51085952D01*
X44458476Y-51657381D01*
X45077524Y-51657381D01*
X45458476Y-50752619D02*
X45506095Y-50705000D01*
X45601333Y-50657381D01*
X45839429Y-50657381D01*
X45934667Y-50705000D01*
X45982286Y-50752619D01*
X46029905Y-50847857D01*
X46029905Y-50943095D01*
X45982286Y-51085952D01*
X45410857Y-51657381D01*
X46029905Y-51657381D01*
X46648952Y-50657381D02*
X46744191Y-50657381D01*
X46839429Y-50705000D01*
X46887048Y-50752619D01*
X46934667Y-50847857D01*
X46982286Y-51038333D01*
X46982286Y-51276429D01*
X46934667Y-51466905D01*
X46887048Y-51562143D01*
X46839429Y-51609762D01*
X46744191Y-51657381D01*
X46648952Y-51657381D01*
X46553714Y-51609762D01*
X46506095Y-51562143D01*
X46458476Y-51466905D01*
X46410857Y-51276429D01*
X46410857Y-51038333D01*
X46458476Y-50847857D01*
X46506095Y-50752619D01*
X46553714Y-50705000D01*
X46648952Y-50657381D01*
X47410857Y-50657381D02*
X47410857Y-51466905D01*
X47458476Y-51562143D01*
X47506095Y-51609762D01*
X47601333Y-51657381D01*
X47791810Y-51657381D01*
X47887048Y-51609762D01*
X47934667Y-51562143D01*
X47982286Y-51466905D01*
X47982286Y-50657381D01*
X46101334Y-56872143D02*
X46053715Y-56919762D01*
X45910858Y-56967381D01*
X45815620Y-56967381D01*
X45672762Y-56919762D01*
X45577524Y-56824524D01*
X45529905Y-56729286D01*
X45482286Y-56538810D01*
X45482286Y-56395952D01*
X45529905Y-56205476D01*
X45577524Y-56110238D01*
X45672762Y-56015000D01*
X45815620Y-55967381D01*
X45910858Y-55967381D01*
X46053715Y-56015000D01*
X46101334Y-56062619D01*
X46434667Y-55967381D02*
X47053715Y-55967381D01*
X46720381Y-56348333D01*
X46863239Y-56348333D01*
X46958477Y-56395952D01*
X47006096Y-56443571D01*
X47053715Y-56538810D01*
X47053715Y-56776905D01*
X47006096Y-56872143D01*
X46958477Y-56919762D01*
X46863239Y-56967381D01*
X46577524Y-56967381D01*
X46482286Y-56919762D01*
X46434667Y-56872143D01*
X69693381Y-43417666D02*
X69693381Y-43989095D01*
X69693381Y-43703381D02*
X68693381Y-43703381D01*
X68836238Y-43798619D01*
X68931476Y-43893857D01*
X68979095Y-43989095D01*
X68693381Y-42798619D02*
X68693381Y-42703380D01*
X68741000Y-42608142D01*
X68788619Y-42560523D01*
X68883857Y-42512904D01*
X69074333Y-42465285D01*
X69312429Y-42465285D01*
X69502905Y-42512904D01*
X69598143Y-42560523D01*
X69645762Y-42608142D01*
X69693381Y-42703380D01*
X69693381Y-42798619D01*
X69645762Y-42893857D01*
X69598143Y-42941476D01*
X69502905Y-42989095D01*
X69312429Y-43036714D01*
X69074333Y-43036714D01*
X68883857Y-42989095D01*
X68788619Y-42941476D01*
X68741000Y-42893857D01*
X68693381Y-42798619D01*
X69026714Y-41608142D02*
X69693381Y-41608142D01*
X68645762Y-41846238D02*
X69360048Y-42084333D01*
X69360048Y-41465285D01*
X69693381Y-41084333D02*
X68693381Y-41084333D01*
X68693381Y-40703380D01*
X68741000Y-40608142D01*
X68788619Y-40560523D01*
X68883857Y-40512904D01*
X69026714Y-40512904D01*
X69121952Y-40560523D01*
X69169571Y-40608142D01*
X69217190Y-40703380D01*
X69217190Y-41084333D01*
X71334334Y-42608143D02*
X71286715Y-42655762D01*
X71143858Y-42703381D01*
X71048620Y-42703381D01*
X70905762Y-42655762D01*
X70810524Y-42560524D01*
X70762905Y-42465286D01*
X70715286Y-42274810D01*
X70715286Y-42131952D01*
X70762905Y-41941476D01*
X70810524Y-41846238D01*
X70905762Y-41751000D01*
X71048620Y-41703381D01*
X71143858Y-41703381D01*
X71286715Y-41751000D01*
X71334334Y-41798619D01*
X72191477Y-42036714D02*
X72191477Y-42703381D01*
X71953381Y-41655762D02*
X71715286Y-42370048D01*
X72334334Y-42370048D01*
X129730334Y-80563381D02*
X129158905Y-80563381D01*
X129444619Y-80563381D02*
X129444619Y-79563381D01*
X129349381Y-79706238D01*
X129254143Y-79801476D01*
X129158905Y-79849095D01*
X130349381Y-79563381D02*
X130444620Y-79563381D01*
X130539858Y-79611000D01*
X130587477Y-79658619D01*
X130635096Y-79753857D01*
X130682715Y-79944333D01*
X130682715Y-80182429D01*
X130635096Y-80372905D01*
X130587477Y-80468143D01*
X130539858Y-80515762D01*
X130444620Y-80563381D01*
X130349381Y-80563381D01*
X130254143Y-80515762D01*
X130206524Y-80468143D01*
X130158905Y-80372905D01*
X130111286Y-80182429D01*
X130111286Y-79944333D01*
X130158905Y-79753857D01*
X130206524Y-79658619D01*
X130254143Y-79611000D01*
X130349381Y-79563381D01*
X131539858Y-79896714D02*
X131539858Y-80563381D01*
X131301762Y-79515762D02*
X131063667Y-80230048D01*
X131682715Y-80230048D01*
X132063667Y-80563381D02*
X132063667Y-79563381D01*
X132444620Y-79563381D01*
X132539858Y-79611000D01*
X132587477Y-79658619D01*
X132635096Y-79753857D01*
X132635096Y-79896714D01*
X132587477Y-79991952D01*
X132539858Y-80039571D01*
X132444620Y-80087190D01*
X132063667Y-80087190D01*
X131254143Y-78017666D02*
X131301762Y-78065285D01*
X131349381Y-78208142D01*
X131349381Y-78303380D01*
X131301762Y-78446238D01*
X131206524Y-78541476D01*
X131111286Y-78589095D01*
X130920810Y-78636714D01*
X130777952Y-78636714D01*
X130587476Y-78589095D01*
X130492238Y-78541476D01*
X130397000Y-78446238D01*
X130349381Y-78303380D01*
X130349381Y-78208142D01*
X130397000Y-78065285D01*
X130444619Y-78017666D01*
X130349381Y-77112904D02*
X130349381Y-77589095D01*
X130825571Y-77636714D01*
X130777952Y-77589095D01*
X130730333Y-77493857D01*
X130730333Y-77255761D01*
X130777952Y-77160523D01*
X130825571Y-77112904D01*
X130920810Y-77065285D01*
X131158905Y-77065285D01*
X131254143Y-77112904D01*
X131301762Y-77160523D01*
X131349381Y-77255761D01*
X131349381Y-77493857D01*
X131301762Y-77589095D01*
X131254143Y-77636714D01*
X82023881Y-109410666D02*
X82023881Y-109982095D01*
X82023881Y-109696381D02*
X81023881Y-109696381D01*
X81166738Y-109791619D01*
X81261976Y-109886857D01*
X81309595Y-109982095D01*
X81023881Y-108791619D02*
X81023881Y-108696380D01*
X81071500Y-108601142D01*
X81119119Y-108553523D01*
X81214357Y-108505904D01*
X81404833Y-108458285D01*
X81642929Y-108458285D01*
X81833405Y-108505904D01*
X81928643Y-108553523D01*
X81976262Y-108601142D01*
X82023881Y-108696380D01*
X82023881Y-108791619D01*
X81976262Y-108886857D01*
X81928643Y-108934476D01*
X81833405Y-108982095D01*
X81642929Y-109029714D01*
X81404833Y-109029714D01*
X81214357Y-108982095D01*
X81119119Y-108934476D01*
X81071500Y-108886857D01*
X81023881Y-108791619D01*
X81357214Y-107601142D02*
X82023881Y-107601142D01*
X80976262Y-107839238D02*
X81690548Y-108077333D01*
X81690548Y-107458285D01*
X82023881Y-107077333D02*
X81023881Y-107077333D01*
X81023881Y-106696380D01*
X81071500Y-106601142D01*
X81119119Y-106553523D01*
X81214357Y-106505904D01*
X81357214Y-106505904D01*
X81452452Y-106553523D01*
X81500071Y-106601142D01*
X81547690Y-106696380D01*
X81547690Y-107077333D01*
X79144834Y-108601143D02*
X79097215Y-108648762D01*
X78954358Y-108696381D01*
X78859120Y-108696381D01*
X78716262Y-108648762D01*
X78621024Y-108553524D01*
X78573405Y-108458286D01*
X78525786Y-108267810D01*
X78525786Y-108124952D01*
X78573405Y-107934476D01*
X78621024Y-107839238D01*
X78716262Y-107744000D01*
X78859120Y-107696381D01*
X78954358Y-107696381D01*
X79097215Y-107744000D01*
X79144834Y-107791619D01*
X80001977Y-107696381D02*
X79811500Y-107696381D01*
X79716262Y-107744000D01*
X79668643Y-107791619D01*
X79573405Y-107934476D01*
X79525786Y-108124952D01*
X79525786Y-108505905D01*
X79573405Y-108601143D01*
X79621024Y-108648762D01*
X79716262Y-108696381D01*
X79906739Y-108696381D01*
X80001977Y-108648762D01*
X80049596Y-108601143D01*
X80097215Y-108505905D01*
X80097215Y-108267810D01*
X80049596Y-108172571D01*
X80001977Y-108124952D01*
X79906739Y-108077333D01*
X79716262Y-108077333D01*
X79621024Y-108124952D01*
X79573405Y-108172571D01*
X79525786Y-108267810D01*
X65005881Y-58547166D02*
X65005881Y-59118595D01*
X65005881Y-58832881D02*
X64005881Y-58832881D01*
X64148738Y-58928119D01*
X64243976Y-59023357D01*
X64291595Y-59118595D01*
X64005881Y-57928119D02*
X64005881Y-57832880D01*
X64053500Y-57737642D01*
X64101119Y-57690023D01*
X64196357Y-57642404D01*
X64386833Y-57594785D01*
X64624929Y-57594785D01*
X64815405Y-57642404D01*
X64910643Y-57690023D01*
X64958262Y-57737642D01*
X65005881Y-57832880D01*
X65005881Y-57928119D01*
X64958262Y-58023357D01*
X64910643Y-58070976D01*
X64815405Y-58118595D01*
X64624929Y-58166214D01*
X64386833Y-58166214D01*
X64196357Y-58118595D01*
X64101119Y-58070976D01*
X64053500Y-58023357D01*
X64005881Y-57928119D01*
X64339214Y-56737642D02*
X65005881Y-56737642D01*
X63958262Y-56975738D02*
X64672548Y-57213833D01*
X64672548Y-56594785D01*
X65005881Y-56213833D02*
X64005881Y-56213833D01*
X64005881Y-55832880D01*
X64053500Y-55737642D01*
X64101119Y-55690023D01*
X64196357Y-55642404D01*
X64339214Y-55642404D01*
X64434452Y-55690023D01*
X64482071Y-55737642D01*
X64529690Y-55832880D01*
X64529690Y-56213833D01*
X62650643Y-57547166D02*
X62698262Y-57594785D01*
X62745881Y-57737642D01*
X62745881Y-57832880D01*
X62698262Y-57975738D01*
X62603024Y-58070976D01*
X62507786Y-58118595D01*
X62317310Y-58166214D01*
X62174452Y-58166214D01*
X61983976Y-58118595D01*
X61888738Y-58070976D01*
X61793500Y-57975738D01*
X61745881Y-57832880D01*
X61745881Y-57737642D01*
X61793500Y-57594785D01*
X61841119Y-57547166D01*
X61745881Y-57213833D02*
X61745881Y-56547166D01*
X62745881Y-56975738D01*
X71292381Y-58229666D02*
X71292381Y-58801095D01*
X71292381Y-58515381D02*
X70292381Y-58515381D01*
X70435238Y-58610619D01*
X70530476Y-58705857D01*
X70578095Y-58801095D01*
X70292381Y-57610619D02*
X70292381Y-57515380D01*
X70340000Y-57420142D01*
X70387619Y-57372523D01*
X70482857Y-57324904D01*
X70673333Y-57277285D01*
X70911429Y-57277285D01*
X71101905Y-57324904D01*
X71197143Y-57372523D01*
X71244762Y-57420142D01*
X71292381Y-57515380D01*
X71292381Y-57610619D01*
X71244762Y-57705857D01*
X71197143Y-57753476D01*
X71101905Y-57801095D01*
X70911429Y-57848714D01*
X70673333Y-57848714D01*
X70482857Y-57801095D01*
X70387619Y-57753476D01*
X70340000Y-57705857D01*
X70292381Y-57610619D01*
X70625714Y-56420142D02*
X71292381Y-56420142D01*
X70244762Y-56658238D02*
X70959048Y-56896333D01*
X70959048Y-56277285D01*
X71292381Y-55896333D02*
X70292381Y-55896333D01*
X70292381Y-55515380D01*
X70340000Y-55420142D01*
X70387619Y-55372523D01*
X70482857Y-55324904D01*
X70625714Y-55324904D01*
X70720952Y-55372523D01*
X70768571Y-55420142D01*
X70816190Y-55515380D01*
X70816190Y-55896333D01*
X69064143Y-60364666D02*
X69111762Y-60412285D01*
X69159381Y-60555142D01*
X69159381Y-60650380D01*
X69111762Y-60793238D01*
X69016524Y-60888476D01*
X68921286Y-60936095D01*
X68730810Y-60983714D01*
X68587952Y-60983714D01*
X68397476Y-60936095D01*
X68302238Y-60888476D01*
X68207000Y-60793238D01*
X68159381Y-60650380D01*
X68159381Y-60555142D01*
X68207000Y-60412285D01*
X68254619Y-60364666D01*
X68587952Y-59793238D02*
X68540333Y-59888476D01*
X68492714Y-59936095D01*
X68397476Y-59983714D01*
X68349857Y-59983714D01*
X68254619Y-59936095D01*
X68207000Y-59888476D01*
X68159381Y-59793238D01*
X68159381Y-59602761D01*
X68207000Y-59507523D01*
X68254619Y-59459904D01*
X68349857Y-59412285D01*
X68397476Y-59412285D01*
X68492714Y-59459904D01*
X68540333Y-59507523D01*
X68587952Y-59602761D01*
X68587952Y-59793238D01*
X68635571Y-59888476D01*
X68683190Y-59936095D01*
X68778429Y-59983714D01*
X68968905Y-59983714D01*
X69064143Y-59936095D01*
X69111762Y-59888476D01*
X69159381Y-59793238D01*
X69159381Y-59602761D01*
X69111762Y-59507523D01*
X69064143Y-59459904D01*
X68968905Y-59412285D01*
X68778429Y-59412285D01*
X68683190Y-59459904D01*
X68635571Y-59507523D01*
X68587952Y-59602761D01*
X74467381Y-58229666D02*
X74467381Y-58801095D01*
X74467381Y-58515381D02*
X73467381Y-58515381D01*
X73610238Y-58610619D01*
X73705476Y-58705857D01*
X73753095Y-58801095D01*
X73467381Y-57610619D02*
X73467381Y-57515380D01*
X73515000Y-57420142D01*
X73562619Y-57372523D01*
X73657857Y-57324904D01*
X73848333Y-57277285D01*
X74086429Y-57277285D01*
X74276905Y-57324904D01*
X74372143Y-57372523D01*
X74419762Y-57420142D01*
X74467381Y-57515380D01*
X74467381Y-57610619D01*
X74419762Y-57705857D01*
X74372143Y-57753476D01*
X74276905Y-57801095D01*
X74086429Y-57848714D01*
X73848333Y-57848714D01*
X73657857Y-57801095D01*
X73562619Y-57753476D01*
X73515000Y-57705857D01*
X73467381Y-57610619D01*
X73800714Y-56420142D02*
X74467381Y-56420142D01*
X73419762Y-56658238D02*
X74134048Y-56896333D01*
X74134048Y-56277285D01*
X74467381Y-55896333D02*
X73467381Y-55896333D01*
X73467381Y-55515380D01*
X73515000Y-55420142D01*
X73562619Y-55372523D01*
X73657857Y-55324904D01*
X73800714Y-55324904D01*
X73895952Y-55372523D01*
X73943571Y-55420142D01*
X73991190Y-55515380D01*
X73991190Y-55896333D01*
X72112143Y-57316666D02*
X72159762Y-57364285D01*
X72207381Y-57507142D01*
X72207381Y-57602380D01*
X72159762Y-57745238D01*
X72064524Y-57840476D01*
X71969286Y-57888095D01*
X71778810Y-57935714D01*
X71635952Y-57935714D01*
X71445476Y-57888095D01*
X71350238Y-57840476D01*
X71255000Y-57745238D01*
X71207381Y-57602380D01*
X71207381Y-57507142D01*
X71255000Y-57364285D01*
X71302619Y-57316666D01*
X72207381Y-56840476D02*
X72207381Y-56650000D01*
X72159762Y-56554761D01*
X72112143Y-56507142D01*
X71969286Y-56411904D01*
X71778810Y-56364285D01*
X71397857Y-56364285D01*
X71302619Y-56411904D01*
X71255000Y-56459523D01*
X71207381Y-56554761D01*
X71207381Y-56745238D01*
X71255000Y-56840476D01*
X71302619Y-56888095D01*
X71397857Y-56935714D01*
X71635952Y-56935714D01*
X71731190Y-56888095D01*
X71778810Y-56840476D01*
X71826429Y-56745238D01*
X71826429Y-56554761D01*
X71778810Y-56459523D01*
X71731190Y-56411904D01*
X71635952Y-56364285D01*
X42156262Y-85729381D02*
X42156262Y-86538905D01*
X42203881Y-86634143D01*
X42251500Y-86681762D01*
X42346738Y-86729381D01*
X42537215Y-86729381D01*
X42632453Y-86681762D01*
X42680072Y-86634143D01*
X42727691Y-86538905D01*
X42727691Y-85729381D01*
X43156262Y-86443667D02*
X43632453Y-86443667D01*
X43061024Y-86729381D02*
X43394357Y-85729381D01*
X43727691Y-86729381D01*
X44632453Y-86729381D02*
X44299119Y-86253190D01*
X44061024Y-86729381D02*
X44061024Y-85729381D01*
X44441977Y-85729381D01*
X44537215Y-85777000D01*
X44584834Y-85824619D01*
X44632453Y-85919857D01*
X44632453Y-86062714D01*
X44584834Y-86157952D01*
X44537215Y-86205571D01*
X44441977Y-86253190D01*
X44061024Y-86253190D01*
X44918167Y-85729381D02*
X45489596Y-85729381D01*
X45203881Y-86729381D02*
X45203881Y-85729381D01*
X43203881Y-76660333D02*
X43918167Y-76660333D01*
X44061024Y-76707953D01*
X44156262Y-76803191D01*
X44203881Y-76946048D01*
X44203881Y-77041286D01*
X44203881Y-75660333D02*
X44203881Y-76231762D01*
X44203881Y-75946048D02*
X43203881Y-75946048D01*
X43346738Y-76041286D01*
X43441976Y-76136524D01*
X43489595Y-76231762D01*
X42187095Y-34830381D02*
X42187095Y-33830381D01*
X42425190Y-33830381D01*
X42568048Y-33878000D01*
X42663286Y-33973238D01*
X42710905Y-34068476D01*
X42758524Y-34258952D01*
X42758524Y-34401810D01*
X42710905Y-34592286D01*
X42663286Y-34687524D01*
X42568048Y-34782762D01*
X42425190Y-34830381D01*
X42187095Y-34830381D01*
X43758524Y-34735143D02*
X43710905Y-34782762D01*
X43568048Y-34830381D01*
X43472810Y-34830381D01*
X43329952Y-34782762D01*
X43234714Y-34687524D01*
X43187095Y-34592286D01*
X43139476Y-34401810D01*
X43139476Y-34258952D01*
X43187095Y-34068476D01*
X43234714Y-33973238D01*
X43329952Y-33878000D01*
X43472810Y-33830381D01*
X43568048Y-33830381D01*
X43710905Y-33878000D01*
X43758524Y-33925619D01*
X86074714Y-94178381D02*
X86074714Y-93178381D01*
X86455667Y-93178381D01*
X86550905Y-93226000D01*
X86598524Y-93273619D01*
X86646143Y-93368857D01*
X86646143Y-93511714D01*
X86598524Y-93606952D01*
X86550905Y-93654571D01*
X86455667Y-93702190D01*
X86074714Y-93702190D01*
X87027095Y-93892667D02*
X87503286Y-93892667D01*
X86931857Y-94178381D02*
X87265190Y-93178381D01*
X87598524Y-94178381D01*
X87931857Y-94178381D02*
X87931857Y-93178381D01*
X88979476Y-94178381D02*
X88646142Y-93702190D01*
X88408047Y-94178381D02*
X88408047Y-93178381D01*
X88789000Y-93178381D01*
X88884238Y-93226000D01*
X88931857Y-93273619D01*
X88979476Y-93368857D01*
X88979476Y-93511714D01*
X88931857Y-93606952D01*
X88884238Y-93654571D01*
X88789000Y-93702190D01*
X88408047Y-93702190D01*
X89169952Y-94273619D02*
X89931857Y-94273619D01*
X90169952Y-94178381D02*
X90169952Y-93178381D01*
X90550905Y-93178381D01*
X90646143Y-93226000D01*
X90693762Y-93273619D01*
X90741381Y-93368857D01*
X90741381Y-93511714D01*
X90693762Y-93606952D01*
X90646143Y-93654571D01*
X90550905Y-93702190D01*
X90169952Y-93702190D01*
X91360428Y-93178381D02*
X91550905Y-93178381D01*
X91646143Y-93226000D01*
X91741381Y-93321238D01*
X91789000Y-93511714D01*
X91789000Y-93845048D01*
X91741381Y-94035524D01*
X91646143Y-94130762D01*
X91550905Y-94178381D01*
X91360428Y-94178381D01*
X91265190Y-94130762D01*
X91169952Y-94035524D01*
X91122333Y-93845048D01*
X91122333Y-93511714D01*
X91169952Y-93321238D01*
X91265190Y-93226000D01*
X91360428Y-93178381D01*
X92789000Y-94178381D02*
X92455666Y-93702190D01*
X92217571Y-94178381D02*
X92217571Y-93178381D01*
X92598524Y-93178381D01*
X92693762Y-93226000D01*
X92741381Y-93273619D01*
X92789000Y-93368857D01*
X92789000Y-93511714D01*
X92741381Y-93606952D01*
X92693762Y-93654571D01*
X92598524Y-93702190D01*
X92217571Y-93702190D01*
X93074714Y-93178381D02*
X93646143Y-93178381D01*
X93360428Y-94178381D02*
X93360428Y-93178381D01*
X134945667Y-114034381D02*
X134945667Y-113034381D01*
X135374238Y-113129619D02*
X135421857Y-113082000D01*
X135517095Y-113034381D01*
X135755191Y-113034381D01*
X135850429Y-113082000D01*
X135898048Y-113129619D01*
X135945667Y-113224857D01*
X135945667Y-113320095D01*
X135898048Y-113462952D01*
X135326619Y-114034381D01*
X135945667Y-114034381D01*
X136945667Y-113939143D02*
X136898048Y-113986762D01*
X136755191Y-114034381D01*
X136659953Y-114034381D01*
X136517095Y-113986762D01*
X136421857Y-113891524D01*
X136374238Y-113796286D01*
X136326619Y-113605810D01*
X136326619Y-113462952D01*
X136374238Y-113272476D01*
X136421857Y-113177238D01*
X136517095Y-113082000D01*
X136659953Y-113034381D01*
X136755191Y-113034381D01*
X136898048Y-113082000D01*
X136945667Y-113129619D01*
X137136143Y-114129619D02*
X137898048Y-114129619D01*
X138326619Y-113034381D02*
X138421858Y-113034381D01*
X138517096Y-113082000D01*
X138564715Y-113129619D01*
X138612334Y-113224857D01*
X138659953Y-113415333D01*
X138659953Y-113653429D01*
X138612334Y-113843905D01*
X138564715Y-113939143D01*
X138517096Y-113986762D01*
X138421858Y-114034381D01*
X138326619Y-114034381D01*
X138231381Y-113986762D01*
X138183762Y-113939143D01*
X138136143Y-113843905D01*
X138088524Y-113653429D01*
X138088524Y-113415333D01*
X138136143Y-113224857D01*
X138183762Y-113129619D01*
X138231381Y-113082000D01*
X138326619Y-113034381D01*
X136231381Y-107775333D02*
X136945667Y-107775333D01*
X137088524Y-107822953D01*
X137183762Y-107918191D01*
X137231381Y-108061048D01*
X137231381Y-108156286D01*
X136564714Y-106870571D02*
X137231381Y-106870571D01*
X136183762Y-107108667D02*
X136898048Y-107346762D01*
X136898048Y-106727714D01*
X126119167Y-114034381D02*
X126119167Y-113034381D01*
X126547738Y-113129619D02*
X126595357Y-113082000D01*
X126690595Y-113034381D01*
X126928691Y-113034381D01*
X127023929Y-113082000D01*
X127071548Y-113129619D01*
X127119167Y-113224857D01*
X127119167Y-113320095D01*
X127071548Y-113462952D01*
X126500119Y-114034381D01*
X127119167Y-114034381D01*
X128119167Y-113939143D02*
X128071548Y-113986762D01*
X127928691Y-114034381D01*
X127833453Y-114034381D01*
X127690595Y-113986762D01*
X127595357Y-113891524D01*
X127547738Y-113796286D01*
X127500119Y-113605810D01*
X127500119Y-113462952D01*
X127547738Y-113272476D01*
X127595357Y-113177238D01*
X127690595Y-113082000D01*
X127833453Y-113034381D01*
X127928691Y-113034381D01*
X128071548Y-113082000D01*
X128119167Y-113129619D01*
X128309643Y-114129619D02*
X129071548Y-114129619D01*
X129833453Y-114034381D02*
X129262024Y-114034381D01*
X129547738Y-114034381D02*
X129547738Y-113034381D01*
X129452500Y-113177238D01*
X129357262Y-113272476D01*
X129262024Y-113320095D01*
X127404881Y-107775333D02*
X128119167Y-107775333D01*
X128262024Y-107822953D01*
X128357262Y-107918191D01*
X128404881Y-108061048D01*
X128404881Y-108156286D01*
X127404881Y-106822952D02*
X127404881Y-107299143D01*
X127881071Y-107346762D01*
X127833452Y-107299143D01*
X127785833Y-107203905D01*
X127785833Y-106965809D01*
X127833452Y-106870571D01*
X127881071Y-106822952D01*
X127976310Y-106775333D01*
X128214405Y-106775333D01*
X128309643Y-106822952D01*
X128357262Y-106870571D01*
X128404881Y-106965809D01*
X128404881Y-107203905D01*
X128357262Y-107299143D01*
X128309643Y-107346762D01*
X117546667Y-114034381D02*
X117546667Y-113034381D01*
X117975238Y-113129619D02*
X118022857Y-113082000D01*
X118118095Y-113034381D01*
X118356191Y-113034381D01*
X118451429Y-113082000D01*
X118499048Y-113129619D01*
X118546667Y-113224857D01*
X118546667Y-113320095D01*
X118499048Y-113462952D01*
X117927619Y-114034381D01*
X118546667Y-114034381D01*
X119546667Y-113939143D02*
X119499048Y-113986762D01*
X119356191Y-114034381D01*
X119260953Y-114034381D01*
X119118095Y-113986762D01*
X119022857Y-113891524D01*
X118975238Y-113796286D01*
X118927619Y-113605810D01*
X118927619Y-113462952D01*
X118975238Y-113272476D01*
X119022857Y-113177238D01*
X119118095Y-113082000D01*
X119260953Y-113034381D01*
X119356191Y-113034381D01*
X119499048Y-113082000D01*
X119546667Y-113129619D01*
X119737143Y-114129619D02*
X120499048Y-114129619D01*
X120689524Y-113129619D02*
X120737143Y-113082000D01*
X120832381Y-113034381D01*
X121070477Y-113034381D01*
X121165715Y-113082000D01*
X121213334Y-113129619D01*
X121260953Y-113224857D01*
X121260953Y-113320095D01*
X121213334Y-113462952D01*
X120641905Y-114034381D01*
X121260953Y-114034381D01*
X118832381Y-107775333D02*
X119546667Y-107775333D01*
X119689524Y-107822953D01*
X119784762Y-107918191D01*
X119832381Y-108061048D01*
X119832381Y-108156286D01*
X118832381Y-106870571D02*
X118832381Y-107061048D01*
X118880000Y-107156286D01*
X118927619Y-107203905D01*
X119070476Y-107299143D01*
X119260952Y-107346762D01*
X119641905Y-107346762D01*
X119737143Y-107299143D01*
X119784762Y-107251524D01*
X119832381Y-107156286D01*
X119832381Y-106965809D01*
X119784762Y-106870571D01*
X119737143Y-106822952D01*
X119641905Y-106775333D01*
X119403810Y-106775333D01*
X119308571Y-106822952D01*
X119260952Y-106870571D01*
X119213333Y-106965809D01*
X119213333Y-107156286D01*
X119260952Y-107251524D01*
X119308571Y-107299143D01*
X119403810Y-107346762D01*
X100401667Y-114034381D02*
X100401667Y-113034381D01*
X100830238Y-113129619D02*
X100877857Y-113082000D01*
X100973095Y-113034381D01*
X101211191Y-113034381D01*
X101306429Y-113082000D01*
X101354048Y-113129619D01*
X101401667Y-113224857D01*
X101401667Y-113320095D01*
X101354048Y-113462952D01*
X100782619Y-114034381D01*
X101401667Y-114034381D01*
X102401667Y-113939143D02*
X102354048Y-113986762D01*
X102211191Y-114034381D01*
X102115953Y-114034381D01*
X101973095Y-113986762D01*
X101877857Y-113891524D01*
X101830238Y-113796286D01*
X101782619Y-113605810D01*
X101782619Y-113462952D01*
X101830238Y-113272476D01*
X101877857Y-113177238D01*
X101973095Y-113082000D01*
X102115953Y-113034381D01*
X102211191Y-113034381D01*
X102354048Y-113082000D01*
X102401667Y-113129619D01*
X102592143Y-114129619D02*
X103354048Y-114129619D01*
X103496905Y-113034381D02*
X104115953Y-113034381D01*
X103782619Y-113415333D01*
X103925477Y-113415333D01*
X104020715Y-113462952D01*
X104068334Y-113510571D01*
X104115953Y-113605810D01*
X104115953Y-113843905D01*
X104068334Y-113939143D01*
X104020715Y-113986762D01*
X103925477Y-114034381D01*
X103639762Y-114034381D01*
X103544524Y-113986762D01*
X103496905Y-113939143D01*
X101687381Y-107775333D02*
X102401667Y-107775333D01*
X102544524Y-107822953D01*
X102639762Y-107918191D01*
X102687381Y-108061048D01*
X102687381Y-108156286D01*
X101687381Y-107394381D02*
X101687381Y-106727714D01*
X102687381Y-107156286D01*
X109037667Y-114034381D02*
X109037667Y-113034381D01*
X109466238Y-113129619D02*
X109513857Y-113082000D01*
X109609095Y-113034381D01*
X109847191Y-113034381D01*
X109942429Y-113082000D01*
X109990048Y-113129619D01*
X110037667Y-113224857D01*
X110037667Y-113320095D01*
X109990048Y-113462952D01*
X109418619Y-114034381D01*
X110037667Y-114034381D01*
X111037667Y-113939143D02*
X110990048Y-113986762D01*
X110847191Y-114034381D01*
X110751953Y-114034381D01*
X110609095Y-113986762D01*
X110513857Y-113891524D01*
X110466238Y-113796286D01*
X110418619Y-113605810D01*
X110418619Y-113462952D01*
X110466238Y-113272476D01*
X110513857Y-113177238D01*
X110609095Y-113082000D01*
X110751953Y-113034381D01*
X110847191Y-113034381D01*
X110990048Y-113082000D01*
X111037667Y-113129619D01*
X111228143Y-114129619D02*
X111990048Y-114129619D01*
X112656715Y-113367714D02*
X112656715Y-114034381D01*
X112418619Y-112986762D02*
X112180524Y-113701048D01*
X112799572Y-113701048D01*
X110323381Y-107775333D02*
X111037667Y-107775333D01*
X111180524Y-107822953D01*
X111275762Y-107918191D01*
X111323381Y-108061048D01*
X111323381Y-108156286D01*
X110751952Y-107156286D02*
X110704333Y-107251524D01*
X110656714Y-107299143D01*
X110561476Y-107346762D01*
X110513857Y-107346762D01*
X110418619Y-107299143D01*
X110371000Y-107251524D01*
X110323381Y-107156286D01*
X110323381Y-106965809D01*
X110371000Y-106870571D01*
X110418619Y-106822952D01*
X110513857Y-106775333D01*
X110561476Y-106775333D01*
X110656714Y-106822952D01*
X110704333Y-106870571D01*
X110751952Y-106965809D01*
X110751952Y-107156286D01*
X110799571Y-107251524D01*
X110847190Y-107299143D01*
X110942429Y-107346762D01*
X111132905Y-107346762D01*
X111228143Y-107299143D01*
X111275762Y-107251524D01*
X111323381Y-107156286D01*
X111323381Y-106965809D01*
X111275762Y-106870571D01*
X111228143Y-106822952D01*
X111132905Y-106775333D01*
X110942429Y-106775333D01*
X110847190Y-106822952D01*
X110799571Y-106870571D01*
X110751952Y-106965809D01*
X46307714Y-90356619D02*
X46355333Y-90309000D01*
X46450571Y-90261381D01*
X46688667Y-90261381D01*
X46783905Y-90309000D01*
X46831524Y-90356619D01*
X46879143Y-90451857D01*
X46879143Y-90547095D01*
X46831524Y-90689952D01*
X46260095Y-91261381D01*
X46879143Y-91261381D01*
X47307714Y-91261381D02*
X47307714Y-90261381D01*
X47879143Y-91261381D01*
X47879143Y-90261381D01*
X48307714Y-90356619D02*
X48355333Y-90309000D01*
X48450571Y-90261381D01*
X48688667Y-90261381D01*
X48783905Y-90309000D01*
X48831524Y-90356619D01*
X48879143Y-90451857D01*
X48879143Y-90547095D01*
X48831524Y-90689952D01*
X48260095Y-91261381D01*
X48879143Y-91261381D01*
X49260095Y-90356619D02*
X49307714Y-90309000D01*
X49402952Y-90261381D01*
X49641048Y-90261381D01*
X49736286Y-90309000D01*
X49783905Y-90356619D01*
X49831524Y-90451857D01*
X49831524Y-90547095D01*
X49783905Y-90689952D01*
X49212476Y-91261381D01*
X49831524Y-91261381D01*
X50212476Y-90356619D02*
X50260095Y-90309000D01*
X50355333Y-90261381D01*
X50593429Y-90261381D01*
X50688667Y-90309000D01*
X50736286Y-90356619D01*
X50783905Y-90451857D01*
X50783905Y-90547095D01*
X50736286Y-90689952D01*
X50164857Y-91261381D01*
X50783905Y-91261381D01*
X51164857Y-90356619D02*
X51212476Y-90309000D01*
X51307714Y-90261381D01*
X51545810Y-90261381D01*
X51641048Y-90309000D01*
X51688667Y-90356619D01*
X51736286Y-90451857D01*
X51736286Y-90547095D01*
X51688667Y-90689952D01*
X51117238Y-91261381D01*
X51736286Y-91261381D01*
X48926762Y-97706619D02*
X48831524Y-97659000D01*
X48736286Y-97563762D01*
X48593429Y-97420905D01*
X48498190Y-97373286D01*
X48402952Y-97373286D01*
X48450571Y-97611381D02*
X48355333Y-97563762D01*
X48260095Y-97468524D01*
X48212476Y-97278048D01*
X48212476Y-96944714D01*
X48260095Y-96754238D01*
X48355333Y-96659000D01*
X48450571Y-96611381D01*
X48641048Y-96611381D01*
X48736286Y-96659000D01*
X48831524Y-96754238D01*
X48879143Y-96944714D01*
X48879143Y-97278048D01*
X48831524Y-97468524D01*
X48736286Y-97563762D01*
X48641048Y-97611381D01*
X48450571Y-97611381D01*
X49831524Y-97611381D02*
X49260095Y-97611381D01*
X49545809Y-97611381D02*
X49545809Y-96611381D01*
X49450571Y-96754238D01*
X49355333Y-96849476D01*
X49260095Y-96897095D01*
X52784714Y-96444619D02*
X52832333Y-96397000D01*
X52927571Y-96349381D01*
X53165667Y-96349381D01*
X53260905Y-96397000D01*
X53308524Y-96444619D01*
X53356143Y-96539857D01*
X53356143Y-96635095D01*
X53308524Y-96777952D01*
X52737095Y-97349381D01*
X53356143Y-97349381D01*
X53784714Y-97349381D02*
X53784714Y-96349381D01*
X54356143Y-97349381D01*
X54356143Y-96349381D01*
X54784714Y-96444619D02*
X54832333Y-96397000D01*
X54927571Y-96349381D01*
X55165667Y-96349381D01*
X55260905Y-96397000D01*
X55308524Y-96444619D01*
X55356143Y-96539857D01*
X55356143Y-96635095D01*
X55308524Y-96777952D01*
X54737095Y-97349381D01*
X55356143Y-97349381D01*
X55737095Y-96444619D02*
X55784714Y-96397000D01*
X55879952Y-96349381D01*
X56118048Y-96349381D01*
X56213286Y-96397000D01*
X56260905Y-96444619D01*
X56308524Y-96539857D01*
X56308524Y-96635095D01*
X56260905Y-96777952D01*
X55689476Y-97349381D01*
X56308524Y-97349381D01*
X56689476Y-96444619D02*
X56737095Y-96397000D01*
X56832333Y-96349381D01*
X57070429Y-96349381D01*
X57165667Y-96397000D01*
X57213286Y-96444619D01*
X57260905Y-96539857D01*
X57260905Y-96635095D01*
X57213286Y-96777952D01*
X56641857Y-97349381D01*
X57260905Y-97349381D01*
X57641857Y-96444619D02*
X57689476Y-96397000D01*
X57784714Y-96349381D01*
X58022810Y-96349381D01*
X58118048Y-96397000D01*
X58165667Y-96444619D01*
X58213286Y-96539857D01*
X58213286Y-96635095D01*
X58165667Y-96777952D01*
X57594238Y-97349381D01*
X58213286Y-97349381D01*
X55403762Y-91094619D02*
X55308524Y-91047000D01*
X55213286Y-90951762D01*
X55070429Y-90808905D01*
X54975190Y-90761286D01*
X54879952Y-90761286D01*
X54927571Y-90999381D02*
X54832333Y-90951762D01*
X54737095Y-90856524D01*
X54689476Y-90666048D01*
X54689476Y-90332714D01*
X54737095Y-90142238D01*
X54832333Y-90047000D01*
X54927571Y-89999381D01*
X55118048Y-89999381D01*
X55213286Y-90047000D01*
X55308524Y-90142238D01*
X55356143Y-90332714D01*
X55356143Y-90666048D01*
X55308524Y-90856524D01*
X55213286Y-90951762D01*
X55118048Y-90999381D01*
X54927571Y-90999381D01*
X55737095Y-90094619D02*
X55784714Y-90047000D01*
X55879952Y-89999381D01*
X56118048Y-89999381D01*
X56213286Y-90047000D01*
X56260905Y-90094619D01*
X56308524Y-90189857D01*
X56308524Y-90285095D01*
X56260905Y-90427952D01*
X55689476Y-90999381D01*
X56308524Y-90999381D01*
X101278619Y-93963786D02*
X101231000Y-93916167D01*
X101183381Y-93820929D01*
X101183381Y-93582833D01*
X101231000Y-93487595D01*
X101278619Y-93439976D01*
X101373857Y-93392357D01*
X101469095Y-93392357D01*
X101611952Y-93439976D01*
X102183381Y-94011405D01*
X102183381Y-93392357D01*
X102183381Y-92963786D02*
X101183381Y-92963786D01*
X102183381Y-92392357D01*
X101183381Y-92392357D01*
X101278619Y-91963786D02*
X101231000Y-91916167D01*
X101183381Y-91820929D01*
X101183381Y-91582833D01*
X101231000Y-91487595D01*
X101278619Y-91439976D01*
X101373857Y-91392357D01*
X101469095Y-91392357D01*
X101611952Y-91439976D01*
X102183381Y-92011405D01*
X102183381Y-91392357D01*
X101278619Y-91011405D02*
X101231000Y-90963786D01*
X101183381Y-90868548D01*
X101183381Y-90630452D01*
X101231000Y-90535214D01*
X101278619Y-90487595D01*
X101373857Y-90439976D01*
X101469095Y-90439976D01*
X101611952Y-90487595D01*
X102183381Y-91059024D01*
X102183381Y-90439976D01*
X101278619Y-90059024D02*
X101231000Y-90011405D01*
X101183381Y-89916167D01*
X101183381Y-89678071D01*
X101231000Y-89582833D01*
X101278619Y-89535214D01*
X101373857Y-89487595D01*
X101469095Y-89487595D01*
X101611952Y-89535214D01*
X102183381Y-90106643D01*
X102183381Y-89487595D01*
X101278619Y-89106643D02*
X101231000Y-89059024D01*
X101183381Y-88963786D01*
X101183381Y-88725690D01*
X101231000Y-88630452D01*
X101278619Y-88582833D01*
X101373857Y-88535214D01*
X101469095Y-88535214D01*
X101611952Y-88582833D01*
X102183381Y-89154262D01*
X102183381Y-88535214D01*
X108628619Y-91344738D02*
X108581000Y-91439976D01*
X108485762Y-91535214D01*
X108342905Y-91678071D01*
X108295286Y-91773310D01*
X108295286Y-91868548D01*
X108533381Y-91820929D02*
X108485762Y-91916167D01*
X108390524Y-92011405D01*
X108200048Y-92059024D01*
X107866714Y-92059024D01*
X107676238Y-92011405D01*
X107581000Y-91916167D01*
X107533381Y-91820929D01*
X107533381Y-91630452D01*
X107581000Y-91535214D01*
X107676238Y-91439976D01*
X107866714Y-91392357D01*
X108200048Y-91392357D01*
X108390524Y-91439976D01*
X108485762Y-91535214D01*
X108533381Y-91630452D01*
X108533381Y-91820929D01*
X107533381Y-91059024D02*
X107533381Y-90439976D01*
X107914333Y-90773310D01*
X107914333Y-90630452D01*
X107961952Y-90535214D01*
X108009571Y-90487595D01*
X108104810Y-90439976D01*
X108342905Y-90439976D01*
X108438143Y-90487595D01*
X108485762Y-90535214D01*
X108533381Y-90630452D01*
X108533381Y-90916167D01*
X108485762Y-91011405D01*
X108438143Y-91059024D01*
X51784381Y-85589976D02*
X51784381Y-86161405D01*
X51784381Y-85875691D02*
X50784381Y-85875691D01*
X50927238Y-85970929D01*
X51022476Y-86066167D01*
X51070095Y-86161405D01*
X50784381Y-84970929D02*
X50784381Y-84875690D01*
X50832000Y-84780452D01*
X50879619Y-84732833D01*
X50974857Y-84685214D01*
X51165333Y-84637595D01*
X51403429Y-84637595D01*
X51593905Y-84685214D01*
X51689143Y-84732833D01*
X51736762Y-84780452D01*
X51784381Y-84875690D01*
X51784381Y-84970929D01*
X51736762Y-85066167D01*
X51689143Y-85113786D01*
X51593905Y-85161405D01*
X51403429Y-85209024D01*
X51165333Y-85209024D01*
X50974857Y-85161405D01*
X50879619Y-85113786D01*
X50832000Y-85066167D01*
X50784381Y-84970929D01*
X51784381Y-84209024D02*
X50784381Y-84209024D01*
X51784381Y-83637595D02*
X51212952Y-84066167D01*
X50784381Y-83637595D02*
X51355810Y-84209024D01*
X56673881Y-85589976D02*
X56673881Y-86161405D01*
X56673881Y-85875691D02*
X55673881Y-85875691D01*
X55816738Y-85970929D01*
X55911976Y-86066167D01*
X55959595Y-86161405D01*
X55673881Y-84970929D02*
X55673881Y-84875690D01*
X55721500Y-84780452D01*
X55769119Y-84732833D01*
X55864357Y-84685214D01*
X56054833Y-84637595D01*
X56292929Y-84637595D01*
X56483405Y-84685214D01*
X56578643Y-84732833D01*
X56626262Y-84780452D01*
X56673881Y-84875690D01*
X56673881Y-84970929D01*
X56626262Y-85066167D01*
X56578643Y-85113786D01*
X56483405Y-85161405D01*
X56292929Y-85209024D01*
X56054833Y-85209024D01*
X55864357Y-85161405D01*
X55769119Y-85113786D01*
X55721500Y-85066167D01*
X55673881Y-84970929D01*
X56673881Y-84209024D02*
X55673881Y-84209024D01*
X56673881Y-83637595D02*
X56102452Y-84066167D01*
X55673881Y-83637595D02*
X56245310Y-84209024D01*
X55800381Y-56887976D02*
X55800381Y-57459405D01*
X55800381Y-57173691D02*
X54800381Y-57173691D01*
X54943238Y-57268929D01*
X55038476Y-57364167D01*
X55086095Y-57459405D01*
X54800381Y-56268929D02*
X54800381Y-56173690D01*
X54848000Y-56078452D01*
X54895619Y-56030833D01*
X54990857Y-55983214D01*
X55181333Y-55935595D01*
X55419429Y-55935595D01*
X55609905Y-55983214D01*
X55705143Y-56030833D01*
X55752762Y-56078452D01*
X55800381Y-56173690D01*
X55800381Y-56268929D01*
X55752762Y-56364167D01*
X55705143Y-56411786D01*
X55609905Y-56459405D01*
X55419429Y-56507024D01*
X55181333Y-56507024D01*
X54990857Y-56459405D01*
X54895619Y-56411786D01*
X54848000Y-56364167D01*
X54800381Y-56268929D01*
X55800381Y-55507024D02*
X54800381Y-55507024D01*
X55800381Y-54935595D02*
X55228952Y-55364167D01*
X54800381Y-54935595D02*
X55371810Y-55507024D01*
X108148524Y-59404381D02*
X107577095Y-59404381D01*
X107862809Y-59404381D02*
X107862809Y-58404381D01*
X107767571Y-58547238D01*
X107672333Y-58642476D01*
X107577095Y-58690095D01*
X108767571Y-58404381D02*
X108862810Y-58404381D01*
X108958048Y-58452000D01*
X109005667Y-58499619D01*
X109053286Y-58594857D01*
X109100905Y-58785333D01*
X109100905Y-59023429D01*
X109053286Y-59213905D01*
X109005667Y-59309143D01*
X108958048Y-59356762D01*
X108862810Y-59404381D01*
X108767571Y-59404381D01*
X108672333Y-59356762D01*
X108624714Y-59309143D01*
X108577095Y-59213905D01*
X108529476Y-59023429D01*
X108529476Y-58785333D01*
X108577095Y-58594857D01*
X108624714Y-58499619D01*
X108672333Y-58452000D01*
X108767571Y-58404381D01*
X109529476Y-59404381D02*
X109529476Y-58404381D01*
X110100905Y-59404381D02*
X109672333Y-58832952D01*
X110100905Y-58404381D02*
X109529476Y-58975810D01*
X88876286Y-88725214D02*
X88876286Y-89391881D01*
X88638190Y-88344262D02*
X88400095Y-89058548D01*
X89019143Y-89058548D01*
X89400095Y-89391881D02*
X89400095Y-88391881D01*
X89971524Y-89391881D02*
X89542952Y-88820452D01*
X89971524Y-88391881D02*
X89400095Y-88963310D01*
X90304857Y-88391881D02*
X90971524Y-88391881D01*
X90542952Y-89391881D01*
X42473571Y-101322095D02*
X42473571Y-100988761D01*
X42997381Y-100845904D02*
X42997381Y-101322095D01*
X41997381Y-101322095D01*
X41997381Y-100845904D01*
X42997381Y-100417333D02*
X41997381Y-100417333D01*
X42997381Y-99845904D01*
X41997381Y-99845904D01*
X47739762Y-105271333D02*
X47787381Y-105128476D01*
X47787381Y-104890380D01*
X47739762Y-104795142D01*
X47692143Y-104747523D01*
X47596905Y-104699904D01*
X47501667Y-104699904D01*
X47406429Y-104747523D01*
X47358810Y-104795142D01*
X47311190Y-104890380D01*
X47263571Y-105080857D01*
X47215952Y-105176095D01*
X47168333Y-105223714D01*
X47073095Y-105271333D01*
X46977857Y-105271333D01*
X46882619Y-105223714D01*
X46835000Y-105176095D01*
X46787381Y-105080857D01*
X46787381Y-104842761D01*
X46835000Y-104699904D01*
X46787381Y-104366571D02*
X47787381Y-104128476D01*
X47073095Y-103937999D01*
X47787381Y-103747523D01*
X46787381Y-103509428D01*
X47787381Y-102604666D02*
X47787381Y-103176095D01*
X47787381Y-102890381D02*
X46787381Y-102890381D01*
X46930238Y-102985619D01*
X47025476Y-103080857D01*
X47073095Y-103176095D01*
X60761571Y-101433142D02*
X60809190Y-101290285D01*
X60856810Y-101242666D01*
X60952048Y-101195047D01*
X61094905Y-101195047D01*
X61190143Y-101242666D01*
X61237762Y-101290285D01*
X61285381Y-101385523D01*
X61285381Y-101766476D01*
X60285381Y-101766476D01*
X60285381Y-101433142D01*
X60333000Y-101337904D01*
X60380619Y-101290285D01*
X60475857Y-101242666D01*
X60571095Y-101242666D01*
X60666333Y-101290285D01*
X60713952Y-101337904D01*
X60761571Y-101433142D01*
X60761571Y-101766476D01*
X60285381Y-100576000D02*
X60285381Y-100385523D01*
X60333000Y-100290285D01*
X60428238Y-100195047D01*
X60618714Y-100147428D01*
X60952048Y-100147428D01*
X61142524Y-100195047D01*
X61237762Y-100290285D01*
X61285381Y-100385523D01*
X61285381Y-100576000D01*
X61237762Y-100671238D01*
X61142524Y-100766476D01*
X60952048Y-100814095D01*
X60618714Y-100814095D01*
X60428238Y-100766476D01*
X60333000Y-100671238D01*
X60285381Y-100576000D01*
X60285381Y-99528381D02*
X60285381Y-99337904D01*
X60333000Y-99242666D01*
X60428238Y-99147428D01*
X60618714Y-99099809D01*
X60952048Y-99099809D01*
X61142524Y-99147428D01*
X61237762Y-99242666D01*
X61285381Y-99337904D01*
X61285381Y-99528381D01*
X61237762Y-99623619D01*
X61142524Y-99718857D01*
X60952048Y-99766476D01*
X60618714Y-99766476D01*
X60428238Y-99718857D01*
X60333000Y-99623619D01*
X60285381Y-99528381D01*
X60285381Y-98814095D02*
X60285381Y-98242666D01*
X61285381Y-98528381D02*
X60285381Y-98528381D01*
X56320762Y-105167333D02*
X56368381Y-105024476D01*
X56368381Y-104786380D01*
X56320762Y-104691142D01*
X56273143Y-104643523D01*
X56177905Y-104595904D01*
X56082667Y-104595904D01*
X55987429Y-104643523D01*
X55939810Y-104691142D01*
X55892190Y-104786380D01*
X55844571Y-104976857D01*
X55796952Y-105072095D01*
X55749333Y-105119714D01*
X55654095Y-105167333D01*
X55558857Y-105167333D01*
X55463619Y-105119714D01*
X55416000Y-105072095D01*
X55368381Y-104976857D01*
X55368381Y-104738761D01*
X55416000Y-104595904D01*
X55368381Y-104262571D02*
X56368381Y-104024476D01*
X55654095Y-103833999D01*
X56368381Y-103643523D01*
X55368381Y-103405428D01*
X55463619Y-103072095D02*
X55416000Y-103024476D01*
X55368381Y-102929238D01*
X55368381Y-102691142D01*
X55416000Y-102595904D01*
X55463619Y-102548285D01*
X55558857Y-102500666D01*
X55654095Y-102500666D01*
X55796952Y-102548285D01*
X56368381Y-103119714D01*
X56368381Y-102500666D01*
X87277429Y-104115381D02*
X87277429Y-103115381D01*
X87658382Y-103115381D01*
X87753620Y-103163000D01*
X87801239Y-103210619D01*
X87848858Y-103305857D01*
X87848858Y-103448714D01*
X87801239Y-103543952D01*
X87753620Y-103591571D01*
X87658382Y-103639190D01*
X87277429Y-103639190D01*
X88229810Y-103829667D02*
X88706001Y-103829667D01*
X88134572Y-104115381D02*
X88467905Y-103115381D01*
X88801239Y-104115381D01*
X89134572Y-104115381D02*
X89134572Y-103115381D01*
X90182191Y-104115381D02*
X89848857Y-103639190D01*
X89610762Y-104115381D02*
X89610762Y-103115381D01*
X89991715Y-103115381D01*
X90086953Y-103163000D01*
X90134572Y-103210619D01*
X90182191Y-103305857D01*
X90182191Y-103448714D01*
X90134572Y-103543952D01*
X90086953Y-103591571D01*
X89991715Y-103639190D01*
X89610762Y-103639190D01*
X87872667Y-108517762D02*
X88015524Y-108565381D01*
X88253620Y-108565381D01*
X88348858Y-108517762D01*
X88396477Y-108470143D01*
X88444096Y-108374905D01*
X88444096Y-108279667D01*
X88396477Y-108184429D01*
X88348858Y-108136810D01*
X88253620Y-108089190D01*
X88063143Y-108041571D01*
X87967905Y-107993952D01*
X87920286Y-107946333D01*
X87872667Y-107851095D01*
X87872667Y-107755857D01*
X87920286Y-107660619D01*
X87967905Y-107613000D01*
X88063143Y-107565381D01*
X88301239Y-107565381D01*
X88444096Y-107613000D01*
X88777429Y-107565381D02*
X89015524Y-108565381D01*
X89206001Y-107851095D01*
X89396477Y-108565381D01*
X89634572Y-107565381D01*
X89920286Y-107565381D02*
X90539334Y-107565381D01*
X90206000Y-107946333D01*
X90348858Y-107946333D01*
X90444096Y-107993952D01*
X90491715Y-108041571D01*
X90539334Y-108136810D01*
X90539334Y-108374905D01*
X90491715Y-108470143D01*
X90444096Y-108517762D01*
X90348858Y-108565381D01*
X90063143Y-108565381D01*
X89967905Y-108517762D01*
X89920286Y-108470143D01*
X83787381Y-55474857D02*
X82787381Y-55474857D01*
X82787381Y-55236762D01*
X82835000Y-55093904D01*
X82930238Y-54998666D01*
X83025476Y-54951047D01*
X83215952Y-54903428D01*
X83358810Y-54903428D01*
X83549286Y-54951047D01*
X83644524Y-54998666D01*
X83739762Y-55093904D01*
X83787381Y-55236762D01*
X83787381Y-55474857D01*
X83739762Y-54522476D02*
X83787381Y-54379619D01*
X83787381Y-54141523D01*
X83739762Y-54046285D01*
X83692143Y-53998666D01*
X83596905Y-53951047D01*
X83501667Y-53951047D01*
X83406429Y-53998666D01*
X83358810Y-54046285D01*
X83311190Y-54141523D01*
X83263571Y-54332000D01*
X83215952Y-54427238D01*
X83168333Y-54474857D01*
X83073095Y-54522476D01*
X82977857Y-54522476D01*
X82882619Y-54474857D01*
X82835000Y-54427238D01*
X82787381Y-54332000D01*
X82787381Y-54093904D01*
X82835000Y-53951047D01*
X83787381Y-52998666D02*
X83787381Y-53570095D01*
X83787381Y-53284381D02*
X82787381Y-53284381D01*
X82930238Y-53379619D01*
X83025476Y-53474857D01*
X83073095Y-53570095D01*
X82787381Y-52665333D02*
X82787381Y-52046285D01*
X83168333Y-52379619D01*
X83168333Y-52236761D01*
X83215952Y-52141523D01*
X83263571Y-52093904D01*
X83358810Y-52046285D01*
X83596905Y-52046285D01*
X83692143Y-52093904D01*
X83739762Y-52141523D01*
X83787381Y-52236761D01*
X83787381Y-52522476D01*
X83739762Y-52617714D01*
X83692143Y-52665333D01*
X82787381Y-51712952D02*
X82787381Y-51093904D01*
X83168333Y-51427238D01*
X83168333Y-51284380D01*
X83215952Y-51189142D01*
X83263571Y-51141523D01*
X83358810Y-51093904D01*
X83596905Y-51093904D01*
X83692143Y-51141523D01*
X83739762Y-51189142D01*
X83787381Y-51284380D01*
X83787381Y-51570095D01*
X83739762Y-51665333D01*
X83692143Y-51712952D01*
X82787381Y-50760571D02*
X82787381Y-50093904D01*
X83787381Y-50522476D01*
X88987381Y-53593905D02*
X89796905Y-53593905D01*
X89892143Y-53546286D01*
X89939762Y-53498667D01*
X89987381Y-53403429D01*
X89987381Y-53212952D01*
X89939762Y-53117714D01*
X89892143Y-53070095D01*
X89796905Y-53022476D01*
X88987381Y-53022476D01*
X88987381Y-52641524D02*
X88987381Y-52022476D01*
X89368333Y-52355810D01*
X89368333Y-52212952D01*
X89415952Y-52117714D01*
X89463571Y-52070095D01*
X89558810Y-52022476D01*
X89796905Y-52022476D01*
X89892143Y-52070095D01*
X89939762Y-52117714D01*
X89987381Y-52212952D01*
X89987381Y-52498667D01*
X89939762Y-52593905D01*
X89892143Y-52641524D01*
X88697881Y-46624762D02*
X88697881Y-46005714D01*
X89078833Y-46339048D01*
X89078833Y-46196190D01*
X89126452Y-46100952D01*
X89174071Y-46053333D01*
X89269310Y-46005714D01*
X89507405Y-46005714D01*
X89602643Y-46053333D01*
X89650262Y-46100952D01*
X89697881Y-46196190D01*
X89697881Y-46481905D01*
X89650262Y-46577143D01*
X89602643Y-46624762D01*
X88793119Y-45624762D02*
X88745500Y-45577143D01*
X88697881Y-45481905D01*
X88697881Y-45243809D01*
X88745500Y-45148571D01*
X88793119Y-45100952D01*
X88888357Y-45053333D01*
X88983595Y-45053333D01*
X89126452Y-45100952D01*
X89697881Y-45672381D01*
X89697881Y-45053333D01*
X89602643Y-44624762D02*
X89650262Y-44577143D01*
X89697881Y-44624762D01*
X89650262Y-44672381D01*
X89602643Y-44624762D01*
X89697881Y-44624762D01*
X88697881Y-44243810D02*
X88697881Y-43577143D01*
X89697881Y-44005715D01*
X88697881Y-42767619D02*
X88697881Y-42958096D01*
X88745500Y-43053334D01*
X88793119Y-43100953D01*
X88935976Y-43196191D01*
X89126452Y-43243810D01*
X89507405Y-43243810D01*
X89602643Y-43196191D01*
X89650262Y-43148572D01*
X89697881Y-43053334D01*
X89697881Y-42862857D01*
X89650262Y-42767619D01*
X89602643Y-42720000D01*
X89507405Y-42672381D01*
X89269310Y-42672381D01*
X89174071Y-42720000D01*
X89126452Y-42767619D01*
X89078833Y-42862857D01*
X89078833Y-43053334D01*
X89126452Y-43148572D01*
X89174071Y-43196191D01*
X89269310Y-43243810D01*
X89126452Y-42100953D02*
X89078833Y-42196191D01*
X89031214Y-42243810D01*
X88935976Y-42291429D01*
X88888357Y-42291429D01*
X88793119Y-42243810D01*
X88745500Y-42196191D01*
X88697881Y-42100953D01*
X88697881Y-41910476D01*
X88745500Y-41815238D01*
X88793119Y-41767619D01*
X88888357Y-41720000D01*
X88935976Y-41720000D01*
X89031214Y-41767619D01*
X89078833Y-41815238D01*
X89126452Y-41910476D01*
X89126452Y-42100953D01*
X89174071Y-42196191D01*
X89221690Y-42243810D01*
X89316929Y-42291429D01*
X89507405Y-42291429D01*
X89602643Y-42243810D01*
X89650262Y-42196191D01*
X89697881Y-42100953D01*
X89697881Y-41910476D01*
X89650262Y-41815238D01*
X89602643Y-41767619D01*
X89507405Y-41720000D01*
X89316929Y-41720000D01*
X89221690Y-41767619D01*
X89174071Y-41815238D01*
X89126452Y-41910476D01*
X89697881Y-41291429D02*
X88697881Y-41291429D01*
X89697881Y-40720000D02*
X89126452Y-41148572D01*
X88697881Y-40720000D02*
X89269310Y-41291429D01*
X89697881Y-40291429D02*
X88697881Y-40291429D01*
X89174071Y-40291429D02*
X89174071Y-39720000D01*
X89697881Y-39720000D02*
X88697881Y-39720000D01*
X89031214Y-39339048D02*
X89031214Y-38815238D01*
X89697881Y-39339048D01*
X89697881Y-38815238D01*
D12*
X92266452Y-37350952D02*
X92647405Y-37350952D01*
X91847405Y-37617619D02*
X92266452Y-37350952D01*
X91847405Y-37084285D01*
X92647405Y-36398571D02*
X92647405Y-36855714D01*
X92647405Y-36627143D02*
X91847405Y-36627143D01*
X91961690Y-36703333D01*
X92037881Y-36779524D01*
X92075976Y-36855714D01*
D10*
M02*
