M48
;DRILL file {KiCad 4.0.7} date Sat Feb 17 21:33:42 2018
;FORMAT={-:-/ absolute / metric / decimal}
FMAT,2
METRIC,TZ
T1C0.500
T2C0.600
T3C0.800
T4C1.000
T5C1.100
T6C1.200
T7C1.270
T8C2.499
%
G90
G05
M71
T1
X90.995Y-45.72
X93.535Y-45.72
T2
X47.752Y-93.599
X49.022Y-93.599
X50.292Y-93.599
X54.229Y-94.107
X55.499Y-94.107
X56.769Y-94.107
X104.521Y-89.98
X104.521Y-91.249
X104.521Y-92.519
T3
X43.434Y-91.948
X43.434Y-96.948
X43.768Y-56.515
X48.768Y-56.515
X49.022Y-81.09
X49.022Y-88.709
X51.625Y-70.866
X51.625Y-86.868
X53.657Y-54.229
X53.657Y-61.468
X53.911Y-81.09
X53.911Y-88.709
X57.658Y-52.387
X57.658Y-60.008
X62.166Y-48.704
X62.23Y-69.278
X62.23Y-78.232
X62.293Y-54.88
X62.293Y-59.88
X63.627Y-92.964
X63.627Y-97.964
X66.992Y-48.704
X68.58Y-54.563
X68.58Y-59.563
X70.421Y-62.166
X71.501Y-39.751
X71.501Y-44.751
X71.755Y-54.563
X71.755Y-59.563
X77.47Y-59.69
X79.311Y-105.744
X79.311Y-110.744
X84.074Y-89.09
X85.28Y-87.058
X85.725Y-49.022
X85.725Y-56.642
X85.852Y-91.249
X88.265Y-49.022
X88.265Y-56.642
X90.805Y-49.022
X90.805Y-56.642
X93.345Y-49.022
X93.345Y-56.642
X93.472Y-91.249
X96.965Y-75.946
X96.965Y-80.645
X97.663Y-35.369
X97.79Y-39.814
X98.425Y-93.535
X98.933Y-68.707
X98.933Y-79.947
X100.266Y-42.227
X100.457Y-93.853
X104.902Y-59.182
X105.029Y-56.642
X110.045Y-59.118
X112.649Y-56.642
X124.396Y-42.037
X128.397Y-77.851
X133.397Y-77.851
T4
X43.752Y-68.707
X43.752Y-71.247
X43.752Y-73.787
X43.752Y-76.327
X43.752Y-78.867
X43.752Y-81.407
X43.752Y-83.947
X102.235Y-103.632
X102.235Y-106.172
X102.235Y-108.712
X102.235Y-111.252
X110.871Y-103.632
X110.871Y-106.172
X110.871Y-108.712
X110.871Y-111.252
X114.681Y-82.233
X114.681Y-89.832
X119.38Y-103.632
X119.38Y-106.172
X119.38Y-108.712
X119.38Y-111.252
X127.953Y-103.632
X127.953Y-106.172
X127.953Y-108.712
X127.953Y-111.252
X136.779Y-103.632
X136.779Y-106.172
X136.779Y-108.712
X136.779Y-111.252
T5
X45.085Y-100.688
X45.085Y-107.188
X49.585Y-100.688
X49.585Y-107.188
X53.666Y-100.584
X53.666Y-107.084
X58.166Y-100.584
X58.166Y-107.084
X85.956Y-105.863
X85.956Y-110.363
X92.456Y-105.863
X92.456Y-110.363
T6
X87.289Y-98.806
X89.789Y-98.806
X92.329Y-98.806
T7
X77.028Y-45.783
X80.328Y-40.703
X80.328Y-50.863
T8
X67.691Y-104.838
X142.875Y-39.433
X143.192Y-65.786
T4
X43.149Y-38.878G85X43.149Y-40.878
G05
X45.149Y-44.578G85X47.149Y-44.578
G05
X49.149Y-38.878G85X49.149Y-40.878
G05
T0
M30
