G04 #@! TF.FileFunction,Soldermask,Bot*
%FSLAX46Y46*%
G04 Gerber Fmt 4.6, Leading zero omitted, Abs format (unit mm)*
G04 Created by KiCad (PCBNEW 4.0.7) date Sat Feb 17 21:33:09 2018*
%MOMM*%
%LPD*%
G01*
G04 APERTURE LIST*
%ADD10C,0.150000*%
%ADD11C,5.999480*%
%ADD12C,2.290000*%
%ADD13R,2.000000X2.000000*%
%ADD14C,2.000000*%
%ADD15C,1.600000*%
%ADD16R,1.600000X1.600000*%
%ADD17R,1.300000X1.500000*%
%ADD18R,1.700000X1.700000*%
%ADD19O,2.500000X1.700000*%
%ADD20R,3.500000X3.500000*%
%ADD21O,1.700000X1.700000*%
%ADD22R,1.200000X2.200000*%
%ADD23R,1.600000X1.400000*%
%ADD24R,1.200000X1.400000*%
%ADD25R,0.700000X1.600000*%
%ADD26O,0.900000X1.500000*%
%ADD27R,0.900000X1.500000*%
%ADD28O,1.500000X0.900000*%
%ADD29R,1.500000X0.900000*%
%ADD30O,1.600000X1.600000*%
%ADD31R,3.800000X2.000000*%
%ADD32R,1.500000X2.000000*%
%ADD33R,2.000000X3.800000*%
%ADD34R,2.000000X1.500000*%
%ADD35R,1.600000X2.400000*%
%ADD36O,1.600000X2.400000*%
%ADD37O,0.900000X2.500000*%
%ADD38O,2.500000X0.900000*%
%ADD39R,6.000000X6.000000*%
%ADD40C,1.000000*%
G04 APERTURE END LIST*
D10*
D11*
X143192500Y-65786000D03*
X142875000Y-39433500D03*
D12*
X80327500Y-50863500D03*
X80327500Y-40703500D03*
X77027500Y-45783500D03*
D13*
X114681000Y-82232500D03*
D14*
X114681000Y-89832500D03*
D15*
X43434000Y-91948000D03*
X43434000Y-96948000D03*
X63627000Y-92964000D03*
X63627000Y-97964000D03*
D16*
X48768000Y-56515000D03*
D15*
X43768000Y-56515000D03*
X71501000Y-39751000D03*
X71501000Y-44751000D03*
X128397000Y-77851000D03*
X133397000Y-77851000D03*
X79311500Y-110744000D03*
X79311500Y-105744000D03*
X62293500Y-59880500D03*
X62293500Y-54880500D03*
X68580000Y-59563000D03*
X68580000Y-54563000D03*
X71755000Y-59563000D03*
X71755000Y-54563000D03*
D17*
X74295000Y-96790500D03*
X74295000Y-94090500D03*
X77597000Y-96727000D03*
X77597000Y-94027000D03*
D18*
X43751500Y-68707000D03*
D19*
X43751500Y-71247000D03*
X43751500Y-73787000D03*
X43751500Y-76327000D03*
X43751500Y-78867000D03*
X43751500Y-81407000D03*
X43751500Y-83947000D03*
D20*
X49149000Y-39878000D03*
X43149000Y-39878000D03*
X46149000Y-44578000D03*
D13*
X92329000Y-98806000D03*
D14*
X89789000Y-98806000D03*
X87289000Y-98806000D03*
D18*
X136779000Y-103632000D03*
X136779000Y-106172000D03*
X136779000Y-108712000D03*
X136779000Y-111252000D03*
X127952500Y-103632000D03*
D21*
X127952500Y-106172000D03*
D18*
X127952500Y-108712000D03*
X127952500Y-111252000D03*
X119380000Y-103632000D03*
X119380000Y-106172000D03*
X119380000Y-108712000D03*
X119380000Y-111252000D03*
X102235000Y-103632000D03*
X102235000Y-106172000D03*
X102235000Y-108712000D03*
X102235000Y-111252000D03*
X110871000Y-103632000D03*
X110871000Y-106172000D03*
X110871000Y-108712000D03*
X110871000Y-111252000D03*
D22*
X120335500Y-37738000D03*
X104835500Y-37738000D03*
D23*
X119435500Y-47338000D03*
D24*
X104835500Y-47338000D03*
D25*
X105985500Y-47838000D03*
X108185500Y-47838000D03*
X107085500Y-47838000D03*
X109285500Y-47838000D03*
X110385500Y-47838000D03*
X111485500Y-47838000D03*
X114785500Y-47838000D03*
X113685500Y-47838000D03*
X112585500Y-47838000D03*
D26*
X49022000Y-93599000D03*
X47752000Y-93599000D03*
D27*
X50292000Y-93599000D03*
D26*
X55499000Y-94107000D03*
X56769000Y-94107000D03*
D27*
X54229000Y-94107000D03*
D28*
X104521000Y-91249500D03*
X104521000Y-92519500D03*
D29*
X104521000Y-89979500D03*
D15*
X49022000Y-88709500D03*
D30*
X49022000Y-81089500D03*
D15*
X53911500Y-88709500D03*
D30*
X53911500Y-81089500D03*
D15*
X57658000Y-52387500D03*
D30*
X57658000Y-60007500D03*
D15*
X105029000Y-56642000D03*
D30*
X112649000Y-56642000D03*
D15*
X93472000Y-91249500D03*
D30*
X85852000Y-91249500D03*
D17*
X74295000Y-90758000D03*
X74295000Y-88058000D03*
X77597000Y-90631000D03*
X77597000Y-87931000D03*
D14*
X49585000Y-107188000D03*
X45085000Y-107188000D03*
X49585000Y-100688000D03*
X45085000Y-100688000D03*
X53666000Y-100584000D03*
X58166000Y-100584000D03*
X53666000Y-107084000D03*
X58166000Y-107084000D03*
X92456000Y-105863000D03*
X92456000Y-110363000D03*
X85956000Y-105863000D03*
X85956000Y-110363000D03*
D31*
X129540000Y-86385000D03*
D32*
X129540000Y-92685000D03*
X127240000Y-92685000D03*
X131840000Y-92685000D03*
D33*
X64745000Y-42164000D03*
D34*
X58445000Y-42164000D03*
X58445000Y-39864000D03*
X58445000Y-44464000D03*
D35*
X93345000Y-49022000D03*
D36*
X85725000Y-56642000D03*
X90805000Y-49022000D03*
X88265000Y-56642000D03*
X88265000Y-49022000D03*
X90805000Y-56642000D03*
X85725000Y-49022000D03*
X93345000Y-56642000D03*
D37*
X75014000Y-82279000D03*
X76284000Y-82279000D03*
X77554000Y-82279000D03*
X78824000Y-82279000D03*
X80094000Y-82279000D03*
X81364000Y-82279000D03*
X82634000Y-82279000D03*
X83904000Y-82279000D03*
X85174000Y-82279000D03*
X86444000Y-82279000D03*
X87714000Y-82279000D03*
X88984000Y-82279000D03*
X90254000Y-82279000D03*
X91524000Y-82279000D03*
D38*
X93014000Y-78994000D03*
X93014000Y-77724000D03*
X93014000Y-76454000D03*
X93014000Y-75184000D03*
X93014000Y-73914000D03*
X93014000Y-72644000D03*
X93014000Y-71374000D03*
X93014000Y-70104000D03*
X93014000Y-68834000D03*
X93014000Y-67564000D03*
D37*
X91524000Y-64279000D03*
X90254000Y-64279000D03*
X88984000Y-64279000D03*
X87714000Y-64279000D03*
X86444000Y-64279000D03*
X85174000Y-64279000D03*
X83904000Y-64279000D03*
X82634000Y-64279000D03*
X81364000Y-64279000D03*
X80094000Y-64279000D03*
X78824000Y-64279000D03*
X77554000Y-64279000D03*
X76284000Y-64279000D03*
X75014000Y-64279000D03*
D39*
X82714000Y-72979000D03*
D40*
X93535500Y-45720000D03*
X90995500Y-45720000D03*
D11*
X67691000Y-104838500D03*
M02*
