G04 #@! TF.FileFunction,Copper,L1,Top,Signal*
%FSLAX46Y46*%
G04 Gerber Fmt 4.6, Leading zero omitted, Abs format (unit mm)*
G04 Created by KiCad (PCBNEW 4.0.7) date Sat Feb 17 21:33:09 2018*
%MOMM*%
%LPD*%
G01*
G04 APERTURE LIST*
%ADD10C,0.150000*%
%ADD11C,5.999480*%
%ADD12C,2.290000*%
%ADD13R,2.000000X2.000000*%
%ADD14C,2.000000*%
%ADD15C,1.600000*%
%ADD16R,1.600000X1.600000*%
%ADD17R,1.700000X1.700000*%
%ADD18O,2.500000X1.700000*%
%ADD19R,3.500000X3.500000*%
%ADD20O,1.700000X1.700000*%
%ADD21O,0.900000X1.500000*%
%ADD22R,0.900000X1.500000*%
%ADD23O,1.500000X0.900000*%
%ADD24R,1.500000X0.900000*%
%ADD25O,1.600000X1.600000*%
%ADD26R,1.600000X2.400000*%
%ADD27O,1.600000X2.400000*%
%ADD28C,1.000000*%
%ADD29C,1.200000*%
%ADD30C,0.800000*%
G04 APERTURE END LIST*
D10*
D11*
X143192500Y-65786000D03*
X142875000Y-39433500D03*
D12*
X80327500Y-50863500D03*
X80327500Y-40703500D03*
X77027500Y-45783500D03*
D13*
X114681000Y-82232500D03*
D14*
X114681000Y-89832500D03*
D15*
X43434000Y-91948000D03*
X43434000Y-96948000D03*
X63627000Y-92964000D03*
X63627000Y-97964000D03*
D16*
X48768000Y-56515000D03*
D15*
X43768000Y-56515000D03*
X71501000Y-39751000D03*
X71501000Y-44751000D03*
X128397000Y-77851000D03*
X133397000Y-77851000D03*
X79311500Y-110744000D03*
X79311500Y-105744000D03*
X62293500Y-59880500D03*
X62293500Y-54880500D03*
X68580000Y-59563000D03*
X68580000Y-54563000D03*
X71755000Y-59563000D03*
X71755000Y-54563000D03*
D17*
X43751500Y-68707000D03*
D18*
X43751500Y-71247000D03*
X43751500Y-73787000D03*
X43751500Y-76327000D03*
X43751500Y-78867000D03*
X43751500Y-81407000D03*
X43751500Y-83947000D03*
D19*
X49149000Y-39878000D03*
X43149000Y-39878000D03*
X46149000Y-44578000D03*
D13*
X92329000Y-98806000D03*
D14*
X89789000Y-98806000D03*
X87289000Y-98806000D03*
D17*
X136779000Y-103632000D03*
X136779000Y-106172000D03*
X136779000Y-108712000D03*
X136779000Y-111252000D03*
X127952500Y-103632000D03*
D20*
X127952500Y-106172000D03*
D17*
X127952500Y-108712000D03*
X127952500Y-111252000D03*
X119380000Y-103632000D03*
X119380000Y-106172000D03*
X119380000Y-108712000D03*
X119380000Y-111252000D03*
X102235000Y-103632000D03*
X102235000Y-106172000D03*
X102235000Y-108712000D03*
X102235000Y-111252000D03*
X110871000Y-103632000D03*
X110871000Y-106172000D03*
X110871000Y-108712000D03*
X110871000Y-111252000D03*
D21*
X49022000Y-93599000D03*
X47752000Y-93599000D03*
D22*
X50292000Y-93599000D03*
D21*
X55499000Y-94107000D03*
X56769000Y-94107000D03*
D22*
X54229000Y-94107000D03*
D23*
X104521000Y-91249500D03*
X104521000Y-92519500D03*
D24*
X104521000Y-89979500D03*
D15*
X49022000Y-88709500D03*
D25*
X49022000Y-81089500D03*
D15*
X53911500Y-88709500D03*
D25*
X53911500Y-81089500D03*
D15*
X57658000Y-52387500D03*
D25*
X57658000Y-60007500D03*
D15*
X105029000Y-56642000D03*
D25*
X112649000Y-56642000D03*
D15*
X93472000Y-91249500D03*
D25*
X85852000Y-91249500D03*
D14*
X49585000Y-107188000D03*
X45085000Y-107188000D03*
X49585000Y-100688000D03*
X45085000Y-100688000D03*
X53666000Y-100584000D03*
X58166000Y-100584000D03*
X53666000Y-107084000D03*
X58166000Y-107084000D03*
X92456000Y-105863000D03*
X92456000Y-110363000D03*
X85956000Y-105863000D03*
X85956000Y-110363000D03*
D26*
X93345000Y-49022000D03*
D27*
X85725000Y-56642000D03*
X90805000Y-49022000D03*
X88265000Y-56642000D03*
X88265000Y-49022000D03*
X90805000Y-56642000D03*
X85725000Y-49022000D03*
X93345000Y-56642000D03*
D28*
X93535500Y-45720000D03*
X90995500Y-45720000D03*
D11*
X67691000Y-104838500D03*
D15*
X124396500Y-42037000D03*
X100266500Y-42227500D03*
X62166500Y-48704500D03*
X66992500Y-48704500D03*
X97663000Y-35369500D03*
X97790000Y-39814500D03*
X53657500Y-54229000D03*
X53657500Y-61468000D03*
X51625500Y-86868000D03*
X51625500Y-70866000D03*
X70421500Y-62166500D03*
X77470000Y-59690000D03*
X62230000Y-69278500D03*
X62230000Y-78232000D03*
D29*
X85280500Y-87058500D03*
D15*
X100457000Y-93853000D03*
X98425000Y-93535500D03*
X84074000Y-89090500D03*
X96964500Y-80645000D03*
X96964500Y-75946000D03*
X110045500Y-59118500D03*
X104902000Y-59182000D03*
X98933000Y-68707000D03*
X98933000Y-79946500D03*
D30*
X100457000Y-42037000D02*
X124396500Y-42037000D01*
X100266500Y-42227500D02*
X100457000Y-42037000D01*
X66992500Y-48704500D02*
X62166500Y-48704500D01*
X97663000Y-39687500D02*
X97663000Y-35369500D01*
X97790000Y-39814500D02*
X97663000Y-39687500D01*
X53657500Y-61468000D02*
X53657500Y-54229000D01*
X51625500Y-86868000D02*
X51625500Y-70866000D01*
X70421500Y-62166500D02*
X70802500Y-61785500D01*
X70802500Y-61785500D02*
X75946000Y-61785500D01*
X75946000Y-61785500D02*
X77470000Y-60261500D01*
X77470000Y-60261500D02*
X77470000Y-59690000D01*
X62230000Y-69278500D02*
X62230000Y-78232000D01*
X99377500Y-87058500D02*
X85280500Y-87058500D01*
X100203000Y-87884000D02*
X99377500Y-87058500D01*
X100203000Y-93599000D02*
X100203000Y-87884000D01*
X100457000Y-93853000D02*
X100203000Y-93599000D01*
X98298000Y-93408500D02*
X98425000Y-93535500D01*
X98298000Y-90043000D02*
X98298000Y-93408500D01*
X97345500Y-89090500D02*
X98298000Y-90043000D01*
X84074000Y-89090500D02*
X97345500Y-89090500D01*
X96964500Y-75946000D02*
X96964500Y-80645000D01*
X104965500Y-59118500D02*
X110045500Y-59118500D01*
X104902000Y-59182000D02*
X104965500Y-59118500D01*
X98933000Y-79946500D02*
X98933000Y-68707000D01*
M02*
