G04 #@! TF.FileFunction,Copper,L2,Bot,Signal*
%FSLAX46Y46*%
G04 Gerber Fmt 4.6, Leading zero omitted, Abs format (unit mm)*
G04 Created by KiCad (PCBNEW 4.0.7) date Sat Feb 17 21:33:09 2018*
%MOMM*%
%LPD*%
G01*
G04 APERTURE LIST*
%ADD10C,0.150000*%
%ADD11C,0.300000*%
%ADD12C,0.400000*%
%ADD13C,5.999480*%
%ADD14C,2.290000*%
%ADD15R,2.000000X2.000000*%
%ADD16C,2.000000*%
%ADD17C,1.600000*%
%ADD18R,1.600000X1.600000*%
%ADD19R,1.300000X1.500000*%
%ADD20R,1.700000X1.700000*%
%ADD21O,2.500000X1.700000*%
%ADD22R,3.500000X3.500000*%
%ADD23O,1.700000X1.700000*%
%ADD24R,1.200000X2.200000*%
%ADD25R,1.600000X1.400000*%
%ADD26R,1.200000X1.400000*%
%ADD27R,0.700000X1.600000*%
%ADD28O,0.900000X1.500000*%
%ADD29R,0.900000X1.500000*%
%ADD30O,1.500000X0.900000*%
%ADD31R,1.500000X0.900000*%
%ADD32O,1.600000X1.600000*%
%ADD33R,3.800000X2.000000*%
%ADD34R,1.500000X2.000000*%
%ADD35R,2.000000X3.800000*%
%ADD36R,2.000000X1.500000*%
%ADD37R,1.600000X2.400000*%
%ADD38O,1.600000X2.400000*%
%ADD39O,0.900000X2.500000*%
%ADD40O,2.500000X0.900000*%
%ADD41R,6.000000X6.000000*%
%ADD42C,1.000000*%
%ADD43C,1.200000*%
%ADD44C,0.800000*%
%ADD45C,0.254000*%
%ADD46C,1.000000*%
G04 APERTURE END LIST*
D10*
D11*
X139568929Y-58665143D02*
X139568929Y-57808000D01*
X138068929Y-58236571D02*
X139568929Y-58236571D01*
X138068929Y-56450857D02*
X138783214Y-56950857D01*
X138068929Y-57308000D02*
X139568929Y-57308000D01*
X139568929Y-56736572D01*
X139497500Y-56593714D01*
X139426071Y-56522286D01*
X139283214Y-56450857D01*
X139068929Y-56450857D01*
X138926071Y-56522286D01*
X138854643Y-56593714D01*
X138783214Y-56736572D01*
X138783214Y-57308000D01*
X138783214Y-55522286D02*
X138068929Y-55522286D01*
X139568929Y-56022286D02*
X138783214Y-55522286D01*
X139568929Y-55022286D01*
X138068929Y-54522286D02*
X139568929Y-54522286D01*
X138068929Y-53665143D01*
X139568929Y-53665143D01*
X138211786Y-52093714D02*
X138140357Y-52165143D01*
X138068929Y-52379429D01*
X138068929Y-52522286D01*
X138140357Y-52736571D01*
X138283214Y-52879429D01*
X138426071Y-52950857D01*
X138711786Y-53022286D01*
X138926071Y-53022286D01*
X139211786Y-52950857D01*
X139354643Y-52879429D01*
X139497500Y-52736571D01*
X139568929Y-52522286D01*
X139568929Y-52379429D01*
X139497500Y-52165143D01*
X139426071Y-52093714D01*
X138497500Y-50379429D02*
X138497500Y-49665143D01*
X138068929Y-50522286D02*
X139568929Y-50022286D01*
X138068929Y-49522286D01*
X139497500Y-48236572D02*
X139568929Y-48379429D01*
X139568929Y-48593715D01*
X139497500Y-48808000D01*
X139354643Y-48950858D01*
X139211786Y-49022286D01*
X138926071Y-49093715D01*
X138711786Y-49093715D01*
X138426071Y-49022286D01*
X138283214Y-48950858D01*
X138140357Y-48808000D01*
X138068929Y-48593715D01*
X138068929Y-48450858D01*
X138140357Y-48236572D01*
X138211786Y-48165143D01*
X138711786Y-48165143D01*
X138711786Y-48450858D01*
X138854643Y-47522286D02*
X138854643Y-47022286D01*
X138068929Y-46808000D02*
X138068929Y-47522286D01*
X139568929Y-47522286D01*
X139568929Y-46808000D01*
X138068929Y-46165143D02*
X139568929Y-46165143D01*
X138068929Y-45308000D01*
X139568929Y-45308000D01*
X139568929Y-44808000D02*
X139568929Y-43950857D01*
X138068929Y-44379428D02*
X139568929Y-44379428D01*
D12*
X143672548Y-57720667D02*
X143672548Y-56292095D01*
X141172548Y-57006381D02*
X143672548Y-57006381D01*
X141172548Y-54030190D02*
X142363024Y-54863524D01*
X141172548Y-55458762D02*
X143672548Y-55458762D01*
X143672548Y-54506381D01*
X143553500Y-54268286D01*
X143434452Y-54149238D01*
X143196357Y-54030190D01*
X142839214Y-54030190D01*
X142601119Y-54149238D01*
X142482071Y-54268286D01*
X142363024Y-54506381D01*
X142363024Y-55458762D01*
X142363024Y-52482571D02*
X141172548Y-52482571D01*
X143672548Y-53315905D02*
X142363024Y-52482571D01*
X143672548Y-51649238D01*
X141172548Y-50815905D02*
X143672548Y-50815905D01*
X141172548Y-49387333D01*
X143672548Y-49387333D01*
X141410643Y-46768285D02*
X141291595Y-46887333D01*
X141172548Y-47244476D01*
X141172548Y-47482571D01*
X141291595Y-47839714D01*
X141529690Y-48077809D01*
X141767786Y-48196857D01*
X142243976Y-48315905D01*
X142601119Y-48315905D01*
X143077310Y-48196857D01*
X143315405Y-48077809D01*
X143553500Y-47839714D01*
X143672548Y-47482571D01*
X143672548Y-47244476D01*
X143553500Y-46887333D01*
X143434452Y-46768285D01*
X141886833Y-45815905D02*
X141886833Y-44625428D01*
X141172548Y-46054000D02*
X143672548Y-45220666D01*
X141172548Y-44387333D01*
D13*
X143192500Y-65786000D03*
X142875000Y-39433500D03*
D14*
X80327500Y-50863500D03*
X80327500Y-40703500D03*
X77027500Y-45783500D03*
D15*
X114681000Y-82232500D03*
D16*
X114681000Y-89832500D03*
D17*
X43434000Y-91948000D03*
X43434000Y-96948000D03*
X63627000Y-92964000D03*
X63627000Y-97964000D03*
D18*
X48768000Y-56515000D03*
D17*
X43768000Y-56515000D03*
X71501000Y-39751000D03*
X71501000Y-44751000D03*
X128397000Y-77851000D03*
X133397000Y-77851000D03*
X79311500Y-110744000D03*
X79311500Y-105744000D03*
X62293500Y-59880500D03*
X62293500Y-54880500D03*
X68580000Y-59563000D03*
X68580000Y-54563000D03*
X71755000Y-59563000D03*
X71755000Y-54563000D03*
D19*
X74295000Y-96790500D03*
X74295000Y-94090500D03*
X77597000Y-96727000D03*
X77597000Y-94027000D03*
D20*
X43751500Y-68707000D03*
D21*
X43751500Y-71247000D03*
X43751500Y-73787000D03*
X43751500Y-76327000D03*
X43751500Y-78867000D03*
X43751500Y-81407000D03*
X43751500Y-83947000D03*
D22*
X49149000Y-39878000D03*
X43149000Y-39878000D03*
X46149000Y-44578000D03*
D15*
X92329000Y-98806000D03*
D16*
X89789000Y-98806000D03*
X87289000Y-98806000D03*
D20*
X136779000Y-103632000D03*
X136779000Y-106172000D03*
X136779000Y-108712000D03*
X136779000Y-111252000D03*
X127952500Y-103632000D03*
D23*
X127952500Y-106172000D03*
D20*
X127952500Y-108712000D03*
X127952500Y-111252000D03*
X119380000Y-103632000D03*
X119380000Y-106172000D03*
X119380000Y-108712000D03*
X119380000Y-111252000D03*
X102235000Y-103632000D03*
X102235000Y-106172000D03*
X102235000Y-108712000D03*
X102235000Y-111252000D03*
X110871000Y-103632000D03*
X110871000Y-106172000D03*
X110871000Y-108712000D03*
X110871000Y-111252000D03*
D24*
X120335500Y-37738000D03*
X104835500Y-37738000D03*
D25*
X119435500Y-47338000D03*
D26*
X104835500Y-47338000D03*
D27*
X105985500Y-47838000D03*
X108185500Y-47838000D03*
X107085500Y-47838000D03*
X109285500Y-47838000D03*
X110385500Y-47838000D03*
X111485500Y-47838000D03*
X114785500Y-47838000D03*
X113685500Y-47838000D03*
X112585500Y-47838000D03*
D28*
X49022000Y-93599000D03*
X47752000Y-93599000D03*
D29*
X50292000Y-93599000D03*
D28*
X55499000Y-94107000D03*
X56769000Y-94107000D03*
D29*
X54229000Y-94107000D03*
D30*
X104521000Y-91249500D03*
X104521000Y-92519500D03*
D31*
X104521000Y-89979500D03*
D17*
X49022000Y-88709500D03*
D32*
X49022000Y-81089500D03*
D17*
X53911500Y-88709500D03*
D32*
X53911500Y-81089500D03*
D17*
X57658000Y-52387500D03*
D32*
X57658000Y-60007500D03*
D17*
X105029000Y-56642000D03*
D32*
X112649000Y-56642000D03*
D17*
X93472000Y-91249500D03*
D32*
X85852000Y-91249500D03*
D19*
X74295000Y-90758000D03*
X74295000Y-88058000D03*
X77597000Y-90631000D03*
X77597000Y-87931000D03*
D16*
X49585000Y-107188000D03*
X45085000Y-107188000D03*
X49585000Y-100688000D03*
X45085000Y-100688000D03*
X53666000Y-100584000D03*
X58166000Y-100584000D03*
X53666000Y-107084000D03*
X58166000Y-107084000D03*
X92456000Y-105863000D03*
X92456000Y-110363000D03*
X85956000Y-105863000D03*
X85956000Y-110363000D03*
D33*
X129540000Y-86385000D03*
D34*
X129540000Y-92685000D03*
X127240000Y-92685000D03*
X131840000Y-92685000D03*
D35*
X64745000Y-42164000D03*
D36*
X58445000Y-42164000D03*
X58445000Y-39864000D03*
X58445000Y-44464000D03*
D37*
X93345000Y-49022000D03*
D38*
X85725000Y-56642000D03*
X90805000Y-49022000D03*
X88265000Y-56642000D03*
X88265000Y-49022000D03*
X90805000Y-56642000D03*
X85725000Y-49022000D03*
X93345000Y-56642000D03*
D39*
X75014000Y-82279000D03*
X76284000Y-82279000D03*
X77554000Y-82279000D03*
X78824000Y-82279000D03*
X80094000Y-82279000D03*
X81364000Y-82279000D03*
X82634000Y-82279000D03*
X83904000Y-82279000D03*
X85174000Y-82279000D03*
X86444000Y-82279000D03*
X87714000Y-82279000D03*
X88984000Y-82279000D03*
X90254000Y-82279000D03*
X91524000Y-82279000D03*
D40*
X93014000Y-78994000D03*
X93014000Y-77724000D03*
X93014000Y-76454000D03*
X93014000Y-75184000D03*
X93014000Y-73914000D03*
X93014000Y-72644000D03*
X93014000Y-71374000D03*
X93014000Y-70104000D03*
X93014000Y-68834000D03*
X93014000Y-67564000D03*
D39*
X91524000Y-64279000D03*
X90254000Y-64279000D03*
X88984000Y-64279000D03*
X87714000Y-64279000D03*
X86444000Y-64279000D03*
X85174000Y-64279000D03*
X83904000Y-64279000D03*
X82634000Y-64279000D03*
X81364000Y-64279000D03*
X80094000Y-64279000D03*
X78824000Y-64279000D03*
X77554000Y-64279000D03*
X76284000Y-64279000D03*
X75014000Y-64279000D03*
D41*
X82714000Y-72979000D03*
D42*
X93535500Y-45720000D03*
X90995500Y-45720000D03*
D13*
X67691000Y-104838500D03*
D17*
X124396500Y-42037000D03*
X100266500Y-42227500D03*
X62166500Y-48704500D03*
X66992500Y-48704500D03*
X97663000Y-35369500D03*
X97790000Y-39814500D03*
X53657500Y-54229000D03*
X53657500Y-61468000D03*
X51625500Y-86868000D03*
X51625500Y-70866000D03*
X70421500Y-62166500D03*
X77470000Y-59690000D03*
X62230000Y-69278500D03*
X62230000Y-78232000D03*
D43*
X85280500Y-87058500D03*
D17*
X100457000Y-93853000D03*
X98425000Y-93535500D03*
X84074000Y-89090500D03*
X96964500Y-80645000D03*
X96964500Y-75946000D03*
X110045500Y-59118500D03*
X104902000Y-59182000D03*
X98933000Y-68707000D03*
X98933000Y-79946500D03*
D44*
X104521000Y-92519500D02*
X122047000Y-92519500D01*
X133477000Y-95440500D02*
X134036250Y-94881250D01*
X124968000Y-95440500D02*
X133477000Y-95440500D01*
X122047000Y-92519500D02*
X124968000Y-95440500D01*
X104835500Y-42227500D02*
X100266500Y-42227500D01*
X124396500Y-42037000D02*
X120335500Y-42037000D01*
X120335500Y-42037000D02*
X120650000Y-42037000D01*
X120650000Y-42037000D02*
X120335500Y-42037000D01*
X119435500Y-47338000D02*
X119435500Y-45156500D01*
X119435500Y-45156500D02*
X120335500Y-44256500D01*
X120335500Y-44256500D02*
X120335500Y-42037000D01*
X120335500Y-42037000D02*
X120335500Y-37738000D01*
X105985500Y-47838000D02*
X105335500Y-47838000D01*
X105335500Y-47838000D02*
X104835500Y-47338000D01*
X104835500Y-37738000D02*
X104835500Y-42227500D01*
X104835500Y-42227500D02*
X104835500Y-47338000D01*
X77027500Y-45783500D02*
X77027500Y-38165500D01*
X77455000Y-37738000D02*
X104835500Y-37738000D01*
X77027500Y-38165500D02*
X77455000Y-37738000D01*
X85725000Y-49022000D02*
X85217000Y-49022000D01*
X85217000Y-49022000D02*
X81978500Y-45783500D01*
X81978500Y-45783500D02*
X77027500Y-45783500D01*
X71501000Y-44751000D02*
X71501000Y-48704500D01*
X71501000Y-48704500D02*
X66992500Y-48704500D01*
X62166500Y-48704500D02*
X62293500Y-48704500D01*
X62293500Y-48704500D02*
X62166500Y-48704500D01*
X62166500Y-48704500D02*
X62293500Y-48704500D01*
X43768000Y-56515000D02*
X43768000Y-59610000D01*
X57070000Y-54880500D02*
X62293500Y-54880500D01*
X52197000Y-59753500D02*
X57070000Y-54880500D01*
X43911500Y-59753500D02*
X52197000Y-59753500D01*
X43768000Y-59610000D02*
X43911500Y-59753500D01*
X71501000Y-44751000D02*
X75995000Y-44751000D01*
X75995000Y-44751000D02*
X77027500Y-45783500D01*
X62293500Y-54880500D02*
X62293500Y-48704500D01*
X62293500Y-48704500D02*
X62293500Y-48312500D01*
X62293500Y-48312500D02*
X58445000Y-44464000D01*
X68580000Y-59563000D02*
X68580000Y-59055000D01*
X68580000Y-59055000D02*
X64405500Y-54880500D01*
X64405500Y-54880500D02*
X62293500Y-54880500D01*
X82714000Y-72979000D02*
X85517000Y-72979000D01*
X85517000Y-72979000D02*
X90360500Y-68135500D01*
X90741500Y-67564000D02*
X93014000Y-67564000D01*
X90360500Y-67945000D02*
X90741500Y-67564000D01*
X90360500Y-68135500D02*
X90360500Y-67945000D01*
X71755000Y-59563000D02*
X68580000Y-59563000D01*
X75014000Y-64279000D02*
X75014000Y-62822000D01*
X75014000Y-62822000D02*
X71755000Y-59563000D01*
X75014000Y-64279000D02*
X75014000Y-68981500D01*
X79011500Y-72979000D02*
X82714000Y-72979000D01*
X75014000Y-68981500D02*
X79011500Y-72979000D01*
X46149000Y-44578000D02*
X46149000Y-42878000D01*
X46149000Y-42878000D02*
X43149000Y-39878000D01*
X43768000Y-56515000D02*
X43768000Y-46959000D01*
X43768000Y-46959000D02*
X46149000Y-44578000D01*
X40640000Y-71628000D02*
X40640000Y-56642000D01*
X40767000Y-56515000D02*
X43768000Y-56515000D01*
X40640000Y-56642000D02*
X40767000Y-56515000D01*
X43434000Y-96948000D02*
X43227000Y-96948000D01*
X43227000Y-96948000D02*
X40640000Y-94361000D01*
X41021000Y-71247000D02*
X43751500Y-71247000D01*
X40640000Y-71628000D02*
X41021000Y-71247000D01*
X40640000Y-94361000D02*
X40640000Y-71628000D01*
X131840000Y-92685000D02*
X133375000Y-92685000D01*
X133397000Y-92663000D02*
X133397000Y-77851000D01*
X133375000Y-92685000D02*
X133397000Y-92663000D01*
X136779000Y-108712000D02*
X139065000Y-108712000D01*
X139700000Y-100545000D02*
X134036250Y-94881250D01*
X134036250Y-94881250D02*
X131840000Y-92685000D01*
X139700000Y-108077000D02*
X139700000Y-100545000D01*
X139065000Y-108712000D02*
X139700000Y-108077000D01*
X128460500Y-108204000D02*
X128778000Y-108204000D01*
X128778000Y-108204000D02*
X128270000Y-108712000D01*
X128460500Y-108204000D02*
X128968500Y-108712000D01*
X128968500Y-108712000D02*
X136779000Y-108712000D01*
X119380000Y-108712000D02*
X128270000Y-108712000D01*
X110871000Y-108712000D02*
X119380000Y-108712000D01*
X102235000Y-108712000D02*
X110871000Y-108712000D01*
X102235000Y-108712000D02*
X94107000Y-108712000D01*
X94107000Y-108712000D02*
X92456000Y-110363000D01*
X45085000Y-100688000D02*
X45085000Y-98599000D01*
X45085000Y-98599000D02*
X43434000Y-96948000D01*
X58166000Y-100584000D02*
X61214000Y-100584000D01*
X61214000Y-100584000D02*
X63627000Y-98171000D01*
X63627000Y-98171000D02*
X63627000Y-97964000D01*
X58166000Y-110744000D02*
X58166000Y-107084000D01*
X58166000Y-107084000D02*
X58166000Y-100584000D01*
X45085000Y-107188000D02*
X45085000Y-100688000D01*
X44767500Y-110744000D02*
X44767500Y-107505500D01*
X44767500Y-107505500D02*
X45085000Y-107188000D01*
X58166000Y-110744000D02*
X44767500Y-110744000D01*
X76581000Y-110744000D02*
X58166000Y-110744000D01*
X77597000Y-101917500D02*
X92265500Y-101917500D01*
X92329000Y-101854000D02*
X92329000Y-98806000D01*
X92265500Y-101917500D02*
X92329000Y-101854000D01*
X76581000Y-110744000D02*
X76581000Y-104076500D01*
X77597000Y-103060500D02*
X77597000Y-101917500D01*
X77597000Y-101917500D02*
X77597000Y-96727000D01*
X76581000Y-104076500D02*
X77597000Y-103060500D01*
X79311500Y-110744000D02*
X77152500Y-110744000D01*
X77152500Y-110744000D02*
X76581000Y-110744000D01*
X76581000Y-110744000D02*
X76517500Y-110744000D01*
X85956000Y-110363000D02*
X92456000Y-110363000D01*
X79311500Y-110744000D02*
X85575000Y-110744000D01*
X85575000Y-110744000D02*
X85956000Y-110363000D01*
X74295000Y-96790500D02*
X72691000Y-96790500D01*
X72691000Y-96790500D02*
X72390000Y-96489500D01*
X72390000Y-96489500D02*
X72390000Y-86614000D01*
X72390000Y-86614000D02*
X73850500Y-85153500D01*
X73850500Y-85153500D02*
X74739500Y-85153500D01*
X74739500Y-85153500D02*
X75014000Y-84879000D01*
X75014000Y-84879000D02*
X75014000Y-82279000D01*
X74295000Y-96790500D02*
X77533500Y-96790500D01*
X77533500Y-96790500D02*
X77597000Y-96727000D01*
X45085000Y-110426500D02*
X45085000Y-107188000D01*
X44767500Y-110744000D02*
X45085000Y-110426500D01*
X58166000Y-110744000D02*
X58166000Y-110934500D01*
X58166000Y-110934500D02*
X58229500Y-110871000D01*
X58229500Y-110871000D02*
X77025500Y-110871000D01*
X77025500Y-110871000D02*
X77025500Y-110744000D01*
X77025500Y-110744000D02*
X79311500Y-110744000D01*
X77597000Y-96727000D02*
X77597000Y-102489000D01*
X77597000Y-102489000D02*
X76454000Y-103632000D01*
X76454000Y-103632000D02*
X76454000Y-110807500D01*
X76454000Y-110807500D02*
X76517500Y-110744000D01*
X85575000Y-110744000D02*
X85956000Y-110363000D01*
X76517500Y-110744000D02*
X77025500Y-110744000D01*
X77914500Y-102171500D02*
X77597000Y-102489000D01*
X92329000Y-98806000D02*
X92329000Y-102108000D01*
X92329000Y-102108000D02*
X92392500Y-102171500D01*
X92392500Y-102171500D02*
X77914500Y-102171500D01*
X75014000Y-84879000D02*
X75014000Y-82279000D01*
X74739500Y-85153500D02*
X75014000Y-84879000D01*
X73850500Y-85153500D02*
X74739500Y-85153500D01*
X72390000Y-86614000D02*
X73850500Y-85153500D01*
X72390000Y-96489500D02*
X72390000Y-86614000D01*
X72691000Y-96790500D02*
X72390000Y-96489500D01*
X77597000Y-96727000D02*
X74358500Y-96727000D01*
X74358500Y-96727000D02*
X74295000Y-96790500D01*
X80327500Y-50863500D02*
X80581500Y-50863500D01*
X80581500Y-50863500D02*
X81788000Y-52070000D01*
X81788000Y-52070000D02*
X87058500Y-52070000D01*
X87058500Y-52070000D02*
X88265000Y-50863500D01*
X88265000Y-50863500D02*
X88265000Y-49022000D01*
X88455500Y-47625000D02*
X88455500Y-46926500D01*
X88455500Y-50673000D02*
X88455500Y-47625000D01*
X87058500Y-52070000D02*
X88455500Y-50673000D01*
X81661000Y-52070000D02*
X87058500Y-52070000D01*
X80454500Y-50863500D02*
X81661000Y-52070000D01*
X82232500Y-40703500D02*
X80327500Y-40703500D01*
X88455500Y-46926500D02*
X82232500Y-40703500D01*
X80327500Y-50863500D02*
X80454500Y-50863500D01*
X114681000Y-82232500D02*
X114681000Y-75057000D01*
X116840000Y-43751500D02*
X111485500Y-43751500D01*
X117157500Y-44069000D02*
X116840000Y-43751500D01*
X117157500Y-72580500D02*
X117157500Y-44069000D01*
X114681000Y-75057000D02*
X117157500Y-72580500D01*
X105029000Y-56642000D02*
X99187000Y-56642000D01*
X99187000Y-56642000D02*
X97790000Y-55245000D01*
X111485500Y-47838000D02*
X111485500Y-43751500D01*
X111485500Y-43751500D02*
X111485500Y-36301500D01*
X110553500Y-35369500D02*
X97663000Y-35369500D01*
X111485500Y-36301500D02*
X110553500Y-35369500D01*
X93345000Y-56642000D02*
X96647000Y-56642000D01*
X75946000Y-35306000D02*
X71501000Y-39751000D01*
X97599500Y-35306000D02*
X75946000Y-35306000D01*
X97663000Y-35369500D02*
X97599500Y-35306000D01*
X97790000Y-55499000D02*
X97790000Y-55245000D01*
X97790000Y-55245000D02*
X97790000Y-39814500D01*
X96647000Y-56642000D02*
X97790000Y-55499000D01*
X43751500Y-68707000D02*
X47498000Y-68707000D01*
X55499000Y-52387500D02*
X57658000Y-52387500D01*
X53657500Y-54229000D02*
X55499000Y-52387500D01*
X53657500Y-62547500D02*
X53657500Y-61468000D01*
X47498000Y-68707000D02*
X53657500Y-62547500D01*
X64745000Y-42164000D02*
X65405000Y-42164000D01*
X65405000Y-42164000D02*
X67818000Y-39751000D01*
X67818000Y-39751000D02*
X71501000Y-39751000D01*
X68580000Y-54563000D02*
X67707500Y-54563000D01*
X64745000Y-51600500D02*
X64745000Y-42164000D01*
X67707500Y-54563000D02*
X64745000Y-51600500D01*
X58445000Y-42164000D02*
X55245000Y-42164000D01*
X55181500Y-49911000D02*
X57658000Y-52387500D01*
X55181500Y-42227500D02*
X55181500Y-49911000D01*
X55245000Y-42164000D02*
X55181500Y-42227500D01*
X58445000Y-42164000D02*
X64745000Y-42164000D01*
X71755000Y-54563000D02*
X71755000Y-56832500D01*
X76284000Y-61361500D02*
X76284000Y-64279000D01*
X71755000Y-56832500D02*
X76284000Y-61361500D01*
X68580000Y-54563000D02*
X71755000Y-54563000D01*
X104521000Y-89979500D02*
X114534000Y-89979500D01*
X114534000Y-89979500D02*
X114681000Y-89832500D01*
X51625500Y-70866000D02*
X51625500Y-69723000D01*
X51625500Y-92265500D02*
X51625500Y-86868000D01*
X50292000Y-93599000D02*
X51625500Y-92265500D01*
X57658000Y-63690500D02*
X57658000Y-60007500D01*
X51625500Y-69723000D02*
X57658000Y-63690500D01*
X62293500Y-59880500D02*
X57785000Y-59880500D01*
X57785000Y-59880500D02*
X57658000Y-60007500D01*
X62293500Y-59880500D02*
X63055500Y-59880500D01*
X63055500Y-59880500D02*
X65341500Y-62166500D01*
X65341500Y-62166500D02*
X70421500Y-62166500D01*
X77470000Y-59690000D02*
X77554000Y-59774000D01*
X77554000Y-59774000D02*
X77554000Y-64279000D01*
X43434000Y-91948000D02*
X43434000Y-93345000D01*
X46418500Y-96329500D02*
X50292000Y-96329500D01*
X43434000Y-93345000D02*
X46418500Y-96329500D01*
X49585000Y-100688000D02*
X49585000Y-97036500D01*
X49585000Y-97036500D02*
X50292000Y-96329500D01*
X50292000Y-96329500D02*
X50292000Y-93599000D01*
X49585000Y-107188000D02*
X49585000Y-100688000D01*
X50292000Y-96329500D02*
X50292000Y-93599000D01*
X49585000Y-97036500D02*
X50292000Y-96329500D01*
X73152000Y-69278500D02*
X62230000Y-69278500D01*
X75057000Y-71183500D02*
X73152000Y-69278500D01*
X75057000Y-72517000D02*
X75057000Y-71183500D01*
X79629000Y-77089000D02*
X75057000Y-72517000D01*
X82867500Y-77089000D02*
X79629000Y-77089000D01*
X84731500Y-78953000D02*
X82867500Y-77089000D01*
X89408000Y-78953000D02*
X84731500Y-78953000D01*
X91524000Y-81069000D02*
X89408000Y-78953000D01*
X62261750Y-78263750D02*
X62261750Y-94075250D01*
X62230000Y-78232000D02*
X62261750Y-78263750D01*
X91524000Y-82279000D02*
X91524000Y-81069000D01*
X63627000Y-92964000D02*
X63373000Y-92964000D01*
X63373000Y-92964000D02*
X62261750Y-94075250D01*
X62261750Y-94075250D02*
X58928000Y-97409000D01*
X58928000Y-97409000D02*
X53666000Y-97409000D01*
X53666000Y-100584000D02*
X53666000Y-97409000D01*
X53666000Y-97409000D02*
X53666000Y-94670000D01*
X53666000Y-94670000D02*
X54229000Y-94107000D01*
X53666000Y-107084000D02*
X53666000Y-100584000D01*
X53666000Y-94670000D02*
X54229000Y-94107000D01*
X58445000Y-39864000D02*
X49163000Y-39864000D01*
X49163000Y-39864000D02*
X49149000Y-39878000D01*
X36957000Y-89662000D02*
X36957000Y-111633000D01*
X124841000Y-90286000D02*
X127240000Y-92685000D01*
X124841000Y-75057000D02*
X124841000Y-90286000D01*
X127127000Y-72771000D02*
X124841000Y-75057000D01*
X137414000Y-72771000D02*
X127127000Y-72771000D01*
X137668000Y-73025000D02*
X137414000Y-72771000D01*
X137668000Y-92075000D02*
X137668000Y-73025000D01*
X143256000Y-97663000D02*
X137668000Y-92075000D01*
X143256000Y-112903000D02*
X143256000Y-97663000D01*
X141605000Y-114554000D02*
X143256000Y-112903000D01*
X39878000Y-114554000D02*
X141605000Y-114554000D01*
X36957000Y-111633000D02*
X39878000Y-114554000D01*
X49149000Y-39878000D02*
X49149000Y-36322000D01*
X36957000Y-90297000D02*
X37084000Y-90424000D01*
X36957000Y-37465000D02*
X36957000Y-89662000D01*
X36957000Y-89662000D02*
X36957000Y-90297000D01*
X39751000Y-34671000D02*
X36957000Y-37465000D01*
X47498000Y-34671000D02*
X39751000Y-34671000D01*
X49149000Y-36322000D02*
X47498000Y-34671000D01*
X49149000Y-39878000D02*
X49149000Y-56134000D01*
X49149000Y-56134000D02*
X48768000Y-56515000D01*
X128397000Y-77851000D02*
X128397000Y-75438000D01*
X140081000Y-111252000D02*
X136779000Y-111252000D01*
X141351000Y-109982000D02*
X140081000Y-111252000D01*
X141351000Y-99695000D02*
X141351000Y-109982000D01*
X135890000Y-94234000D02*
X141351000Y-99695000D01*
X135890000Y-75311000D02*
X135890000Y-94234000D01*
X135636000Y-75057000D02*
X135890000Y-75311000D01*
X128778000Y-75057000D02*
X135636000Y-75057000D01*
X128397000Y-75438000D02*
X128778000Y-75057000D01*
X129540000Y-86385000D02*
X129540000Y-78994000D01*
X129540000Y-78994000D02*
X128397000Y-77851000D01*
X129540000Y-92685000D02*
X129540000Y-86385000D01*
X110871000Y-111252000D02*
X102235000Y-111252000D01*
X119380000Y-111252000D02*
X110871000Y-111252000D01*
X127952500Y-111252000D02*
X119380000Y-111252000D01*
X136779000Y-111252000D02*
X127508000Y-111252000D01*
X127508000Y-111252000D02*
X127952500Y-111252000D01*
X85956000Y-105863000D02*
X79430500Y-105863000D01*
X79430500Y-105863000D02*
X79311500Y-105744000D01*
X92456000Y-105863000D02*
X85956000Y-105863000D01*
X92456000Y-105863000D02*
X95059500Y-103259500D01*
X95059500Y-103259500D02*
X95059500Y-98996500D01*
X90254000Y-82279000D02*
X90254000Y-85768000D01*
X91186000Y-86360000D02*
X91630500Y-86804500D01*
X90846000Y-86360000D02*
X91186000Y-86360000D01*
X90254000Y-85768000D02*
X90846000Y-86360000D01*
X91630500Y-86804500D02*
X91630500Y-94996000D01*
X95059500Y-96964500D02*
X95059500Y-98996500D01*
X95059500Y-98996500D02*
X95059500Y-99314000D01*
X93789500Y-95694500D02*
X95059500Y-96964500D01*
X92329000Y-95694500D02*
X93789500Y-95694500D01*
X91630500Y-94996000D02*
X92329000Y-95694500D01*
X79430500Y-105863000D02*
X79311500Y-105744000D01*
X92909000Y-105410000D02*
X93408500Y-105410000D01*
X92456000Y-105863000D02*
X92909000Y-105410000D01*
X95059500Y-96583500D02*
X95059500Y-99314000D01*
X91630500Y-86804500D02*
X91630500Y-95504000D01*
X91630500Y-95504000D02*
X92329000Y-96202500D01*
X92329000Y-96202500D02*
X94678500Y-96202500D01*
X94678500Y-96202500D02*
X95059500Y-96583500D01*
X95059500Y-99314000D02*
X95059500Y-103259500D01*
X74295000Y-94090500D02*
X74295000Y-90758000D01*
X77597000Y-94027000D02*
X77597000Y-90631000D01*
X43751500Y-76327000D02*
X47117000Y-76327000D01*
X80094000Y-78697000D02*
X80094000Y-82279000D01*
X79629000Y-78232000D02*
X80094000Y-78697000D01*
X79248000Y-78232000D02*
X79629000Y-78232000D01*
X74041000Y-73025000D02*
X79248000Y-78232000D01*
X50419000Y-73025000D02*
X74041000Y-73025000D01*
X47117000Y-76327000D02*
X50419000Y-73025000D01*
X43751500Y-78867000D02*
X47752000Y-78867000D01*
X78824000Y-79903500D02*
X78824000Y-82279000D01*
X78359000Y-79438500D02*
X78824000Y-79903500D01*
X77533500Y-79438500D02*
X78359000Y-79438500D01*
X73215500Y-75120500D02*
X77533500Y-79438500D01*
X51498500Y-75120500D02*
X73215500Y-75120500D01*
X47752000Y-78867000D02*
X51498500Y-75120500D01*
X49022000Y-81089500D02*
X51181000Y-81089500D01*
X51943000Y-79692500D02*
X53149500Y-78486000D01*
X51943000Y-80327500D02*
X51943000Y-79692500D01*
X51181000Y-81089500D02*
X51943000Y-80327500D01*
X53149500Y-78486000D02*
X55562500Y-78486000D01*
X55562500Y-78486000D02*
X56769000Y-79692500D01*
X56769000Y-79692500D02*
X56769000Y-94107000D01*
X43751500Y-81407000D02*
X48704500Y-81407000D01*
X48704500Y-81407000D02*
X49022000Y-81089500D01*
X44069000Y-81089500D02*
X43751500Y-81407000D01*
X49022000Y-81089500D02*
X44069000Y-81089500D01*
X56769000Y-79692500D02*
X56769000Y-94107000D01*
X55562500Y-78486000D02*
X56769000Y-79692500D01*
X53149500Y-78486000D02*
X55562500Y-78486000D01*
X46101000Y-84074000D02*
X53848000Y-84074000D01*
X53848000Y-84074000D02*
X53911500Y-84137500D01*
X53911500Y-84137500D02*
X53911500Y-81089500D01*
X46418500Y-84074000D02*
X46101000Y-84074000D01*
X46101000Y-84074000D02*
X43878500Y-84074000D01*
X43878500Y-84074000D02*
X43751500Y-83947000D01*
X47752000Y-93599000D02*
X46545500Y-93599000D01*
X46545500Y-93599000D02*
X46418500Y-93472000D01*
X46418500Y-93472000D02*
X46418500Y-84074000D01*
X46418500Y-84074000D02*
X46418500Y-83947000D01*
X46418500Y-93472000D02*
X46418500Y-83947000D01*
X46545500Y-93599000D02*
X46418500Y-93472000D01*
X46418500Y-83947000D02*
X43751500Y-83947000D01*
X53721000Y-83947000D02*
X46418500Y-83947000D01*
X53911500Y-84137500D02*
X53721000Y-83947000D01*
X53911500Y-81089500D02*
X53911500Y-84137500D01*
X88984000Y-82279000D02*
X88984000Y-87460000D01*
X89408000Y-87884000D02*
X89408000Y-98425000D01*
X88984000Y-87460000D02*
X89408000Y-87884000D01*
X89408000Y-98425000D02*
X89789000Y-98806000D01*
X89090500Y-82385500D02*
X88984000Y-82279000D01*
X89090500Y-87185500D02*
X89090500Y-82385500D01*
X89789000Y-87884000D02*
X89090500Y-87185500D01*
X89789000Y-98806000D02*
X89789000Y-87884000D01*
X87289000Y-98806000D02*
X87289000Y-97258500D01*
X87820500Y-96727000D02*
X87820500Y-82385500D01*
X87289000Y-97258500D02*
X87820500Y-96727000D01*
X87820500Y-82385500D02*
X87714000Y-82279000D01*
X87289000Y-97115000D02*
X87289000Y-98806000D01*
X87820500Y-96583500D02*
X87289000Y-97115000D01*
X87820500Y-88519000D02*
X87820500Y-96583500D01*
X87714000Y-88412500D02*
X87820500Y-88519000D01*
X87714000Y-82279000D02*
X87714000Y-88412500D01*
X102235000Y-103632000D02*
X102235000Y-98615500D01*
X85174000Y-86952000D02*
X85174000Y-82279000D01*
X85280500Y-87058500D02*
X85174000Y-86952000D01*
X100457000Y-96837500D02*
X100457000Y-93853000D01*
X102235000Y-98615500D02*
X100457000Y-96837500D01*
X127952500Y-103632000D02*
X136779000Y-103632000D01*
X119380000Y-103632000D02*
X127952500Y-103632000D01*
X110871000Y-103632000D02*
X120015000Y-103632000D01*
X120015000Y-103632000D02*
X119380000Y-103632000D01*
X102235000Y-103632000D02*
X110871000Y-103632000D01*
X83904000Y-82279000D02*
X83904000Y-88920500D01*
X98615500Y-106172000D02*
X102235000Y-106172000D01*
X98425000Y-105981500D02*
X98615500Y-106172000D01*
X98425000Y-93535500D02*
X98425000Y-105981500D01*
X83904000Y-88920500D02*
X84074000Y-89090500D01*
X110871000Y-106172000D02*
X102235000Y-106172000D01*
X119380000Y-106172000D02*
X110871000Y-106172000D01*
X127952500Y-106172000D02*
X119380000Y-106172000D01*
X136779000Y-106172000D02*
X127952500Y-106172000D01*
X108185500Y-47838000D02*
X108185500Y-68471500D01*
X95313500Y-78994000D02*
X93014000Y-78994000D01*
X96964500Y-80645000D02*
X95313500Y-78994000D01*
X100711000Y-75946000D02*
X96964500Y-75946000D01*
X108185500Y-68471500D02*
X100711000Y-75946000D01*
X90254000Y-64279000D02*
X90254000Y-60622000D01*
X110385500Y-58778500D02*
X110385500Y-47838000D01*
X110045500Y-59118500D02*
X110385500Y-58778500D01*
X91694000Y-59182000D02*
X104902000Y-59182000D01*
X90254000Y-60622000D02*
X91694000Y-59182000D01*
X99187000Y-79629000D02*
X99187000Y-79692500D01*
X113685500Y-51011000D02*
X114681000Y-52006500D01*
X114681000Y-52006500D02*
X114681000Y-67627500D01*
X114681000Y-67627500D02*
X102679500Y-79629000D01*
X102679500Y-79629000D02*
X99187000Y-79629000D01*
X113685500Y-47838000D02*
X113685500Y-51011000D01*
X98806000Y-68834000D02*
X93014000Y-68834000D01*
X98933000Y-68707000D02*
X98806000Y-68834000D01*
X99187000Y-79692500D02*
X98933000Y-79946500D01*
X93014000Y-77724000D02*
X101790500Y-77724000D01*
X112649000Y-66865500D02*
X112649000Y-56642000D01*
X101790500Y-77724000D02*
X112649000Y-66865500D01*
X112649000Y-56642000D02*
X112649000Y-47901500D01*
X112649000Y-47901500D02*
X112585500Y-47838000D01*
X49022000Y-93599000D02*
X49022000Y-88709500D01*
X53911500Y-88709500D02*
X53911500Y-90805000D01*
X53911500Y-90805000D02*
X55499000Y-92392500D01*
X55499000Y-92392500D02*
X55499000Y-94107000D01*
X55499000Y-92392500D02*
X53911500Y-90805000D01*
X55499000Y-94107000D02*
X55499000Y-92392500D01*
X104521000Y-91249500D02*
X93472000Y-91249500D01*
X81364000Y-82279000D02*
X81364000Y-91143000D01*
X81364000Y-91143000D02*
X81470500Y-91249500D01*
X81470500Y-91249500D02*
X85852000Y-91249500D01*
X81470500Y-91249500D02*
X81364000Y-91143000D01*
X85852000Y-91249500D02*
X81470500Y-91249500D01*
X76284000Y-85895000D02*
X76284000Y-82279000D01*
X74295000Y-87884000D02*
X76284000Y-85895000D01*
X74295000Y-88058000D02*
X74295000Y-87884000D01*
X74295000Y-87884000D02*
X76284000Y-85895000D01*
X76284000Y-85895000D02*
X76284000Y-82279000D01*
X77597000Y-82322000D02*
X77554000Y-82279000D01*
X77597000Y-87931000D02*
X77597000Y-82322000D01*
X77597000Y-82322000D02*
X77554000Y-82279000D01*
X93345000Y-49022000D02*
X93345000Y-45910500D01*
X93345000Y-45910500D02*
X93535500Y-45720000D01*
X86444000Y-64279000D02*
X86444000Y-57361000D01*
X86444000Y-57361000D02*
X85725000Y-56642000D01*
X90805000Y-49022000D02*
X90805000Y-45910500D01*
X90805000Y-45910500D02*
X90995500Y-45720000D01*
X87714000Y-64279000D02*
X87714000Y-57193000D01*
X87714000Y-57193000D02*
X88265000Y-56642000D01*
D45*
G36*
X67945000Y-37459096D02*
X67945000Y-45913419D01*
X62609509Y-46037500D01*
X62291632Y-46037500D01*
X62238481Y-42449750D01*
X63110000Y-42449750D01*
X63110000Y-44190310D01*
X63206673Y-44423699D01*
X63385302Y-44602327D01*
X63618691Y-44699000D01*
X64459250Y-44699000D01*
X64618000Y-44540250D01*
X64618000Y-42291000D01*
X64872000Y-42291000D01*
X64872000Y-44540250D01*
X65030750Y-44699000D01*
X65871309Y-44699000D01*
X66104698Y-44602327D01*
X66283327Y-44423699D01*
X66380000Y-44190310D01*
X66380000Y-42449750D01*
X66221250Y-42291000D01*
X64872000Y-42291000D01*
X64618000Y-42291000D01*
X63268750Y-42291000D01*
X63110000Y-42449750D01*
X62238481Y-42449750D01*
X62204228Y-40137690D01*
X63110000Y-40137690D01*
X63110000Y-41878250D01*
X63268750Y-42037000D01*
X64618000Y-42037000D01*
X64618000Y-39787750D01*
X64872000Y-39787750D01*
X64872000Y-42037000D01*
X66221250Y-42037000D01*
X66380000Y-41878250D01*
X66380000Y-40137690D01*
X66283327Y-39904301D01*
X66104698Y-39725673D01*
X65871309Y-39629000D01*
X65030750Y-39629000D01*
X64872000Y-39787750D01*
X64618000Y-39787750D01*
X64459250Y-39629000D01*
X63618691Y-39629000D01*
X63385302Y-39725673D01*
X63206673Y-39904301D01*
X63110000Y-40137690D01*
X62204228Y-40137690D01*
X62168395Y-37719000D01*
X62293500Y-37719000D01*
X62342910Y-37708994D01*
X62384535Y-37680553D01*
X62411417Y-37639167D01*
X62506484Y-37401500D01*
X66735483Y-37401500D01*
X67945000Y-37459096D01*
X67945000Y-37459096D01*
G37*
X67945000Y-37459096D02*
X67945000Y-45913419D01*
X62609509Y-46037500D01*
X62291632Y-46037500D01*
X62238481Y-42449750D01*
X63110000Y-42449750D01*
X63110000Y-44190310D01*
X63206673Y-44423699D01*
X63385302Y-44602327D01*
X63618691Y-44699000D01*
X64459250Y-44699000D01*
X64618000Y-44540250D01*
X64618000Y-42291000D01*
X64872000Y-42291000D01*
X64872000Y-44540250D01*
X65030750Y-44699000D01*
X65871309Y-44699000D01*
X66104698Y-44602327D01*
X66283327Y-44423699D01*
X66380000Y-44190310D01*
X66380000Y-42449750D01*
X66221250Y-42291000D01*
X64872000Y-42291000D01*
X64618000Y-42291000D01*
X63268750Y-42291000D01*
X63110000Y-42449750D01*
X62238481Y-42449750D01*
X62204228Y-40137690D01*
X63110000Y-40137690D01*
X63110000Y-41878250D01*
X63268750Y-42037000D01*
X64618000Y-42037000D01*
X64618000Y-39787750D01*
X64872000Y-39787750D01*
X64872000Y-42037000D01*
X66221250Y-42037000D01*
X66380000Y-41878250D01*
X66380000Y-40137690D01*
X66283327Y-39904301D01*
X66104698Y-39725673D01*
X65871309Y-39629000D01*
X65030750Y-39629000D01*
X64872000Y-39787750D01*
X64618000Y-39787750D01*
X64459250Y-39629000D01*
X63618691Y-39629000D01*
X63385302Y-39725673D01*
X63206673Y-39904301D01*
X63110000Y-40137690D01*
X62204228Y-40137690D01*
X62168395Y-37719000D01*
X62293500Y-37719000D01*
X62342910Y-37708994D01*
X62384535Y-37680553D01*
X62411417Y-37639167D01*
X62506484Y-37401500D01*
X66735483Y-37401500D01*
X67945000Y-37459096D01*
G36*
X131826000Y-84872974D02*
X131799699Y-84846673D01*
X131566310Y-84750000D01*
X129825750Y-84750000D01*
X129667000Y-84908750D01*
X129667000Y-86258000D01*
X129687000Y-86258000D01*
X129687000Y-86512000D01*
X129667000Y-86512000D01*
X129667000Y-87861250D01*
X129825750Y-88020000D01*
X131566310Y-88020000D01*
X131799699Y-87923327D01*
X131826000Y-87897026D01*
X131826000Y-88392000D01*
X127698500Y-88392000D01*
X127698500Y-88020000D01*
X129254250Y-88020000D01*
X129413000Y-87861250D01*
X129413000Y-86512000D01*
X129393000Y-86512000D01*
X129393000Y-86258000D01*
X129413000Y-86258000D01*
X129413000Y-84908750D01*
X129254250Y-84750000D01*
X127698500Y-84750000D01*
X127698500Y-81978500D01*
X131826000Y-81978500D01*
X131826000Y-84872974D01*
X131826000Y-84872974D01*
G37*
X131826000Y-84872974D02*
X131799699Y-84846673D01*
X131566310Y-84750000D01*
X129825750Y-84750000D01*
X129667000Y-84908750D01*
X129667000Y-86258000D01*
X129687000Y-86258000D01*
X129687000Y-86512000D01*
X129667000Y-86512000D01*
X129667000Y-87861250D01*
X129825750Y-88020000D01*
X131566310Y-88020000D01*
X131799699Y-87923327D01*
X131826000Y-87897026D01*
X131826000Y-88392000D01*
X127698500Y-88392000D01*
X127698500Y-88020000D01*
X129254250Y-88020000D01*
X129413000Y-87861250D01*
X129413000Y-86512000D01*
X129393000Y-86512000D01*
X129393000Y-86258000D01*
X129413000Y-86258000D01*
X129413000Y-84908750D01*
X129254250Y-84750000D01*
X127698500Y-84750000D01*
X127698500Y-81978500D01*
X131826000Y-81978500D01*
X131826000Y-84872974D01*
D46*
G36*
X145867500Y-32999380D02*
X145867500Y-36062074D01*
X145427226Y-35621031D01*
X143773980Y-34934543D01*
X141983873Y-34932981D01*
X140329432Y-35616582D01*
X139062531Y-36881274D01*
X138376043Y-38534520D01*
X138374481Y-40324627D01*
X139058082Y-41979068D01*
X139386440Y-42308000D01*
X135897500Y-42308000D01*
X135897500Y-60308000D01*
X141447500Y-60308000D01*
X141447500Y-59458762D01*
X145753500Y-59458762D01*
X145753500Y-42918067D01*
X145867500Y-42804266D01*
X145867500Y-62096519D01*
X145744726Y-61973531D01*
X144091480Y-61287043D01*
X142301373Y-61285481D01*
X140646932Y-61969082D01*
X139380031Y-63233774D01*
X138693543Y-64887020D01*
X138691981Y-66677127D01*
X139375582Y-68331568D01*
X140640274Y-69598469D01*
X142293520Y-70284957D01*
X144083627Y-70286519D01*
X145738068Y-69602918D01*
X145867500Y-69473712D01*
X145867500Y-114435000D01*
X144411006Y-114435000D01*
X144599503Y-114246503D01*
X145011372Y-113630098D01*
X145156000Y-112903000D01*
X145156000Y-97663000D01*
X145011371Y-96935901D01*
X144599503Y-96319497D01*
X139568000Y-91287994D01*
X139568000Y-73025000D01*
X139423371Y-72297901D01*
X139011503Y-71681497D01*
X138757503Y-71427497D01*
X138562200Y-71297000D01*
X138141099Y-71015629D01*
X137414000Y-70871000D01*
X127127000Y-70871000D01*
X126399901Y-71015629D01*
X125978800Y-71297000D01*
X125783497Y-71427497D01*
X123497497Y-73713497D01*
X123085629Y-74329901D01*
X122941000Y-75057000D01*
X122941000Y-75753181D01*
X122057530Y-76440324D01*
X121928164Y-76590847D01*
X121864500Y-76835000D01*
X121864500Y-97028000D01*
X121903893Y-97222528D01*
X122015865Y-97386404D01*
X122182771Y-97493805D01*
X122346654Y-97527681D01*
X132940571Y-97906035D01*
X133136381Y-97873611D01*
X133348851Y-97718702D01*
X134832782Y-95863788D01*
X139451000Y-100482006D01*
X139451000Y-109194994D01*
X139293994Y-109352000D01*
X139229000Y-109352000D01*
X139229000Y-109162000D01*
X138829000Y-108762000D01*
X136829000Y-108762000D01*
X136829000Y-108782000D01*
X136729000Y-108782000D01*
X136729000Y-108762000D01*
X134729000Y-108762000D01*
X134329000Y-109162000D01*
X134329000Y-109352000D01*
X133665860Y-109352000D01*
X133608971Y-108072000D01*
X134329000Y-108072000D01*
X134329000Y-108262000D01*
X134729000Y-108662000D01*
X136729000Y-108662000D01*
X136729000Y-108642000D01*
X136829000Y-108642000D01*
X136829000Y-108662000D01*
X138829000Y-108662000D01*
X139229000Y-108262000D01*
X139229000Y-107543740D01*
X139110611Y-107257922D01*
X139158386Y-107022000D01*
X139158386Y-105322000D01*
X139076457Y-104886580D01*
X139158386Y-104482000D01*
X139158386Y-102782000D01*
X139053793Y-102226133D01*
X138725276Y-101715604D01*
X138224017Y-101373108D01*
X137629000Y-101252614D01*
X135929000Y-101252614D01*
X135373133Y-101357207D01*
X134862604Y-101685724D01*
X134830985Y-101732000D01*
X129909327Y-101732000D01*
X129898776Y-101715604D01*
X129397517Y-101373108D01*
X128802500Y-101252614D01*
X127102500Y-101252614D01*
X126546633Y-101357207D01*
X126036104Y-101685724D01*
X126004485Y-101732000D01*
X121336827Y-101732000D01*
X121326276Y-101715604D01*
X120825017Y-101373108D01*
X120230000Y-101252614D01*
X118530000Y-101252614D01*
X117974133Y-101357207D01*
X117463604Y-101685724D01*
X117431985Y-101732000D01*
X112827827Y-101732000D01*
X112817276Y-101715604D01*
X112316017Y-101373108D01*
X111721000Y-101252614D01*
X110021000Y-101252614D01*
X109465133Y-101357207D01*
X108954604Y-101685724D01*
X108922985Y-101732000D01*
X104191827Y-101732000D01*
X104181276Y-101715604D01*
X104135000Y-101683985D01*
X104135000Y-98615500D01*
X104129311Y-98586901D01*
X103990372Y-97888402D01*
X103578503Y-97271997D01*
X102357000Y-96050494D01*
X102357000Y-95206170D01*
X102405708Y-95157547D01*
X102756600Y-94312505D01*
X102756918Y-93948388D01*
X103390305Y-94394319D01*
X104171000Y-94569500D01*
X104471000Y-94569500D01*
X104471000Y-93199500D01*
X104571000Y-93199500D01*
X104571000Y-94569500D01*
X104871000Y-94569500D01*
X105651695Y-94394319D01*
X106305924Y-93933714D01*
X106734087Y-93257808D01*
X106837337Y-92889480D01*
X106470242Y-92569500D01*
X106283266Y-92569500D01*
X106350084Y-92469500D01*
X106470242Y-92469500D01*
X106837337Y-92149520D01*
X106761645Y-91879500D01*
X113191978Y-91879500D01*
X113263015Y-91950661D01*
X114181538Y-92332065D01*
X115176099Y-92332933D01*
X116095286Y-91953133D01*
X116799161Y-91250485D01*
X117180565Y-90331962D01*
X117181433Y-89337401D01*
X116801633Y-88418214D01*
X116098985Y-87714339D01*
X115180462Y-87332935D01*
X114185901Y-87332067D01*
X113266714Y-87711867D01*
X112898439Y-88079500D01*
X105663020Y-88079500D01*
X105271000Y-88000114D01*
X103771000Y-88000114D01*
X103215133Y-88104707D01*
X102704604Y-88433224D01*
X102362108Y-88934483D01*
X102278065Y-89349500D01*
X94825170Y-89349500D01*
X94776547Y-89300792D01*
X93931505Y-88949900D01*
X93530500Y-88949550D01*
X93530500Y-86804500D01*
X93385871Y-86077401D01*
X92974003Y-85460997D01*
X92529503Y-85016497D01*
X92442161Y-84958137D01*
X92338465Y-84888850D01*
X92902858Y-84511734D01*
X93325565Y-83879109D01*
X93474000Y-83132876D01*
X93474000Y-81425124D01*
X93424000Y-81173757D01*
X93424000Y-81069000D01*
X93399136Y-80944000D01*
X93867876Y-80944000D01*
X94119243Y-80894000D01*
X94526494Y-80894000D01*
X94664161Y-81031667D01*
X94664101Y-81100491D01*
X95013518Y-81946143D01*
X95659953Y-82593708D01*
X96504995Y-82944600D01*
X97419991Y-82945399D01*
X98265643Y-82595982D01*
X98616012Y-82246224D01*
X99388491Y-82246899D01*
X100234143Y-81897482D01*
X100603269Y-81529000D01*
X102679500Y-81529000D01*
X103406599Y-81384371D01*
X104023003Y-80972503D01*
X115257500Y-69738006D01*
X115257500Y-71793494D01*
X113337497Y-73713497D01*
X112925629Y-74329901D01*
X112781000Y-75057000D01*
X112781000Y-80029151D01*
X112614604Y-80136224D01*
X112272108Y-80637483D01*
X112151614Y-81232500D01*
X112151614Y-83232500D01*
X112256207Y-83788367D01*
X112584724Y-84298896D01*
X113085983Y-84641392D01*
X113681000Y-84761886D01*
X115681000Y-84761886D01*
X116236867Y-84657293D01*
X116747396Y-84328776D01*
X117089892Y-83827517D01*
X117210386Y-83232500D01*
X117210386Y-81232500D01*
X117105793Y-80676633D01*
X116777276Y-80166104D01*
X116581000Y-80031994D01*
X116581000Y-75844006D01*
X118501003Y-73924003D01*
X118599229Y-73776997D01*
X118912871Y-73307599D01*
X119057500Y-72580500D01*
X119057500Y-49566000D01*
X119385500Y-49238000D01*
X119385500Y-47388000D01*
X119485500Y-47388000D01*
X119485500Y-49238000D01*
X119885500Y-49638000D01*
X120553760Y-49638000D01*
X121141827Y-49394414D01*
X121591915Y-48944327D01*
X121835500Y-48356260D01*
X121835500Y-47788000D01*
X121435500Y-47388000D01*
X119485500Y-47388000D01*
X119385500Y-47388000D01*
X119365500Y-47388000D01*
X119365500Y-47288000D01*
X119385500Y-47288000D01*
X119385500Y-45438000D01*
X119485500Y-45438000D01*
X119485500Y-47288000D01*
X121435500Y-47288000D01*
X121835500Y-46888000D01*
X121835500Y-46319740D01*
X121591915Y-45731673D01*
X121141827Y-45281586D01*
X120553760Y-45038000D01*
X119885500Y-45038000D01*
X119485500Y-45438000D01*
X119385500Y-45438000D01*
X119057500Y-45110000D01*
X119057500Y-44069000D01*
X119007971Y-43820000D01*
X118912872Y-43341902D01*
X118501003Y-42725497D01*
X118183503Y-42407997D01*
X117567099Y-41996129D01*
X116840000Y-41851500D01*
X113385500Y-41851500D01*
X113385500Y-37734079D01*
X113635154Y-37734079D01*
X113938994Y-38469429D01*
X114501112Y-39032529D01*
X115235930Y-39337652D01*
X116031579Y-39338346D01*
X116766929Y-39034506D01*
X117330029Y-38472388D01*
X117448117Y-38188000D01*
X118135500Y-38188000D01*
X118135500Y-39156260D01*
X118379085Y-39744327D01*
X118829173Y-40194414D01*
X119417240Y-40438000D01*
X119885500Y-40438000D01*
X120285500Y-40038000D01*
X120285500Y-37788000D01*
X120385500Y-37788000D01*
X120385500Y-40038000D01*
X120785500Y-40438000D01*
X121253760Y-40438000D01*
X121841827Y-40194414D01*
X122291915Y-39744327D01*
X122535500Y-39156260D01*
X122535500Y-38188000D01*
X122135500Y-37788000D01*
X120385500Y-37788000D01*
X120285500Y-37788000D01*
X118535500Y-37788000D01*
X118135500Y-38188000D01*
X117448117Y-38188000D01*
X117635152Y-37737570D01*
X117635846Y-36941921D01*
X117378767Y-36319740D01*
X118135500Y-36319740D01*
X118135500Y-37288000D01*
X118535500Y-37688000D01*
X120285500Y-37688000D01*
X120285500Y-35438000D01*
X120385500Y-35438000D01*
X120385500Y-37688000D01*
X122135500Y-37688000D01*
X122535500Y-37288000D01*
X122535500Y-36319740D01*
X122291915Y-35731673D01*
X121841827Y-35281586D01*
X121253760Y-35038000D01*
X120785500Y-35038000D01*
X120385500Y-35438000D01*
X120285500Y-35438000D01*
X119885500Y-35038000D01*
X119417240Y-35038000D01*
X118829173Y-35281586D01*
X118379085Y-35731673D01*
X118135500Y-36319740D01*
X117378767Y-36319740D01*
X117332006Y-36206571D01*
X116769888Y-35643471D01*
X116035070Y-35338348D01*
X115239421Y-35337654D01*
X114504071Y-35641494D01*
X113940971Y-36203612D01*
X113635848Y-36938430D01*
X113635154Y-37734079D01*
X113385500Y-37734079D01*
X113385500Y-36301500D01*
X113240871Y-35574401D01*
X112829003Y-34957997D01*
X111897003Y-34025997D01*
X111280599Y-33614129D01*
X110553500Y-33469500D01*
X100641149Y-33469500D01*
X135139135Y-32919000D01*
X145626360Y-32919000D01*
X145867500Y-32999380D01*
X145867500Y-32999380D01*
G37*
X145867500Y-32999380D02*
X145867500Y-36062074D01*
X145427226Y-35621031D01*
X143773980Y-34934543D01*
X141983873Y-34932981D01*
X140329432Y-35616582D01*
X139062531Y-36881274D01*
X138376043Y-38534520D01*
X138374481Y-40324627D01*
X139058082Y-41979068D01*
X139386440Y-42308000D01*
X135897500Y-42308000D01*
X135897500Y-60308000D01*
X141447500Y-60308000D01*
X141447500Y-59458762D01*
X145753500Y-59458762D01*
X145753500Y-42918067D01*
X145867500Y-42804266D01*
X145867500Y-62096519D01*
X145744726Y-61973531D01*
X144091480Y-61287043D01*
X142301373Y-61285481D01*
X140646932Y-61969082D01*
X139380031Y-63233774D01*
X138693543Y-64887020D01*
X138691981Y-66677127D01*
X139375582Y-68331568D01*
X140640274Y-69598469D01*
X142293520Y-70284957D01*
X144083627Y-70286519D01*
X145738068Y-69602918D01*
X145867500Y-69473712D01*
X145867500Y-114435000D01*
X144411006Y-114435000D01*
X144599503Y-114246503D01*
X145011372Y-113630098D01*
X145156000Y-112903000D01*
X145156000Y-97663000D01*
X145011371Y-96935901D01*
X144599503Y-96319497D01*
X139568000Y-91287994D01*
X139568000Y-73025000D01*
X139423371Y-72297901D01*
X139011503Y-71681497D01*
X138757503Y-71427497D01*
X138562200Y-71297000D01*
X138141099Y-71015629D01*
X137414000Y-70871000D01*
X127127000Y-70871000D01*
X126399901Y-71015629D01*
X125978800Y-71297000D01*
X125783497Y-71427497D01*
X123497497Y-73713497D01*
X123085629Y-74329901D01*
X122941000Y-75057000D01*
X122941000Y-75753181D01*
X122057530Y-76440324D01*
X121928164Y-76590847D01*
X121864500Y-76835000D01*
X121864500Y-97028000D01*
X121903893Y-97222528D01*
X122015865Y-97386404D01*
X122182771Y-97493805D01*
X122346654Y-97527681D01*
X132940571Y-97906035D01*
X133136381Y-97873611D01*
X133348851Y-97718702D01*
X134832782Y-95863788D01*
X139451000Y-100482006D01*
X139451000Y-109194994D01*
X139293994Y-109352000D01*
X139229000Y-109352000D01*
X139229000Y-109162000D01*
X138829000Y-108762000D01*
X136829000Y-108762000D01*
X136829000Y-108782000D01*
X136729000Y-108782000D01*
X136729000Y-108762000D01*
X134729000Y-108762000D01*
X134329000Y-109162000D01*
X134329000Y-109352000D01*
X133665860Y-109352000D01*
X133608971Y-108072000D01*
X134329000Y-108072000D01*
X134329000Y-108262000D01*
X134729000Y-108662000D01*
X136729000Y-108662000D01*
X136729000Y-108642000D01*
X136829000Y-108642000D01*
X136829000Y-108662000D01*
X138829000Y-108662000D01*
X139229000Y-108262000D01*
X139229000Y-107543740D01*
X139110611Y-107257922D01*
X139158386Y-107022000D01*
X139158386Y-105322000D01*
X139076457Y-104886580D01*
X139158386Y-104482000D01*
X139158386Y-102782000D01*
X139053793Y-102226133D01*
X138725276Y-101715604D01*
X138224017Y-101373108D01*
X137629000Y-101252614D01*
X135929000Y-101252614D01*
X135373133Y-101357207D01*
X134862604Y-101685724D01*
X134830985Y-101732000D01*
X129909327Y-101732000D01*
X129898776Y-101715604D01*
X129397517Y-101373108D01*
X128802500Y-101252614D01*
X127102500Y-101252614D01*
X126546633Y-101357207D01*
X126036104Y-101685724D01*
X126004485Y-101732000D01*
X121336827Y-101732000D01*
X121326276Y-101715604D01*
X120825017Y-101373108D01*
X120230000Y-101252614D01*
X118530000Y-101252614D01*
X117974133Y-101357207D01*
X117463604Y-101685724D01*
X117431985Y-101732000D01*
X112827827Y-101732000D01*
X112817276Y-101715604D01*
X112316017Y-101373108D01*
X111721000Y-101252614D01*
X110021000Y-101252614D01*
X109465133Y-101357207D01*
X108954604Y-101685724D01*
X108922985Y-101732000D01*
X104191827Y-101732000D01*
X104181276Y-101715604D01*
X104135000Y-101683985D01*
X104135000Y-98615500D01*
X104129311Y-98586901D01*
X103990372Y-97888402D01*
X103578503Y-97271997D01*
X102357000Y-96050494D01*
X102357000Y-95206170D01*
X102405708Y-95157547D01*
X102756600Y-94312505D01*
X102756918Y-93948388D01*
X103390305Y-94394319D01*
X104171000Y-94569500D01*
X104471000Y-94569500D01*
X104471000Y-93199500D01*
X104571000Y-93199500D01*
X104571000Y-94569500D01*
X104871000Y-94569500D01*
X105651695Y-94394319D01*
X106305924Y-93933714D01*
X106734087Y-93257808D01*
X106837337Y-92889480D01*
X106470242Y-92569500D01*
X106283266Y-92569500D01*
X106350084Y-92469500D01*
X106470242Y-92469500D01*
X106837337Y-92149520D01*
X106761645Y-91879500D01*
X113191978Y-91879500D01*
X113263015Y-91950661D01*
X114181538Y-92332065D01*
X115176099Y-92332933D01*
X116095286Y-91953133D01*
X116799161Y-91250485D01*
X117180565Y-90331962D01*
X117181433Y-89337401D01*
X116801633Y-88418214D01*
X116098985Y-87714339D01*
X115180462Y-87332935D01*
X114185901Y-87332067D01*
X113266714Y-87711867D01*
X112898439Y-88079500D01*
X105663020Y-88079500D01*
X105271000Y-88000114D01*
X103771000Y-88000114D01*
X103215133Y-88104707D01*
X102704604Y-88433224D01*
X102362108Y-88934483D01*
X102278065Y-89349500D01*
X94825170Y-89349500D01*
X94776547Y-89300792D01*
X93931505Y-88949900D01*
X93530500Y-88949550D01*
X93530500Y-86804500D01*
X93385871Y-86077401D01*
X92974003Y-85460997D01*
X92529503Y-85016497D01*
X92442161Y-84958137D01*
X92338465Y-84888850D01*
X92902858Y-84511734D01*
X93325565Y-83879109D01*
X93474000Y-83132876D01*
X93474000Y-81425124D01*
X93424000Y-81173757D01*
X93424000Y-81069000D01*
X93399136Y-80944000D01*
X93867876Y-80944000D01*
X94119243Y-80894000D01*
X94526494Y-80894000D01*
X94664161Y-81031667D01*
X94664101Y-81100491D01*
X95013518Y-81946143D01*
X95659953Y-82593708D01*
X96504995Y-82944600D01*
X97419991Y-82945399D01*
X98265643Y-82595982D01*
X98616012Y-82246224D01*
X99388491Y-82246899D01*
X100234143Y-81897482D01*
X100603269Y-81529000D01*
X102679500Y-81529000D01*
X103406599Y-81384371D01*
X104023003Y-80972503D01*
X115257500Y-69738006D01*
X115257500Y-71793494D01*
X113337497Y-73713497D01*
X112925629Y-74329901D01*
X112781000Y-75057000D01*
X112781000Y-80029151D01*
X112614604Y-80136224D01*
X112272108Y-80637483D01*
X112151614Y-81232500D01*
X112151614Y-83232500D01*
X112256207Y-83788367D01*
X112584724Y-84298896D01*
X113085983Y-84641392D01*
X113681000Y-84761886D01*
X115681000Y-84761886D01*
X116236867Y-84657293D01*
X116747396Y-84328776D01*
X117089892Y-83827517D01*
X117210386Y-83232500D01*
X117210386Y-81232500D01*
X117105793Y-80676633D01*
X116777276Y-80166104D01*
X116581000Y-80031994D01*
X116581000Y-75844006D01*
X118501003Y-73924003D01*
X118599229Y-73776997D01*
X118912871Y-73307599D01*
X119057500Y-72580500D01*
X119057500Y-49566000D01*
X119385500Y-49238000D01*
X119385500Y-47388000D01*
X119485500Y-47388000D01*
X119485500Y-49238000D01*
X119885500Y-49638000D01*
X120553760Y-49638000D01*
X121141827Y-49394414D01*
X121591915Y-48944327D01*
X121835500Y-48356260D01*
X121835500Y-47788000D01*
X121435500Y-47388000D01*
X119485500Y-47388000D01*
X119385500Y-47388000D01*
X119365500Y-47388000D01*
X119365500Y-47288000D01*
X119385500Y-47288000D01*
X119385500Y-45438000D01*
X119485500Y-45438000D01*
X119485500Y-47288000D01*
X121435500Y-47288000D01*
X121835500Y-46888000D01*
X121835500Y-46319740D01*
X121591915Y-45731673D01*
X121141827Y-45281586D01*
X120553760Y-45038000D01*
X119885500Y-45038000D01*
X119485500Y-45438000D01*
X119385500Y-45438000D01*
X119057500Y-45110000D01*
X119057500Y-44069000D01*
X119007971Y-43820000D01*
X118912872Y-43341902D01*
X118501003Y-42725497D01*
X118183503Y-42407997D01*
X117567099Y-41996129D01*
X116840000Y-41851500D01*
X113385500Y-41851500D01*
X113385500Y-37734079D01*
X113635154Y-37734079D01*
X113938994Y-38469429D01*
X114501112Y-39032529D01*
X115235930Y-39337652D01*
X116031579Y-39338346D01*
X116766929Y-39034506D01*
X117330029Y-38472388D01*
X117448117Y-38188000D01*
X118135500Y-38188000D01*
X118135500Y-39156260D01*
X118379085Y-39744327D01*
X118829173Y-40194414D01*
X119417240Y-40438000D01*
X119885500Y-40438000D01*
X120285500Y-40038000D01*
X120285500Y-37788000D01*
X120385500Y-37788000D01*
X120385500Y-40038000D01*
X120785500Y-40438000D01*
X121253760Y-40438000D01*
X121841827Y-40194414D01*
X122291915Y-39744327D01*
X122535500Y-39156260D01*
X122535500Y-38188000D01*
X122135500Y-37788000D01*
X120385500Y-37788000D01*
X120285500Y-37788000D01*
X118535500Y-37788000D01*
X118135500Y-38188000D01*
X117448117Y-38188000D01*
X117635152Y-37737570D01*
X117635846Y-36941921D01*
X117378767Y-36319740D01*
X118135500Y-36319740D01*
X118135500Y-37288000D01*
X118535500Y-37688000D01*
X120285500Y-37688000D01*
X120285500Y-35438000D01*
X120385500Y-35438000D01*
X120385500Y-37688000D01*
X122135500Y-37688000D01*
X122535500Y-37288000D01*
X122535500Y-36319740D01*
X122291915Y-35731673D01*
X121841827Y-35281586D01*
X121253760Y-35038000D01*
X120785500Y-35038000D01*
X120385500Y-35438000D01*
X120285500Y-35438000D01*
X119885500Y-35038000D01*
X119417240Y-35038000D01*
X118829173Y-35281586D01*
X118379085Y-35731673D01*
X118135500Y-36319740D01*
X117378767Y-36319740D01*
X117332006Y-36206571D01*
X116769888Y-35643471D01*
X116035070Y-35338348D01*
X115239421Y-35337654D01*
X114504071Y-35641494D01*
X113940971Y-36203612D01*
X113635848Y-36938430D01*
X113635154Y-37734079D01*
X113385500Y-37734079D01*
X113385500Y-36301500D01*
X113240871Y-35574401D01*
X112829003Y-34957997D01*
X111897003Y-34025997D01*
X111280599Y-33614129D01*
X110553500Y-33469500D01*
X100641149Y-33469500D01*
X135139135Y-32919000D01*
X145626360Y-32919000D01*
X145867500Y-32999380D01*
G36*
X40492673Y-36771586D02*
X40042585Y-37221673D01*
X39799000Y-37809740D01*
X39799000Y-39428000D01*
X40199000Y-39828000D01*
X43099000Y-39828000D01*
X43099000Y-39808000D01*
X43199000Y-39808000D01*
X43199000Y-39828000D01*
X43219000Y-39828000D01*
X43219000Y-39928000D01*
X43199000Y-39928000D01*
X43199000Y-39948000D01*
X43099000Y-39948000D01*
X43099000Y-39928000D01*
X40199000Y-39928000D01*
X39799000Y-40328000D01*
X39799000Y-41946260D01*
X40042585Y-42534327D01*
X40492673Y-42984414D01*
X41080740Y-43228000D01*
X42699000Y-43228000D01*
X42799000Y-43128000D01*
X42799000Y-44128000D01*
X43199000Y-44528000D01*
X46099000Y-44528000D01*
X46099000Y-44508000D01*
X46199000Y-44508000D01*
X46199000Y-44528000D01*
X46219000Y-44528000D01*
X46219000Y-44628000D01*
X46199000Y-44628000D01*
X46199000Y-47528000D01*
X46599000Y-47928000D01*
X47249000Y-47928000D01*
X47249000Y-54395180D01*
X46901604Y-54618724D01*
X46559108Y-55119983D01*
X46438614Y-55715000D01*
X46438614Y-57315000D01*
X46543207Y-57870867D01*
X46871724Y-58381396D01*
X47372983Y-58723892D01*
X47968000Y-58844386D01*
X49568000Y-58844386D01*
X50123867Y-58739793D01*
X50634396Y-58411276D01*
X50976892Y-57910017D01*
X51097386Y-57315000D01*
X51097386Y-55715000D01*
X51049000Y-55457849D01*
X51049000Y-43129162D01*
X51454867Y-43052793D01*
X51965396Y-42724276D01*
X52307892Y-42223017D01*
X52400845Y-41764000D01*
X53373696Y-41764000D01*
X53281500Y-42227500D01*
X53281500Y-49911000D01*
X53426129Y-50638099D01*
X53735591Y-51101242D01*
X53837997Y-51254503D01*
X53891494Y-51308000D01*
X53270833Y-51928661D01*
X53202009Y-51928601D01*
X52356357Y-52278018D01*
X51708792Y-52924453D01*
X51357900Y-53769495D01*
X51357101Y-54684491D01*
X51706518Y-55530143D01*
X52352953Y-56177708D01*
X53197995Y-56528600D01*
X54112991Y-56529399D01*
X54515987Y-56362884D01*
X60881826Y-56362884D01*
X60895930Y-56889156D01*
X61770993Y-57271083D01*
X62725603Y-57289066D01*
X63614429Y-56940366D01*
X63691070Y-56889156D01*
X63705174Y-56362884D01*
X62293500Y-54951211D01*
X60881826Y-56362884D01*
X54515987Y-56362884D01*
X54958643Y-56179982D01*
X55606208Y-55533547D01*
X55697951Y-55312603D01*
X59884934Y-55312603D01*
X60233634Y-56201429D01*
X60284844Y-56278070D01*
X60811116Y-56292174D01*
X62222789Y-54880500D01*
X60811116Y-53468826D01*
X60284844Y-53482930D01*
X59902917Y-54357993D01*
X59884934Y-55312603D01*
X55697951Y-55312603D01*
X55957100Y-54688505D01*
X55957163Y-54616343D01*
X56286006Y-54287500D01*
X56304830Y-54287500D01*
X56353453Y-54336208D01*
X57198495Y-54687100D01*
X58113491Y-54687899D01*
X58959143Y-54338482D01*
X59606708Y-53692047D01*
X59957600Y-52847005D01*
X59958399Y-51932009D01*
X59608982Y-51086357D01*
X58962547Y-50438792D01*
X58117505Y-50087900D01*
X58045343Y-50087837D01*
X57081500Y-49123994D01*
X57081500Y-47654046D01*
X62845000Y-47774119D01*
X62845000Y-51600500D01*
X62989629Y-52327599D01*
X63214217Y-52663718D01*
X62816007Y-52489917D01*
X61861397Y-52471934D01*
X60972571Y-52820634D01*
X60895930Y-52871844D01*
X60881826Y-53398116D01*
X62293500Y-54809789D01*
X62307642Y-54795647D01*
X62378353Y-54866358D01*
X62364211Y-54880500D01*
X63775884Y-56292174D01*
X64302156Y-56278070D01*
X64684083Y-55403007D01*
X64702066Y-54448397D01*
X64570479Y-54112985D01*
X66363997Y-55906503D01*
X66980402Y-56318372D01*
X67107739Y-56343701D01*
X67275453Y-56511708D01*
X68120495Y-56862600D01*
X69035491Y-56863399D01*
X69855000Y-56524784D01*
X69855000Y-56832500D01*
X69999629Y-57559599D01*
X70205131Y-57867155D01*
X69991674Y-58080612D01*
X69977570Y-57554344D01*
X69102507Y-57172417D01*
X68147897Y-57154434D01*
X67259071Y-57503134D01*
X67182430Y-57554344D01*
X67168326Y-58080616D01*
X68580000Y-59492289D01*
X68594142Y-59478147D01*
X68664853Y-59548858D01*
X68650711Y-59563000D01*
X68664853Y-59577142D01*
X68594142Y-59647853D01*
X68580000Y-59633711D01*
X68565858Y-59647853D01*
X68495147Y-59577142D01*
X68509289Y-59563000D01*
X67097616Y-58151326D01*
X66571344Y-58165430D01*
X66189417Y-59040493D01*
X66171434Y-59995103D01*
X66277907Y-60266500D01*
X66128506Y-60266500D01*
X64399003Y-58536997D01*
X64276139Y-58454902D01*
X63807968Y-58142080D01*
X63598047Y-57931792D01*
X62753005Y-57580900D01*
X61838009Y-57580101D01*
X60992357Y-57929518D01*
X60941286Y-57980500D01*
X58752161Y-57980500D01*
X58538172Y-57837517D01*
X57658000Y-57662440D01*
X56777828Y-57837517D01*
X56031654Y-58336094D01*
X55533077Y-59082268D01*
X55365713Y-59923664D01*
X54962047Y-59519292D01*
X54117005Y-59168400D01*
X53202009Y-59167601D01*
X52356357Y-59517018D01*
X51708792Y-60163453D01*
X51357900Y-61008495D01*
X51357101Y-61923491D01*
X51426513Y-62091481D01*
X46710994Y-66807000D01*
X45708327Y-66807000D01*
X45697776Y-66790604D01*
X45196517Y-66448108D01*
X44601500Y-66327614D01*
X42901500Y-66327614D01*
X42345633Y-66432207D01*
X41835104Y-66760724D01*
X41492608Y-67261983D01*
X41372114Y-67857000D01*
X41372114Y-69557000D01*
X41419224Y-69807368D01*
X41068861Y-70355619D01*
X40939989Y-70814431D01*
X41302110Y-71197000D01*
X43701500Y-71197000D01*
X43701500Y-71177000D01*
X43801500Y-71177000D01*
X43801500Y-71197000D01*
X46200890Y-71197000D01*
X46563011Y-70814431D01*
X46504747Y-70607000D01*
X47498000Y-70607000D01*
X48225099Y-70462371D01*
X48841503Y-70050503D01*
X49863679Y-69028327D01*
X49777663Y-69460758D01*
X49676792Y-69561453D01*
X49325900Y-70406495D01*
X49325101Y-71321491D01*
X49387667Y-71472912D01*
X49230242Y-71578100D01*
X49075497Y-71681497D01*
X46452425Y-74304569D01*
X46555376Y-73787000D01*
X46376493Y-72887694D01*
X46161198Y-72565482D01*
X46434139Y-72138381D01*
X46563011Y-71679569D01*
X46200890Y-71297000D01*
X43801500Y-71297000D01*
X43801500Y-71317000D01*
X43701500Y-71317000D01*
X43701500Y-71297000D01*
X41302110Y-71297000D01*
X40939989Y-71679569D01*
X41068861Y-72138381D01*
X41341802Y-72565482D01*
X41126507Y-72887694D01*
X40947624Y-73787000D01*
X41126507Y-74686306D01*
X41374197Y-75057000D01*
X41126507Y-75427694D01*
X40947624Y-76327000D01*
X41126507Y-77226306D01*
X41374197Y-77597000D01*
X41126507Y-77967694D01*
X40947624Y-78867000D01*
X41126507Y-79766306D01*
X41374197Y-80137000D01*
X41126507Y-80507694D01*
X40947624Y-81407000D01*
X41126507Y-82306306D01*
X41374197Y-82677000D01*
X41126507Y-83047694D01*
X40947624Y-83947000D01*
X41126507Y-84846306D01*
X41635923Y-85608701D01*
X42398318Y-86118117D01*
X43297624Y-86297000D01*
X44205376Y-86297000D01*
X44518500Y-86234716D01*
X44518500Y-89907921D01*
X43893505Y-89648400D01*
X42978509Y-89647601D01*
X42132857Y-89997018D01*
X41485292Y-90643453D01*
X41134400Y-91488495D01*
X41133601Y-92403491D01*
X41483018Y-93249143D01*
X41534000Y-93300214D01*
X41534000Y-93345000D01*
X41678629Y-94072099D01*
X41924787Y-94440500D01*
X42090497Y-94688503D01*
X42240238Y-94838244D01*
X42113071Y-94888134D01*
X42036430Y-94939344D01*
X42022326Y-95465616D01*
X43434000Y-96877289D01*
X43448142Y-96863147D01*
X43518853Y-96933858D01*
X43504711Y-96948000D01*
X43518853Y-96962142D01*
X43448142Y-97032853D01*
X43434000Y-97018711D01*
X42022326Y-98430384D01*
X42036430Y-98956656D01*
X42849537Y-99311542D01*
X42496095Y-100117880D01*
X42474989Y-101152008D01*
X42851233Y-102115496D01*
X42911340Y-102205454D01*
X43458384Y-102243905D01*
X45014289Y-100688000D01*
X45000147Y-100673858D01*
X45070858Y-100603147D01*
X45085000Y-100617289D01*
X46640905Y-99061384D01*
X46602454Y-98514340D01*
X45655120Y-98099095D01*
X45551158Y-98096973D01*
X45586912Y-98015054D01*
X45691401Y-98084871D01*
X46418500Y-98229500D01*
X47685000Y-98229500D01*
X47685000Y-99052234D01*
X47466839Y-99270015D01*
X47392444Y-99449177D01*
X47318767Y-99260504D01*
X47258660Y-99170546D01*
X46711616Y-99132095D01*
X45155711Y-100688000D01*
X46711616Y-102243905D01*
X47258660Y-102205454D01*
X47386493Y-101913817D01*
X47464367Y-102102286D01*
X47685000Y-102323304D01*
X47685000Y-105552234D01*
X47466839Y-105770015D01*
X47392444Y-105949177D01*
X47318767Y-105760504D01*
X47258660Y-105670546D01*
X46711616Y-105632095D01*
X45155711Y-107188000D01*
X46711616Y-108743905D01*
X47258660Y-108705454D01*
X47386493Y-108413817D01*
X47464367Y-108602286D01*
X48167015Y-109306161D01*
X49085538Y-109687565D01*
X50080099Y-109688433D01*
X50999286Y-109308633D01*
X51677976Y-108631126D01*
X52248015Y-109202161D01*
X53166538Y-109583565D01*
X54161099Y-109584433D01*
X55080286Y-109204633D01*
X55575165Y-108710616D01*
X56610095Y-108710616D01*
X56648546Y-109257660D01*
X57595880Y-109672905D01*
X58630008Y-109694011D01*
X59593496Y-109317767D01*
X59683454Y-109257660D01*
X59721905Y-108710616D01*
X58166000Y-107154711D01*
X56610095Y-108710616D01*
X55575165Y-108710616D01*
X55784161Y-108501985D01*
X55858556Y-108322823D01*
X55932233Y-108511496D01*
X55992340Y-108601454D01*
X56539384Y-108639905D01*
X58095289Y-107084000D01*
X58236711Y-107084000D01*
X59792616Y-108639905D01*
X60339660Y-108601454D01*
X60754905Y-107654120D01*
X60776011Y-106619992D01*
X60428322Y-105729627D01*
X63190481Y-105729627D01*
X63874082Y-107384068D01*
X65138774Y-108650969D01*
X66792020Y-109337457D01*
X68582127Y-109339019D01*
X68769456Y-109261616D01*
X77899826Y-109261616D01*
X79311500Y-110673289D01*
X80723174Y-109261616D01*
X80709070Y-108735344D01*
X79834007Y-108353417D01*
X78879397Y-108335434D01*
X77990571Y-108684134D01*
X77913930Y-108735344D01*
X77899826Y-109261616D01*
X68769456Y-109261616D01*
X70236568Y-108655418D01*
X71503469Y-107390726D01*
X72189957Y-105737480D01*
X72191519Y-103947373D01*
X71507918Y-102292932D01*
X70243226Y-101026031D01*
X68589980Y-100339543D01*
X66799873Y-100337981D01*
X65145432Y-101021582D01*
X63878531Y-102286274D01*
X63192043Y-103939520D01*
X63190481Y-105729627D01*
X60428322Y-105729627D01*
X60399767Y-105656504D01*
X60339660Y-105566546D01*
X59792616Y-105528095D01*
X58236711Y-107084000D01*
X58095289Y-107084000D01*
X56539384Y-105528095D01*
X55992340Y-105566546D01*
X55864507Y-105858183D01*
X55786633Y-105669714D01*
X55574673Y-105457384D01*
X56610095Y-105457384D01*
X58166000Y-107013289D01*
X59721905Y-105457384D01*
X59683454Y-104910340D01*
X58736120Y-104495095D01*
X57701992Y-104473989D01*
X56738504Y-104850233D01*
X56648546Y-104910340D01*
X56610095Y-105457384D01*
X55574673Y-105457384D01*
X55566000Y-105448696D01*
X55566000Y-102219766D01*
X55575165Y-102210616D01*
X56610095Y-102210616D01*
X56648546Y-102757660D01*
X57595880Y-103172905D01*
X58630008Y-103194011D01*
X59593496Y-102817767D01*
X59683454Y-102757660D01*
X59721905Y-102210616D01*
X58166000Y-100654711D01*
X56610095Y-102210616D01*
X55575165Y-102210616D01*
X55784161Y-102001985D01*
X55858556Y-101822823D01*
X55932233Y-102011496D01*
X55992340Y-102101454D01*
X56539384Y-102139905D01*
X58095289Y-100584000D01*
X58081147Y-100569858D01*
X58151858Y-100499147D01*
X58166000Y-100513289D01*
X58180142Y-100499147D01*
X58250853Y-100569858D01*
X58236711Y-100584000D01*
X59792616Y-102139905D01*
X60339660Y-102101454D01*
X60754905Y-101154120D01*
X60776011Y-100119992D01*
X60512966Y-99446384D01*
X62215326Y-99446384D01*
X62229430Y-99972656D01*
X63104493Y-100354583D01*
X64059103Y-100372566D01*
X64947929Y-100023866D01*
X65024570Y-99972656D01*
X65038674Y-99446384D01*
X63627000Y-98034711D01*
X62215326Y-99446384D01*
X60512966Y-99446384D01*
X60399767Y-99156504D01*
X60339660Y-99066546D01*
X59852727Y-99032320D01*
X60271503Y-98752503D01*
X61229772Y-97794234D01*
X61218434Y-98396103D01*
X61567134Y-99284929D01*
X61618344Y-99361570D01*
X62144616Y-99375674D01*
X63556289Y-97964000D01*
X63697711Y-97964000D01*
X65109384Y-99375674D01*
X65635656Y-99361570D01*
X66017583Y-98486507D01*
X66035566Y-97531897D01*
X65921247Y-97240500D01*
X72045000Y-97240500D01*
X72045000Y-97858760D01*
X72288586Y-98446827D01*
X72738673Y-98896915D01*
X73326740Y-99140500D01*
X73845000Y-99140500D01*
X74245000Y-98740500D01*
X74245000Y-96840500D01*
X72445000Y-96840500D01*
X72045000Y-97240500D01*
X65921247Y-97240500D01*
X65686866Y-96643071D01*
X65635656Y-96566430D01*
X65109384Y-96552326D01*
X63697711Y-97964000D01*
X63556289Y-97964000D01*
X63542147Y-97949858D01*
X63612858Y-97879147D01*
X63627000Y-97893289D01*
X65038674Y-96481616D01*
X65024570Y-95955344D01*
X64149507Y-95573417D01*
X63463512Y-95560494D01*
X63759889Y-95264117D01*
X64082491Y-95264399D01*
X64928143Y-94914982D01*
X65575708Y-94268547D01*
X65926600Y-93423505D01*
X65927399Y-92508509D01*
X65577982Y-91662857D01*
X64931547Y-91015292D01*
X64161750Y-90695644D01*
X64161750Y-79553475D01*
X64178708Y-79536547D01*
X64529600Y-78691505D01*
X64530399Y-77776509D01*
X64218022Y-77020500D01*
X72428494Y-77020500D01*
X74963998Y-79556004D01*
X74963998Y-79829756D01*
X74644020Y-79462663D01*
X74275692Y-79565913D01*
X73599786Y-79994076D01*
X73139181Y-80648305D01*
X72964000Y-81429000D01*
X72964000Y-82229000D01*
X74334000Y-82229000D01*
X74334000Y-82329000D01*
X72964000Y-82329000D01*
X72964000Y-83129000D01*
X73139181Y-83909695D01*
X73599786Y-84563924D01*
X74275692Y-84992087D01*
X74384000Y-85022448D01*
X74384000Y-85107994D01*
X73713380Y-85778614D01*
X73645000Y-85778614D01*
X73089133Y-85883207D01*
X72578604Y-86211724D01*
X72236108Y-86712983D01*
X72115614Y-87308000D01*
X72115614Y-88808000D01*
X72220207Y-89363867D01*
X72244196Y-89401146D01*
X72236108Y-89412983D01*
X72115614Y-90008000D01*
X72115614Y-91508000D01*
X72220207Y-92063867D01*
X72395000Y-92335503D01*
X72395000Y-92512937D01*
X72236108Y-92745483D01*
X72115614Y-93340500D01*
X72115614Y-94840500D01*
X72207642Y-95329589D01*
X72045000Y-95722240D01*
X72045000Y-96340500D01*
X72445000Y-96740500D01*
X74245000Y-96740500D01*
X74245000Y-96720500D01*
X74345000Y-96720500D01*
X74345000Y-96740500D01*
X74365000Y-96740500D01*
X74365000Y-96840500D01*
X74345000Y-96840500D01*
X74345000Y-98740500D01*
X74745000Y-99140500D01*
X75263260Y-99140500D01*
X75851327Y-98896915D01*
X75977750Y-98770492D01*
X76040673Y-98833415D01*
X76628740Y-99077000D01*
X77147000Y-99077000D01*
X77547000Y-98677000D01*
X77547000Y-96777000D01*
X77647000Y-96777000D01*
X77647000Y-98677000D01*
X78047000Y-99077000D01*
X78565260Y-99077000D01*
X79153327Y-98833415D01*
X79603414Y-98383327D01*
X79847000Y-97795260D01*
X79847000Y-97177000D01*
X79447000Y-96777000D01*
X77647000Y-96777000D01*
X77547000Y-96777000D01*
X77527000Y-96777000D01*
X77527000Y-96677000D01*
X77547000Y-96677000D01*
X77547000Y-96657000D01*
X77647000Y-96657000D01*
X77647000Y-96677000D01*
X79447000Y-96677000D01*
X79847000Y-96277000D01*
X79847000Y-95658740D01*
X79679646Y-95254714D01*
X79776386Y-94777000D01*
X79776386Y-93277000D01*
X79671793Y-92721133D01*
X79497000Y-92449497D01*
X79497000Y-92208563D01*
X79655892Y-91976017D01*
X79661360Y-91949016D01*
X79911916Y-92324000D01*
X80020497Y-92486503D01*
X80126997Y-92593003D01*
X80743402Y-93004872D01*
X81470500Y-93149500D01*
X84590147Y-93149500D01*
X84926768Y-93374423D01*
X85806940Y-93549500D01*
X85897060Y-93549500D01*
X85920500Y-93544837D01*
X85920500Y-95808908D01*
X85533629Y-96387901D01*
X85389000Y-97115000D01*
X85389000Y-97170234D01*
X85170839Y-97388015D01*
X84789435Y-98306538D01*
X84788567Y-99301099D01*
X85168367Y-100220286D01*
X85871015Y-100924161D01*
X86789538Y-101305565D01*
X87784099Y-101306433D01*
X88539724Y-100994215D01*
X89289538Y-101305565D01*
X90284099Y-101306433D01*
X90527533Y-101205848D01*
X91010740Y-101406000D01*
X91879000Y-101406000D01*
X92279000Y-101006000D01*
X92279000Y-99328497D01*
X92288565Y-99305462D01*
X92289062Y-98736000D01*
X92379000Y-98736000D01*
X92379000Y-98756000D01*
X92399000Y-98756000D01*
X92399000Y-98856000D01*
X92379000Y-98856000D01*
X92379000Y-101006000D01*
X92779000Y-101406000D01*
X93159500Y-101406000D01*
X93159500Y-102472494D01*
X92269158Y-103362836D01*
X91960901Y-103362567D01*
X91041714Y-103742367D01*
X90820696Y-103963000D01*
X87591766Y-103963000D01*
X87373985Y-103744839D01*
X86455462Y-103363435D01*
X85460901Y-103362567D01*
X84541714Y-103742367D01*
X84320696Y-103963000D01*
X80783462Y-103963000D01*
X80616047Y-103795292D01*
X79771005Y-103444400D01*
X78856009Y-103443601D01*
X78010357Y-103793018D01*
X77362792Y-104439453D01*
X77011900Y-105284495D01*
X77011101Y-106199491D01*
X77360518Y-107045143D01*
X78006953Y-107692708D01*
X78851995Y-108043600D01*
X79766991Y-108044399D01*
X80448027Y-107763000D01*
X84320234Y-107763000D01*
X84538015Y-107981161D01*
X84717177Y-108055556D01*
X84528504Y-108129233D01*
X84438546Y-108189340D01*
X84400095Y-108736384D01*
X85956000Y-110292289D01*
X87511905Y-108736384D01*
X87473454Y-108189340D01*
X87181817Y-108061507D01*
X87370286Y-107983633D01*
X87591304Y-107763000D01*
X90820234Y-107763000D01*
X91038015Y-107981161D01*
X91217177Y-108055556D01*
X91028504Y-108129233D01*
X90938546Y-108189340D01*
X90900095Y-108736384D01*
X92456000Y-110292289D01*
X94011905Y-108736384D01*
X93973454Y-108189340D01*
X93681817Y-108061507D01*
X93870286Y-107983633D01*
X94574161Y-107280985D01*
X94860805Y-106590669D01*
X95163871Y-106137099D01*
X95237111Y-105768895D01*
X96403003Y-104603003D01*
X96475105Y-104495095D01*
X96525000Y-104420422D01*
X96525000Y-105981500D01*
X96669629Y-106708599D01*
X96879037Y-107022000D01*
X97081497Y-107325003D01*
X97271997Y-107515503D01*
X97888402Y-107927372D01*
X98615500Y-108072000D01*
X99785000Y-108072000D01*
X99785000Y-108262000D01*
X100185000Y-108662000D01*
X102185000Y-108662000D01*
X102185000Y-108642000D01*
X102285000Y-108642000D01*
X102285000Y-108662000D01*
X104285000Y-108662000D01*
X104685000Y-108262000D01*
X104685000Y-108072000D01*
X108421000Y-108072000D01*
X108421000Y-108262000D01*
X108821000Y-108662000D01*
X110821000Y-108662000D01*
X110821000Y-108642000D01*
X110921000Y-108642000D01*
X110921000Y-108662000D01*
X112921000Y-108662000D01*
X113321000Y-108262000D01*
X113321000Y-108072000D01*
X116930000Y-108072000D01*
X116930000Y-108262000D01*
X117330000Y-108662000D01*
X119330000Y-108662000D01*
X119330000Y-108642000D01*
X119430000Y-108642000D01*
X119430000Y-108662000D01*
X121430000Y-108662000D01*
X121830000Y-108262000D01*
X121830000Y-108072000D01*
X125502500Y-108072000D01*
X125502500Y-108262000D01*
X125902500Y-108662000D01*
X127902500Y-108662000D01*
X127902500Y-108642000D01*
X128002500Y-108642000D01*
X128002500Y-108662000D01*
X130002500Y-108662000D01*
X130402500Y-108262000D01*
X130402500Y-108072000D01*
X132532500Y-108072000D01*
X132532500Y-109352000D01*
X130402500Y-109352000D01*
X130402500Y-109162000D01*
X130002500Y-108762000D01*
X128002500Y-108762000D01*
X128002500Y-108782000D01*
X127902500Y-108782000D01*
X127902500Y-108762000D01*
X125902500Y-108762000D01*
X125502500Y-109162000D01*
X125502500Y-109352000D01*
X121830000Y-109352000D01*
X121830000Y-109162000D01*
X121430000Y-108762000D01*
X119430000Y-108762000D01*
X119430000Y-108782000D01*
X119330000Y-108782000D01*
X119330000Y-108762000D01*
X117330000Y-108762000D01*
X116930000Y-109162000D01*
X116930000Y-109352000D01*
X113321000Y-109352000D01*
X113321000Y-109162000D01*
X112921000Y-108762000D01*
X110921000Y-108762000D01*
X110921000Y-108782000D01*
X110821000Y-108782000D01*
X110821000Y-108762000D01*
X108821000Y-108762000D01*
X108421000Y-109162000D01*
X108421000Y-109352000D01*
X104685000Y-109352000D01*
X104685000Y-109162000D01*
X104285000Y-108762000D01*
X102285000Y-108762000D01*
X102285000Y-108782000D01*
X102185000Y-108782000D01*
X102185000Y-108762000D01*
X100185000Y-108762000D01*
X99785000Y-109162000D01*
X99785000Y-109880260D01*
X99903389Y-110166078D01*
X99855614Y-110402000D01*
X99855614Y-112102000D01*
X99959479Y-112654000D01*
X93736933Y-112654000D01*
X93883496Y-112596767D01*
X93973454Y-112536660D01*
X94011905Y-111989616D01*
X92456000Y-110433711D01*
X90900095Y-111989616D01*
X90938546Y-112536660D01*
X91206244Y-112654000D01*
X87236933Y-112654000D01*
X87383496Y-112596767D01*
X87473454Y-112536660D01*
X87511905Y-111989616D01*
X85956000Y-110433711D01*
X84400095Y-111989616D01*
X84438546Y-112536660D01*
X84706244Y-112654000D01*
X80711714Y-112654000D01*
X80723174Y-112226384D01*
X79311500Y-110814711D01*
X77899826Y-112226384D01*
X77911286Y-112654000D01*
X40665006Y-112654000D01*
X39187109Y-111176103D01*
X76902934Y-111176103D01*
X77251634Y-112064929D01*
X77302844Y-112141570D01*
X77829116Y-112155674D01*
X79240789Y-110744000D01*
X79382211Y-110744000D01*
X80793884Y-112155674D01*
X81320156Y-112141570D01*
X81702083Y-111266507D01*
X81710362Y-110827008D01*
X83345989Y-110827008D01*
X83722233Y-111790496D01*
X83782340Y-111880454D01*
X84329384Y-111918905D01*
X85885289Y-110363000D01*
X86026711Y-110363000D01*
X87582616Y-111918905D01*
X88129660Y-111880454D01*
X88544905Y-110933120D01*
X88547070Y-110827008D01*
X89845989Y-110827008D01*
X90222233Y-111790496D01*
X90282340Y-111880454D01*
X90829384Y-111918905D01*
X92385289Y-110363000D01*
X92526711Y-110363000D01*
X94082616Y-111918905D01*
X94629660Y-111880454D01*
X95044905Y-110933120D01*
X95066011Y-109898992D01*
X94689767Y-108935504D01*
X94629660Y-108845546D01*
X94082616Y-108807095D01*
X92526711Y-110363000D01*
X92385289Y-110363000D01*
X90829384Y-108807095D01*
X90282340Y-108845546D01*
X89867095Y-109792880D01*
X89845989Y-110827008D01*
X88547070Y-110827008D01*
X88566011Y-109898992D01*
X88189767Y-108935504D01*
X88129660Y-108845546D01*
X87582616Y-108807095D01*
X86026711Y-110363000D01*
X85885289Y-110363000D01*
X84329384Y-108807095D01*
X83782340Y-108845546D01*
X83367095Y-109792880D01*
X83345989Y-110827008D01*
X81710362Y-110827008D01*
X81720066Y-110311897D01*
X81371366Y-109423071D01*
X81320156Y-109346430D01*
X80793884Y-109332326D01*
X79382211Y-110744000D01*
X79240789Y-110744000D01*
X77829116Y-109332326D01*
X77302844Y-109346430D01*
X76920917Y-110221493D01*
X76902934Y-111176103D01*
X39187109Y-111176103D01*
X38857000Y-110845994D01*
X38857000Y-108814616D01*
X43529095Y-108814616D01*
X43567546Y-109361660D01*
X44514880Y-109776905D01*
X45549008Y-109798011D01*
X46512496Y-109421767D01*
X46602454Y-109361660D01*
X46640905Y-108814616D01*
X45085000Y-107258711D01*
X43529095Y-108814616D01*
X38857000Y-108814616D01*
X38857000Y-107652008D01*
X42474989Y-107652008D01*
X42851233Y-108615496D01*
X42911340Y-108705454D01*
X43458384Y-108743905D01*
X45014289Y-107188000D01*
X43458384Y-105632095D01*
X42911340Y-105670546D01*
X42496095Y-106617880D01*
X42474989Y-107652008D01*
X38857000Y-107652008D01*
X38857000Y-105561384D01*
X43529095Y-105561384D01*
X45085000Y-107117289D01*
X46640905Y-105561384D01*
X46602454Y-105014340D01*
X45655120Y-104599095D01*
X44620992Y-104577989D01*
X43657504Y-104954233D01*
X43567546Y-105014340D01*
X43529095Y-105561384D01*
X38857000Y-105561384D01*
X38857000Y-102314616D01*
X43529095Y-102314616D01*
X43567546Y-102861660D01*
X44514880Y-103276905D01*
X45549008Y-103298011D01*
X46512496Y-102921767D01*
X46602454Y-102861660D01*
X46640905Y-102314616D01*
X45085000Y-100758711D01*
X43529095Y-102314616D01*
X38857000Y-102314616D01*
X38857000Y-97380103D01*
X41025434Y-97380103D01*
X41374134Y-98268929D01*
X41425344Y-98345570D01*
X41951616Y-98359674D01*
X43363289Y-96948000D01*
X41951616Y-95536326D01*
X41425344Y-95550430D01*
X41043417Y-96425493D01*
X41025434Y-97380103D01*
X38857000Y-97380103D01*
X38857000Y-91062471D01*
X38984000Y-90424000D01*
X38857000Y-89785529D01*
X38857000Y-57997384D01*
X42356326Y-57997384D01*
X42370430Y-58523656D01*
X43245493Y-58905583D01*
X44200103Y-58923566D01*
X45088929Y-58574866D01*
X45165570Y-58523656D01*
X45179674Y-57997384D01*
X43768000Y-56585711D01*
X42356326Y-57997384D01*
X38857000Y-57997384D01*
X38857000Y-56947103D01*
X41359434Y-56947103D01*
X41708134Y-57835929D01*
X41759344Y-57912570D01*
X42285616Y-57926674D01*
X43697289Y-56515000D01*
X43838711Y-56515000D01*
X45250384Y-57926674D01*
X45776656Y-57912570D01*
X46158583Y-57037507D01*
X46176566Y-56082897D01*
X45827866Y-55194071D01*
X45776656Y-55117430D01*
X45250384Y-55103326D01*
X43838711Y-56515000D01*
X43697289Y-56515000D01*
X42285616Y-55103326D01*
X41759344Y-55117430D01*
X41377417Y-55992493D01*
X41359434Y-56947103D01*
X38857000Y-56947103D01*
X38857000Y-55032616D01*
X42356326Y-55032616D01*
X43768000Y-56444289D01*
X45179674Y-55032616D01*
X45165570Y-54506344D01*
X44290507Y-54124417D01*
X43335897Y-54106434D01*
X42447071Y-54455134D01*
X42370430Y-54506344D01*
X42356326Y-55032616D01*
X38857000Y-55032616D01*
X38857000Y-45028000D01*
X42799000Y-45028000D01*
X42799000Y-46646260D01*
X43042585Y-47234327D01*
X43492673Y-47684414D01*
X44080740Y-47928000D01*
X45699000Y-47928000D01*
X46099000Y-47528000D01*
X46099000Y-44628000D01*
X43199000Y-44628000D01*
X42799000Y-45028000D01*
X38857000Y-45028000D01*
X38857000Y-38252006D01*
X40538006Y-36571000D01*
X40976929Y-36571000D01*
X40492673Y-36771586D01*
X40492673Y-36771586D01*
G37*
X40492673Y-36771586D02*
X40042585Y-37221673D01*
X39799000Y-37809740D01*
X39799000Y-39428000D01*
X40199000Y-39828000D01*
X43099000Y-39828000D01*
X43099000Y-39808000D01*
X43199000Y-39808000D01*
X43199000Y-39828000D01*
X43219000Y-39828000D01*
X43219000Y-39928000D01*
X43199000Y-39928000D01*
X43199000Y-39948000D01*
X43099000Y-39948000D01*
X43099000Y-39928000D01*
X40199000Y-39928000D01*
X39799000Y-40328000D01*
X39799000Y-41946260D01*
X40042585Y-42534327D01*
X40492673Y-42984414D01*
X41080740Y-43228000D01*
X42699000Y-43228000D01*
X42799000Y-43128000D01*
X42799000Y-44128000D01*
X43199000Y-44528000D01*
X46099000Y-44528000D01*
X46099000Y-44508000D01*
X46199000Y-44508000D01*
X46199000Y-44528000D01*
X46219000Y-44528000D01*
X46219000Y-44628000D01*
X46199000Y-44628000D01*
X46199000Y-47528000D01*
X46599000Y-47928000D01*
X47249000Y-47928000D01*
X47249000Y-54395180D01*
X46901604Y-54618724D01*
X46559108Y-55119983D01*
X46438614Y-55715000D01*
X46438614Y-57315000D01*
X46543207Y-57870867D01*
X46871724Y-58381396D01*
X47372983Y-58723892D01*
X47968000Y-58844386D01*
X49568000Y-58844386D01*
X50123867Y-58739793D01*
X50634396Y-58411276D01*
X50976892Y-57910017D01*
X51097386Y-57315000D01*
X51097386Y-55715000D01*
X51049000Y-55457849D01*
X51049000Y-43129162D01*
X51454867Y-43052793D01*
X51965396Y-42724276D01*
X52307892Y-42223017D01*
X52400845Y-41764000D01*
X53373696Y-41764000D01*
X53281500Y-42227500D01*
X53281500Y-49911000D01*
X53426129Y-50638099D01*
X53735591Y-51101242D01*
X53837997Y-51254503D01*
X53891494Y-51308000D01*
X53270833Y-51928661D01*
X53202009Y-51928601D01*
X52356357Y-52278018D01*
X51708792Y-52924453D01*
X51357900Y-53769495D01*
X51357101Y-54684491D01*
X51706518Y-55530143D01*
X52352953Y-56177708D01*
X53197995Y-56528600D01*
X54112991Y-56529399D01*
X54515987Y-56362884D01*
X60881826Y-56362884D01*
X60895930Y-56889156D01*
X61770993Y-57271083D01*
X62725603Y-57289066D01*
X63614429Y-56940366D01*
X63691070Y-56889156D01*
X63705174Y-56362884D01*
X62293500Y-54951211D01*
X60881826Y-56362884D01*
X54515987Y-56362884D01*
X54958643Y-56179982D01*
X55606208Y-55533547D01*
X55697951Y-55312603D01*
X59884934Y-55312603D01*
X60233634Y-56201429D01*
X60284844Y-56278070D01*
X60811116Y-56292174D01*
X62222789Y-54880500D01*
X60811116Y-53468826D01*
X60284844Y-53482930D01*
X59902917Y-54357993D01*
X59884934Y-55312603D01*
X55697951Y-55312603D01*
X55957100Y-54688505D01*
X55957163Y-54616343D01*
X56286006Y-54287500D01*
X56304830Y-54287500D01*
X56353453Y-54336208D01*
X57198495Y-54687100D01*
X58113491Y-54687899D01*
X58959143Y-54338482D01*
X59606708Y-53692047D01*
X59957600Y-52847005D01*
X59958399Y-51932009D01*
X59608982Y-51086357D01*
X58962547Y-50438792D01*
X58117505Y-50087900D01*
X58045343Y-50087837D01*
X57081500Y-49123994D01*
X57081500Y-47654046D01*
X62845000Y-47774119D01*
X62845000Y-51600500D01*
X62989629Y-52327599D01*
X63214217Y-52663718D01*
X62816007Y-52489917D01*
X61861397Y-52471934D01*
X60972571Y-52820634D01*
X60895930Y-52871844D01*
X60881826Y-53398116D01*
X62293500Y-54809789D01*
X62307642Y-54795647D01*
X62378353Y-54866358D01*
X62364211Y-54880500D01*
X63775884Y-56292174D01*
X64302156Y-56278070D01*
X64684083Y-55403007D01*
X64702066Y-54448397D01*
X64570479Y-54112985D01*
X66363997Y-55906503D01*
X66980402Y-56318372D01*
X67107739Y-56343701D01*
X67275453Y-56511708D01*
X68120495Y-56862600D01*
X69035491Y-56863399D01*
X69855000Y-56524784D01*
X69855000Y-56832500D01*
X69999629Y-57559599D01*
X70205131Y-57867155D01*
X69991674Y-58080612D01*
X69977570Y-57554344D01*
X69102507Y-57172417D01*
X68147897Y-57154434D01*
X67259071Y-57503134D01*
X67182430Y-57554344D01*
X67168326Y-58080616D01*
X68580000Y-59492289D01*
X68594142Y-59478147D01*
X68664853Y-59548858D01*
X68650711Y-59563000D01*
X68664853Y-59577142D01*
X68594142Y-59647853D01*
X68580000Y-59633711D01*
X68565858Y-59647853D01*
X68495147Y-59577142D01*
X68509289Y-59563000D01*
X67097616Y-58151326D01*
X66571344Y-58165430D01*
X66189417Y-59040493D01*
X66171434Y-59995103D01*
X66277907Y-60266500D01*
X66128506Y-60266500D01*
X64399003Y-58536997D01*
X64276139Y-58454902D01*
X63807968Y-58142080D01*
X63598047Y-57931792D01*
X62753005Y-57580900D01*
X61838009Y-57580101D01*
X60992357Y-57929518D01*
X60941286Y-57980500D01*
X58752161Y-57980500D01*
X58538172Y-57837517D01*
X57658000Y-57662440D01*
X56777828Y-57837517D01*
X56031654Y-58336094D01*
X55533077Y-59082268D01*
X55365713Y-59923664D01*
X54962047Y-59519292D01*
X54117005Y-59168400D01*
X53202009Y-59167601D01*
X52356357Y-59517018D01*
X51708792Y-60163453D01*
X51357900Y-61008495D01*
X51357101Y-61923491D01*
X51426513Y-62091481D01*
X46710994Y-66807000D01*
X45708327Y-66807000D01*
X45697776Y-66790604D01*
X45196517Y-66448108D01*
X44601500Y-66327614D01*
X42901500Y-66327614D01*
X42345633Y-66432207D01*
X41835104Y-66760724D01*
X41492608Y-67261983D01*
X41372114Y-67857000D01*
X41372114Y-69557000D01*
X41419224Y-69807368D01*
X41068861Y-70355619D01*
X40939989Y-70814431D01*
X41302110Y-71197000D01*
X43701500Y-71197000D01*
X43701500Y-71177000D01*
X43801500Y-71177000D01*
X43801500Y-71197000D01*
X46200890Y-71197000D01*
X46563011Y-70814431D01*
X46504747Y-70607000D01*
X47498000Y-70607000D01*
X48225099Y-70462371D01*
X48841503Y-70050503D01*
X49863679Y-69028327D01*
X49777663Y-69460758D01*
X49676792Y-69561453D01*
X49325900Y-70406495D01*
X49325101Y-71321491D01*
X49387667Y-71472912D01*
X49230242Y-71578100D01*
X49075497Y-71681497D01*
X46452425Y-74304569D01*
X46555376Y-73787000D01*
X46376493Y-72887694D01*
X46161198Y-72565482D01*
X46434139Y-72138381D01*
X46563011Y-71679569D01*
X46200890Y-71297000D01*
X43801500Y-71297000D01*
X43801500Y-71317000D01*
X43701500Y-71317000D01*
X43701500Y-71297000D01*
X41302110Y-71297000D01*
X40939989Y-71679569D01*
X41068861Y-72138381D01*
X41341802Y-72565482D01*
X41126507Y-72887694D01*
X40947624Y-73787000D01*
X41126507Y-74686306D01*
X41374197Y-75057000D01*
X41126507Y-75427694D01*
X40947624Y-76327000D01*
X41126507Y-77226306D01*
X41374197Y-77597000D01*
X41126507Y-77967694D01*
X40947624Y-78867000D01*
X41126507Y-79766306D01*
X41374197Y-80137000D01*
X41126507Y-80507694D01*
X40947624Y-81407000D01*
X41126507Y-82306306D01*
X41374197Y-82677000D01*
X41126507Y-83047694D01*
X40947624Y-83947000D01*
X41126507Y-84846306D01*
X41635923Y-85608701D01*
X42398318Y-86118117D01*
X43297624Y-86297000D01*
X44205376Y-86297000D01*
X44518500Y-86234716D01*
X44518500Y-89907921D01*
X43893505Y-89648400D01*
X42978509Y-89647601D01*
X42132857Y-89997018D01*
X41485292Y-90643453D01*
X41134400Y-91488495D01*
X41133601Y-92403491D01*
X41483018Y-93249143D01*
X41534000Y-93300214D01*
X41534000Y-93345000D01*
X41678629Y-94072099D01*
X41924787Y-94440500D01*
X42090497Y-94688503D01*
X42240238Y-94838244D01*
X42113071Y-94888134D01*
X42036430Y-94939344D01*
X42022326Y-95465616D01*
X43434000Y-96877289D01*
X43448142Y-96863147D01*
X43518853Y-96933858D01*
X43504711Y-96948000D01*
X43518853Y-96962142D01*
X43448142Y-97032853D01*
X43434000Y-97018711D01*
X42022326Y-98430384D01*
X42036430Y-98956656D01*
X42849537Y-99311542D01*
X42496095Y-100117880D01*
X42474989Y-101152008D01*
X42851233Y-102115496D01*
X42911340Y-102205454D01*
X43458384Y-102243905D01*
X45014289Y-100688000D01*
X45000147Y-100673858D01*
X45070858Y-100603147D01*
X45085000Y-100617289D01*
X46640905Y-99061384D01*
X46602454Y-98514340D01*
X45655120Y-98099095D01*
X45551158Y-98096973D01*
X45586912Y-98015054D01*
X45691401Y-98084871D01*
X46418500Y-98229500D01*
X47685000Y-98229500D01*
X47685000Y-99052234D01*
X47466839Y-99270015D01*
X47392444Y-99449177D01*
X47318767Y-99260504D01*
X47258660Y-99170546D01*
X46711616Y-99132095D01*
X45155711Y-100688000D01*
X46711616Y-102243905D01*
X47258660Y-102205454D01*
X47386493Y-101913817D01*
X47464367Y-102102286D01*
X47685000Y-102323304D01*
X47685000Y-105552234D01*
X47466839Y-105770015D01*
X47392444Y-105949177D01*
X47318767Y-105760504D01*
X47258660Y-105670546D01*
X46711616Y-105632095D01*
X45155711Y-107188000D01*
X46711616Y-108743905D01*
X47258660Y-108705454D01*
X47386493Y-108413817D01*
X47464367Y-108602286D01*
X48167015Y-109306161D01*
X49085538Y-109687565D01*
X50080099Y-109688433D01*
X50999286Y-109308633D01*
X51677976Y-108631126D01*
X52248015Y-109202161D01*
X53166538Y-109583565D01*
X54161099Y-109584433D01*
X55080286Y-109204633D01*
X55575165Y-108710616D01*
X56610095Y-108710616D01*
X56648546Y-109257660D01*
X57595880Y-109672905D01*
X58630008Y-109694011D01*
X59593496Y-109317767D01*
X59683454Y-109257660D01*
X59721905Y-108710616D01*
X58166000Y-107154711D01*
X56610095Y-108710616D01*
X55575165Y-108710616D01*
X55784161Y-108501985D01*
X55858556Y-108322823D01*
X55932233Y-108511496D01*
X55992340Y-108601454D01*
X56539384Y-108639905D01*
X58095289Y-107084000D01*
X58236711Y-107084000D01*
X59792616Y-108639905D01*
X60339660Y-108601454D01*
X60754905Y-107654120D01*
X60776011Y-106619992D01*
X60428322Y-105729627D01*
X63190481Y-105729627D01*
X63874082Y-107384068D01*
X65138774Y-108650969D01*
X66792020Y-109337457D01*
X68582127Y-109339019D01*
X68769456Y-109261616D01*
X77899826Y-109261616D01*
X79311500Y-110673289D01*
X80723174Y-109261616D01*
X80709070Y-108735344D01*
X79834007Y-108353417D01*
X78879397Y-108335434D01*
X77990571Y-108684134D01*
X77913930Y-108735344D01*
X77899826Y-109261616D01*
X68769456Y-109261616D01*
X70236568Y-108655418D01*
X71503469Y-107390726D01*
X72189957Y-105737480D01*
X72191519Y-103947373D01*
X71507918Y-102292932D01*
X70243226Y-101026031D01*
X68589980Y-100339543D01*
X66799873Y-100337981D01*
X65145432Y-101021582D01*
X63878531Y-102286274D01*
X63192043Y-103939520D01*
X63190481Y-105729627D01*
X60428322Y-105729627D01*
X60399767Y-105656504D01*
X60339660Y-105566546D01*
X59792616Y-105528095D01*
X58236711Y-107084000D01*
X58095289Y-107084000D01*
X56539384Y-105528095D01*
X55992340Y-105566546D01*
X55864507Y-105858183D01*
X55786633Y-105669714D01*
X55574673Y-105457384D01*
X56610095Y-105457384D01*
X58166000Y-107013289D01*
X59721905Y-105457384D01*
X59683454Y-104910340D01*
X58736120Y-104495095D01*
X57701992Y-104473989D01*
X56738504Y-104850233D01*
X56648546Y-104910340D01*
X56610095Y-105457384D01*
X55574673Y-105457384D01*
X55566000Y-105448696D01*
X55566000Y-102219766D01*
X55575165Y-102210616D01*
X56610095Y-102210616D01*
X56648546Y-102757660D01*
X57595880Y-103172905D01*
X58630008Y-103194011D01*
X59593496Y-102817767D01*
X59683454Y-102757660D01*
X59721905Y-102210616D01*
X58166000Y-100654711D01*
X56610095Y-102210616D01*
X55575165Y-102210616D01*
X55784161Y-102001985D01*
X55858556Y-101822823D01*
X55932233Y-102011496D01*
X55992340Y-102101454D01*
X56539384Y-102139905D01*
X58095289Y-100584000D01*
X58081147Y-100569858D01*
X58151858Y-100499147D01*
X58166000Y-100513289D01*
X58180142Y-100499147D01*
X58250853Y-100569858D01*
X58236711Y-100584000D01*
X59792616Y-102139905D01*
X60339660Y-102101454D01*
X60754905Y-101154120D01*
X60776011Y-100119992D01*
X60512966Y-99446384D01*
X62215326Y-99446384D01*
X62229430Y-99972656D01*
X63104493Y-100354583D01*
X64059103Y-100372566D01*
X64947929Y-100023866D01*
X65024570Y-99972656D01*
X65038674Y-99446384D01*
X63627000Y-98034711D01*
X62215326Y-99446384D01*
X60512966Y-99446384D01*
X60399767Y-99156504D01*
X60339660Y-99066546D01*
X59852727Y-99032320D01*
X60271503Y-98752503D01*
X61229772Y-97794234D01*
X61218434Y-98396103D01*
X61567134Y-99284929D01*
X61618344Y-99361570D01*
X62144616Y-99375674D01*
X63556289Y-97964000D01*
X63697711Y-97964000D01*
X65109384Y-99375674D01*
X65635656Y-99361570D01*
X66017583Y-98486507D01*
X66035566Y-97531897D01*
X65921247Y-97240500D01*
X72045000Y-97240500D01*
X72045000Y-97858760D01*
X72288586Y-98446827D01*
X72738673Y-98896915D01*
X73326740Y-99140500D01*
X73845000Y-99140500D01*
X74245000Y-98740500D01*
X74245000Y-96840500D01*
X72445000Y-96840500D01*
X72045000Y-97240500D01*
X65921247Y-97240500D01*
X65686866Y-96643071D01*
X65635656Y-96566430D01*
X65109384Y-96552326D01*
X63697711Y-97964000D01*
X63556289Y-97964000D01*
X63542147Y-97949858D01*
X63612858Y-97879147D01*
X63627000Y-97893289D01*
X65038674Y-96481616D01*
X65024570Y-95955344D01*
X64149507Y-95573417D01*
X63463512Y-95560494D01*
X63759889Y-95264117D01*
X64082491Y-95264399D01*
X64928143Y-94914982D01*
X65575708Y-94268547D01*
X65926600Y-93423505D01*
X65927399Y-92508509D01*
X65577982Y-91662857D01*
X64931547Y-91015292D01*
X64161750Y-90695644D01*
X64161750Y-79553475D01*
X64178708Y-79536547D01*
X64529600Y-78691505D01*
X64530399Y-77776509D01*
X64218022Y-77020500D01*
X72428494Y-77020500D01*
X74963998Y-79556004D01*
X74963998Y-79829756D01*
X74644020Y-79462663D01*
X74275692Y-79565913D01*
X73599786Y-79994076D01*
X73139181Y-80648305D01*
X72964000Y-81429000D01*
X72964000Y-82229000D01*
X74334000Y-82229000D01*
X74334000Y-82329000D01*
X72964000Y-82329000D01*
X72964000Y-83129000D01*
X73139181Y-83909695D01*
X73599786Y-84563924D01*
X74275692Y-84992087D01*
X74384000Y-85022448D01*
X74384000Y-85107994D01*
X73713380Y-85778614D01*
X73645000Y-85778614D01*
X73089133Y-85883207D01*
X72578604Y-86211724D01*
X72236108Y-86712983D01*
X72115614Y-87308000D01*
X72115614Y-88808000D01*
X72220207Y-89363867D01*
X72244196Y-89401146D01*
X72236108Y-89412983D01*
X72115614Y-90008000D01*
X72115614Y-91508000D01*
X72220207Y-92063867D01*
X72395000Y-92335503D01*
X72395000Y-92512937D01*
X72236108Y-92745483D01*
X72115614Y-93340500D01*
X72115614Y-94840500D01*
X72207642Y-95329589D01*
X72045000Y-95722240D01*
X72045000Y-96340500D01*
X72445000Y-96740500D01*
X74245000Y-96740500D01*
X74245000Y-96720500D01*
X74345000Y-96720500D01*
X74345000Y-96740500D01*
X74365000Y-96740500D01*
X74365000Y-96840500D01*
X74345000Y-96840500D01*
X74345000Y-98740500D01*
X74745000Y-99140500D01*
X75263260Y-99140500D01*
X75851327Y-98896915D01*
X75977750Y-98770492D01*
X76040673Y-98833415D01*
X76628740Y-99077000D01*
X77147000Y-99077000D01*
X77547000Y-98677000D01*
X77547000Y-96777000D01*
X77647000Y-96777000D01*
X77647000Y-98677000D01*
X78047000Y-99077000D01*
X78565260Y-99077000D01*
X79153327Y-98833415D01*
X79603414Y-98383327D01*
X79847000Y-97795260D01*
X79847000Y-97177000D01*
X79447000Y-96777000D01*
X77647000Y-96777000D01*
X77547000Y-96777000D01*
X77527000Y-96777000D01*
X77527000Y-96677000D01*
X77547000Y-96677000D01*
X77547000Y-96657000D01*
X77647000Y-96657000D01*
X77647000Y-96677000D01*
X79447000Y-96677000D01*
X79847000Y-96277000D01*
X79847000Y-95658740D01*
X79679646Y-95254714D01*
X79776386Y-94777000D01*
X79776386Y-93277000D01*
X79671793Y-92721133D01*
X79497000Y-92449497D01*
X79497000Y-92208563D01*
X79655892Y-91976017D01*
X79661360Y-91949016D01*
X79911916Y-92324000D01*
X80020497Y-92486503D01*
X80126997Y-92593003D01*
X80743402Y-93004872D01*
X81470500Y-93149500D01*
X84590147Y-93149500D01*
X84926768Y-93374423D01*
X85806940Y-93549500D01*
X85897060Y-93549500D01*
X85920500Y-93544837D01*
X85920500Y-95808908D01*
X85533629Y-96387901D01*
X85389000Y-97115000D01*
X85389000Y-97170234D01*
X85170839Y-97388015D01*
X84789435Y-98306538D01*
X84788567Y-99301099D01*
X85168367Y-100220286D01*
X85871015Y-100924161D01*
X86789538Y-101305565D01*
X87784099Y-101306433D01*
X88539724Y-100994215D01*
X89289538Y-101305565D01*
X90284099Y-101306433D01*
X90527533Y-101205848D01*
X91010740Y-101406000D01*
X91879000Y-101406000D01*
X92279000Y-101006000D01*
X92279000Y-99328497D01*
X92288565Y-99305462D01*
X92289062Y-98736000D01*
X92379000Y-98736000D01*
X92379000Y-98756000D01*
X92399000Y-98756000D01*
X92399000Y-98856000D01*
X92379000Y-98856000D01*
X92379000Y-101006000D01*
X92779000Y-101406000D01*
X93159500Y-101406000D01*
X93159500Y-102472494D01*
X92269158Y-103362836D01*
X91960901Y-103362567D01*
X91041714Y-103742367D01*
X90820696Y-103963000D01*
X87591766Y-103963000D01*
X87373985Y-103744839D01*
X86455462Y-103363435D01*
X85460901Y-103362567D01*
X84541714Y-103742367D01*
X84320696Y-103963000D01*
X80783462Y-103963000D01*
X80616047Y-103795292D01*
X79771005Y-103444400D01*
X78856009Y-103443601D01*
X78010357Y-103793018D01*
X77362792Y-104439453D01*
X77011900Y-105284495D01*
X77011101Y-106199491D01*
X77360518Y-107045143D01*
X78006953Y-107692708D01*
X78851995Y-108043600D01*
X79766991Y-108044399D01*
X80448027Y-107763000D01*
X84320234Y-107763000D01*
X84538015Y-107981161D01*
X84717177Y-108055556D01*
X84528504Y-108129233D01*
X84438546Y-108189340D01*
X84400095Y-108736384D01*
X85956000Y-110292289D01*
X87511905Y-108736384D01*
X87473454Y-108189340D01*
X87181817Y-108061507D01*
X87370286Y-107983633D01*
X87591304Y-107763000D01*
X90820234Y-107763000D01*
X91038015Y-107981161D01*
X91217177Y-108055556D01*
X91028504Y-108129233D01*
X90938546Y-108189340D01*
X90900095Y-108736384D01*
X92456000Y-110292289D01*
X94011905Y-108736384D01*
X93973454Y-108189340D01*
X93681817Y-108061507D01*
X93870286Y-107983633D01*
X94574161Y-107280985D01*
X94860805Y-106590669D01*
X95163871Y-106137099D01*
X95237111Y-105768895D01*
X96403003Y-104603003D01*
X96475105Y-104495095D01*
X96525000Y-104420422D01*
X96525000Y-105981500D01*
X96669629Y-106708599D01*
X96879037Y-107022000D01*
X97081497Y-107325003D01*
X97271997Y-107515503D01*
X97888402Y-107927372D01*
X98615500Y-108072000D01*
X99785000Y-108072000D01*
X99785000Y-108262000D01*
X100185000Y-108662000D01*
X102185000Y-108662000D01*
X102185000Y-108642000D01*
X102285000Y-108642000D01*
X102285000Y-108662000D01*
X104285000Y-108662000D01*
X104685000Y-108262000D01*
X104685000Y-108072000D01*
X108421000Y-108072000D01*
X108421000Y-108262000D01*
X108821000Y-108662000D01*
X110821000Y-108662000D01*
X110821000Y-108642000D01*
X110921000Y-108642000D01*
X110921000Y-108662000D01*
X112921000Y-108662000D01*
X113321000Y-108262000D01*
X113321000Y-108072000D01*
X116930000Y-108072000D01*
X116930000Y-108262000D01*
X117330000Y-108662000D01*
X119330000Y-108662000D01*
X119330000Y-108642000D01*
X119430000Y-108642000D01*
X119430000Y-108662000D01*
X121430000Y-108662000D01*
X121830000Y-108262000D01*
X121830000Y-108072000D01*
X125502500Y-108072000D01*
X125502500Y-108262000D01*
X125902500Y-108662000D01*
X127902500Y-108662000D01*
X127902500Y-108642000D01*
X128002500Y-108642000D01*
X128002500Y-108662000D01*
X130002500Y-108662000D01*
X130402500Y-108262000D01*
X130402500Y-108072000D01*
X132532500Y-108072000D01*
X132532500Y-109352000D01*
X130402500Y-109352000D01*
X130402500Y-109162000D01*
X130002500Y-108762000D01*
X128002500Y-108762000D01*
X128002500Y-108782000D01*
X127902500Y-108782000D01*
X127902500Y-108762000D01*
X125902500Y-108762000D01*
X125502500Y-109162000D01*
X125502500Y-109352000D01*
X121830000Y-109352000D01*
X121830000Y-109162000D01*
X121430000Y-108762000D01*
X119430000Y-108762000D01*
X119430000Y-108782000D01*
X119330000Y-108782000D01*
X119330000Y-108762000D01*
X117330000Y-108762000D01*
X116930000Y-109162000D01*
X116930000Y-109352000D01*
X113321000Y-109352000D01*
X113321000Y-109162000D01*
X112921000Y-108762000D01*
X110921000Y-108762000D01*
X110921000Y-108782000D01*
X110821000Y-108782000D01*
X110821000Y-108762000D01*
X108821000Y-108762000D01*
X108421000Y-109162000D01*
X108421000Y-109352000D01*
X104685000Y-109352000D01*
X104685000Y-109162000D01*
X104285000Y-108762000D01*
X102285000Y-108762000D01*
X102285000Y-108782000D01*
X102185000Y-108782000D01*
X102185000Y-108762000D01*
X100185000Y-108762000D01*
X99785000Y-109162000D01*
X99785000Y-109880260D01*
X99903389Y-110166078D01*
X99855614Y-110402000D01*
X99855614Y-112102000D01*
X99959479Y-112654000D01*
X93736933Y-112654000D01*
X93883496Y-112596767D01*
X93973454Y-112536660D01*
X94011905Y-111989616D01*
X92456000Y-110433711D01*
X90900095Y-111989616D01*
X90938546Y-112536660D01*
X91206244Y-112654000D01*
X87236933Y-112654000D01*
X87383496Y-112596767D01*
X87473454Y-112536660D01*
X87511905Y-111989616D01*
X85956000Y-110433711D01*
X84400095Y-111989616D01*
X84438546Y-112536660D01*
X84706244Y-112654000D01*
X80711714Y-112654000D01*
X80723174Y-112226384D01*
X79311500Y-110814711D01*
X77899826Y-112226384D01*
X77911286Y-112654000D01*
X40665006Y-112654000D01*
X39187109Y-111176103D01*
X76902934Y-111176103D01*
X77251634Y-112064929D01*
X77302844Y-112141570D01*
X77829116Y-112155674D01*
X79240789Y-110744000D01*
X79382211Y-110744000D01*
X80793884Y-112155674D01*
X81320156Y-112141570D01*
X81702083Y-111266507D01*
X81710362Y-110827008D01*
X83345989Y-110827008D01*
X83722233Y-111790496D01*
X83782340Y-111880454D01*
X84329384Y-111918905D01*
X85885289Y-110363000D01*
X86026711Y-110363000D01*
X87582616Y-111918905D01*
X88129660Y-111880454D01*
X88544905Y-110933120D01*
X88547070Y-110827008D01*
X89845989Y-110827008D01*
X90222233Y-111790496D01*
X90282340Y-111880454D01*
X90829384Y-111918905D01*
X92385289Y-110363000D01*
X92526711Y-110363000D01*
X94082616Y-111918905D01*
X94629660Y-111880454D01*
X95044905Y-110933120D01*
X95066011Y-109898992D01*
X94689767Y-108935504D01*
X94629660Y-108845546D01*
X94082616Y-108807095D01*
X92526711Y-110363000D01*
X92385289Y-110363000D01*
X90829384Y-108807095D01*
X90282340Y-108845546D01*
X89867095Y-109792880D01*
X89845989Y-110827008D01*
X88547070Y-110827008D01*
X88566011Y-109898992D01*
X88189767Y-108935504D01*
X88129660Y-108845546D01*
X87582616Y-108807095D01*
X86026711Y-110363000D01*
X85885289Y-110363000D01*
X84329384Y-108807095D01*
X83782340Y-108845546D01*
X83367095Y-109792880D01*
X83345989Y-110827008D01*
X81710362Y-110827008D01*
X81720066Y-110311897D01*
X81371366Y-109423071D01*
X81320156Y-109346430D01*
X80793884Y-109332326D01*
X79382211Y-110744000D01*
X79240789Y-110744000D01*
X77829116Y-109332326D01*
X77302844Y-109346430D01*
X76920917Y-110221493D01*
X76902934Y-111176103D01*
X39187109Y-111176103D01*
X38857000Y-110845994D01*
X38857000Y-108814616D01*
X43529095Y-108814616D01*
X43567546Y-109361660D01*
X44514880Y-109776905D01*
X45549008Y-109798011D01*
X46512496Y-109421767D01*
X46602454Y-109361660D01*
X46640905Y-108814616D01*
X45085000Y-107258711D01*
X43529095Y-108814616D01*
X38857000Y-108814616D01*
X38857000Y-107652008D01*
X42474989Y-107652008D01*
X42851233Y-108615496D01*
X42911340Y-108705454D01*
X43458384Y-108743905D01*
X45014289Y-107188000D01*
X43458384Y-105632095D01*
X42911340Y-105670546D01*
X42496095Y-106617880D01*
X42474989Y-107652008D01*
X38857000Y-107652008D01*
X38857000Y-105561384D01*
X43529095Y-105561384D01*
X45085000Y-107117289D01*
X46640905Y-105561384D01*
X46602454Y-105014340D01*
X45655120Y-104599095D01*
X44620992Y-104577989D01*
X43657504Y-104954233D01*
X43567546Y-105014340D01*
X43529095Y-105561384D01*
X38857000Y-105561384D01*
X38857000Y-102314616D01*
X43529095Y-102314616D01*
X43567546Y-102861660D01*
X44514880Y-103276905D01*
X45549008Y-103298011D01*
X46512496Y-102921767D01*
X46602454Y-102861660D01*
X46640905Y-102314616D01*
X45085000Y-100758711D01*
X43529095Y-102314616D01*
X38857000Y-102314616D01*
X38857000Y-97380103D01*
X41025434Y-97380103D01*
X41374134Y-98268929D01*
X41425344Y-98345570D01*
X41951616Y-98359674D01*
X43363289Y-96948000D01*
X41951616Y-95536326D01*
X41425344Y-95550430D01*
X41043417Y-96425493D01*
X41025434Y-97380103D01*
X38857000Y-97380103D01*
X38857000Y-91062471D01*
X38984000Y-90424000D01*
X38857000Y-89785529D01*
X38857000Y-57997384D01*
X42356326Y-57997384D01*
X42370430Y-58523656D01*
X43245493Y-58905583D01*
X44200103Y-58923566D01*
X45088929Y-58574866D01*
X45165570Y-58523656D01*
X45179674Y-57997384D01*
X43768000Y-56585711D01*
X42356326Y-57997384D01*
X38857000Y-57997384D01*
X38857000Y-56947103D01*
X41359434Y-56947103D01*
X41708134Y-57835929D01*
X41759344Y-57912570D01*
X42285616Y-57926674D01*
X43697289Y-56515000D01*
X43838711Y-56515000D01*
X45250384Y-57926674D01*
X45776656Y-57912570D01*
X46158583Y-57037507D01*
X46176566Y-56082897D01*
X45827866Y-55194071D01*
X45776656Y-55117430D01*
X45250384Y-55103326D01*
X43838711Y-56515000D01*
X43697289Y-56515000D01*
X42285616Y-55103326D01*
X41759344Y-55117430D01*
X41377417Y-55992493D01*
X41359434Y-56947103D01*
X38857000Y-56947103D01*
X38857000Y-55032616D01*
X42356326Y-55032616D01*
X43768000Y-56444289D01*
X45179674Y-55032616D01*
X45165570Y-54506344D01*
X44290507Y-54124417D01*
X43335897Y-54106434D01*
X42447071Y-54455134D01*
X42370430Y-54506344D01*
X42356326Y-55032616D01*
X38857000Y-55032616D01*
X38857000Y-45028000D01*
X42799000Y-45028000D01*
X42799000Y-46646260D01*
X43042585Y-47234327D01*
X43492673Y-47684414D01*
X44080740Y-47928000D01*
X45699000Y-47928000D01*
X46099000Y-47528000D01*
X46099000Y-44628000D01*
X43199000Y-44628000D01*
X42799000Y-45028000D01*
X38857000Y-45028000D01*
X38857000Y-38252006D01*
X40538006Y-36571000D01*
X40976929Y-36571000D01*
X40492673Y-36771586D01*
G36*
X73985337Y-61749843D02*
X73599786Y-61994076D01*
X73139181Y-62648305D01*
X72964000Y-63429000D01*
X72964000Y-64229000D01*
X74334000Y-64229000D01*
X74334000Y-64329000D01*
X72964000Y-64329000D01*
X72964000Y-65129000D01*
X73139181Y-65909695D01*
X73599786Y-66563924D01*
X74275692Y-66992087D01*
X74644020Y-67095337D01*
X74964000Y-66728242D01*
X74964000Y-66551062D01*
X75064000Y-66617880D01*
X75064000Y-66728242D01*
X75383980Y-67095337D01*
X75752308Y-66992087D01*
X75770294Y-66980694D01*
X76284000Y-67082876D01*
X76919000Y-66956567D01*
X77554000Y-67082876D01*
X78189000Y-66956567D01*
X78824000Y-67082876D01*
X79459000Y-66956567D01*
X80094000Y-67082876D01*
X80729000Y-66956567D01*
X81364000Y-67082876D01*
X81999000Y-66956567D01*
X82634000Y-67082876D01*
X83269000Y-66956567D01*
X83904000Y-67082876D01*
X84539000Y-66956567D01*
X85174000Y-67082876D01*
X85809000Y-66956567D01*
X86444000Y-67082876D01*
X87079000Y-66956567D01*
X87714000Y-67082876D01*
X88349000Y-66956567D01*
X88984000Y-67082876D01*
X89619000Y-66956567D01*
X90230149Y-67078132D01*
X90197663Y-67194020D01*
X90564758Y-67514000D01*
X90741938Y-67514000D01*
X90675120Y-67614000D01*
X90564758Y-67614000D01*
X90197663Y-67933980D01*
X90300913Y-68302308D01*
X90312306Y-68320294D01*
X90210124Y-68834000D01*
X90336433Y-69469000D01*
X90210124Y-70104000D01*
X90336433Y-70739000D01*
X90210124Y-71374000D01*
X90336433Y-72009000D01*
X90210124Y-72644000D01*
X90336433Y-73279000D01*
X90210124Y-73914000D01*
X90336433Y-74549000D01*
X90210124Y-75184000D01*
X90336433Y-75819000D01*
X90210124Y-76454000D01*
X90336433Y-77089000D01*
X90293741Y-77303630D01*
X90135099Y-77197629D01*
X89408000Y-77053000D01*
X86902741Y-77053000D01*
X87070414Y-76885327D01*
X87314000Y-76297260D01*
X87314000Y-73429000D01*
X86914000Y-73029000D01*
X82764000Y-73029000D01*
X82764000Y-73049000D01*
X82664000Y-73049000D01*
X82664000Y-73029000D01*
X82644000Y-73029000D01*
X82644000Y-72929000D01*
X82664000Y-72929000D01*
X82664000Y-68779000D01*
X82764000Y-68779000D01*
X82764000Y-72929000D01*
X86914000Y-72929000D01*
X87314000Y-72529000D01*
X87314000Y-69660740D01*
X87070414Y-69072673D01*
X86620327Y-68622585D01*
X86032260Y-68379000D01*
X83164000Y-68379000D01*
X82764000Y-68779000D01*
X82664000Y-68779000D01*
X82264000Y-68379000D01*
X79395740Y-68379000D01*
X78807673Y-68622585D01*
X78357586Y-69072673D01*
X78114000Y-69660740D01*
X78114000Y-72529000D01*
X78513998Y-72928998D01*
X78156004Y-72928998D01*
X76957000Y-71729994D01*
X76957000Y-71183500D01*
X76812371Y-70456401D01*
X76400503Y-69839997D01*
X74495503Y-67934997D01*
X74378772Y-67857000D01*
X73879099Y-67523129D01*
X73152000Y-67378500D01*
X63583170Y-67378500D01*
X63534547Y-67329792D01*
X62689505Y-66978900D01*
X61774509Y-66978101D01*
X60928857Y-67327518D01*
X60281292Y-67973953D01*
X59930400Y-68818995D01*
X59929601Y-69733991D01*
X60279018Y-70579643D01*
X60823423Y-71125000D01*
X53925275Y-71125000D01*
X53925899Y-70410509D01*
X53837921Y-70197585D01*
X59001503Y-65034003D01*
X59099714Y-64887020D01*
X59413371Y-64417599D01*
X59558000Y-63690500D01*
X59558000Y-61780500D01*
X60940330Y-61780500D01*
X60988953Y-61829208D01*
X61833995Y-62180100D01*
X62668823Y-62180829D01*
X63997997Y-63510003D01*
X64614401Y-63921871D01*
X65341500Y-64066500D01*
X69068330Y-64066500D01*
X69116953Y-64115208D01*
X69961995Y-64466100D01*
X70876991Y-64466899D01*
X71722643Y-64117482D01*
X72370208Y-63471047D01*
X72721100Y-62626005D01*
X72721855Y-61761775D01*
X73075929Y-61622866D01*
X73152570Y-61571656D01*
X73166674Y-61045384D01*
X71755000Y-59633711D01*
X71740858Y-59647853D01*
X71670147Y-59577142D01*
X71684289Y-59563000D01*
X70818375Y-58697086D01*
X70744646Y-58509152D01*
X73985337Y-61749843D01*
X73985337Y-61749843D01*
G37*
X73985337Y-61749843D02*
X73599786Y-61994076D01*
X73139181Y-62648305D01*
X72964000Y-63429000D01*
X72964000Y-64229000D01*
X74334000Y-64229000D01*
X74334000Y-64329000D01*
X72964000Y-64329000D01*
X72964000Y-65129000D01*
X73139181Y-65909695D01*
X73599786Y-66563924D01*
X74275692Y-66992087D01*
X74644020Y-67095337D01*
X74964000Y-66728242D01*
X74964000Y-66551062D01*
X75064000Y-66617880D01*
X75064000Y-66728242D01*
X75383980Y-67095337D01*
X75752308Y-66992087D01*
X75770294Y-66980694D01*
X76284000Y-67082876D01*
X76919000Y-66956567D01*
X77554000Y-67082876D01*
X78189000Y-66956567D01*
X78824000Y-67082876D01*
X79459000Y-66956567D01*
X80094000Y-67082876D01*
X80729000Y-66956567D01*
X81364000Y-67082876D01*
X81999000Y-66956567D01*
X82634000Y-67082876D01*
X83269000Y-66956567D01*
X83904000Y-67082876D01*
X84539000Y-66956567D01*
X85174000Y-67082876D01*
X85809000Y-66956567D01*
X86444000Y-67082876D01*
X87079000Y-66956567D01*
X87714000Y-67082876D01*
X88349000Y-66956567D01*
X88984000Y-67082876D01*
X89619000Y-66956567D01*
X90230149Y-67078132D01*
X90197663Y-67194020D01*
X90564758Y-67514000D01*
X90741938Y-67514000D01*
X90675120Y-67614000D01*
X90564758Y-67614000D01*
X90197663Y-67933980D01*
X90300913Y-68302308D01*
X90312306Y-68320294D01*
X90210124Y-68834000D01*
X90336433Y-69469000D01*
X90210124Y-70104000D01*
X90336433Y-70739000D01*
X90210124Y-71374000D01*
X90336433Y-72009000D01*
X90210124Y-72644000D01*
X90336433Y-73279000D01*
X90210124Y-73914000D01*
X90336433Y-74549000D01*
X90210124Y-75184000D01*
X90336433Y-75819000D01*
X90210124Y-76454000D01*
X90336433Y-77089000D01*
X90293741Y-77303630D01*
X90135099Y-77197629D01*
X89408000Y-77053000D01*
X86902741Y-77053000D01*
X87070414Y-76885327D01*
X87314000Y-76297260D01*
X87314000Y-73429000D01*
X86914000Y-73029000D01*
X82764000Y-73029000D01*
X82764000Y-73049000D01*
X82664000Y-73049000D01*
X82664000Y-73029000D01*
X82644000Y-73029000D01*
X82644000Y-72929000D01*
X82664000Y-72929000D01*
X82664000Y-68779000D01*
X82764000Y-68779000D01*
X82764000Y-72929000D01*
X86914000Y-72929000D01*
X87314000Y-72529000D01*
X87314000Y-69660740D01*
X87070414Y-69072673D01*
X86620327Y-68622585D01*
X86032260Y-68379000D01*
X83164000Y-68379000D01*
X82764000Y-68779000D01*
X82664000Y-68779000D01*
X82264000Y-68379000D01*
X79395740Y-68379000D01*
X78807673Y-68622585D01*
X78357586Y-69072673D01*
X78114000Y-69660740D01*
X78114000Y-72529000D01*
X78513998Y-72928998D01*
X78156004Y-72928998D01*
X76957000Y-71729994D01*
X76957000Y-71183500D01*
X76812371Y-70456401D01*
X76400503Y-69839997D01*
X74495503Y-67934997D01*
X74378772Y-67857000D01*
X73879099Y-67523129D01*
X73152000Y-67378500D01*
X63583170Y-67378500D01*
X63534547Y-67329792D01*
X62689505Y-66978900D01*
X61774509Y-66978101D01*
X60928857Y-67327518D01*
X60281292Y-67973953D01*
X59930400Y-68818995D01*
X59929601Y-69733991D01*
X60279018Y-70579643D01*
X60823423Y-71125000D01*
X53925275Y-71125000D01*
X53925899Y-70410509D01*
X53837921Y-70197585D01*
X59001503Y-65034003D01*
X59099714Y-64887020D01*
X59413371Y-64417599D01*
X59558000Y-63690500D01*
X59558000Y-61780500D01*
X60940330Y-61780500D01*
X60988953Y-61829208D01*
X61833995Y-62180100D01*
X62668823Y-62180829D01*
X63997997Y-63510003D01*
X64614401Y-63921871D01*
X65341500Y-64066500D01*
X69068330Y-64066500D01*
X69116953Y-64115208D01*
X69961995Y-64466100D01*
X70876991Y-64466899D01*
X71722643Y-64117482D01*
X72370208Y-63471047D01*
X72721100Y-62626005D01*
X72721855Y-61761775D01*
X73075929Y-61622866D01*
X73152570Y-61571656D01*
X73166674Y-61045384D01*
X71755000Y-59633711D01*
X71740858Y-59647853D01*
X71670147Y-59577142D01*
X71684289Y-59563000D01*
X70818375Y-58697086D01*
X70744646Y-58509152D01*
X73985337Y-61749843D01*
G36*
X96358453Y-37318208D02*
X97081740Y-37618543D01*
X96488857Y-37863518D01*
X95841292Y-38509953D01*
X95490400Y-39354995D01*
X95489601Y-40269991D01*
X95839018Y-41115643D01*
X95890000Y-41166714D01*
X95890000Y-54711994D01*
X95859994Y-54742000D01*
X95091112Y-54742000D01*
X94971346Y-54562758D01*
X94225172Y-54064181D01*
X93345000Y-53889104D01*
X92464828Y-54064181D01*
X92075000Y-54324655D01*
X91685172Y-54064181D01*
X90805000Y-53889104D01*
X89924828Y-54064181D01*
X89535000Y-54324655D01*
X89145172Y-54064181D01*
X88265000Y-53889104D01*
X87384828Y-54064181D01*
X86995000Y-54324655D01*
X86605172Y-54064181D01*
X86131692Y-53970000D01*
X87058500Y-53970000D01*
X87785599Y-53825371D01*
X88402003Y-53413503D01*
X89799003Y-52016503D01*
X89858142Y-51927995D01*
X90059521Y-51626611D01*
X90805000Y-51774896D01*
X91685172Y-51599819D01*
X91796064Y-51525723D01*
X91949983Y-51630892D01*
X92545000Y-51751386D01*
X94145000Y-51751386D01*
X94700867Y-51646793D01*
X95211396Y-51318276D01*
X95553892Y-50817017D01*
X95674386Y-50222000D01*
X95674386Y-47822000D01*
X95569793Y-47266133D01*
X95259371Y-46783724D01*
X95535152Y-46119570D01*
X95535846Y-45323921D01*
X95232006Y-44588571D01*
X94669888Y-44025471D01*
X93935070Y-43720348D01*
X93139421Y-43719654D01*
X92404071Y-44023494D01*
X92265752Y-44161572D01*
X92129888Y-44025471D01*
X91395070Y-43720348D01*
X90599421Y-43719654D01*
X89864071Y-44023494D01*
X89300971Y-44585612D01*
X89154459Y-44938453D01*
X83576003Y-39359997D01*
X83479490Y-39295509D01*
X82959599Y-38948129D01*
X82232500Y-38803500D01*
X82168149Y-38803500D01*
X81827729Y-38462485D01*
X80855931Y-38058960D01*
X79803685Y-38058041D01*
X78831185Y-38459870D01*
X78086485Y-39203271D01*
X77682960Y-40175069D01*
X77682041Y-41227315D01*
X78083870Y-42199815D01*
X78827271Y-42944515D01*
X79799069Y-43348040D01*
X80851315Y-43348959D01*
X81799267Y-42957273D01*
X85145373Y-46303379D01*
X84852754Y-46385555D01*
X84063299Y-46889588D01*
X83526823Y-47657366D01*
X83325000Y-48572000D01*
X83325000Y-48972000D01*
X85675000Y-48972000D01*
X85675000Y-48952000D01*
X85775000Y-48952000D01*
X85775000Y-48972000D01*
X85795000Y-48972000D01*
X85795000Y-49072000D01*
X85775000Y-49072000D01*
X85775000Y-49092000D01*
X85675000Y-49092000D01*
X85675000Y-49072000D01*
X83325000Y-49072000D01*
X83325000Y-49472000D01*
X83479021Y-50170000D01*
X82902847Y-50170000D01*
X82571130Y-49367185D01*
X81827729Y-48622485D01*
X80855931Y-48218960D01*
X79803685Y-48218041D01*
X78831185Y-48619870D01*
X78086485Y-49363271D01*
X77682960Y-50335069D01*
X77682041Y-51387315D01*
X78083870Y-52359815D01*
X78827271Y-53104515D01*
X79799069Y-53508040D01*
X80459845Y-53508617D01*
X80933902Y-53825372D01*
X81661000Y-53970000D01*
X85318308Y-53970000D01*
X84844828Y-54064181D01*
X84098654Y-54562758D01*
X83600077Y-55308932D01*
X83425000Y-56189104D01*
X83425000Y-57094896D01*
X83600077Y-57975068D01*
X84098654Y-58721242D01*
X84544000Y-59018812D01*
X84544000Y-61600439D01*
X84539000Y-61601433D01*
X83904000Y-61475124D01*
X83269000Y-61601433D01*
X82634000Y-61475124D01*
X81999000Y-61601433D01*
X81364000Y-61475124D01*
X80729000Y-61601433D01*
X80094000Y-61475124D01*
X79459000Y-61601433D01*
X79454000Y-61600439D01*
X79454000Y-60909554D01*
X79769600Y-60149505D01*
X79770399Y-59234509D01*
X79420982Y-58388857D01*
X78774547Y-57741292D01*
X77929505Y-57390400D01*
X77014509Y-57389601D01*
X76168857Y-57739018D01*
X75758332Y-58148826D01*
X73655000Y-56045494D01*
X73655000Y-55916170D01*
X73703708Y-55867547D01*
X74054600Y-55022505D01*
X74055399Y-54107509D01*
X73705982Y-53261857D01*
X73059547Y-52614292D01*
X72214505Y-52263400D01*
X71299509Y-52262601D01*
X70453857Y-52612018D01*
X70402786Y-52663000D01*
X69933170Y-52663000D01*
X69884547Y-52614292D01*
X69039505Y-52263400D01*
X68124509Y-52262601D01*
X68102996Y-52271490D01*
X66645000Y-50813494D01*
X66645000Y-47853286D01*
X73586086Y-47997892D01*
X73781392Y-47962559D01*
X73947564Y-47854025D01*
X74058419Y-47689391D01*
X74093181Y-47514679D01*
X75367032Y-47514679D01*
X75423133Y-48076787D01*
X76422861Y-48516185D01*
X77514640Y-48539556D01*
X78532256Y-48143343D01*
X78631867Y-48076787D01*
X78687968Y-47514679D01*
X77027500Y-45854211D01*
X75367032Y-47514679D01*
X74093181Y-47514679D01*
X74096500Y-47498000D01*
X74096500Y-46270640D01*
X74271444Y-46270640D01*
X74667657Y-47288256D01*
X74734213Y-47387867D01*
X75296321Y-47443968D01*
X76956789Y-45783500D01*
X77098211Y-45783500D01*
X78758679Y-47443968D01*
X79320787Y-47387867D01*
X79760185Y-46388139D01*
X79783556Y-45296360D01*
X79387343Y-44278744D01*
X79320787Y-44179133D01*
X78758679Y-44123032D01*
X77098211Y-45783500D01*
X76956789Y-45783500D01*
X75296321Y-44123032D01*
X74734213Y-44179133D01*
X74294815Y-45178861D01*
X74271444Y-46270640D01*
X74096500Y-46270640D01*
X74096500Y-44052321D01*
X75367032Y-44052321D01*
X77027500Y-45712789D01*
X78687968Y-44052321D01*
X78631867Y-43490213D01*
X77632139Y-43050815D01*
X76540360Y-43027444D01*
X75522744Y-43423657D01*
X75423133Y-43490213D01*
X75367032Y-44052321D01*
X74096500Y-44052321D01*
X74096500Y-39842506D01*
X76733006Y-37206000D01*
X96246441Y-37206000D01*
X96358453Y-37318208D01*
X96358453Y-37318208D01*
G37*
X96358453Y-37318208D02*
X97081740Y-37618543D01*
X96488857Y-37863518D01*
X95841292Y-38509953D01*
X95490400Y-39354995D01*
X95489601Y-40269991D01*
X95839018Y-41115643D01*
X95890000Y-41166714D01*
X95890000Y-54711994D01*
X95859994Y-54742000D01*
X95091112Y-54742000D01*
X94971346Y-54562758D01*
X94225172Y-54064181D01*
X93345000Y-53889104D01*
X92464828Y-54064181D01*
X92075000Y-54324655D01*
X91685172Y-54064181D01*
X90805000Y-53889104D01*
X89924828Y-54064181D01*
X89535000Y-54324655D01*
X89145172Y-54064181D01*
X88265000Y-53889104D01*
X87384828Y-54064181D01*
X86995000Y-54324655D01*
X86605172Y-54064181D01*
X86131692Y-53970000D01*
X87058500Y-53970000D01*
X87785599Y-53825371D01*
X88402003Y-53413503D01*
X89799003Y-52016503D01*
X89858142Y-51927995D01*
X90059521Y-51626611D01*
X90805000Y-51774896D01*
X91685172Y-51599819D01*
X91796064Y-51525723D01*
X91949983Y-51630892D01*
X92545000Y-51751386D01*
X94145000Y-51751386D01*
X94700867Y-51646793D01*
X95211396Y-51318276D01*
X95553892Y-50817017D01*
X95674386Y-50222000D01*
X95674386Y-47822000D01*
X95569793Y-47266133D01*
X95259371Y-46783724D01*
X95535152Y-46119570D01*
X95535846Y-45323921D01*
X95232006Y-44588571D01*
X94669888Y-44025471D01*
X93935070Y-43720348D01*
X93139421Y-43719654D01*
X92404071Y-44023494D01*
X92265752Y-44161572D01*
X92129888Y-44025471D01*
X91395070Y-43720348D01*
X90599421Y-43719654D01*
X89864071Y-44023494D01*
X89300971Y-44585612D01*
X89154459Y-44938453D01*
X83576003Y-39359997D01*
X83479490Y-39295509D01*
X82959599Y-38948129D01*
X82232500Y-38803500D01*
X82168149Y-38803500D01*
X81827729Y-38462485D01*
X80855931Y-38058960D01*
X79803685Y-38058041D01*
X78831185Y-38459870D01*
X78086485Y-39203271D01*
X77682960Y-40175069D01*
X77682041Y-41227315D01*
X78083870Y-42199815D01*
X78827271Y-42944515D01*
X79799069Y-43348040D01*
X80851315Y-43348959D01*
X81799267Y-42957273D01*
X85145373Y-46303379D01*
X84852754Y-46385555D01*
X84063299Y-46889588D01*
X83526823Y-47657366D01*
X83325000Y-48572000D01*
X83325000Y-48972000D01*
X85675000Y-48972000D01*
X85675000Y-48952000D01*
X85775000Y-48952000D01*
X85775000Y-48972000D01*
X85795000Y-48972000D01*
X85795000Y-49072000D01*
X85775000Y-49072000D01*
X85775000Y-49092000D01*
X85675000Y-49092000D01*
X85675000Y-49072000D01*
X83325000Y-49072000D01*
X83325000Y-49472000D01*
X83479021Y-50170000D01*
X82902847Y-50170000D01*
X82571130Y-49367185D01*
X81827729Y-48622485D01*
X80855931Y-48218960D01*
X79803685Y-48218041D01*
X78831185Y-48619870D01*
X78086485Y-49363271D01*
X77682960Y-50335069D01*
X77682041Y-51387315D01*
X78083870Y-52359815D01*
X78827271Y-53104515D01*
X79799069Y-53508040D01*
X80459845Y-53508617D01*
X80933902Y-53825372D01*
X81661000Y-53970000D01*
X85318308Y-53970000D01*
X84844828Y-54064181D01*
X84098654Y-54562758D01*
X83600077Y-55308932D01*
X83425000Y-56189104D01*
X83425000Y-57094896D01*
X83600077Y-57975068D01*
X84098654Y-58721242D01*
X84544000Y-59018812D01*
X84544000Y-61600439D01*
X84539000Y-61601433D01*
X83904000Y-61475124D01*
X83269000Y-61601433D01*
X82634000Y-61475124D01*
X81999000Y-61601433D01*
X81364000Y-61475124D01*
X80729000Y-61601433D01*
X80094000Y-61475124D01*
X79459000Y-61601433D01*
X79454000Y-61600439D01*
X79454000Y-60909554D01*
X79769600Y-60149505D01*
X79770399Y-59234509D01*
X79420982Y-58388857D01*
X78774547Y-57741292D01*
X77929505Y-57390400D01*
X77014509Y-57389601D01*
X76168857Y-57739018D01*
X75758332Y-58148826D01*
X73655000Y-56045494D01*
X73655000Y-55916170D01*
X73703708Y-55867547D01*
X74054600Y-55022505D01*
X74055399Y-54107509D01*
X73705982Y-53261857D01*
X73059547Y-52614292D01*
X72214505Y-52263400D01*
X71299509Y-52262601D01*
X70453857Y-52612018D01*
X70402786Y-52663000D01*
X69933170Y-52663000D01*
X69884547Y-52614292D01*
X69039505Y-52263400D01*
X68124509Y-52262601D01*
X68102996Y-52271490D01*
X66645000Y-50813494D01*
X66645000Y-47853286D01*
X73586086Y-47997892D01*
X73781392Y-47962559D01*
X73947564Y-47854025D01*
X74058419Y-47689391D01*
X74093181Y-47514679D01*
X75367032Y-47514679D01*
X75423133Y-48076787D01*
X76422861Y-48516185D01*
X77514640Y-48539556D01*
X78532256Y-48143343D01*
X78631867Y-48076787D01*
X78687968Y-47514679D01*
X77027500Y-45854211D01*
X75367032Y-47514679D01*
X74093181Y-47514679D01*
X74096500Y-47498000D01*
X74096500Y-46270640D01*
X74271444Y-46270640D01*
X74667657Y-47288256D01*
X74734213Y-47387867D01*
X75296321Y-47443968D01*
X76956789Y-45783500D01*
X77098211Y-45783500D01*
X78758679Y-47443968D01*
X79320787Y-47387867D01*
X79760185Y-46388139D01*
X79783556Y-45296360D01*
X79387343Y-44278744D01*
X79320787Y-44179133D01*
X78758679Y-44123032D01*
X77098211Y-45783500D01*
X76956789Y-45783500D01*
X75296321Y-44123032D01*
X74734213Y-44179133D01*
X74294815Y-45178861D01*
X74271444Y-46270640D01*
X74096500Y-46270640D01*
X74096500Y-44052321D01*
X75367032Y-44052321D01*
X77027500Y-45712789D01*
X78687968Y-44052321D01*
X78631867Y-43490213D01*
X77632139Y-43050815D01*
X76540360Y-43027444D01*
X75522744Y-43423657D01*
X75423133Y-43490213D01*
X75367032Y-44052321D01*
X74096500Y-44052321D01*
X74096500Y-39842506D01*
X76733006Y-37206000D01*
X96246441Y-37206000D01*
X96358453Y-37318208D01*
G36*
X102635500Y-37288000D02*
X103035500Y-37688000D01*
X104785500Y-37688000D01*
X104785500Y-37668000D01*
X104885500Y-37668000D01*
X104885500Y-37688000D01*
X104905500Y-37688000D01*
X104905500Y-37788000D01*
X104885500Y-37788000D01*
X104885500Y-40038000D01*
X105285500Y-40438000D01*
X105753760Y-40438000D01*
X106341827Y-40194414D01*
X106791915Y-39744327D01*
X107003741Y-39232934D01*
X107255930Y-39337652D01*
X108051579Y-39338346D01*
X108786929Y-39034506D01*
X109350029Y-38472388D01*
X109585500Y-37905311D01*
X109585500Y-45588000D01*
X109578988Y-45594512D01*
X109479633Y-45613207D01*
X109287855Y-45736613D01*
X109130517Y-45629108D01*
X109000223Y-45602723D01*
X108835500Y-45438000D01*
X108617240Y-45438000D01*
X108446763Y-45508614D01*
X107835500Y-45508614D01*
X107628157Y-45547628D01*
X107435500Y-45508614D01*
X106824237Y-45508614D01*
X106653760Y-45438000D01*
X106498241Y-45438000D01*
X106341827Y-45281586D01*
X105753760Y-45038000D01*
X105285500Y-45038000D01*
X104885500Y-45438000D01*
X104885500Y-45616833D01*
X104785500Y-45658255D01*
X104785500Y-45438000D01*
X104385500Y-45038000D01*
X103917240Y-45038000D01*
X103329173Y-45281586D01*
X102879085Y-45731673D01*
X102635500Y-46319740D01*
X102635500Y-46888000D01*
X103035500Y-47288000D01*
X104035500Y-47288000D01*
X104035500Y-47388000D01*
X103035500Y-47388000D01*
X102635500Y-47788000D01*
X102635500Y-48356260D01*
X102879085Y-48944327D01*
X103329173Y-49394414D01*
X103917240Y-49638000D01*
X104372758Y-49638000D01*
X104729173Y-49994414D01*
X105317240Y-50238000D01*
X105535500Y-50238000D01*
X105894608Y-49878892D01*
X106140483Y-50046892D01*
X106270777Y-50073277D01*
X106285500Y-50088000D01*
X106285500Y-54673341D01*
X105488505Y-54342400D01*
X104573509Y-54341601D01*
X103727857Y-54691018D01*
X103676786Y-54742000D01*
X99974006Y-54742000D01*
X99690000Y-54457994D01*
X99690000Y-41167670D01*
X99738708Y-41119047D01*
X100089600Y-40274005D01*
X100090399Y-39359009D01*
X99740982Y-38513357D01*
X99416193Y-38188000D01*
X102635500Y-38188000D01*
X102635500Y-39156260D01*
X102879085Y-39744327D01*
X103329173Y-40194414D01*
X103917240Y-40438000D01*
X104385500Y-40438000D01*
X104785500Y-40038000D01*
X104785500Y-37788000D01*
X103035500Y-37788000D01*
X102635500Y-38188000D01*
X99416193Y-38188000D01*
X99094547Y-37865792D01*
X98371260Y-37565457D01*
X98964143Y-37320482D01*
X99015214Y-37269500D01*
X102635500Y-37269500D01*
X102635500Y-37288000D01*
X102635500Y-37288000D01*
G37*
X102635500Y-37288000D02*
X103035500Y-37688000D01*
X104785500Y-37688000D01*
X104785500Y-37668000D01*
X104885500Y-37668000D01*
X104885500Y-37688000D01*
X104905500Y-37688000D01*
X104905500Y-37788000D01*
X104885500Y-37788000D01*
X104885500Y-40038000D01*
X105285500Y-40438000D01*
X105753760Y-40438000D01*
X106341827Y-40194414D01*
X106791915Y-39744327D01*
X107003741Y-39232934D01*
X107255930Y-39337652D01*
X108051579Y-39338346D01*
X108786929Y-39034506D01*
X109350029Y-38472388D01*
X109585500Y-37905311D01*
X109585500Y-45588000D01*
X109578988Y-45594512D01*
X109479633Y-45613207D01*
X109287855Y-45736613D01*
X109130517Y-45629108D01*
X109000223Y-45602723D01*
X108835500Y-45438000D01*
X108617240Y-45438000D01*
X108446763Y-45508614D01*
X107835500Y-45508614D01*
X107628157Y-45547628D01*
X107435500Y-45508614D01*
X106824237Y-45508614D01*
X106653760Y-45438000D01*
X106498241Y-45438000D01*
X106341827Y-45281586D01*
X105753760Y-45038000D01*
X105285500Y-45038000D01*
X104885500Y-45438000D01*
X104885500Y-45616833D01*
X104785500Y-45658255D01*
X104785500Y-45438000D01*
X104385500Y-45038000D01*
X103917240Y-45038000D01*
X103329173Y-45281586D01*
X102879085Y-45731673D01*
X102635500Y-46319740D01*
X102635500Y-46888000D01*
X103035500Y-47288000D01*
X104035500Y-47288000D01*
X104035500Y-47388000D01*
X103035500Y-47388000D01*
X102635500Y-47788000D01*
X102635500Y-48356260D01*
X102879085Y-48944327D01*
X103329173Y-49394414D01*
X103917240Y-49638000D01*
X104372758Y-49638000D01*
X104729173Y-49994414D01*
X105317240Y-50238000D01*
X105535500Y-50238000D01*
X105894608Y-49878892D01*
X106140483Y-50046892D01*
X106270777Y-50073277D01*
X106285500Y-50088000D01*
X106285500Y-54673341D01*
X105488505Y-54342400D01*
X104573509Y-54341601D01*
X103727857Y-54691018D01*
X103676786Y-54742000D01*
X99974006Y-54742000D01*
X99690000Y-54457994D01*
X99690000Y-41167670D01*
X99738708Y-41119047D01*
X100089600Y-40274005D01*
X100090399Y-39359009D01*
X99740982Y-38513357D01*
X99416193Y-38188000D01*
X102635500Y-38188000D01*
X102635500Y-39156260D01*
X102879085Y-39744327D01*
X103329173Y-40194414D01*
X103917240Y-40438000D01*
X104385500Y-40438000D01*
X104785500Y-40038000D01*
X104785500Y-37788000D01*
X103035500Y-37788000D01*
X102635500Y-38188000D01*
X99416193Y-38188000D01*
X99094547Y-37865792D01*
X98371260Y-37565457D01*
X98964143Y-37320482D01*
X99015214Y-37269500D01*
X102635500Y-37269500D01*
X102635500Y-37288000D01*
M02*
