G04 #@! TF.FileFunction,Legend,Top*
%FSLAX46Y46*%
G04 Gerber Fmt 4.6, Leading zero omitted, Abs format (unit mm)*
G04 Created by KiCad (PCBNEW 4.0.7) date Sat Feb 17 21:33:09 2018*
%MOMM*%
%LPD*%
G01*
G04 APERTURE LIST*
%ADD10C,0.150000*%
%ADD11C,0.120000*%
G04 APERTURE END LIST*
D10*
D11*
X75897500Y-44683500D02*
X75897500Y-33633500D01*
X75897500Y-57983500D02*
X75897500Y-46883500D01*
X75247500Y-57933500D02*
X75247500Y-33633500D01*
X75247500Y-33633500D02*
X81797500Y-33633500D01*
X81797500Y-33633500D02*
X81797500Y-57983500D01*
X81797500Y-57983500D02*
X75247500Y-57983500D01*
X76767500Y-44003500D02*
X76767500Y-42993500D01*
X80837500Y-37913500D02*
X79817500Y-37913500D01*
X80327500Y-38413500D02*
X80327500Y-37403500D01*
X120781000Y-86032500D02*
G75*
G03X120781000Y-86032500I-6100000J0D01*
G01*
X44444000Y-92238000D02*
X44444000Y-96658000D01*
X42424000Y-92238000D02*
X42424000Y-96658000D01*
X44444000Y-92238000D02*
X44430000Y-92238000D01*
X42438000Y-92238000D02*
X42424000Y-92238000D01*
X44444000Y-96658000D02*
X44430000Y-96658000D01*
X42438000Y-96658000D02*
X42424000Y-96658000D01*
X64637000Y-93254000D02*
X64637000Y-97674000D01*
X62617000Y-93254000D02*
X62617000Y-97674000D01*
X64637000Y-93254000D02*
X64623000Y-93254000D01*
X62631000Y-93254000D02*
X62617000Y-93254000D01*
X64637000Y-97674000D02*
X64623000Y-97674000D01*
X62631000Y-97674000D02*
X62617000Y-97674000D01*
X42351149Y-57692445D02*
G75*
G03X50184082Y-57695000I3916851J1177445D01*
G01*
X42351149Y-55337555D02*
G75*
G02X50184082Y-55335000I3916851J-1177445D01*
G01*
X42351149Y-55337555D02*
G75*
G03X42351918Y-57695000I3916851J-1177445D01*
G01*
X46268000Y-60565000D02*
X46268000Y-52465000D01*
X46228000Y-60565000D02*
X46228000Y-52465000D01*
X46188000Y-60565000D02*
X46188000Y-52465000D01*
X46148000Y-60564000D02*
X46148000Y-52466000D01*
X46108000Y-60562000D02*
X46108000Y-52468000D01*
X46068000Y-60561000D02*
X46068000Y-52469000D01*
X46028000Y-60558000D02*
X46028000Y-52472000D01*
X45988000Y-60556000D02*
X45988000Y-52474000D01*
X45948000Y-60553000D02*
X45948000Y-52477000D01*
X45908000Y-60550000D02*
X45908000Y-52480000D01*
X45868000Y-60546000D02*
X45868000Y-52484000D01*
X45828000Y-60542000D02*
X45828000Y-52488000D01*
X45788000Y-60537000D02*
X45788000Y-52493000D01*
X45748000Y-60532000D02*
X45748000Y-52498000D01*
X45708000Y-60527000D02*
X45708000Y-52503000D01*
X45668000Y-60521000D02*
X45668000Y-52509000D01*
X45628000Y-60515000D02*
X45628000Y-52515000D01*
X45588000Y-60509000D02*
X45588000Y-52521000D01*
X45547000Y-60502000D02*
X45547000Y-52528000D01*
X45507000Y-60494000D02*
X45507000Y-52536000D01*
X45467000Y-60486000D02*
X45467000Y-52544000D01*
X45427000Y-60478000D02*
X45427000Y-52552000D01*
X45387000Y-60470000D02*
X45387000Y-52560000D01*
X45347000Y-60461000D02*
X45347000Y-52569000D01*
X45307000Y-60451000D02*
X45307000Y-52579000D01*
X45267000Y-60441000D02*
X45267000Y-52589000D01*
X45227000Y-60431000D02*
X45227000Y-52599000D01*
X45187000Y-60420000D02*
X45187000Y-52610000D01*
X45147000Y-60409000D02*
X45147000Y-52621000D01*
X45107000Y-60398000D02*
X45107000Y-52632000D01*
X45067000Y-60385000D02*
X45067000Y-52645000D01*
X45027000Y-60373000D02*
X45027000Y-52657000D01*
X44987000Y-60360000D02*
X44987000Y-52670000D01*
X44947000Y-60347000D02*
X44947000Y-52683000D01*
X44907000Y-60333000D02*
X44907000Y-52697000D01*
X44867000Y-60318000D02*
X44867000Y-52712000D01*
X44827000Y-60304000D02*
X44827000Y-52726000D01*
X44787000Y-60288000D02*
X44787000Y-52742000D01*
X44747000Y-60273000D02*
X44747000Y-57495000D01*
X44747000Y-55535000D02*
X44747000Y-52757000D01*
X44707000Y-60256000D02*
X44707000Y-57495000D01*
X44707000Y-55535000D02*
X44707000Y-52774000D01*
X44667000Y-60240000D02*
X44667000Y-57495000D01*
X44667000Y-55535000D02*
X44667000Y-52790000D01*
X44627000Y-60222000D02*
X44627000Y-57495000D01*
X44627000Y-55535000D02*
X44627000Y-52808000D01*
X44587000Y-60205000D02*
X44587000Y-57495000D01*
X44587000Y-55535000D02*
X44587000Y-52825000D01*
X44547000Y-60186000D02*
X44547000Y-57495000D01*
X44547000Y-55535000D02*
X44547000Y-52844000D01*
X44507000Y-60167000D02*
X44507000Y-57495000D01*
X44507000Y-55535000D02*
X44507000Y-52863000D01*
X44467000Y-60148000D02*
X44467000Y-57495000D01*
X44467000Y-55535000D02*
X44467000Y-52882000D01*
X44427000Y-60128000D02*
X44427000Y-57495000D01*
X44427000Y-55535000D02*
X44427000Y-52902000D01*
X44387000Y-60108000D02*
X44387000Y-57495000D01*
X44387000Y-55535000D02*
X44387000Y-52922000D01*
X44347000Y-60087000D02*
X44347000Y-57495000D01*
X44347000Y-55535000D02*
X44347000Y-52943000D01*
X44307000Y-60065000D02*
X44307000Y-57495000D01*
X44307000Y-55535000D02*
X44307000Y-52965000D01*
X44267000Y-60043000D02*
X44267000Y-57495000D01*
X44267000Y-55535000D02*
X44267000Y-52987000D01*
X44227000Y-60020000D02*
X44227000Y-57495000D01*
X44227000Y-55535000D02*
X44227000Y-53010000D01*
X44187000Y-59997000D02*
X44187000Y-57495000D01*
X44187000Y-55535000D02*
X44187000Y-53033000D01*
X44147000Y-59973000D02*
X44147000Y-57495000D01*
X44147000Y-55535000D02*
X44147000Y-53057000D01*
X44107000Y-59949000D02*
X44107000Y-57495000D01*
X44107000Y-55535000D02*
X44107000Y-53081000D01*
X44067000Y-59923000D02*
X44067000Y-57495000D01*
X44067000Y-55535000D02*
X44067000Y-53107000D01*
X44027000Y-59898000D02*
X44027000Y-57495000D01*
X44027000Y-55535000D02*
X44027000Y-53132000D01*
X43987000Y-59871000D02*
X43987000Y-57495000D01*
X43987000Y-55535000D02*
X43987000Y-53159000D01*
X43947000Y-59844000D02*
X43947000Y-57495000D01*
X43947000Y-55535000D02*
X43947000Y-53186000D01*
X43907000Y-59816000D02*
X43907000Y-57495000D01*
X43907000Y-55535000D02*
X43907000Y-53214000D01*
X43867000Y-59787000D02*
X43867000Y-57495000D01*
X43867000Y-55535000D02*
X43867000Y-53243000D01*
X43827000Y-59758000D02*
X43827000Y-57495000D01*
X43827000Y-55535000D02*
X43827000Y-53272000D01*
X43787000Y-59728000D02*
X43787000Y-57495000D01*
X43787000Y-55535000D02*
X43787000Y-53302000D01*
X43747000Y-59697000D02*
X43747000Y-57495000D01*
X43747000Y-55535000D02*
X43747000Y-53333000D01*
X43707000Y-59665000D02*
X43707000Y-57495000D01*
X43707000Y-55535000D02*
X43707000Y-53365000D01*
X43667000Y-59633000D02*
X43667000Y-57495000D01*
X43667000Y-55535000D02*
X43667000Y-53397000D01*
X43627000Y-59599000D02*
X43627000Y-57495000D01*
X43627000Y-55535000D02*
X43627000Y-53431000D01*
X43587000Y-59565000D02*
X43587000Y-57495000D01*
X43587000Y-55535000D02*
X43587000Y-53465000D01*
X43547000Y-59530000D02*
X43547000Y-57495000D01*
X43547000Y-55535000D02*
X43547000Y-53500000D01*
X43507000Y-59494000D02*
X43507000Y-57495000D01*
X43507000Y-55535000D02*
X43507000Y-53536000D01*
X43467000Y-59457000D02*
X43467000Y-57495000D01*
X43467000Y-55535000D02*
X43467000Y-53573000D01*
X43427000Y-59419000D02*
X43427000Y-57495000D01*
X43427000Y-55535000D02*
X43427000Y-53611000D01*
X43387000Y-59380000D02*
X43387000Y-57495000D01*
X43387000Y-55535000D02*
X43387000Y-53650000D01*
X43347000Y-59339000D02*
X43347000Y-57495000D01*
X43347000Y-55535000D02*
X43347000Y-53691000D01*
X43307000Y-59298000D02*
X43307000Y-57495000D01*
X43307000Y-55535000D02*
X43307000Y-53732000D01*
X43267000Y-59255000D02*
X43267000Y-57495000D01*
X43267000Y-55535000D02*
X43267000Y-53775000D01*
X43227000Y-59212000D02*
X43227000Y-57495000D01*
X43227000Y-55535000D02*
X43227000Y-53818000D01*
X43187000Y-59167000D02*
X43187000Y-57495000D01*
X43187000Y-55535000D02*
X43187000Y-53863000D01*
X43147000Y-59120000D02*
X43147000Y-57495000D01*
X43147000Y-55535000D02*
X43147000Y-53910000D01*
X43107000Y-59072000D02*
X43107000Y-57495000D01*
X43107000Y-55535000D02*
X43107000Y-53958000D01*
X43067000Y-59023000D02*
X43067000Y-57495000D01*
X43067000Y-55535000D02*
X43067000Y-54007000D01*
X43027000Y-58972000D02*
X43027000Y-57495000D01*
X43027000Y-55535000D02*
X43027000Y-54058000D01*
X42987000Y-58919000D02*
X42987000Y-57495000D01*
X42987000Y-55535000D02*
X42987000Y-54111000D01*
X42947000Y-58864000D02*
X42947000Y-57495000D01*
X42947000Y-55535000D02*
X42947000Y-54166000D01*
X42907000Y-58808000D02*
X42907000Y-57495000D01*
X42907000Y-55535000D02*
X42907000Y-54222000D01*
X42867000Y-58749000D02*
X42867000Y-57495000D01*
X42867000Y-55535000D02*
X42867000Y-54281000D01*
X42827000Y-58688000D02*
X42827000Y-57495000D01*
X42827000Y-55535000D02*
X42827000Y-54342000D01*
X42787000Y-58624000D02*
X42787000Y-54406000D01*
X42747000Y-58558000D02*
X42747000Y-54472000D01*
X42707000Y-58489000D02*
X42707000Y-54541000D01*
X42667000Y-58417000D02*
X42667000Y-54613000D01*
X42627000Y-58341000D02*
X42627000Y-54689000D01*
X42587000Y-58260000D02*
X42587000Y-54770000D01*
X42547000Y-58175000D02*
X42547000Y-54855000D01*
X42507000Y-58085000D02*
X42507000Y-54945000D01*
X42467000Y-57988000D02*
X42467000Y-55042000D01*
X42427000Y-57884000D02*
X42427000Y-55146000D01*
X42387000Y-57769000D02*
X42387000Y-55261000D01*
X42347000Y-57642000D02*
X42347000Y-55388000D01*
X42307000Y-57498000D02*
X42307000Y-55532000D01*
X42267000Y-57329000D02*
X42267000Y-55701000D01*
X42227000Y-57113000D02*
X42227000Y-55917000D01*
X42187000Y-56761000D02*
X42187000Y-56269000D01*
X50968000Y-56515000D02*
X49768000Y-56515000D01*
X50368000Y-57165000D02*
X50368000Y-55865000D01*
X72511000Y-40041000D02*
X72511000Y-44461000D01*
X70491000Y-40041000D02*
X70491000Y-44461000D01*
X72511000Y-40041000D02*
X72497000Y-40041000D01*
X70505000Y-40041000D02*
X70491000Y-40041000D01*
X72511000Y-44461000D02*
X72497000Y-44461000D01*
X70505000Y-44461000D02*
X70491000Y-44461000D01*
X128687000Y-76841000D02*
X133107000Y-76841000D01*
X128687000Y-78861000D02*
X133107000Y-78861000D01*
X128687000Y-76841000D02*
X128687000Y-76855000D01*
X128687000Y-78847000D02*
X128687000Y-78861000D01*
X133107000Y-76841000D02*
X133107000Y-76855000D01*
X133107000Y-78847000D02*
X133107000Y-78861000D01*
X78301500Y-110454000D02*
X78301500Y-106034000D01*
X80321500Y-110454000D02*
X80321500Y-106034000D01*
X78301500Y-110454000D02*
X78315500Y-110454000D01*
X80307500Y-110454000D02*
X80321500Y-110454000D01*
X78301500Y-106034000D02*
X78315500Y-106034000D01*
X80307500Y-106034000D02*
X80321500Y-106034000D01*
X61283500Y-59590500D02*
X61283500Y-55170500D01*
X63303500Y-59590500D02*
X63303500Y-55170500D01*
X61283500Y-59590500D02*
X61297500Y-59590500D01*
X63289500Y-59590500D02*
X63303500Y-59590500D01*
X61283500Y-55170500D02*
X61297500Y-55170500D01*
X63289500Y-55170500D02*
X63303500Y-55170500D01*
X67570000Y-59273000D02*
X67570000Y-54853000D01*
X69590000Y-59273000D02*
X69590000Y-54853000D01*
X67570000Y-59273000D02*
X67584000Y-59273000D01*
X69576000Y-59273000D02*
X69590000Y-59273000D01*
X67570000Y-54853000D02*
X67584000Y-54853000D01*
X69576000Y-54853000D02*
X69590000Y-54853000D01*
X70745000Y-59273000D02*
X70745000Y-54853000D01*
X72765000Y-59273000D02*
X72765000Y-54853000D01*
X70745000Y-59273000D02*
X70759000Y-59273000D01*
X72751000Y-59273000D02*
X72765000Y-59273000D01*
X70745000Y-54853000D02*
X70759000Y-54853000D01*
X72751000Y-54853000D02*
X72765000Y-54853000D01*
X42421500Y-85277000D02*
X45081500Y-85277000D01*
X42421500Y-69977000D02*
X42421500Y-85277000D01*
X45081500Y-69977000D02*
X45081500Y-85277000D01*
X42421500Y-69977000D02*
X45081500Y-69977000D01*
X42421500Y-68707000D02*
X42421500Y-67377000D01*
X42421500Y-67377000D02*
X43751500Y-67377000D01*
X44149000Y-44478000D02*
X35349000Y-44478000D01*
X35349000Y-44478000D02*
X35349000Y-35278000D01*
X50049000Y-41778000D02*
X50049000Y-44478000D01*
X50049000Y-44478000D02*
X48149000Y-44478000D01*
X35349000Y-35278000D02*
X50049000Y-35278000D01*
X50049000Y-35278000D02*
X50049000Y-37878000D01*
X84709000Y-95376000D02*
X94869000Y-95376000D01*
X94869000Y-101216000D02*
X84709000Y-101216000D01*
X84709000Y-101216000D02*
X84709000Y-95376000D01*
X94869000Y-101216000D02*
X94869000Y-95376000D01*
X135449000Y-112582000D02*
X138109000Y-112582000D01*
X135449000Y-104902000D02*
X135449000Y-112582000D01*
X138109000Y-104902000D02*
X138109000Y-112582000D01*
X135449000Y-104902000D02*
X138109000Y-104902000D01*
X135449000Y-103632000D02*
X135449000Y-102302000D01*
X135449000Y-102302000D02*
X136779000Y-102302000D01*
X126622500Y-112582000D02*
X129282500Y-112582000D01*
X126622500Y-104902000D02*
X126622500Y-112582000D01*
X129282500Y-104902000D02*
X129282500Y-112582000D01*
X126622500Y-104902000D02*
X129282500Y-104902000D01*
X126622500Y-103632000D02*
X126622500Y-102302000D01*
X126622500Y-102302000D02*
X127952500Y-102302000D01*
X118050000Y-112582000D02*
X120710000Y-112582000D01*
X118050000Y-104902000D02*
X118050000Y-112582000D01*
X120710000Y-104902000D02*
X120710000Y-112582000D01*
X118050000Y-104902000D02*
X120710000Y-104902000D01*
X118050000Y-103632000D02*
X118050000Y-102302000D01*
X118050000Y-102302000D02*
X119380000Y-102302000D01*
X100905000Y-112582000D02*
X103565000Y-112582000D01*
X100905000Y-104902000D02*
X100905000Y-112582000D01*
X103565000Y-104902000D02*
X103565000Y-112582000D01*
X100905000Y-104902000D02*
X103565000Y-104902000D01*
X100905000Y-103632000D02*
X100905000Y-102302000D01*
X100905000Y-102302000D02*
X102235000Y-102302000D01*
X109541000Y-112582000D02*
X112201000Y-112582000D01*
X109541000Y-104902000D02*
X109541000Y-112582000D01*
X112201000Y-104902000D02*
X112201000Y-112582000D01*
X109541000Y-104902000D02*
X112201000Y-104902000D01*
X109541000Y-103632000D02*
X109541000Y-102302000D01*
X109541000Y-102302000D02*
X110871000Y-102302000D01*
X50822000Y-91749000D02*
X47222000Y-91749000D01*
X50860478Y-91760522D02*
G75*
G02X49022000Y-96199000I-1838478J-1838478D01*
G01*
X47183522Y-91760522D02*
G75*
G03X49022000Y-96199000I1838478J-1838478D01*
G01*
X53699000Y-95957000D02*
X57299000Y-95957000D01*
X53660522Y-95945478D02*
G75*
G02X55499000Y-91507000I1838478J1838478D01*
G01*
X57337478Y-95945478D02*
G75*
G03X55499000Y-91507000I-1838478J1838478D01*
G01*
X102671000Y-89449500D02*
X102671000Y-93049500D01*
X102682522Y-89411022D02*
G75*
G02X107121000Y-91249500I1838478J-1838478D01*
G01*
X102682522Y-93087978D02*
G75*
G03X107121000Y-91249500I1838478J1838478D01*
G01*
X48042000Y-88109500D02*
X47712000Y-88109500D01*
X47712000Y-88109500D02*
X47712000Y-81689500D01*
X47712000Y-81689500D02*
X48042000Y-81689500D01*
X50002000Y-88109500D02*
X50332000Y-88109500D01*
X50332000Y-88109500D02*
X50332000Y-81689500D01*
X50332000Y-81689500D02*
X50002000Y-81689500D01*
X52931500Y-88109500D02*
X52601500Y-88109500D01*
X52601500Y-88109500D02*
X52601500Y-81689500D01*
X52601500Y-81689500D02*
X52931500Y-81689500D01*
X54891500Y-88109500D02*
X55221500Y-88109500D01*
X55221500Y-88109500D02*
X55221500Y-81689500D01*
X55221500Y-81689500D02*
X54891500Y-81689500D01*
X58638000Y-52987500D02*
X58968000Y-52987500D01*
X58968000Y-52987500D02*
X58968000Y-59407500D01*
X58968000Y-59407500D02*
X58638000Y-59407500D01*
X56678000Y-52987500D02*
X56348000Y-52987500D01*
X56348000Y-52987500D02*
X56348000Y-59407500D01*
X56348000Y-59407500D02*
X56678000Y-59407500D01*
X105629000Y-55662000D02*
X105629000Y-55332000D01*
X105629000Y-55332000D02*
X112049000Y-55332000D01*
X112049000Y-55332000D02*
X112049000Y-55662000D01*
X105629000Y-57622000D02*
X105629000Y-57952000D01*
X105629000Y-57952000D02*
X112049000Y-57952000D01*
X112049000Y-57952000D02*
X112049000Y-57622000D01*
X92872000Y-92229500D02*
X92872000Y-92559500D01*
X92872000Y-92559500D02*
X86452000Y-92559500D01*
X86452000Y-92559500D02*
X86452000Y-92229500D01*
X92872000Y-90269500D02*
X92872000Y-89939500D01*
X92872000Y-89939500D02*
X86452000Y-89939500D01*
X86452000Y-89939500D02*
X86452000Y-90269500D01*
X50585000Y-106188000D02*
X50585000Y-101688000D01*
X46585000Y-107438000D02*
X48085000Y-107438000D01*
X44085000Y-101688000D02*
X44085000Y-106188000D01*
X48085000Y-100438000D02*
X46585000Y-100438000D01*
X52666000Y-101584000D02*
X52666000Y-106084000D01*
X56666000Y-100334000D02*
X55166000Y-100334000D01*
X59166000Y-106084000D02*
X59166000Y-101584000D01*
X55166000Y-107334000D02*
X56666000Y-107334000D01*
X91456000Y-104863000D02*
X86956000Y-104863000D01*
X92706000Y-108863000D02*
X92706000Y-107363000D01*
X86956000Y-111363000D02*
X91456000Y-111363000D01*
X85706000Y-107363000D02*
X85706000Y-108863000D01*
X94735000Y-51832000D02*
X94735000Y-50462000D01*
X94735000Y-50462000D02*
X84335000Y-50462000D01*
X84335000Y-50462000D02*
X84335000Y-55202000D01*
X84335000Y-55202000D02*
X94735000Y-55202000D01*
X94735000Y-55202000D02*
X94735000Y-53832000D01*
X94735000Y-53832000D02*
G75*
G02X94735000Y-51832000I0J1000000D01*
G01*
X93965500Y-42920000D02*
X93965500Y-32020000D01*
X93965500Y-32020000D02*
X90565500Y-32020000D01*
X90565500Y-32020000D02*
X90565500Y-42920000D01*
X90565500Y-42920000D02*
X93965500Y-42920000D01*
X92865500Y-42920000D02*
X93535500Y-44320000D01*
X93535500Y-44320000D02*
X93535500Y-45020000D01*
X91665500Y-42920000D02*
X90995500Y-44320000D01*
X90995500Y-44320000D02*
X90995500Y-45020000D01*
D10*
X140906786Y-61158381D02*
X140906786Y-60158381D01*
X141240120Y-60872667D01*
X141573453Y-60158381D01*
X141573453Y-61158381D01*
X142240119Y-60158381D02*
X142430596Y-60158381D01*
X142525834Y-60206000D01*
X142621072Y-60301238D01*
X142668691Y-60491714D01*
X142668691Y-60825048D01*
X142621072Y-61015524D01*
X142525834Y-61110762D01*
X142430596Y-61158381D01*
X142240119Y-61158381D01*
X142144881Y-61110762D01*
X142049643Y-61015524D01*
X142002024Y-60825048D01*
X142002024Y-60491714D01*
X142049643Y-60301238D01*
X142144881Y-60206000D01*
X142240119Y-60158381D01*
X143097262Y-60158381D02*
X143097262Y-60967905D01*
X143144881Y-61063143D01*
X143192500Y-61110762D01*
X143287738Y-61158381D01*
X143478215Y-61158381D01*
X143573453Y-61110762D01*
X143621072Y-61063143D01*
X143668691Y-60967905D01*
X143668691Y-60158381D01*
X144144881Y-61158381D02*
X144144881Y-60158381D01*
X144716310Y-61158381D01*
X144716310Y-60158381D01*
X145049643Y-60158381D02*
X145621072Y-60158381D01*
X145335357Y-61158381D02*
X145335357Y-60158381D01*
X140589286Y-34805881D02*
X140589286Y-33805881D01*
X140922620Y-34520167D01*
X141255953Y-33805881D01*
X141255953Y-34805881D01*
X141922619Y-33805881D02*
X142113096Y-33805881D01*
X142208334Y-33853500D01*
X142303572Y-33948738D01*
X142351191Y-34139214D01*
X142351191Y-34472548D01*
X142303572Y-34663024D01*
X142208334Y-34758262D01*
X142113096Y-34805881D01*
X141922619Y-34805881D01*
X141827381Y-34758262D01*
X141732143Y-34663024D01*
X141684524Y-34472548D01*
X141684524Y-34139214D01*
X141732143Y-33948738D01*
X141827381Y-33853500D01*
X141922619Y-33805881D01*
X142779762Y-33805881D02*
X142779762Y-34615405D01*
X142827381Y-34710643D01*
X142875000Y-34758262D01*
X142970238Y-34805881D01*
X143160715Y-34805881D01*
X143255953Y-34758262D01*
X143303572Y-34710643D01*
X143351191Y-34615405D01*
X143351191Y-33805881D01*
X143827381Y-34805881D02*
X143827381Y-33805881D01*
X144398810Y-34805881D01*
X144398810Y-33805881D01*
X144732143Y-33805881D02*
X145303572Y-33805881D01*
X145017857Y-34805881D02*
X145017857Y-33805881D01*
X74426071Y-46569214D02*
X74473690Y-46426357D01*
X74521310Y-46378738D01*
X74616548Y-46331119D01*
X74759405Y-46331119D01*
X74854643Y-46378738D01*
X74902262Y-46426357D01*
X74949881Y-46521595D01*
X74949881Y-46902548D01*
X73949881Y-46902548D01*
X73949881Y-46569214D01*
X73997500Y-46473976D01*
X74045119Y-46426357D01*
X74140357Y-46378738D01*
X74235595Y-46378738D01*
X74330833Y-46426357D01*
X74378452Y-46473976D01*
X74426071Y-46569214D01*
X74426071Y-46902548D01*
X73949881Y-46045405D02*
X73949881Y-45473976D01*
X74949881Y-45759691D02*
X73949881Y-45759691D01*
X74949881Y-44616833D02*
X74949881Y-45188262D01*
X74949881Y-44902548D02*
X73949881Y-44902548D01*
X74092738Y-44997786D01*
X74187976Y-45093024D01*
X74235595Y-45188262D01*
X121809571Y-86913452D02*
X121857190Y-86770595D01*
X121904810Y-86722976D01*
X122000048Y-86675357D01*
X122142905Y-86675357D01*
X122238143Y-86722976D01*
X122285762Y-86770595D01*
X122333381Y-86865833D01*
X122333381Y-87246786D01*
X121333381Y-87246786D01*
X121333381Y-86913452D01*
X121381000Y-86818214D01*
X121428619Y-86770595D01*
X121523857Y-86722976D01*
X121619095Y-86722976D01*
X121714333Y-86770595D01*
X121761952Y-86818214D01*
X121809571Y-86913452D01*
X121809571Y-87246786D01*
X121333381Y-86342024D02*
X121333381Y-85675357D01*
X122333381Y-86342024D01*
X122333381Y-85675357D01*
X122333381Y-84770595D02*
X122333381Y-85342024D01*
X122333381Y-85056310D02*
X121333381Y-85056310D01*
X121476238Y-85151548D01*
X121571476Y-85246786D01*
X121619095Y-85342024D01*
X117292429Y-82603452D02*
X117292429Y-81841547D01*
X117673381Y-82222499D02*
X116911476Y-82222499D01*
X46051143Y-94614666D02*
X46098762Y-94662285D01*
X46146381Y-94805142D01*
X46146381Y-94900380D01*
X46098762Y-95043238D01*
X46003524Y-95138476D01*
X45908286Y-95186095D01*
X45717810Y-95233714D01*
X45574952Y-95233714D01*
X45384476Y-95186095D01*
X45289238Y-95138476D01*
X45194000Y-95043238D01*
X45146381Y-94900380D01*
X45146381Y-94805142D01*
X45194000Y-94662285D01*
X45241619Y-94614666D01*
X46146381Y-93662285D02*
X46146381Y-94233714D01*
X46146381Y-93948000D02*
X45146381Y-93948000D01*
X45289238Y-94043238D01*
X45384476Y-94138476D01*
X45432095Y-94233714D01*
X66244143Y-95630666D02*
X66291762Y-95678285D01*
X66339381Y-95821142D01*
X66339381Y-95916380D01*
X66291762Y-96059238D01*
X66196524Y-96154476D01*
X66101286Y-96202095D01*
X65910810Y-96249714D01*
X65767952Y-96249714D01*
X65577476Y-96202095D01*
X65482238Y-96154476D01*
X65387000Y-96059238D01*
X65339381Y-95916380D01*
X65339381Y-95821142D01*
X65387000Y-95678285D01*
X65434619Y-95630666D01*
X65434619Y-95249714D02*
X65387000Y-95202095D01*
X65339381Y-95106857D01*
X65339381Y-94868761D01*
X65387000Y-94773523D01*
X65434619Y-94725904D01*
X65529857Y-94678285D01*
X65625095Y-94678285D01*
X65767952Y-94725904D01*
X66339381Y-95297333D01*
X66339381Y-94678285D01*
X46101334Y-62182143D02*
X46053715Y-62229762D01*
X45910858Y-62277381D01*
X45815620Y-62277381D01*
X45672762Y-62229762D01*
X45577524Y-62134524D01*
X45529905Y-62039286D01*
X45482286Y-61848810D01*
X45482286Y-61705952D01*
X45529905Y-61515476D01*
X45577524Y-61420238D01*
X45672762Y-61325000D01*
X45815620Y-61277381D01*
X45910858Y-61277381D01*
X46053715Y-61325000D01*
X46101334Y-61372619D01*
X46434667Y-61277381D02*
X47053715Y-61277381D01*
X46720381Y-61658333D01*
X46863239Y-61658333D01*
X46958477Y-61705952D01*
X47006096Y-61753571D01*
X47053715Y-61848810D01*
X47053715Y-62086905D01*
X47006096Y-62182143D01*
X46958477Y-62229762D01*
X46863239Y-62277381D01*
X46577524Y-62277381D01*
X46482286Y-62229762D01*
X46434667Y-62182143D01*
X74118143Y-42417666D02*
X74165762Y-42465285D01*
X74213381Y-42608142D01*
X74213381Y-42703380D01*
X74165762Y-42846238D01*
X74070524Y-42941476D01*
X73975286Y-42989095D01*
X73784810Y-43036714D01*
X73641952Y-43036714D01*
X73451476Y-42989095D01*
X73356238Y-42941476D01*
X73261000Y-42846238D01*
X73213381Y-42703380D01*
X73213381Y-42608142D01*
X73261000Y-42465285D01*
X73308619Y-42417666D01*
X73546714Y-41560523D02*
X74213381Y-41560523D01*
X73165762Y-41798619D02*
X73880048Y-42036714D01*
X73880048Y-41417666D01*
X130730334Y-75948143D02*
X130682715Y-75995762D01*
X130539858Y-76043381D01*
X130444620Y-76043381D01*
X130301762Y-75995762D01*
X130206524Y-75900524D01*
X130158905Y-75805286D01*
X130111286Y-75614810D01*
X130111286Y-75471952D01*
X130158905Y-75281476D01*
X130206524Y-75186238D01*
X130301762Y-75091000D01*
X130444620Y-75043381D01*
X130539858Y-75043381D01*
X130682715Y-75091000D01*
X130730334Y-75138619D01*
X131635096Y-75043381D02*
X131158905Y-75043381D01*
X131111286Y-75519571D01*
X131158905Y-75471952D01*
X131254143Y-75424333D01*
X131492239Y-75424333D01*
X131587477Y-75471952D01*
X131635096Y-75519571D01*
X131682715Y-75614810D01*
X131682715Y-75852905D01*
X131635096Y-75948143D01*
X131587477Y-75995762D01*
X131492239Y-76043381D01*
X131254143Y-76043381D01*
X131158905Y-75995762D01*
X131111286Y-75948143D01*
X77408643Y-108410666D02*
X77456262Y-108458285D01*
X77503881Y-108601142D01*
X77503881Y-108696380D01*
X77456262Y-108839238D01*
X77361024Y-108934476D01*
X77265786Y-108982095D01*
X77075310Y-109029714D01*
X76932452Y-109029714D01*
X76741976Y-108982095D01*
X76646738Y-108934476D01*
X76551500Y-108839238D01*
X76503881Y-108696380D01*
X76503881Y-108601142D01*
X76551500Y-108458285D01*
X76599119Y-108410666D01*
X76503881Y-107553523D02*
X76503881Y-107744000D01*
X76551500Y-107839238D01*
X76599119Y-107886857D01*
X76741976Y-107982095D01*
X76932452Y-108029714D01*
X77313405Y-108029714D01*
X77408643Y-107982095D01*
X77456262Y-107934476D01*
X77503881Y-107839238D01*
X77503881Y-107648761D01*
X77456262Y-107553523D01*
X77408643Y-107505904D01*
X77313405Y-107458285D01*
X77075310Y-107458285D01*
X76980071Y-107505904D01*
X76932452Y-107553523D01*
X76884833Y-107648761D01*
X76884833Y-107839238D01*
X76932452Y-107934476D01*
X76980071Y-107982095D01*
X77075310Y-108029714D01*
X60390643Y-57547166D02*
X60438262Y-57594785D01*
X60485881Y-57737642D01*
X60485881Y-57832880D01*
X60438262Y-57975738D01*
X60343024Y-58070976D01*
X60247786Y-58118595D01*
X60057310Y-58166214D01*
X59914452Y-58166214D01*
X59723976Y-58118595D01*
X59628738Y-58070976D01*
X59533500Y-57975738D01*
X59485881Y-57832880D01*
X59485881Y-57737642D01*
X59533500Y-57594785D01*
X59581119Y-57547166D01*
X59485881Y-57213833D02*
X59485881Y-56547166D01*
X60485881Y-56975738D01*
X66677143Y-57229666D02*
X66724762Y-57277285D01*
X66772381Y-57420142D01*
X66772381Y-57515380D01*
X66724762Y-57658238D01*
X66629524Y-57753476D01*
X66534286Y-57801095D01*
X66343810Y-57848714D01*
X66200952Y-57848714D01*
X66010476Y-57801095D01*
X65915238Y-57753476D01*
X65820000Y-57658238D01*
X65772381Y-57515380D01*
X65772381Y-57420142D01*
X65820000Y-57277285D01*
X65867619Y-57229666D01*
X66200952Y-56658238D02*
X66153333Y-56753476D01*
X66105714Y-56801095D01*
X66010476Y-56848714D01*
X65962857Y-56848714D01*
X65867619Y-56801095D01*
X65820000Y-56753476D01*
X65772381Y-56658238D01*
X65772381Y-56467761D01*
X65820000Y-56372523D01*
X65867619Y-56324904D01*
X65962857Y-56277285D01*
X66010476Y-56277285D01*
X66105714Y-56324904D01*
X66153333Y-56372523D01*
X66200952Y-56467761D01*
X66200952Y-56658238D01*
X66248571Y-56753476D01*
X66296190Y-56801095D01*
X66391429Y-56848714D01*
X66581905Y-56848714D01*
X66677143Y-56801095D01*
X66724762Y-56753476D01*
X66772381Y-56658238D01*
X66772381Y-56467761D01*
X66724762Y-56372523D01*
X66677143Y-56324904D01*
X66581905Y-56277285D01*
X66391429Y-56277285D01*
X66296190Y-56324904D01*
X66248571Y-56372523D01*
X66200952Y-56467761D01*
X69852143Y-57229666D02*
X69899762Y-57277285D01*
X69947381Y-57420142D01*
X69947381Y-57515380D01*
X69899762Y-57658238D01*
X69804524Y-57753476D01*
X69709286Y-57801095D01*
X69518810Y-57848714D01*
X69375952Y-57848714D01*
X69185476Y-57801095D01*
X69090238Y-57753476D01*
X68995000Y-57658238D01*
X68947381Y-57515380D01*
X68947381Y-57420142D01*
X68995000Y-57277285D01*
X69042619Y-57229666D01*
X69947381Y-56753476D02*
X69947381Y-56563000D01*
X69899762Y-56467761D01*
X69852143Y-56420142D01*
X69709286Y-56324904D01*
X69518810Y-56277285D01*
X69137857Y-56277285D01*
X69042619Y-56324904D01*
X68995000Y-56372523D01*
X68947381Y-56467761D01*
X68947381Y-56658238D01*
X68995000Y-56753476D01*
X69042619Y-56801095D01*
X69137857Y-56848714D01*
X69375952Y-56848714D01*
X69471190Y-56801095D01*
X69518810Y-56753476D01*
X69566429Y-56658238D01*
X69566429Y-56467761D01*
X69518810Y-56372523D01*
X69471190Y-56324904D01*
X69375952Y-56277285D01*
X43418167Y-65829381D02*
X43418167Y-66543667D01*
X43370547Y-66686524D01*
X43275309Y-66781762D01*
X43132452Y-66829381D01*
X43037214Y-66829381D01*
X44418167Y-66829381D02*
X43846738Y-66829381D01*
X44132452Y-66829381D02*
X44132452Y-65829381D01*
X44037214Y-65972238D01*
X43941976Y-66067476D01*
X43846738Y-66115095D01*
X40365667Y-45080381D02*
X40365667Y-45794667D01*
X40318047Y-45937524D01*
X40222809Y-46032762D01*
X40079952Y-46080381D01*
X39984714Y-46080381D01*
X40794238Y-45175619D02*
X40841857Y-45128000D01*
X40937095Y-45080381D01*
X41175191Y-45080381D01*
X41270429Y-45128000D01*
X41318048Y-45175619D01*
X41365667Y-45270857D01*
X41365667Y-45366095D01*
X41318048Y-45508952D01*
X40746619Y-46080381D01*
X41365667Y-46080381D01*
X89455667Y-102068381D02*
X89455667Y-102782667D01*
X89408047Y-102925524D01*
X89312809Y-103020762D01*
X89169952Y-103068381D01*
X89074714Y-103068381D01*
X89836619Y-102068381D02*
X90455667Y-102068381D01*
X90122333Y-102449333D01*
X90265191Y-102449333D01*
X90360429Y-102496952D01*
X90408048Y-102544571D01*
X90455667Y-102639810D01*
X90455667Y-102877905D01*
X90408048Y-102973143D01*
X90360429Y-103020762D01*
X90265191Y-103068381D01*
X89979476Y-103068381D01*
X89884238Y-103020762D01*
X89836619Y-102973143D01*
X136445667Y-100754381D02*
X136445667Y-101468667D01*
X136398047Y-101611524D01*
X136302809Y-101706762D01*
X136159952Y-101754381D01*
X136064714Y-101754381D01*
X137350429Y-101087714D02*
X137350429Y-101754381D01*
X137112333Y-100706762D02*
X136874238Y-101421048D01*
X137493286Y-101421048D01*
X127619167Y-100754381D02*
X127619167Y-101468667D01*
X127571547Y-101611524D01*
X127476309Y-101706762D01*
X127333452Y-101754381D01*
X127238214Y-101754381D01*
X128571548Y-100754381D02*
X128095357Y-100754381D01*
X128047738Y-101230571D01*
X128095357Y-101182952D01*
X128190595Y-101135333D01*
X128428691Y-101135333D01*
X128523929Y-101182952D01*
X128571548Y-101230571D01*
X128619167Y-101325810D01*
X128619167Y-101563905D01*
X128571548Y-101659143D01*
X128523929Y-101706762D01*
X128428691Y-101754381D01*
X128190595Y-101754381D01*
X128095357Y-101706762D01*
X128047738Y-101659143D01*
X119046667Y-100754381D02*
X119046667Y-101468667D01*
X118999047Y-101611524D01*
X118903809Y-101706762D01*
X118760952Y-101754381D01*
X118665714Y-101754381D01*
X119951429Y-100754381D02*
X119760952Y-100754381D01*
X119665714Y-100802000D01*
X119618095Y-100849619D01*
X119522857Y-100992476D01*
X119475238Y-101182952D01*
X119475238Y-101563905D01*
X119522857Y-101659143D01*
X119570476Y-101706762D01*
X119665714Y-101754381D01*
X119856191Y-101754381D01*
X119951429Y-101706762D01*
X119999048Y-101659143D01*
X120046667Y-101563905D01*
X120046667Y-101325810D01*
X119999048Y-101230571D01*
X119951429Y-101182952D01*
X119856191Y-101135333D01*
X119665714Y-101135333D01*
X119570476Y-101182952D01*
X119522857Y-101230571D01*
X119475238Y-101325810D01*
X101901667Y-100754381D02*
X101901667Y-101468667D01*
X101854047Y-101611524D01*
X101758809Y-101706762D01*
X101615952Y-101754381D01*
X101520714Y-101754381D01*
X102282619Y-100754381D02*
X102949286Y-100754381D01*
X102520714Y-101754381D01*
X110537667Y-100754381D02*
X110537667Y-101468667D01*
X110490047Y-101611524D01*
X110394809Y-101706762D01*
X110251952Y-101754381D01*
X110156714Y-101754381D01*
X111156714Y-101182952D02*
X111061476Y-101135333D01*
X111013857Y-101087714D01*
X110966238Y-100992476D01*
X110966238Y-100944857D01*
X111013857Y-100849619D01*
X111061476Y-100802000D01*
X111156714Y-100754381D01*
X111347191Y-100754381D01*
X111442429Y-100802000D01*
X111490048Y-100849619D01*
X111537667Y-100944857D01*
X111537667Y-100992476D01*
X111490048Y-101087714D01*
X111442429Y-101135333D01*
X111347191Y-101182952D01*
X111156714Y-101182952D01*
X111061476Y-101230571D01*
X111013857Y-101278190D01*
X110966238Y-101373429D01*
X110966238Y-101563905D01*
X111013857Y-101659143D01*
X111061476Y-101706762D01*
X111156714Y-101754381D01*
X111347191Y-101754381D01*
X111442429Y-101706762D01*
X111490048Y-101659143D01*
X111537667Y-101563905D01*
X111537667Y-101373429D01*
X111490048Y-101278190D01*
X111442429Y-101230571D01*
X111347191Y-101182952D01*
X48926762Y-97706619D02*
X48831524Y-97659000D01*
X48736286Y-97563762D01*
X48593429Y-97420905D01*
X48498190Y-97373286D01*
X48402952Y-97373286D01*
X48450571Y-97611381D02*
X48355333Y-97563762D01*
X48260095Y-97468524D01*
X48212476Y-97278048D01*
X48212476Y-96944714D01*
X48260095Y-96754238D01*
X48355333Y-96659000D01*
X48450571Y-96611381D01*
X48641048Y-96611381D01*
X48736286Y-96659000D01*
X48831524Y-96754238D01*
X48879143Y-96944714D01*
X48879143Y-97278048D01*
X48831524Y-97468524D01*
X48736286Y-97563762D01*
X48641048Y-97611381D01*
X48450571Y-97611381D01*
X49831524Y-97611381D02*
X49260095Y-97611381D01*
X49545809Y-97611381D02*
X49545809Y-96611381D01*
X49450571Y-96754238D01*
X49355333Y-96849476D01*
X49260095Y-96897095D01*
X55403762Y-91094619D02*
X55308524Y-91047000D01*
X55213286Y-90951762D01*
X55070429Y-90808905D01*
X54975190Y-90761286D01*
X54879952Y-90761286D01*
X54927571Y-90999381D02*
X54832333Y-90951762D01*
X54737095Y-90856524D01*
X54689476Y-90666048D01*
X54689476Y-90332714D01*
X54737095Y-90142238D01*
X54832333Y-90047000D01*
X54927571Y-89999381D01*
X55118048Y-89999381D01*
X55213286Y-90047000D01*
X55308524Y-90142238D01*
X55356143Y-90332714D01*
X55356143Y-90666048D01*
X55308524Y-90856524D01*
X55213286Y-90951762D01*
X55118048Y-90999381D01*
X54927571Y-90999381D01*
X55737095Y-90094619D02*
X55784714Y-90047000D01*
X55879952Y-89999381D01*
X56118048Y-89999381D01*
X56213286Y-90047000D01*
X56260905Y-90094619D01*
X56308524Y-90189857D01*
X56308524Y-90285095D01*
X56260905Y-90427952D01*
X55689476Y-90999381D01*
X56308524Y-90999381D01*
X108628619Y-91344738D02*
X108581000Y-91439976D01*
X108485762Y-91535214D01*
X108342905Y-91678071D01*
X108295286Y-91773310D01*
X108295286Y-91868548D01*
X108533381Y-91820929D02*
X108485762Y-91916167D01*
X108390524Y-92011405D01*
X108200048Y-92059024D01*
X107866714Y-92059024D01*
X107676238Y-92011405D01*
X107581000Y-91916167D01*
X107533381Y-91820929D01*
X107533381Y-91630452D01*
X107581000Y-91535214D01*
X107676238Y-91439976D01*
X107866714Y-91392357D01*
X108200048Y-91392357D01*
X108390524Y-91439976D01*
X108485762Y-91535214D01*
X108533381Y-91630452D01*
X108533381Y-91820929D01*
X107533381Y-91059024D02*
X107533381Y-90439976D01*
X107914333Y-90773310D01*
X107914333Y-90630452D01*
X107961952Y-90535214D01*
X108009571Y-90487595D01*
X108104810Y-90439976D01*
X108342905Y-90439976D01*
X108438143Y-90487595D01*
X108485762Y-90535214D01*
X108533381Y-90630452D01*
X108533381Y-90916167D01*
X108485762Y-91011405D01*
X108438143Y-91059024D01*
X47164381Y-85066166D02*
X46688190Y-85399500D01*
X47164381Y-85637595D02*
X46164381Y-85637595D01*
X46164381Y-85256642D01*
X46212000Y-85161404D01*
X46259619Y-85113785D01*
X46354857Y-85066166D01*
X46497714Y-85066166D01*
X46592952Y-85113785D01*
X46640571Y-85161404D01*
X46688190Y-85256642D01*
X46688190Y-85637595D01*
X47164381Y-84113785D02*
X47164381Y-84685214D01*
X47164381Y-84399500D02*
X46164381Y-84399500D01*
X46307238Y-84494738D01*
X46402476Y-84589976D01*
X46450095Y-84685214D01*
X52053881Y-85066166D02*
X51577690Y-85399500D01*
X52053881Y-85637595D02*
X51053881Y-85637595D01*
X51053881Y-85256642D01*
X51101500Y-85161404D01*
X51149119Y-85113785D01*
X51244357Y-85066166D01*
X51387214Y-85066166D01*
X51482452Y-85113785D01*
X51530071Y-85161404D01*
X51577690Y-85256642D01*
X51577690Y-85637595D01*
X51149119Y-84685214D02*
X51101500Y-84637595D01*
X51053881Y-84542357D01*
X51053881Y-84304261D01*
X51101500Y-84209023D01*
X51149119Y-84161404D01*
X51244357Y-84113785D01*
X51339595Y-84113785D01*
X51482452Y-84161404D01*
X52053881Y-84732833D01*
X52053881Y-84113785D01*
X60420381Y-56364166D02*
X59944190Y-56697500D01*
X60420381Y-56935595D02*
X59420381Y-56935595D01*
X59420381Y-56554642D01*
X59468000Y-56459404D01*
X59515619Y-56411785D01*
X59610857Y-56364166D01*
X59753714Y-56364166D01*
X59848952Y-56411785D01*
X59896571Y-56459404D01*
X59944190Y-56554642D01*
X59944190Y-56935595D01*
X59420381Y-56030833D02*
X59420381Y-55411785D01*
X59801333Y-55745119D01*
X59801333Y-55602261D01*
X59848952Y-55507023D01*
X59896571Y-55459404D01*
X59991810Y-55411785D01*
X60229905Y-55411785D01*
X60325143Y-55459404D01*
X60372762Y-55507023D01*
X60420381Y-55602261D01*
X60420381Y-55887976D01*
X60372762Y-55983214D01*
X60325143Y-56030833D01*
X108672334Y-54784381D02*
X108339000Y-54308190D01*
X108100905Y-54784381D02*
X108100905Y-53784381D01*
X108481858Y-53784381D01*
X108577096Y-53832000D01*
X108624715Y-53879619D01*
X108672334Y-53974857D01*
X108672334Y-54117714D01*
X108624715Y-54212952D01*
X108577096Y-54260571D01*
X108481858Y-54308190D01*
X108100905Y-54308190D01*
X109529477Y-54117714D02*
X109529477Y-54784381D01*
X109291381Y-53736762D02*
X109053286Y-54451048D01*
X109672334Y-54451048D01*
X89495334Y-94011881D02*
X89162000Y-93535690D01*
X88923905Y-94011881D02*
X88923905Y-93011881D01*
X89304858Y-93011881D01*
X89400096Y-93059500D01*
X89447715Y-93107119D01*
X89495334Y-93202357D01*
X89495334Y-93345214D01*
X89447715Y-93440452D01*
X89400096Y-93488071D01*
X89304858Y-93535690D01*
X88923905Y-93535690D01*
X90400096Y-93011881D02*
X89923905Y-93011881D01*
X89876286Y-93488071D01*
X89923905Y-93440452D01*
X90019143Y-93392833D01*
X90257239Y-93392833D01*
X90352477Y-93440452D01*
X90400096Y-93488071D01*
X90447715Y-93583310D01*
X90447715Y-93821405D01*
X90400096Y-93916643D01*
X90352477Y-93964262D01*
X90257239Y-94011881D01*
X90019143Y-94011881D01*
X89923905Y-93964262D01*
X89876286Y-93916643D01*
X43489762Y-105271333D02*
X43537381Y-105128476D01*
X43537381Y-104890380D01*
X43489762Y-104795142D01*
X43442143Y-104747523D01*
X43346905Y-104699904D01*
X43251667Y-104699904D01*
X43156429Y-104747523D01*
X43108810Y-104795142D01*
X43061190Y-104890380D01*
X43013571Y-105080857D01*
X42965952Y-105176095D01*
X42918333Y-105223714D01*
X42823095Y-105271333D01*
X42727857Y-105271333D01*
X42632619Y-105223714D01*
X42585000Y-105176095D01*
X42537381Y-105080857D01*
X42537381Y-104842761D01*
X42585000Y-104699904D01*
X42537381Y-104366571D02*
X43537381Y-104128476D01*
X42823095Y-103937999D01*
X43537381Y-103747523D01*
X42537381Y-103509428D01*
X43537381Y-102604666D02*
X43537381Y-103176095D01*
X43537381Y-102890381D02*
X42537381Y-102890381D01*
X42680238Y-102985619D01*
X42775476Y-103080857D01*
X42823095Y-103176095D01*
X60570762Y-105167333D02*
X60618381Y-105024476D01*
X60618381Y-104786380D01*
X60570762Y-104691142D01*
X60523143Y-104643523D01*
X60427905Y-104595904D01*
X60332667Y-104595904D01*
X60237429Y-104643523D01*
X60189810Y-104691142D01*
X60142190Y-104786380D01*
X60094571Y-104976857D01*
X60046952Y-105072095D01*
X59999333Y-105119714D01*
X59904095Y-105167333D01*
X59808857Y-105167333D01*
X59713619Y-105119714D01*
X59666000Y-105072095D01*
X59618381Y-104976857D01*
X59618381Y-104738761D01*
X59666000Y-104595904D01*
X59618381Y-104262571D02*
X60618381Y-104024476D01*
X59904095Y-103833999D01*
X60618381Y-103643523D01*
X59618381Y-103405428D01*
X59713619Y-103072095D02*
X59666000Y-103024476D01*
X59618381Y-102929238D01*
X59618381Y-102691142D01*
X59666000Y-102595904D01*
X59713619Y-102548285D01*
X59808857Y-102500666D01*
X59904095Y-102500666D01*
X60046952Y-102548285D01*
X60618381Y-103119714D01*
X60618381Y-102500666D01*
X87872667Y-112767762D02*
X88015524Y-112815381D01*
X88253620Y-112815381D01*
X88348858Y-112767762D01*
X88396477Y-112720143D01*
X88444096Y-112624905D01*
X88444096Y-112529667D01*
X88396477Y-112434429D01*
X88348858Y-112386810D01*
X88253620Y-112339190D01*
X88063143Y-112291571D01*
X87967905Y-112243952D01*
X87920286Y-112196333D01*
X87872667Y-112101095D01*
X87872667Y-112005857D01*
X87920286Y-111910619D01*
X87967905Y-111863000D01*
X88063143Y-111815381D01*
X88301239Y-111815381D01*
X88444096Y-111863000D01*
X88777429Y-111815381D02*
X89015524Y-112815381D01*
X89206001Y-112101095D01*
X89396477Y-112815381D01*
X89634572Y-111815381D01*
X89920286Y-111815381D02*
X90539334Y-111815381D01*
X90206000Y-112196333D01*
X90348858Y-112196333D01*
X90444096Y-112243952D01*
X90491715Y-112291571D01*
X90539334Y-112386810D01*
X90539334Y-112624905D01*
X90491715Y-112720143D01*
X90444096Y-112767762D01*
X90348858Y-112815381D01*
X90063143Y-112815381D01*
X89967905Y-112767762D01*
X89920286Y-112720143D01*
X95187381Y-53593905D02*
X95996905Y-53593905D01*
X96092143Y-53546286D01*
X96139762Y-53498667D01*
X96187381Y-53403429D01*
X96187381Y-53212952D01*
X96139762Y-53117714D01*
X96092143Y-53070095D01*
X95996905Y-53022476D01*
X95187381Y-53022476D01*
X95187381Y-52641524D02*
X95187381Y-52022476D01*
X95568333Y-52355810D01*
X95568333Y-52212952D01*
X95615952Y-52117714D01*
X95663571Y-52070095D01*
X95758810Y-52022476D01*
X95996905Y-52022476D01*
X96092143Y-52070095D01*
X96139762Y-52117714D01*
X96187381Y-52212952D01*
X96187381Y-52498667D01*
X96139762Y-52593905D01*
X96092143Y-52641524D01*
X95261690Y-43196191D02*
X95737881Y-43196191D01*
X94737881Y-43529524D02*
X95261690Y-43196191D01*
X94737881Y-42862857D01*
X95737881Y-42005714D02*
X95737881Y-42577143D01*
X95737881Y-42291429D02*
X94737881Y-42291429D01*
X94880738Y-42386667D01*
X94975976Y-42481905D01*
X95023595Y-42577143D01*
X65405286Y-100210881D02*
X65405286Y-99210881D01*
X65738620Y-99925167D01*
X66071953Y-99210881D01*
X66071953Y-100210881D01*
X66738619Y-99210881D02*
X66929096Y-99210881D01*
X67024334Y-99258500D01*
X67119572Y-99353738D01*
X67167191Y-99544214D01*
X67167191Y-99877548D01*
X67119572Y-100068024D01*
X67024334Y-100163262D01*
X66929096Y-100210881D01*
X66738619Y-100210881D01*
X66643381Y-100163262D01*
X66548143Y-100068024D01*
X66500524Y-99877548D01*
X66500524Y-99544214D01*
X66548143Y-99353738D01*
X66643381Y-99258500D01*
X66738619Y-99210881D01*
X67595762Y-99210881D02*
X67595762Y-100020405D01*
X67643381Y-100115643D01*
X67691000Y-100163262D01*
X67786238Y-100210881D01*
X67976715Y-100210881D01*
X68071953Y-100163262D01*
X68119572Y-100115643D01*
X68167191Y-100020405D01*
X68167191Y-99210881D01*
X68643381Y-100210881D02*
X68643381Y-99210881D01*
X69214810Y-100210881D01*
X69214810Y-99210881D01*
X69548143Y-99210881D02*
X70119572Y-99210881D01*
X69833857Y-100210881D02*
X69833857Y-99210881D01*
M02*
