G04 #@! TF.FileFunction,Other,Fab,Bot*
%FSLAX46Y46*%
G04 Gerber Fmt 4.6, Leading zero omitted, Abs format (unit mm)*
G04 Created by KiCad (PCBNEW 4.0.7) date Thu Feb 22 23:31:33 2018*
%MOMM*%
%LPD*%
G01*
G04 APERTURE LIST*
%ADD10C,0.020000*%
%ADD11C,0.050000*%
%ADD12C,0.100000*%
G04 APERTURE END LIST*
D10*
D11*
X99593000Y-80311500D02*
X99093000Y-79811500D01*
X112393000Y-72961500D02*
X112493000Y-74661500D01*
X112493000Y-74661500D02*
X112793000Y-76461500D01*
X112793000Y-76461500D02*
X113093000Y-77661500D01*
X117693000Y-66411500D02*
X112393000Y-66411500D01*
X118393000Y-67111500D02*
X118393000Y-76911500D01*
X118393000Y-67111500D02*
G75*
G03X117693000Y-66411500I-700000J0D01*
G01*
X117693000Y-77611500D02*
X113093000Y-77611500D01*
X118393000Y-76911500D02*
G75*
G02X117693000Y-77611500I-700000J0D01*
G01*
X113093000Y-77611500D02*
X113093000Y-80311500D01*
X112393000Y-65611500D02*
X112393000Y-72961500D01*
X99093000Y-65611500D02*
X99093000Y-80311500D01*
X99093000Y-80311500D02*
X113093000Y-80311500D01*
X99093000Y-65611500D02*
X112393000Y-65611500D01*
D12*
X109764429Y-72761500D02*
X110193000Y-72761500D01*
X110278714Y-72732928D01*
X110335857Y-72675785D01*
X110364429Y-72590071D01*
X110364429Y-72532928D01*
X109821571Y-73018643D02*
X109793000Y-73047214D01*
X109764429Y-73104357D01*
X109764429Y-73247214D01*
X109793000Y-73304357D01*
X109821571Y-73332928D01*
X109878714Y-73361500D01*
X109935857Y-73361500D01*
X110021571Y-73332928D01*
X110364429Y-72990071D01*
X110364429Y-73361500D01*
X109364429Y-70354358D02*
X108764429Y-70354358D01*
X109193000Y-70521024D01*
X108764429Y-70687691D01*
X109364429Y-70687691D01*
X109364429Y-70925787D02*
X108964429Y-70925787D01*
X108764429Y-70925787D02*
X108793000Y-70901977D01*
X108821571Y-70925787D01*
X108793000Y-70949596D01*
X108764429Y-70925787D01*
X108821571Y-70925787D01*
X109335857Y-71378167D02*
X109364429Y-71330548D01*
X109364429Y-71235310D01*
X109335857Y-71187691D01*
X109307286Y-71163882D01*
X109250143Y-71140072D01*
X109078714Y-71140072D01*
X109021571Y-71163882D01*
X108993000Y-71187691D01*
X108964429Y-71235310D01*
X108964429Y-71330548D01*
X108993000Y-71378167D01*
X109364429Y-71592453D02*
X108964429Y-71592453D01*
X109078714Y-71592453D02*
X109021571Y-71616262D01*
X108993000Y-71640072D01*
X108964429Y-71687691D01*
X108964429Y-71735310D01*
X109364429Y-71973405D02*
X109335857Y-71925786D01*
X109307286Y-71901977D01*
X109250143Y-71878167D01*
X109078714Y-71878167D01*
X109021571Y-71901977D01*
X108993000Y-71925786D01*
X108964429Y-71973405D01*
X108964429Y-72044834D01*
X108993000Y-72092453D01*
X109021571Y-72116262D01*
X109078714Y-72140072D01*
X109250143Y-72140072D01*
X109307286Y-72116262D01*
X109335857Y-72092453D01*
X109364429Y-72044834D01*
X109364429Y-71973405D01*
X109421571Y-72235310D02*
X109421571Y-72616262D01*
X109335857Y-72711500D02*
X109364429Y-72782929D01*
X109364429Y-72901976D01*
X109335857Y-72949595D01*
X109307286Y-72973405D01*
X109250143Y-72997214D01*
X109193000Y-72997214D01*
X109135857Y-72973405D01*
X109107286Y-72949595D01*
X109078714Y-72901976D01*
X109050143Y-72806738D01*
X109021571Y-72759119D01*
X108993000Y-72735310D01*
X108935857Y-72711500D01*
X108878714Y-72711500D01*
X108821571Y-72735310D01*
X108793000Y-72759119D01*
X108764429Y-72806738D01*
X108764429Y-72925786D01*
X108793000Y-72997214D01*
X109364429Y-73211500D02*
X108764429Y-73211500D01*
X108764429Y-73330547D01*
X108793000Y-73401976D01*
X108850143Y-73449595D01*
X108907286Y-73473404D01*
X109021571Y-73497214D01*
X109107286Y-73497214D01*
X109221571Y-73473404D01*
X109278714Y-73449595D01*
X109335857Y-73401976D01*
X109364429Y-73330547D01*
X109364429Y-73211500D01*
X109421571Y-73592452D02*
X109421571Y-73973404D01*
X109307286Y-74378166D02*
X109335857Y-74354356D01*
X109364429Y-74282928D01*
X109364429Y-74235309D01*
X109335857Y-74163880D01*
X109278714Y-74116261D01*
X109221571Y-74092452D01*
X109107286Y-74068642D01*
X109021571Y-74068642D01*
X108907286Y-74092452D01*
X108850143Y-74116261D01*
X108793000Y-74163880D01*
X108764429Y-74235309D01*
X108764429Y-74282928D01*
X108793000Y-74354356D01*
X108821571Y-74378166D01*
X109364429Y-74806737D02*
X109050143Y-74806737D01*
X108993000Y-74782928D01*
X108964429Y-74735309D01*
X108964429Y-74640071D01*
X108993000Y-74592452D01*
X109335857Y-74806737D02*
X109364429Y-74759118D01*
X109364429Y-74640071D01*
X109335857Y-74592452D01*
X109278714Y-74568642D01*
X109221571Y-74568642D01*
X109164429Y-74592452D01*
X109135857Y-74640071D01*
X109135857Y-74759118D01*
X109107286Y-74806737D01*
X109364429Y-75044833D02*
X108964429Y-75044833D01*
X109078714Y-75044833D02*
X109021571Y-75068642D01*
X108993000Y-75092452D01*
X108964429Y-75140071D01*
X108964429Y-75187690D01*
X109364429Y-75568642D02*
X108764429Y-75568642D01*
X109335857Y-75568642D02*
X109364429Y-75521023D01*
X109364429Y-75425785D01*
X109335857Y-75378166D01*
X109307286Y-75354357D01*
X109250143Y-75330547D01*
X109078714Y-75330547D01*
X109021571Y-75354357D01*
X108993000Y-75378166D01*
X108964429Y-75425785D01*
X108964429Y-75521023D01*
X108993000Y-75568642D01*
M02*
