G04 #@! TF.FileFunction,Legend,Top*
%FSLAX46Y46*%
G04 Gerber Fmt 4.6, Leading zero omitted, Abs format (unit mm)*
G04 Created by KiCad (PCBNEW 4.0.7) date Thu Feb 22 23:31:33 2018*
%MOMM*%
%LPD*%
G01*
G04 APERTURE LIST*
%ADD10C,0.020000*%
%ADD11C,0.120000*%
%ADD12C,0.150000*%
G04 APERTURE END LIST*
D10*
D11*
X82680500Y-80514500D02*
X85340500Y-80514500D01*
X82680500Y-67754500D02*
X82680500Y-80514500D01*
X85340500Y-67754500D02*
X85340500Y-80514500D01*
X82680500Y-67754500D02*
X85340500Y-67754500D01*
X82680500Y-66484500D02*
X82680500Y-65154500D01*
X82680500Y-65154500D02*
X84010500Y-65154500D01*
X90770500Y-78695000D02*
X92490500Y-78695000D01*
X92490500Y-78695000D02*
X92490500Y-74975000D01*
X92490500Y-74975000D02*
X90770500Y-74975000D01*
X90770500Y-74975000D02*
X90770500Y-78695000D01*
X91630500Y-79765000D02*
X91630500Y-78695000D01*
X91630500Y-73905000D02*
X91630500Y-74975000D01*
D12*
X83677167Y-63606881D02*
X83677167Y-64321167D01*
X83629547Y-64464024D01*
X83534309Y-64559262D01*
X83391452Y-64606881D01*
X83296214Y-64606881D01*
X84677167Y-64606881D02*
X84105738Y-64606881D01*
X84391452Y-64606881D02*
X84391452Y-63606881D01*
X84296214Y-63749738D01*
X84200976Y-63844976D01*
X84105738Y-63892595D01*
X90222881Y-77001666D02*
X89746690Y-77335000D01*
X90222881Y-77573095D02*
X89222881Y-77573095D01*
X89222881Y-77192142D01*
X89270500Y-77096904D01*
X89318119Y-77049285D01*
X89413357Y-77001666D01*
X89556214Y-77001666D01*
X89651452Y-77049285D01*
X89699071Y-77096904D01*
X89746690Y-77192142D01*
X89746690Y-77573095D01*
X90222881Y-76049285D02*
X90222881Y-76620714D01*
X90222881Y-76335000D02*
X89222881Y-76335000D01*
X89365738Y-76430238D01*
X89460976Y-76525476D01*
X89508595Y-76620714D01*
M02*
